<svg width="31" height="31" viewBox="0 0 31 31" fill="none" xmlns="http://www.w3.org/2000/svg">
<circle cx="15.9017" cy="15.5384" r="14.5987" stroke="#D7B27B" stroke-width="0.802618"/>
<g clip-path="url(#clip0_1_250)">
<path d="M15.2914 15.6168C15.4636 15.7577 15.6792 15.8348 15.9018 15.8348C16.1243 15.8348 16.3399 15.7577 16.5121 15.6168L20.7353 12.1477C20.5567 11.931 20.3326 11.7563 20.0788 11.636C19.8251 11.5157 19.5479 11.4529 19.2671 11.4518H12.5364C12.2556 11.4529 11.9784 11.5157 11.7247 11.636C11.4709 11.7563 11.2468 11.931 11.0682 12.1477L15.2914 15.6168Z" fill="#D7B27B"/>
<path d="M17.1224 16.3602C16.778 16.6418 16.3467 16.7957 15.9017 16.7957C15.4568 16.7957 15.0255 16.6418 14.681 16.3602L10.6466 13.0461C10.626 13.1546 10.6148 13.2647 10.6133 13.3751V17.702C10.6138 18.2119 10.8166 18.7007 11.1771 19.0613C11.5377 19.4218 12.0265 19.6246 12.5364 19.6251H19.2671C19.777 19.6246 20.2658 19.4218 20.6263 19.0613C20.9869 18.7007 21.1897 18.2119 21.1902 17.702V13.3751C21.1887 13.2647 21.1775 13.1546 21.1569 13.0461L17.1224 16.3602Z" fill="#D7B27B"/>
</g>
<defs>
<clipPath id="clip0_1_250">
<rect width="11.5385" height="11.5385" fill="white" transform="translate(10.1324 9.76892)"/>
</clipPath>
</defs>
</svg>
