<svg width="31" height="31" viewBox="0 0 31 31" fill="none" xmlns="http://www.w3.org/2000/svg">
<g id="tt">
<circle id="Ellipse 69" cx="15.0327" cy="15.5384" r="14.5987" stroke="#D7B27B" stroke-width="0.802618"/>
<g id="Group">
<path id="Vector" d="M20.0273 12.658C19.3768 12.658 18.7765 12.4395 18.2945 12.0709C17.7416 11.6484 17.3444 11.0286 17.2042 10.3142C17.1694 10.1377 17.1507 9.95558 17.1489 9.76892H15.2905V14.9169L15.2883 17.7367C15.2883 18.4905 14.804 19.1297 14.1327 19.3545C13.9379 19.4198 13.7275 19.4507 13.5084 19.4385C13.2288 19.4229 12.9667 19.3374 12.7389 19.1993C12.2542 18.9054 11.9256 18.3723 11.9167 17.7624C11.9027 16.8092 12.6628 16.0321 13.6024 16.0321C13.7878 16.0321 13.966 16.0628 14.1327 16.1186V14.7115V14.2057C13.9568 14.1793 13.7778 14.1655 13.5968 14.1655C12.5684 14.1655 11.6066 14.5989 10.919 15.3796C10.3994 15.9696 10.0876 16.7223 10.0396 17.5116C9.97655 18.5485 10.3508 19.5342 11.0767 20.2614C11.1833 20.3682 11.2953 20.4673 11.4124 20.5587C12.0347 21.0442 12.7955 21.3074 13.5968 21.3074C13.7778 21.3074 13.9568 21.2938 14.1327 21.2674C14.8813 21.155 15.5719 20.8077 16.117 20.2614C16.7867 19.5904 17.1567 18.6995 17.1607 17.7513L17.1512 13.5405C17.4707 13.7904 17.82 13.9971 18.1949 14.1576C18.7781 14.407 19.3964 14.5334 20.0327 14.5332V13.1652V12.6575C20.0331 12.658 20.0278 12.658 20.0273 12.658Z" fill="#D7B27B"/>
</g>
</g>
</svg>
