<svg width="31" height="31" viewBox="0 0 31 31" fill="none" xmlns="http://www.w3.org/2000/svg">
<circle cx="15.0981" cy="15.5384" r="14.5987" stroke="#D7B27B" stroke-width="0.802618"/>
<g clip-path="url(#clip0_1_273)">
<path d="M20.8931 18.6836C20.8608 18.6296 20.6613 18.1961 19.7012 17.305C18.6961 16.3719 18.8311 16.5235 20.0417 14.9101C20.779 13.9275 21.0738 13.3275 20.9816 13.0709C20.8938 12.8264 20.3515 12.8909 20.3515 12.8909L18.5484 12.9014C18.5484 12.9014 18.4149 12.8834 18.3151 12.9427C18.2184 13.0012 18.1561 13.1362 18.1561 13.1362C18.1561 13.1362 17.8703 13.8968 17.4893 14.5433C16.686 15.9077 16.3642 15.9797 16.233 15.8949C15.9277 15.6976 16.0042 15.1014 16.0042 14.6783C16.0042 13.356 16.2045 12.8047 15.6134 12.6622C15.4169 12.6149 15.2729 12.5834 14.7711 12.5782C14.1275 12.5714 13.5823 12.5804 13.274 12.7312C13.0685 12.8317 12.9102 13.0559 13.007 13.0687C13.1262 13.0845 13.3962 13.1415 13.5395 13.3365C13.7248 13.5877 13.718 14.1533 13.718 14.1533C13.718 14.1533 13.8245 15.7096 13.4697 15.9032C13.226 16.0359 12.8922 15.7651 12.1759 14.5268C11.8091 13.893 11.5316 13.1917 11.5316 13.1917C11.5316 13.1917 11.4784 13.0612 11.3831 12.9914C11.2676 12.9067 11.1056 12.8797 11.1056 12.8797L9.39095 12.8902C9.39095 12.8902 9.13368 12.8977 9.03917 13.0094C8.95516 13.1092 9.03242 13.3147 9.03242 13.3147C9.03242 13.3147 10.375 16.4552 11.8946 18.0386C13.289 19.4899 14.8716 19.3947 14.8716 19.3947H15.5887C15.5887 19.3947 15.8054 19.3707 15.9157 19.2514C16.0177 19.1419 16.0139 18.9364 16.0139 18.9364C16.0139 18.9364 15.9997 17.9741 16.4467 17.8323C16.887 17.6928 17.4525 18.7624 18.0518 19.1742C18.5049 19.4854 18.8491 19.4172 18.8491 19.4172L20.452 19.3947C20.452 19.3947 21.2906 19.3429 20.8931 18.6836Z" fill="#D7B27B"/>
</g>
<defs>
<clipPath id="clip0_1_273">
<rect width="12" height="12" fill="white" transform="translate(9 10.0001)"/>
</clipPath>
</defs>
</svg>
