<svg width="31" height="31" viewBox="0 0 31 31" fill="none" xmlns="http://www.w3.org/2000/svg">
<g id="wt">
<circle id="Ellipse 70" cx="15.0654" cy="15.5384" r="14.5987" stroke="#D7B27B" stroke-width="0.802618"/>
<path id="Vector" d="M15.0654 9.76892C11.8842 9.76892 9.29614 12.3568 9.29614 15.5382C9.29614 16.6574 9.61709 17.7365 10.2263 18.6737L9.32732 20.7714C9.26534 20.9156 9.29764 21.0835 9.40882 21.1947C9.48244 21.2683 9.58085 21.3074 9.68076 21.3074C9.73184 21.3074 9.78348 21.2972 9.83231 21.2762L11.93 20.377C12.867 20.9866 13.9461 21.3074 15.0654 21.3074C18.2467 21.3074 20.8346 18.7195 20.8346 15.5382C20.8346 12.3568 18.2467 9.76892 15.0654 9.76892ZM18.0266 17.6032C18.0266 17.6032 17.547 18.2184 17.2003 18.3623C16.3191 18.727 15.0751 18.3623 13.658 16.9455C12.2412 15.5284 11.8763 14.2844 12.2412 13.4032C12.3851 13.0562 13.0003 12.5769 13.0003 12.5769C13.1671 12.447 13.4263 12.4631 13.5757 12.6126L14.2717 13.3086C14.4212 13.4581 14.4212 13.703 14.2717 13.8525L13.8349 14.2889C13.8349 14.2889 13.658 14.82 14.7206 15.883C15.7831 16.9455 16.3146 16.7686 16.3146 16.7686L16.7511 16.3318C16.9006 16.1823 17.1455 16.1823 17.2949 16.3318L17.9909 17.0278C18.1404 17.1773 18.1566 17.4361 18.0266 17.6032Z" fill="#D7B27B"/>
</g>
</svg>
