<svg xmlns="http://www.w3.org/2000/svg" width="82" height="23" viewBox="0 0 82 23" fill="none">
  <g clip-path="url(#clip0_1_2298)">
    <path fill-rule="evenodd" clip-rule="evenodd" d="M11.4616 22.7979C17.5539 22.7979 22.5385 17.8699 22.5385 11.7979C22.5385 5.72585 17.5539 0.797852 11.4616 0.797852C5.3471 0.797852 0.384644 5.72585 0.384644 11.7979C0.384644 17.8699 5.3471 22.7979 11.4616 22.7979Z" fill="#299400"/>
    <path fill-rule="evenodd" clip-rule="evenodd" d="M11.4605 4.23535C15.2682 4.23535 17.8529 7.14577 17.8529 10.2854C17.8529 11.5458 17.5759 12.6458 16.9298 14.0208C13.1452 14.0208 12.4529 16.5187 12.2913 18.1916L12.1759 19.3604H10.7452L10.6298 18.1916C10.4682 16.5187 9.77593 14.0208 5.99131 14.0208C5.34516 12.6458 5.06824 11.5458 5.06824 10.2854C5.06824 7.14577 7.65285 4.23535 11.4605 4.23535Z" fill="white"/>
    <path fill-rule="evenodd" clip-rule="evenodd" d="M32.5094 4.23535C28.9094 4.23535 26.2094 6.41244 26.2324 10.1937H29.5786C29.5324 8.68119 30.5017 7.21452 32.5094 7.21452C34.0324 7.21452 35.0017 8.22285 35.0017 9.50619C35.0017 10.8354 33.9401 11.5687 32.2324 12.3937C29.994 13.4708 28.6555 13.9749 26.2324 14.777V19.1312H38.2324V16.152H30.7555C31.9121 15.6735 33.0383 15.1474 34.0555 14.6624C36.7555 13.3791 38.3478 11.9354 38.3478 9.34577C38.3478 6.2291 35.994 4.23535 32.5094 4.23535ZM43.5401 7.44369H50.4632V4.46452H40.3094V19.1312H43.5401V7.44369ZM55.3094 4.46452H52.0786V19.1312H55.2863L61.3094 9.75827V19.1312H64.5401V4.46452H61.3094L55.3094 13.8374V4.46452ZM80.7632 13.6312H77.4171C76.9094 15.2583 75.3632 16.3812 73.5401 16.3812C70.8863 16.3812 69.1555 14.1124 69.1555 11.7979C69.1555 9.48327 70.8401 7.21452 73.6324 7.21452C75.4786 7.21452 76.9094 8.33743 77.4171 9.96452H80.7632C80.2786 6.68743 77.6709 4.23535 73.5401 4.23535C68.9709 4.23535 65.9248 7.42077 65.9248 11.7979C65.9248 16.1749 68.9709 19.3604 73.5401 19.3604C77.6709 19.3604 80.2786 16.9541 80.7632 13.6312Z" fill="#262626"/>
  </g>
  <defs>
    <clipPath id="clip0_1_2298">
      <rect width="81.2308" height="22" fill="white" transform="translate(0.384644 0.797852)"/>
    </clipPath>
  </defs>
</svg>