<svg width="105" height="13" viewBox="0 0 105 13" fill="none" xmlns="http://www.w3.org/2000/svg">
<path d="M0.474274 12.6954V0.900304H5.15909C6.34756 0.91109 7.24031 1.20233 7.83733 1.77402C8.43983 2.3511 8.74108 3.11425 8.74108 4.06347C8.7522 4.54887 8.63333 5.01269 8.38456 5.45495C8.25745 5.66528 8.07498 5.86483 7.83733 6.0536C7.59961 6.25314 7.30664 6.43382 6.95839 6.59561V6.628C7.6162 6.79517 8.1137 7.13225 8.45087 7.63924C8.76596 8.16238 8.92355 8.73133 8.92355 9.34618C8.91251 10.3655 8.5863 11.1718 7.94508 11.7651C7.30941 12.3854 6.51616 12.6954 5.56538 12.6954H0.474274ZM5.12592 7.46121H2.30674V11.0047H5.12592C5.80584 10.9939 6.30334 10.8132 6.61843 10.4626C6.93352 10.1174 7.09106 9.70753 7.09106 9.23293C7.09106 8.74757 6.93352 8.33229 6.61843 7.98709C6.30334 7.64727 5.80584 7.47206 5.12592 7.46121ZM4.95179 2.49402H2.30674V5.86753H4.95179C5.62066 5.86753 6.11264 5.69764 6.42772 5.35786C6.74834 5.04505 6.90864 4.65134 6.90864 4.17673C6.90864 3.70212 6.74834 3.30032 6.42772 2.97133C6.11264 2.66391 5.62066 2.50481 4.95179 2.49402ZM10.8389 12.6954V0.900304H18.5585V2.5911H12.6713V5.95651H17.6962V7.54215H12.6713V11.0047H18.5585V12.6954H10.8389ZM20.4407 9.83163C21.4025 10.6029 22.5468 10.9939 23.8735 11.0047C25.4434 10.983 26.2394 10.4356 26.2615 9.36241C26.2725 8.48331 25.7474 7.9547 24.6861 7.77675C24.1996 7.71206 23.6662 7.63924 23.0858 7.5583C22.0465 7.39113 21.2561 7.01627 20.7143 6.43382C20.156 5.83517 19.8769 5.10707 19.8769 4.24954C19.8769 3.21942 20.2279 2.38885 20.9299 1.75784C21.6099 1.13222 22.5745 0.814009 23.8237 0.803223C25.3273 0.83558 26.6347 1.24278 27.7457 2.0248L26.7259 3.49717C25.8193 2.9147 24.8215 2.61268 23.7325 2.5911C23.1687 2.5911 22.6988 2.72863 22.3229 3.00369C21.9305 3.28953 21.7287 3.71561 21.7176 4.2819C21.7176 4.62168 21.853 4.92909 22.124 5.20415C22.3948 5.4846 22.8287 5.67876 23.4258 5.78663C23.7574 5.84056 24.2107 5.90258 24.7856 5.9727C25.9188 6.12375 26.7563 6.52014 27.298 7.16191C27.8342 7.79291 28.1023 8.52638 28.1023 9.36241C28.0415 11.6168 26.6263 12.7601 23.8569 12.7925C22.0659 12.7925 20.5264 12.2532 19.2384 11.1746L20.4407 9.83163ZM32.0905 12.6954V2.49402H28.7822V0.900304H37.2397V2.49402H33.9313V12.6954H32.0905Z" fill="#1F1E1C"/>
<path d="M49.8649 9.39472H51.8051C51.5398 10.4895 51.034 11.331 50.2877 11.9188C49.5194 12.5013 48.61 12.7925 47.5597 12.7925C46.6089 12.7709 45.8157 12.5444 45.18 12.113C44.5333 11.6977 44.0634 11.2176 43.7704 10.673C43.682 10.495 43.6019 10.3251 43.53 10.1633C43.4636 9.99607 43.4084 9.78573 43.3641 9.53224C43.2813 9.05764 43.2397 8.14623 43.2397 6.79791C43.2397 5.42797 43.2813 4.51111 43.3641 4.04729C43.4526 3.58347 43.588 3.20864 43.7704 2.92278C44.0634 2.37806 44.5333 1.89267 45.18 1.4666C45.8157 1.03514 46.6089 0.814009 47.5597 0.803223C48.7261 0.814009 49.6769 1.15109 50.4121 1.81446C51.1473 2.48324 51.6117 3.31111 51.8051 4.29808H49.8649C49.7156 3.82347 49.4448 3.41897 49.0522 3.08459C48.6432 2.76638 48.1457 2.60189 47.5597 2.5911C47.1286 2.60189 46.7582 2.68549 46.4486 2.84189C46.1336 3.00369 45.8793 3.20594 45.6858 3.44863C45.4481 3.70212 45.2906 4.02841 45.2132 4.42752C45.1248 4.84819 45.0805 5.63831 45.0805 6.79791C45.0805 7.95743 45.1248 8.74218 45.2132 9.15208C45.2906 9.5619 45.4481 9.89359 45.6858 10.1471C45.8793 10.3898 46.1336 10.5866 46.4486 10.7377C46.7582 10.9157 47.1286 11.0047 47.5597 11.0047C48.588 11.0047 49.3563 10.468 49.8649 9.39472ZM59.7237 12.6954V7.54215H54.9394V12.6954H53.1069V0.900304H54.9394V5.95651H59.7237V0.900304H61.5562V12.6954H59.7237ZM66.2576 8.47245H69.7899L68.0403 3.3192H68.0071L66.2576 8.47245ZM71.2492 12.6954L70.3122 10.0581H65.7269L64.7982 12.6954H62.858L67.2526 0.900304H68.7865L73.1811 12.6954H71.2492ZM74.4829 12.6954V0.900304H76.2077L81.6802 9.28148H81.7133V0.900304H83.5458V12.6954H81.8128L76.3486 4.31426H76.3154V12.6954H74.4829ZM90.0299 7.89V6.19921H94.3253V8.60193C94.3032 9.78308 93.8881 10.7727 93.0814 11.571C92.2689 12.3637 91.2457 12.7709 90.0137 12.7925C89.0628 12.7709 88.2689 12.5444 87.6338 12.113C86.9868 11.6977 86.5173 11.2176 86.2243 10.673C86.1352 10.495 86.0554 10.3251 85.9832 10.1633C85.917 9.99607 85.8618 9.78573 85.8176 9.53224C85.7344 9.05764 85.6937 8.14623 85.6937 6.79791C85.6937 5.42797 85.7344 4.51111 85.8176 4.04729C85.9059 3.58347 86.0418 3.20864 86.2243 2.92278C86.5173 2.37806 86.9868 1.89267 87.6338 1.4666C88.2689 1.03514 89.0628 0.814009 90.0137 0.803223C91.1795 0.814009 92.1305 1.15109 92.8658 1.81446C93.6011 2.48324 94.0655 3.31111 94.2591 4.29808H92.3181C92.1695 3.82347 91.8987 3.41897 91.5056 3.08459C91.0972 2.76638 90.5996 2.60189 90.0137 2.5911C89.5824 2.60189 89.2122 2.68549 88.9023 2.84189C88.5873 3.00369 88.3326 3.20594 88.139 3.44863C87.9021 3.70212 87.7442 4.02841 87.6669 4.42752C87.5786 4.84819 87.5344 5.63831 87.5344 6.79791C87.5344 7.95743 87.5786 8.74218 87.6669 9.15208C87.7442 9.5619 87.9021 9.89359 88.139 10.1471C88.3326 10.3898 88.5873 10.5866 88.9023 10.7377C89.2122 10.9157 89.5824 11.0047 90.0137 11.0047C90.7261 11.0047 91.3154 10.7673 91.7798 10.2927C92.2434 9.83966 92.4811 9.2437 92.4922 8.50484V7.89H90.0299ZM96.4726 12.6954V0.900304H104.192V2.5911H98.3049V5.95651H103.33V7.54215H98.3049V11.0047H104.192V12.6954H96.4726Z" fill="#9F9F9E"/>
</svg>
