<svg xmlns="http://www.w3.org/2000/svg" width="185" height="187" viewBox="0 0 185 187" fill="none">
  <g clip-path="url(#clip0_1_1455)">
    <path d="M146.723 100.9L140.377 128.653L140.301 128.997C151.4 139.216 161.302 142.42 168.755 142.393C168.772 142.393 168.781 142.393 168.799 142.393C175.944 142.366 180.826 139.345 182.339 136.695C185.427 131.272 184.561 116.765 178.461 109.067C174.569 104.158 169.437 100.458 169.437 100.458L146.723 100.9Z" fill="#FD9A3F"/>
    <path d="M146.723 100.9L140.377 128.653L140.301 128.997C151.4 139.216 161.302 142.42 168.755 142.393C168.772 142.393 168.781 142.393 168.799 142.393C175.944 142.366 180.826 139.345 182.339 136.695C185.427 131.272 184.878 117.381 178.461 109.067C173.699 102.904 169.437 100.458 169.437 100.458L146.723 100.9Z" stroke="#7A3C04" stroke-width="2" stroke-linecap="round" stroke-linejoin="round"/>
    <path d="M126.088 97.3837C126.066 97.5132 126.039 97.647 126.03 97.7809C124.919 105.8 128.413 117.336 140.301 128.997C140.881 128.68 141.636 128.256 142.537 127.711C145.647 125.828 150.489 122.499 155.648 117.385C162.378 110.713 169.437 100.463 169.437 100.463C169.437 100.463 168.277 92.2161 160.543 85.0715C152.716 77.8511 144.242 79.2657 139.199 81.3408C136.316 82.5323 132.545 84.9421 129.729 88.8067C128.043 91.1183 126.699 93.9654 126.088 97.3882V97.3837Z" fill="#222222"/>
    <path d="M126.088 97.3837C126.066 97.5132 126.039 97.647 126.03 97.7809C124.919 105.8 128.413 117.336 140.301 128.997C140.881 128.68 141.636 128.256 142.537 127.711C145.647 125.828 150.489 122.499 155.648 117.385C162.378 110.713 169.437 100.463 169.437 100.463C169.437 100.463 168.277 92.2161 160.543 85.0715C152.716 77.8511 144.242 79.2657 139.199 81.3408C136.316 82.5323 132.545 84.9421 129.729 88.8067C128.043 91.1183 126.699 93.9654 126.088 97.3882V97.3837Z" stroke="black" stroke-width="2" stroke-linecap="round" stroke-linejoin="round"/>
    <path d="M182.995 118.96C182.995 118.96 178.465 121.499 173.637 124.32C173.637 124.32 179.795 117.55 181.308 113.855L182.99 118.96H182.995Z" fill="#7A3C04"/>
    <path d="M172.664 102.873C172.664 102.873 170.142 106.478 167.028 109.723C167.028 109.723 172.012 107.059 175.966 106.028L172.664 102.873Z" fill="#7A3C04"/>
    <path d="M39.0455 100.731L46.1945 128.287L46.2793 128.626C35.4843 139.162 25.6801 142.657 18.2276 142.848C18.2097 142.848 18.2008 142.848 18.183 142.848C11.0428 143.031 6.076 140.153 4.48286 137.547C1.23857 132.214 1.68036 117.688 7.55757 109.816C11.3061 104.796 16.3265 100.949 16.3265 100.949L39.0455 100.731Z" fill="#FD9A3F"/>
    <path d="M39.0455 100.731L46.1945 128.287L46.2793 128.626C35.4844 139.162 25.6801 142.657 18.2276 142.848C18.2097 142.848 18.2008 142.848 18.183 142.848C11.0429 143.031 6.07601 140.153 4.48287 137.547C1.23858 132.214 1.38139 118.313 7.55759 109.816C12.1362 103.515 16.3265 100.949 16.3265 100.949L39.0455 100.731Z" stroke="#7A3C04" stroke-width="2" stroke-linecap="round" stroke-linejoin="round"/>
    <path d="M59.5644 96.6117C59.5912 96.7411 59.618 96.8706 59.6358 97.0089C60.979 104.992 57.824 116.626 46.2793 128.626C45.6903 128.327 44.9227 127.926 44.0079 127.403C40.8439 125.61 35.9083 122.428 30.6023 117.461C23.6809 110.986 16.3265 100.949 16.3265 100.949C16.3265 100.949 17.2458 92.6713 24.7697 85.308C32.3873 77.86 40.893 79.0292 45.9937 80.957C48.9078 82.0637 52.7456 84.362 55.6775 88.1418C57.4313 90.3998 58.8593 93.2068 59.5689 96.6117H59.5644Z" fill="#222222"/>
    <path d="M59.5644 96.6117C59.5912 96.7411 59.618 96.8706 59.6358 97.0089C60.979 104.992 57.824 116.626 46.2793 128.626C45.6903 128.327 44.9227 127.926 44.0079 127.403C40.8439 125.61 35.9083 122.428 30.6023 117.461C23.6809 110.986 16.3265 100.949 16.3265 100.949C16.3265 100.949 17.2458 92.6713 24.7697 85.308C32.3873 77.86 40.893 79.0292 45.9937 80.957C48.9078 82.0637 52.7456 84.362 55.6775 88.1418C57.4313 90.3998 58.8593 93.2068 59.5689 96.6117H59.5644Z" stroke="black" stroke-width="2" stroke-linecap="round" stroke-linejoin="round"/>
    <path d="M3.31372 119.839C3.31372 119.839 7.91463 122.245 12.8235 124.922C12.8235 124.922 6.47322 118.331 4.84885 114.685L3.31372 119.839Z" fill="#7A3C04"/>
    <path d="M13.176 103.457C13.176 103.457 15.8 106.987 19.0086 110.138C19.0086 110.138 13.948 107.621 9.96741 106.706L13.176 103.457Z" fill="#7A3C04"/>
    <path d="M124.303 89.4716C124.303 89.4716 116.221 110.133 94.7205 110.133C89.9902 110.133 85.8801 109.094 82.3458 107.474H82.3413C69.8104 101.717 64.5267 88.646 64.5267 88.646L66.1109 69.2205L122.674 68.8144L122.991 72.786L124.303 89.4716Z" fill="#F47F2D"/>
    <path d="M124.303 89.4716C124.303 89.4716 116.221 110.133 94.7205 110.133C89.9902 110.133 85.8802 109.094 82.3458 107.474H82.3413C82.3413 107.474 72.363 96.3663 80.0386 87.0752C87.7053 77.7797 122.991 72.786 122.991 72.786L124.303 89.4716Z" fill="#FD9A3F"/>
    <path d="M65.4683 77.1103C65.4683 77.1103 69.7434 81.5907 80.0386 84.1656C80.0386 84.1656 70.6538 83.8666 65.2184 80.1538L65.4683 77.1103Z" fill="#7A3C04"/>
    <path d="M123.352 77.4539L123.602 80.6402C123.602 80.6402 118.573 83.0857 111.937 82.2735C111.937 82.2735 119.729 80.3591 123.352 77.4584V77.4539Z" fill="#7A3C04"/>
    <path d="M85.1796 87.4724C85.1796 87.4724 103.284 90.1321 114.378 86.4594C114.378 86.4594 108.006 90.6408 99.6071 90.5739C91.2085 90.5069 85.1796 87.4724 85.1796 87.4724Z" fill="#7A3C04"/>
    <path d="M124.303 89.4716C124.303 89.4716 116.221 110.133 94.7205 110.133C89.9902 110.133 85.8801 109.094 82.3458 107.474H82.3413C69.8104 101.717 64.5267 88.646 64.5267 88.646L66.1109 69.2205L122.674 68.8144L122.991 72.786L124.303 89.4716Z" stroke="#7A3C04" stroke-width="2" stroke-linecap="round" stroke-linejoin="round"/>
    <path d="M146.732 134.597C138.936 149.056 137.517 169.423 137.798 179.477C137.798 179.477 111.959 186.028 94.0868 186.028C74.8219 186.028 51.554 179.477 51.554 179.477C51.8039 170.592 50.7195 155.08 45.0877 140.086C44.3514 138.131 43.5348 136.293 42.6378 134.619C42.6289 134.602 42.6199 134.597 42.6199 134.597C37.6799 125.413 35.8636 109.214 42.3567 96.0182C49.2424 82.0236 64.4508 83.3623 64.4508 83.3623C64.4508 83.3623 74.4113 100.119 94.6714 100.119C111.977 100.119 124.254 82.9072 124.254 82.9072C124.254 82.9072 140.109 82.028 146.995 96.0182C153.488 109.21 151.672 125.413 146.732 134.597Z" fill="black"/>
    <path d="M146.732 134.597C146.709 134.637 146.692 134.677 146.669 134.718C145.692 135.976 136.352 146.86 112.205 140.979C112.95 141.322 131.528 149.6 144.259 140.113C138.632 155.098 137.552 170.592 137.798 179.477C137.798 179.477 114.802 186.028 94.0868 186.028C75.8259 186.028 51.554 179.477 51.554 179.477C51.8039 170.592 50.7195 155.08 45.0877 140.086C57.815 149.614 76.4284 141.318 77.1736 140.974C52.2189 147.057 43.0796 135.217 42.6378 134.619C42.6289 134.602 42.6199 134.597 42.6199 134.597C37.6799 125.413 35.8636 109.214 42.3567 96.0182C49.2424 82.0236 64.4508 83.3623 64.4508 83.3623C64.4508 83.3623 74.4113 100.119 94.6714 100.119C111.977 100.119 124.254 82.9072 124.254 82.9072C124.254 82.9072 140.109 82.028 146.995 96.0182C153.488 109.21 151.672 125.413 146.732 134.597Z" fill="#222222"/>
    <path d="M151.288 113.119C151.542 120.17 150.44 127.399 147.388 133.812C145.411 137.529 143.751 141.452 142.528 145.481C139.257 156.236 137.967 167.593 138.213 178.812C138.222 179.058 138.025 179.267 137.78 179.276C137.53 179.285 137.325 179.089 137.32 178.839C137.222 164.733 139.203 150.323 145.063 137.395C146.259 134.896 147.745 132.384 148.602 129.737C150.431 124.427 151.185 118.755 151.011 113.137C151.011 113.061 151.069 112.994 151.145 112.994C151.221 112.994 151.288 113.052 151.288 113.128V113.119Z" fill="black"/>
    <path d="M51.6432 86.2095C54.4725 84.4155 57.7837 83.4337 61.1083 83.0589C62.2284 82.9384 63.3352 82.8715 64.4954 82.9161C64.6472 82.9295 64.7676 83.0143 64.839 83.1348C68.0342 88.0391 72.5057 92.1581 77.5618 95.1034C82.6536 98.0487 88.4951 99.6329 94.3813 99.6641C103.315 99.798 111.562 95.1078 117.962 89.1726C120.117 87.1645 122.152 84.9823 123.901 82.6483C123.977 82.5323 124.115 82.4564 124.249 82.4609C127.498 82.5278 130.698 83.1035 133.741 84.2102C134.754 84.5672 135.723 85.0403 136.669 85.5356C136.727 85.5669 136.749 85.6338 136.718 85.6918C136.686 85.7498 136.62 85.7721 136.562 85.7409C134.652 84.835 132.621 84.2058 130.541 83.8354C128.489 83.4605 126.351 83.2776 124.276 83.3534L124.624 83.166C119.131 90.2704 111.906 96.3306 103.297 99.1822C96.0994 101.534 88.1069 100.735 81.1676 97.8836C74.2328 94.9338 68.2083 89.9 64.0759 83.5944L64.4196 83.8131C62.2775 83.6256 60.0418 83.7774 57.9176 84.1701C55.7666 84.5762 53.6603 85.2813 51.7325 86.3567C51.6477 86.4103 51.5584 86.2675 51.6477 86.2139L51.6432 86.2095Z" fill="black"/>
    <path d="M51.1256 178.808C51.4424 166.536 49.6083 154.179 45.6991 142.536C44.7887 139.867 43.7802 137.185 42.4414 134.695C40.6832 131.339 39.5631 127.694 38.8669 123.994C38.1797 120.29 37.9342 116.506 38.1172 112.744C38.1172 112.686 38.1663 112.646 38.2243 112.646C38.2778 112.646 38.3225 112.695 38.3225 112.753C38.1752 116.497 38.4519 120.259 39.1704 123.936C39.8754 127.609 41.1874 131.589 42.8921 134.66C43.0394 134.932 43.3205 135.485 43.4634 135.771C44.9449 138.756 46.0383 141.916 47.0691 145.08C50.5008 155.968 52.1921 167.41 52.0136 178.83C52.0092 179.076 51.8039 179.272 51.5585 179.267C51.3086 179.263 51.1122 179.053 51.1211 178.803L51.1256 178.808Z" fill="black"/>
    <path d="M77.3878 132.781C77.4324 132.781 77.4726 132.781 77.5172 132.772L89.4011 130.947C89.5349 130.924 89.6599 130.875 89.767 130.795C89.8741 130.715 89.9589 130.612 90.0169 130.492L94.9882 119.871C95.0507 119.741 95.073 119.598 95.0551 119.456C95.0373 119.313 94.9837 119.179 94.8945 119.067C94.8052 118.956 94.6848 118.867 94.5509 118.813C94.4125 118.759 94.2653 118.742 94.118 118.764L82.2342 120.589C82.1003 120.611 81.9753 120.66 81.8682 120.741C81.7611 120.821 81.6764 120.924 81.6183 121.044L76.647 131.665C76.589 131.786 76.5667 131.92 76.5756 132.049C76.5846 132.183 76.6292 132.308 76.705 132.419C76.7809 132.531 76.8791 132.62 76.9996 132.683C77.1201 132.745 77.2539 132.781 77.3878 132.781ZM83.3409 128.59L86.3353 129.818L80.4536 130.719L83.3409 128.586V128.59ZM83.8452 126.23L83.2695 122.031L91.1772 120.817L83.8452 126.23ZM82.3502 127.332L79.4629 129.465L81.9218 124.208L82.3502 127.332ZM88.8566 129.139L84.8314 127.488L92.1634 122.075L88.8566 129.139Z" fill="#D7B27B"/>
    <path d="M120.099 138.979C119.613 135.512 117.823 131.848 115.065 128.666C111.5 124.552 106.89 121.901 102.668 121.517C102.432 120.964 102.119 120.442 101.745 119.964L98.7814 116.193C97.0231 113.958 93.9975 112.9 90.2623 113.217C86.6655 113.525 82.8054 115.078 79.3915 117.599C75.9821 120.116 73.4072 123.311 72.1487 126.591C70.8412 129.996 71.0911 133.102 72.8494 135.338L74.5541 137.507C74.2149 137.957 73.9338 138.444 73.7151 138.962L71.8631 143.348C70.7653 145.95 71.3589 149.016 73.5321 151.974C75.6295 154.826 78.9676 157.263 82.9392 158.833C85.8355 159.98 88.8254 160.574 91.61 160.574C92.6141 160.574 93.6182 160.493 94.6089 160.328C98.2994 159.695 100.937 157.914 102.039 155.312L103.779 151.189C104.087 151.305 104.4 151.412 104.712 151.51C105.944 151.903 107.229 152.113 108.523 152.126C110.531 152.126 112.303 151.55 113.7 150.417L117.444 147.369C119.666 145.562 120.612 142.581 120.104 138.984L120.099 138.979ZM96.8803 144.504L99.3749 142.474C100.473 143.665 101.691 144.745 103.016 145.7L100.557 147.704C99.2142 146.771 97.9826 145.7 96.8803 144.509V144.504ZM95.8316 143.295C95.4925 142.875 95.1667 142.442 94.8632 142.005C94.8275 141.947 94.7918 141.885 94.7517 141.831H94.7427C94.1403 140.956 93.6048 140.033 93.1451 139.078C93.8458 138.658 94.5285 138.203 95.2024 137.708C95.3764 137.578 95.5505 137.449 95.72 137.315C96.4519 138.712 97.3221 140.037 98.3262 141.264L95.8316 143.295ZM93.5468 144.183C93.3817 144.571 93.0693 144.879 92.6677 145.04C92.2705 145.2 91.8198 145.205 91.4181 145.044L87.6473 143.549L88.6558 141.162C89.709 140.805 90.7354 140.372 91.7216 139.863C92.2303 140.903 92.8194 141.902 93.4843 142.857C93.5914 143.063 93.6539 143.286 93.6673 143.513C93.6762 143.741 93.636 143.969 93.5468 144.183ZM91.6903 147.36C91.8153 147.65 91.851 147.967 91.7885 148.27C91.726 148.578 91.5743 148.86 91.3467 149.083C91.1191 149.306 90.8291 149.458 90.5122 149.52C90.1954 149.582 89.8696 149.551 89.5706 149.435L85.7998 147.94L87.0359 145.017L90.8068 146.512C91.0031 146.588 91.1861 146.704 91.3378 146.851C91.4895 146.999 91.61 147.173 91.6948 147.365L91.6903 147.36ZM80.0921 138.377C80.1814 138.377 80.2662 138.377 80.3554 138.377L82.0423 140.523C79.8958 140.332 78.1821 139.524 77.1111 138.158L76.9683 137.98C77.9858 138.252 79.0345 138.386 80.0921 138.377ZM84.1932 140.519C84.162 140.519 84.1307 140.523 84.0995 140.528L82.2832 138.221C83.4569 138.051 84.6082 137.77 85.7283 137.391L87.6473 139.836C86.5227 140.189 85.3669 140.416 84.1932 140.523V140.519ZM91.5832 134.41L93.5602 136.922C92.2169 137.855 90.7711 138.636 89.2493 139.261L87.3036 136.784C88.812 136.137 90.2445 135.342 91.5832 134.41ZM94.8543 135.963L92.8774 133.45C94.1581 132.446 95.3318 131.317 96.376 130.081L98.3217 132.558C97.2998 133.812 96.1351 134.954 94.8543 135.963ZM99.3169 131.21L97.3935 128.765C98.0718 127.823 98.6564 126.819 99.1339 125.766L100.946 128.073C100.937 128.104 100.923 128.131 100.914 128.162C100.495 129.233 99.9595 130.255 99.3124 131.21H99.3169ZM101.495 126.158L99.8078 124.012C100.142 122.954 100.312 121.852 100.312 120.745L100.455 120.924C101.526 122.285 101.878 124.101 101.499 126.158H101.495ZM73.6794 127.145C74.8352 124.141 77.2138 121.2 80.3822 118.858C83.5506 116.519 87.1117 115.073 90.4051 114.792C90.7934 114.761 91.1682 114.743 91.5386 114.743C94.1626 114.743 96.2511 115.582 97.4872 117.153C98.8929 118.942 99.0625 121.513 97.9558 124.391C96.8 127.395 94.4214 130.335 91.253 132.678C88.0846 135.017 84.5235 136.462 81.2301 136.744C78.075 137.011 75.5581 136.177 74.1524 134.387C72.7467 132.598 72.5771 130.023 73.6839 127.145H73.6794ZM75.8125 139.113C77.3655 141.09 79.9092 142.143 83.0553 142.143C83.4703 142.143 83.8987 142.125 84.3316 142.09C85.117 142.023 85.8935 141.898 86.6566 141.728L84.2869 147.342L82.7786 146.744L82.1628 148.208L83.6711 148.806L83.0553 150.27L84.5636 150.868L85.1795 149.404L86.6878 150.002L86.072 151.466L87.5803 152.064L88.1962 150.6L88.9503 150.899C89.5483 151.135 90.2043 151.193 90.8335 151.073C91.4672 150.948 92.0429 150.645 92.4981 150.203C92.9533 149.761 93.2612 149.194 93.3817 148.583C93.5066 147.971 93.4352 147.333 93.1898 146.758C93.163 146.695 93.1318 146.633 93.1005 146.575C93.5245 146.432 93.9172 146.204 94.2474 145.91C94.5776 145.615 94.8409 145.254 95.0194 144.852C95.0417 144.879 95.064 144.906 95.0908 144.932C97.1972 147.365 99.6873 149.301 102.276 150.555C101.338 152.519 99.183 153.88 96.1708 154.398C92.9131 154.955 89.0887 154.456 85.4026 152.996C81.7165 151.533 78.6284 149.292 76.7095 146.682C74.8709 144.178 74.3399 141.657 75.219 139.573C75.3261 139.323 75.451 139.082 75.5938 138.85L75.8081 139.122L75.8125 139.113ZM84.0415 154.139L82.8054 157.062C81.297 156.41 79.869 155.602 78.5436 154.647L79.7619 151.765C81.1007 152.693 82.5376 153.492 84.0415 154.139ZM85.5498 154.737C87.0939 155.299 88.6915 155.705 90.3203 155.951L89.1021 158.833C87.4643 158.615 85.8622 158.222 84.3137 157.66L85.5498 154.737ZM73.3715 143.951L73.4607 143.741C73.7597 144.812 74.2194 145.829 74.8263 146.771L73.7731 149.27C72.8538 147.378 72.7066 145.535 73.3759 143.951H73.3715ZM74.862 151.06C74.8441 151.033 74.8263 151.01 74.8084 150.984L75.9419 148.297C76.6872 149.19 77.5217 150.015 78.4276 150.752L77.2271 153.594C76.3436 152.836 75.5537 151.983 74.862 151.055V151.06ZM90.8023 158.981L92.0027 156.138C92.4936 156.174 92.98 156.192 93.462 156.192C94.1626 156.192 94.8588 156.151 95.5505 156.075L94.417 158.762C94.3857 158.766 94.3545 158.775 94.3233 158.78C93.1585 158.972 91.9804 159.043 90.8023 158.985V158.981ZM96.3984 158.24L97.4515 155.741C98.5627 155.482 99.6293 155.067 100.615 154.505L100.526 154.714C99.8569 156.299 98.4199 157.512 96.3984 158.24ZM101.985 148.601L104.413 146.624C105.417 147.235 106.479 147.753 107.586 148.168L105.292 150.033C105.261 150.024 105.23 150.015 105.199 150.006C104.078 149.654 102.999 149.181 101.981 148.601H101.985ZM112.642 149.208C111.29 150.31 109.434 150.734 107.296 150.466L109.429 148.73C110.357 148.958 111.308 149.074 112.263 149.078C112.45 149.078 112.638 149.069 112.825 149.06L112.647 149.208H112.642ZM116.386 146.16C114.606 147.606 111.964 147.891 108.947 146.958C105.797 145.986 102.65 143.821 100.089 140.863C98.8617 139.457 97.8219 137.908 96.9963 136.253C99.5132 134.013 101.414 131.393 102.445 128.715C103.208 126.73 103.44 124.842 103.155 123.173C106.747 123.722 110.754 126.149 113.82 129.684C116.382 132.638 118.042 136.016 118.488 139.194C118.916 142.237 118.171 144.709 116.395 146.16H116.386Z" fill="#D7B27B"/>
    <path d="M105.542 139.644L106.97 138.725C107.238 138.997 107.541 139.198 107.885 139.332C108.639 139.631 109.402 139.528 110.183 139.028C110.808 138.627 111.187 138.203 111.321 137.766C111.446 137.315 111.366 136.882 111.08 136.462C110.853 136.128 110.531 135.949 110.112 135.927C109.706 135.9 109.197 135.976 108.586 136.15C107.403 136.507 106.578 136.703 106.109 136.739C104.833 136.864 103.864 136.44 103.195 135.467C102.744 134.811 102.566 134.075 102.664 133.267C102.766 132.455 103.164 131.75 103.842 131.161L102.985 129.911L104.351 129.028L105.208 130.277C106.274 129.867 107.3 129.916 108.287 130.416C108.737 130.643 109.148 130.938 109.509 131.299L108.081 132.219C107.858 132.009 107.608 131.853 107.332 131.754C106.698 131.531 106.033 131.643 105.332 132.094C104.792 132.442 104.467 132.83 104.346 133.258C104.23 133.687 104.302 134.097 104.569 134.481C104.967 135.061 105.801 135.168 107.073 134.802C107.18 134.771 107.381 134.718 107.68 134.637C107.974 134.548 108.189 134.494 108.322 134.472C108.456 134.436 108.666 134.392 108.947 134.334C109.233 134.262 109.451 134.231 109.612 134.227C109.773 134.227 109.978 134.227 110.228 134.227C110.473 134.218 110.683 134.249 110.857 134.316C111.031 134.37 111.214 134.441 111.415 134.526C111.62 134.611 111.808 134.735 111.982 134.901C112.147 135.061 112.307 135.249 112.455 135.467C112.959 136.204 113.142 136.971 113.004 137.77C112.865 138.555 112.464 139.256 111.79 139.881L112.647 141.13L111.281 142.014L110.424 140.764C109.197 141.291 108.028 141.26 106.912 140.675C106.399 140.412 105.939 140.068 105.538 139.644H105.542Z" fill="#D7B27B"/>
    <path d="M115.565 80.4706C124.7 77.7261 131.577 73.6027 134.906 70.0639C141.707 62.83 139.453 49.9198 133.415 40.8519C132.148 38.9508 130.189 35.6396 129.27 33.4172C127.507 29.151 125.896 24.9116 124.477 22.2474C122.442 18.4274 119.407 15.4375 115.998 13.3981C110.072 9.84591 99.7632 9.72989 94.2474 9.70757C87.027 9.6808 78.4231 10.0467 72.4968 13.5945C69.0874 15.6339 66.9856 17.3743 64.1518 22.4036C61.9206 26.3664 59.9972 30.6995 58.4621 34.756C57.6097 37.0051 56.3468 38.9463 55.0794 40.8474C49.0416 49.9153 47.087 64.209 53.7317 69.9121H53.7362C53.9326 70.1085 60.3051 76.3115 72.9743 80.1627C72.9743 80.1627 72.9788 80.1627 72.9833 80.1627C78.7221 81.9031 88.879 83.166 94.2474 83.166C99.6159 83.166 108.367 82.6215 115.565 80.4617V80.4706Z" fill="#F47F2D"/>
    <path d="M134.808 43.1546C138.186 49.362 139.65 58.2157 138.467 63.2138C137.472 67.4086 134.384 72.7905 124.008 77.2709C117.047 80.2787 108.653 83.4962 94.2519 83.1749C75.0049 84.2281 41.0715 67.7255 55.1509 42.2442C58.7566 37.5853 60.7246 27.7765 64.1563 22.4081V22.3991C69.9934 10.6403 83.2204 9.46661 94.2519 9.71205C100.973 9.73436 110.09 9.91733 116.003 13.4026C127.73 20.3151 126.003 31.6634 134.808 43.1546Z" fill="#FD9A3F"/>
    <path d="M136.945 67.2659C134.134 73.1654 120.809 79.529 114.432 80.5375C133.375 72.8798 142.872 64.5571 133.273 42.2397C138.69 49.4379 142.229 56.1674 136.945 67.2659Z" fill="#FDA44B"/>
    <path d="M73.3582 20.1366C73.3582 20.1366 84.2915 16.8343 94.484 16.8343C104.676 16.8343 115.623 20.3196 115.623 20.3196C115.623 20.3196 106.448 15.326 94.484 15.326C81.6005 15.326 73.3582 20.1411 73.3582 20.1411V20.1366Z" fill="#7A3C04"/>
    <path d="M66.2715 50.0359C66.2715 50.0359 62.3445 46.9656 58.877 46.9879C55.6238 47.0102 52.9865 50.0359 52.9865 50.0359C52.9865 50.0359 55.5435 48.5096 59.1136 48.5096C62.6836 48.5096 66.2715 50.0359 66.2715 50.0359Z" fill="#7A3C04"/>
    <path d="M53.8031 63.2897C53.8031 63.2897 55.3516 59.9561 57.7614 58.8316C61.0012 57.3188 63.7903 58.7468 63.7903 58.7468C63.7903 58.7468 60.7379 58.8673 58.1541 60.1882C55.5703 61.5047 53.8031 63.2897 53.8031 63.2897Z" fill="#7A3C04"/>
    <path d="M123.973 49.7012C123.973 49.7012 126.226 46.6488 129.752 46.5595C133.277 46.4703 135.803 49.545 135.803 49.545C135.803 49.545 132.251 47.7867 129.832 48.0411C127.413 48.291 123.973 49.7056 123.973 49.7056V49.7012Z" fill="#7A3C04"/>
    <path d="M124.254 59.2555C124.254 59.2555 128.27 57.9792 131.189 59.2555C134.107 60.5318 135.058 63.1157 135.058 63.1157C135.058 63.1157 133.05 61.2682 130.408 60.3266C127.958 59.4563 124.254 59.26 124.254 59.26V59.2555Z" fill="#7A3C04"/>
    <path d="M85.2911 37.8129C86.0319 42.6414 84.4432 46.8362 84.4432 46.8362C84.4432 46.8362 77.8653 38.1743 67.8915 45.2743C67.8915 45.2743 68.4225 36.6883 65.5442 32.8416C65.5442 32.8416 70.4396 30.7932 75.5136 30.2577C81.2837 29.6508 83.7426 30.8691 83.7426 30.8691C83.7426 30.8691 84.5012 32.6541 85.2911 37.8129Z" fill="#F47F2D"/>
    <path d="M115.565 80.4706C124.7 77.7261 131.577 73.6027 134.906 70.0639C141.707 62.83 139.453 49.9198 133.415 40.8519C132.148 38.9508 130.189 35.6396 129.27 33.4172C127.507 29.151 125.896 24.9116 124.477 22.2474C122.442 18.4274 119.407 15.4375 115.998 13.3981C110.072 9.84591 99.7632 9.72989 94.2474 9.70757C87.027 9.6808 78.4231 10.0467 72.4968 13.5945C69.0874 15.6339 66.9856 17.3743 64.1518 22.4036C61.9206 26.3664 59.9972 30.6995 58.4621 34.756C57.6097 37.0051 56.3468 38.9463 55.0794 40.8474C49.0416 49.9153 47.087 64.209 53.7317 69.9121H53.7362C53.9326 70.1085 60.3051 76.3115 72.9743 80.1627C72.9743 80.1627 72.9788 80.1627 72.9833 80.1627C78.7221 81.9031 88.879 83.166 94.2474 83.166C99.6159 83.166 108.367 82.6215 115.565 80.4617V80.4706Z" stroke="#7A3C04" stroke-linecap="round" stroke-linejoin="round"/>
    <path d="M121.041 44.8726C111.062 37.7727 104.668 46.555 104.668 46.555C104.668 46.555 103.043 39.107 104.293 34.3856C104.641 33.0825 105.35 30.6772 105.35 30.6772C105.35 30.6772 108.987 29.8338 114.07 30.2577C119.153 30.6817 123.616 32.8415 123.616 32.8415C120.072 38.7991 121.036 44.8726 121.036 44.8726H121.041Z" fill="#F47F2D"/>
    <path d="M133.442 69.5061C134.375 71.5187 133.402 74.821 133.402 74.821C140.002 70.3718 138.485 63.4459 138.418 63.1558C140.163 64.9051 139.203 67.5782 139.203 67.5782C144.255 63.3433 140.645 56.6405 140.511 56.3861C142.26 57.1403 143.224 59.9785 143.224 59.9785C143.844 52.7179 137.99 48.1437 133.277 42.2397C133.277 42.2397 137.784 52.0708 136.999 60.1034C136.624 63.9368 133.447 69.5061 133.447 69.5061H133.442Z" fill="#FDA44B"/>
    <path d="M133.545 69.4614C134.527 71.1081 134.277 73.1698 133.835 74.9504L133.152 74.4506C136.771 72.0765 138.779 67.5381 137.918 63.2719C137.78 62.7676 138.44 62.4106 138.784 62.7988C139.743 63.7493 140.091 65.1684 139.94 66.4804C139.891 66.9133 139.819 67.3105 139.672 67.7523L138.882 67.1989C139.052 67.0249 139.493 66.6188 139.659 66.4537C142.135 63.7538 141.671 59.6527 140.118 56.5958C139.9 56.2388 140.319 55.7926 140.685 55.98C142.26 56.7788 143.006 58.305 143.608 59.8446L142.814 59.9428C143.461 52.6777 137.142 47.6216 133.166 42.329C133.116 42.2665 133.13 42.1773 133.192 42.1327C133.25 42.088 133.34 42.097 133.389 42.155C135.62 44.828 138.137 47.2601 140.248 50.0894C142.394 52.8964 143.978 56.395 143.63 60.0142C143.599 60.4471 142.979 60.5229 142.84 60.1213C142.59 59.4519 142.242 58.7602 141.832 58.1711C141.421 57.5776 140.917 57.0555 140.332 56.7967L140.899 56.1808C142.332 58.9967 142.979 62.4864 141.524 65.4273C141.238 66.0074 140.801 66.6277 140.39 67.1141C140.212 67.3016 139.708 67.7701 139.52 67.962C139.172 68.319 138.547 67.9219 138.713 67.4622C139.132 66.1636 139.061 64.5303 138.052 63.5173L138.918 63.0443C139.712 67.1186 138.217 71.4785 135.035 74.1382C134.602 74.5265 134.112 74.8433 133.656 75.1958C133.465 75.3431 133.188 75.3074 133.036 75.1155C132.947 74.9995 132.925 74.8567 132.96 74.7273C133.192 73.8972 133.366 73.0003 133.456 72.139C133.549 71.2733 133.558 70.4075 133.344 69.5507C133.308 69.4257 133.478 69.3543 133.545 69.457V69.4614Z" fill="#7A3C04"/>
    <path d="M54.9812 69.5061C54.0485 71.5187 55.0214 74.821 55.0214 74.821C48.4212 70.3718 49.9385 63.4459 50.0054 63.1558C48.2606 64.9051 49.22 67.5782 49.22 67.5782C44.1684 63.3433 47.7786 56.6405 47.9125 56.3861C46.1632 57.1403 45.1992 59.9785 45.1992 59.9785C44.579 52.7179 50.4338 48.1437 55.1463 42.2397C55.1463 42.2397 50.6391 52.0708 51.4245 60.1034C51.7994 63.9368 54.9767 69.5061 54.9767 69.5061H54.9812Z" fill="#F47F2D"/>
    <path d="M55.0839 69.5552C54.6867 71.2599 55.0392 73.036 55.4587 74.696C55.5435 74.937 55.4096 75.2048 55.1642 75.2717C55.0259 75.3119 54.8831 75.2762 54.776 75.1959C54.3163 74.8433 53.8254 74.5265 53.3926 74.1382C51.1568 72.2416 49.6708 69.4882 49.3807 66.5652C49.2647 65.396 49.2736 64.2358 49.5101 63.0487L50.3759 63.5218C49.3673 64.5348 49.2959 66.1681 49.7154 67.4622C49.8805 67.9353 49.2558 68.3146 48.9077 67.962C46.2524 65.6861 45.5786 62.4374 46.422 59.1395C46.6764 58.1131 47.0334 57.1269 47.5287 56.1808L48.0955 56.7967C46.8638 57.3768 46.0784 58.8718 45.592 60.1213C45.4536 60.5318 44.8289 60.4381 44.8021 60.0142C44.454 56.3906 46.0382 52.8919 48.1892 50.0894C50.3 47.2602 52.8169 44.828 55.0482 42.155C55.0973 42.097 55.1865 42.088 55.2445 42.1371C55.3025 42.1862 55.3115 42.271 55.2668 42.3335C51.2907 47.6261 44.9717 52.6866 45.6188 59.9472L44.8244 59.8491C45.4269 58.3095 46.1721 56.7788 47.7474 55.9845C48.1223 55.7971 48.5284 56.2478 48.3141 56.6003C46.7612 59.6572 46.2971 63.7583 48.7738 66.4581C48.9389 66.6188 49.3807 67.0338 49.5503 67.2034L48.7604 67.7567C48.216 66.0877 48.3588 64.093 49.6485 62.8033C49.8359 62.598 50.1572 62.5846 50.3625 62.7721C50.4963 62.897 50.5499 63.0755 50.5187 63.2451C50.0055 65.8557 50.532 68.7207 51.9199 70.9966C52.7767 72.38 53.9593 73.5135 55.2802 74.4551L54.5975 74.9549C54.1557 73.1698 53.9058 71.1081 54.8875 69.4659C54.95 69.3543 55.1285 69.4436 55.0883 69.5596L55.0839 69.5552Z" fill="#7A3C04"/>
    <path d="M136.606 16.7317C134.821 21.346 132.371 25.4828 130.537 28.9145C128.877 32.0249 127.726 34.5597 128.034 36.3447C128.034 36.3447 126.503 33.4306 120.014 24.7688C113.843 16.5353 114.731 13.8221 114.731 13.8221C118.234 10.3859 120.215 12.3003 124.267 9.03821C127.935 6.08398 127.984 0.746748 129.06 0.510232C129.337 0.452218 130.176 0.902938 131.224 1.75083C134.299 4.24987 139.141 10.1672 136.602 16.7272L136.606 16.7317Z" fill="#FD9A3F"/>
    <path d="M136.606 16.7317C134.821 21.346 132.371 25.4828 130.537 28.9145C132.273 24.8134 131.296 20.15 131.113 19.3869C131.912 23.4479 128.056 27.1473 128.056 27.1473C128.48 25.6702 127.958 24.2288 127.467 23.3051C127.128 22.6669 126.797 22.2698 126.797 22.2698C126.797 22.2698 126.708 28.1648 124.45 27.3571C124.214 27.2768 123.955 27.125 123.669 26.8796C120.184 23.9075 130.488 16.2854 132.086 10.0735C133.21 5.72699 131.729 2.66121 131.322 1.92935C131.282 1.86241 131.251 1.81778 131.238 1.78654C131.238 1.78654 131.238 1.78208 131.238 1.77762C131.264 1.79547 131.291 1.81332 131.318 1.84009L131.394 1.90703C134.473 4.46855 139.101 10.2967 136.606 16.7362V16.7317Z" fill="#FFBC9B"/>
    <path d="M136.606 16.7317C134.821 21.346 132.371 25.4828 130.537 28.9145C132.273 24.8134 131.296 20.15 131.113 19.3869C131.912 23.4479 128.056 27.1473 128.056 27.1473C128.48 25.6702 127.958 24.2288 127.467 23.3051C126.967 20.5472 132.068 15.6785 133.407 10.4484C134.339 6.80694 131.916 2.66568 131.314 1.83118L131.389 1.89812C134.469 4.45963 139.096 10.2878 136.602 16.7272L136.606 16.7317Z" fill="#FFDBC7"/>
    <path d="M124.428 27.424C121.375 26.295 123.361 22.8588 124.584 21.0515C125.941 19.021 127.471 17.1467 128.85 15.1877C130.207 13.233 131.648 11.2784 132.032 8.92667C132.496 6.61952 132.291 4.11601 131.233 1.96952C131.206 1.92043 131.224 1.85349 131.278 1.82671C131.327 1.8044 131.385 1.82225 131.412 1.86688C132.612 4.01337 132.956 6.57935 132.594 9.01592C132.108 12.7422 129.595 15.7499 127.324 18.5703C125.865 20.4267 124.129 22.2251 123.285 24.443C122.83 25.6167 123.321 26.7814 124.468 27.2678C124.557 27.2991 124.508 27.4419 124.419 27.4106L124.428 27.424Z" fill="#7A3C04"/>
    <path d="M114.673 13.7685C115.329 13.0456 116.092 12.3941 116.975 11.9121C118.93 10.9214 121.188 10.8054 122.969 9.4934C126.083 7.57003 126.922 4.50871 127.993 1.21533C128.185 0.746757 128.466 0.0372079 129.154 0.0327454C130.113 0.197861 130.881 0.871709 131.608 1.44738C135.022 4.21418 138.414 9.36845 137.673 14.3353C137.427 15.9507 136.771 17.5305 136.097 19.0031C134.152 23.43 131.47 27.482 129.323 31.7973C128.676 33.2164 127.967 34.7426 128.136 36.3313C128.145 36.3849 128.109 36.4295 128.056 36.4384C128.007 36.4429 127.962 36.4116 127.953 36.3625C127.686 34.7159 128.355 33.1227 128.962 31.6322C131.407 26.1566 134.839 21.1095 136.602 15.3572C137.914 10.3011 134.455 4.94604 130.925 2.13015C130.403 1.71067 129.836 1.27334 129.238 1.01897C129.167 0.983273 129.051 0.987736 129.176 0.978811C128.801 1.49647 128.44 2.90218 128.185 3.6028C127.306 6.43654 125.503 9.16317 122.745 10.5287C121.027 11.5373 118.952 11.5551 117.181 12.3182C116.315 12.6975 115.534 13.2553 114.798 13.8801C114.726 13.947 114.61 13.8355 114.682 13.7596L114.673 13.7685Z" fill="#7A3C04"/>
    <path d="M129.274 1.74192C130.18 1.65713 132.559 5.59312 131.425 8.56519C130.296 11.5373 122.536 20.0519 122.219 23.7246C122.018 26.0719 121.755 27.2054 121.139 23.2515C120.523 19.2977 116.016 16.2096 116.663 14.5317C117.31 12.8537 121.188 12.7957 123.665 11.0999C130.095 6.69537 128.159 1.84456 129.27 1.73746L129.274 1.74192Z" fill="#FDA44B"/>
    <path d="M51.496 16.7317C53.281 21.346 55.731 25.4828 57.5651 28.9145C59.2252 32.0249 60.3765 34.5597 60.0686 36.3447C60.0686 36.3447 61.5993 33.4306 68.0878 24.7688C74.2596 16.5353 73.3715 13.8221 73.3715 13.8221C69.8684 10.3859 67.887 12.3003 63.835 9.03821C60.1668 6.08398 60.1177 0.746748 59.0422 0.510232C58.7655 0.452218 57.9266 0.902938 56.8779 1.75083C53.8032 4.24987 48.9613 10.1672 51.5005 16.7272L51.496 16.7317Z" fill="#FD9A3F"/>
    <path d="M51.496 16.7317C53.281 21.346 55.731 25.4828 57.5651 28.9145C55.8292 24.8134 56.8065 20.15 56.9894 19.3869C56.1906 23.4479 60.0463 27.1473 60.0463 27.1473C59.6223 25.6702 60.1445 24.2288 60.6353 23.3051C60.9745 22.6669 61.3047 22.2698 61.3047 22.2698C61.3047 22.2698 61.394 28.1648 63.652 27.3571C63.8886 27.2768 64.1474 27.125 64.433 26.8796C67.9183 23.9075 57.6142 16.2854 56.0166 10.0735C54.892 5.72699 56.3736 2.66121 56.7797 1.92935C56.8198 1.86241 56.8511 1.81778 56.8645 1.78654C56.8645 1.78654 56.8645 1.78208 56.8645 1.77762C56.8377 1.79547 56.8109 1.81332 56.7841 1.84009L56.7083 1.90703C53.6291 4.46855 49.0014 10.2967 51.496 16.7362V16.7317Z" fill="#FFBC9B"/>
    <path d="M51.496 16.7317C53.2811 21.346 55.731 25.4828 57.5651 28.9145C55.8292 24.8134 56.8065 20.15 56.9895 19.3869C56.1907 23.4479 60.0463 27.1473 60.0463 27.1473C59.6224 25.6702 60.1445 24.2288 60.6354 23.3051C61.1352 20.5472 56.0345 15.6785 54.6957 10.4484C53.763 6.80694 56.1862 2.66568 56.7887 1.83118L56.7128 1.89812C53.6336 4.45963 49.0059 10.2878 51.5005 16.7272L51.496 16.7317Z" fill="#FFDBC7"/>
    <path d="M63.6253 27.2812C66.3475 26.0317 64.259 23.0373 63.0229 21.404C61.5681 19.4762 59.9571 17.6688 58.5246 15.7142C57.0921 13.7418 55.8114 11.4926 55.5035 9.02482C55.142 6.58826 55.4901 4.01782 56.686 1.87578C56.7128 1.82669 56.7753 1.80884 56.8244 1.83562C56.8735 1.86239 56.8913 1.92487 56.8645 1.97396C55.8025 4.12046 55.6016 6.62396 56.0657 8.93111C56.4495 11.2829 57.8909 13.242 59.2476 15.1921C60.6265 17.1512 62.1616 19.0254 63.5138 21.0559C64.4465 22.6089 66.1244 24.8491 64.8302 26.6386C64.5089 26.9867 64.1341 27.2857 63.67 27.4285C63.6298 27.4419 63.5852 27.4151 63.5763 27.3749C63.5673 27.3392 63.5852 27.2991 63.6209 27.2812H63.6253Z" fill="#7A3C04"/>
    <path d="M73.3135 13.8846C72.5772 13.2598 71.7918 12.6975 70.9305 12.3227C69.1589 11.5596 67.0838 11.5417 65.3657 10.5332C62.6078 9.16763 60.8094 6.441 59.9258 3.60727C59.6715 2.9111 59.3144 1.50093 58.9351 0.983273C59.0601 0.992198 58.9441 0.987736 58.8727 1.02344C58.2747 1.2778 57.7079 1.71513 57.1858 2.13462C53.6559 4.95496 50.1974 10.3011 51.5094 15.3617C53.2721 21.1139 56.7038 26.1611 59.1493 31.6367C59.7562 33.1227 60.4256 34.7203 60.1579 36.367C60.1489 36.4161 60.0999 36.4518 60.0508 36.4429C60.0017 36.4339 59.966 36.3849 59.9749 36.3358C60.1445 34.7471 59.4349 33.2209 58.7879 31.8018C56.6414 27.482 53.9594 23.4345 52.0137 19.0031C51.3398 17.535 50.6838 15.9507 50.4384 14.3353C49.6931 9.37291 53.0847 4.21418 56.503 1.44738C57.2304 0.871709 57.9935 0.197861 58.9574 0.0327454C59.6447 0.0327454 59.9258 0.746757 60.1177 1.21533C60.9344 3.65189 61.6394 6.36514 63.5048 8.18586C64.848 9.49786 66.5126 10.4395 68.3467 10.917C69.266 11.1847 70.2478 11.4346 71.1358 11.9121C72.0194 12.3941 72.778 13.0456 73.4385 13.7685C73.5054 13.8399 73.3983 13.956 73.3225 13.889L73.3135 13.8846Z" fill="#7A3C04"/>
    <path d="M58.828 1.74192C57.9221 1.65713 55.5435 5.59312 56.677 8.56519C57.806 11.5373 65.5665 20.0519 65.8833 23.7246C66.0841 26.0719 66.3474 27.2054 66.9632 23.2515C67.5791 19.2977 72.0863 16.2096 71.4392 14.5317C70.7921 12.8537 66.9142 12.7957 64.4374 11.0999C58.0069 6.69537 59.9436 1.84456 58.8324 1.73746L58.828 1.74192Z" fill="#FDA44B"/>
    <path d="M121.041 44.8682C120.836 45.6849 115.922 47.6305 111.616 47.6439C107.403 47.6573 104.311 46.5774 104.137 45.6402C103.985 44.8057 105.966 37.9691 111.652 37.621C117.346 37.2684 121.255 44.056 121.045 44.8682H121.041Z" fill="#FBFBFB"/>
    <path d="M112.156 47.7823C114.909 47.7823 117.14 45.5505 117.14 42.7976C117.14 40.0446 114.909 37.8129 112.156 37.8129C109.403 37.8129 107.171 40.0446 107.171 42.7976C107.171 45.5505 109.403 47.7823 112.156 47.7823Z" fill="#FFBE2C" stroke="#E5A413" stroke-width="0.86" stroke-miterlimit="10"/>
    <path d="M112.393 46.6344C113.015 46.5961 113.414 44.8481 113.284 42.7301C113.153 40.6121 112.543 38.9261 111.921 38.9644C111.299 39.0027 110.9 40.7507 111.03 42.8687C111.16 44.9867 111.77 46.6727 112.393 46.6344Z" fill="#350803"/>
    <path d="M113.566 44.8726C113.844 44.8726 114.07 44.6469 114.07 44.3684C114.07 44.0899 113.844 43.8641 113.566 43.8641C113.287 43.8641 113.062 44.0899 113.062 44.3684C113.062 44.6469 113.287 44.8726 113.566 44.8726Z" fill="#FBFBFB"/>
    <path d="M121.041 44.8727C121.25 44.0605 117.667 38.5091 111.968 38.8571C106.274 39.2097 103.976 44.8236 104.132 45.6402C104.132 45.6402 103.811 36.7553 111.201 36.2376C120.104 35.6128 121.041 44.8682 121.041 44.8682V44.8727Z" fill="#F47F2D"/>
    <path opacity="0.1" d="M121.041 44.8682C121.041 44.8682 117.212 40.0174 112.053 40.0665C106.89 40.1156 104.239 45.426 104.132 45.6358C103.98 44.8057 106.283 39.2052 111.973 38.8571C117.667 38.5046 121.255 44.056 121.041 44.8682Z" fill="black"/>
    <path d="M104.11 45.6447C104.221 43.7347 105.52 41.9765 106.854 40.6734C110.71 37.0765 116.873 38.0851 119.934 42.1996C120.478 42.9939 121.184 43.8686 121.121 44.8861C121.112 44.9307 121.068 44.9575 121.027 44.9485C120.992 44.9396 120.965 44.9084 120.965 44.8727C120.764 44.0114 120.005 43.2929 119.43 42.6325C116.199 39.1026 111.134 37.9021 107.202 41.075C105.792 42.2174 104.507 43.9623 104.11 45.6402V45.6447Z" fill="#350803"/>
    <path d="M104.132 45.6358C104.132 45.6358 107.773 47.2557 112.156 47.1486C116.819 47.0325 119.961 45.542 121.041 44.8682L121.996 46.2561C121.996 46.2561 117.274 50.4107 111.915 50.4107C105.083 50.4107 104.128 45.6358 104.128 45.6358H104.132Z" fill="#FD9A3F"/>
    <path d="M121.108 44.9619C116.632 48.4695 108.969 48.2508 104.061 45.7518C103.873 45.6135 104.177 45.3903 104.257 45.6135C104.261 45.6313 104.177 45.5153 104.177 45.5197C109.527 46.9835 115.949 47.5279 120.965 44.779C121.076 44.6986 121.219 44.8771 121.103 44.9664L121.108 44.9619Z" fill="#7A3C04"/>
    <path d="M67.9986 44.8682C68.2039 45.6849 73.1172 47.6305 77.4236 47.6439C81.6362 47.6573 84.7288 46.5774 84.9028 45.6402C85.0545 44.8057 83.0732 37.9691 77.3878 37.621C71.6936 37.2684 67.7844 44.056 67.9941 44.8682H67.9986Z" fill="#FBFBFB"/>
    <path d="M76.8836 47.7823C79.6366 47.7823 81.8683 45.5505 81.8683 42.7976C81.8683 40.0446 79.6366 37.8129 76.8836 37.8129C74.1306 37.8129 71.8989 40.0446 71.8989 42.7976C71.8989 45.5505 74.1306 47.7823 76.8836 47.7823Z" fill="#FFBE2C" stroke="#E5A413" stroke-width="0.86" stroke-miterlimit="10"/>
    <path d="M78.0067 42.865C78.137 40.747 77.738 38.9989 77.1157 38.9606C76.4933 38.9224 75.8832 40.6083 75.7529 42.7263C75.6226 44.8444 76.0215 46.5924 76.6439 46.6307C77.2662 46.669 77.8764 44.983 78.0067 42.865Z" fill="#350803"/>
    <path d="M75.469 44.8726C75.7475 44.8726 75.9733 44.6469 75.9733 44.3684C75.9733 44.0899 75.7475 43.8641 75.469 43.8641C75.1905 43.8641 74.9647 44.0899 74.9647 44.3684C74.9647 44.6469 75.1905 44.8726 75.469 44.8726Z" fill="#FBFBFB"/>
    <path d="M67.9986 44.8727C67.7889 44.0605 71.3723 38.509 77.071 38.8571C82.7652 39.2097 85.0635 44.8236 84.9073 45.6402C84.9073 45.6402 83.9255 36.5143 77.1379 36.2064C69.0428 35.8404 67.9986 44.8682 67.9986 44.8682V44.8727Z" fill="#F47F2D"/>
    <path opacity="0.1" d="M67.9986 44.8682C67.9986 44.8682 71.8766 40.1245 77.0353 40.1736C82.1985 40.2227 84.8002 45.426 84.9073 45.6358C85.059 44.8057 82.8054 39.3123 77.1156 38.9642C71.4214 38.6117 67.7844 44.056 67.9986 44.8682Z" fill="black"/>
    <path d="M84.885 45.6358C84.5548 43.8151 83.2026 42.2532 81.8415 41.075C77.9279 37.9066 72.8271 39.107 69.6141 42.6325C69.0384 43.2885 68.2798 44.0114 68.079 44.8727C68.079 44.9173 68.0388 44.953 67.9942 44.9486C67.9585 44.9486 67.9272 44.9218 67.9183 44.8861C67.8558 43.8686 68.5609 42.9895 69.1054 42.1996C72.1667 38.0807 78.3295 37.0721 82.1852 40.6734C83.2651 41.6641 84.0907 42.8868 84.6351 44.2345C84.7958 44.6853 84.9653 45.1494 84.9296 45.6447C84.9207 45.6804 84.8805 45.667 84.885 45.6358Z" fill="#350803"/>
    <path d="M84.9073 45.6358C84.9073 45.6358 80.8419 47.2557 76.4596 47.1486C71.7962 47.0325 69.0785 45.542 67.9986 44.8682L67.0436 46.2561C67.0436 46.2561 71.765 50.4107 77.1245 50.4107C83.9567 50.4107 84.9117 45.6358 84.9117 45.6358H84.9073Z" fill="#FD9A3F"/>
    <path d="M68.07 44.7789C73.0859 47.5324 79.5076 46.9879 84.8582 45.5242C84.8582 45.5242 84.7734 45.6358 84.7779 45.6179C84.8493 45.3948 85.1706 45.6134 84.9787 45.7563C80.0698 48.2553 72.4076 48.4784 67.9317 44.9708C67.8246 44.8816 67.9495 44.7031 68.07 44.7834V44.7789Z" fill="#7A3C04"/>
    <path d="M105.074 27.9997C105.614 28.1737 109.733 28.0979 114.517 28.9993C119.131 29.865 122.71 32.3105 123.259 32.7077C123.473 32.8594 123.477 32.6988 123.357 32.5827C122.786 32.0205 119.97 29.0662 114.682 27.7275C110.308 26.6297 106.484 26.3664 105.551 26.884C105.301 27.0224 104.552 27.8346 105.069 27.9997H105.074Z" fill="#FDA44B"/>
    <path d="M105.252 31.0878C106.091 31.2395 110.027 30.8691 114.749 31.3957C119.363 31.9089 121.75 32.7702 123.312 33.0067C123.562 33.0424 123.794 33.0915 123.616 32.846C123.567 32.7746 123.482 32.6899 123.352 32.5828C122.759 32.1053 119.818 29.7267 114.508 28.4772C110.116 27.4508 105.868 27.2054 104.98 27.7944C104.833 27.8926 104.752 28.3478 104.743 28.8922V29.3385C104.721 30.2801 104.895 31.0298 105.248 31.0878H105.252Z" fill="#541108"/>
    <path d="M104.752 28.8922C104.944 28.8253 109.875 28.5397 114.673 29.3608C119.3 30.1507 122.656 32.1276 123.317 32.6363C123.433 32.73 123.486 32.6854 123.357 32.5828C122.763 32.1053 119.822 29.7267 114.512 28.4772C110.121 27.4508 105.872 27.2054 104.984 27.7944C104.837 27.8926 104.757 28.3478 104.748 28.8922H104.752Z" fill="#884227"/>
    <path d="M84.0906 27.9997C83.5506 28.1737 79.4317 28.0979 74.6478 28.9993C70.0335 29.865 66.4545 32.3105 65.9056 32.7077C65.6914 32.8594 65.6869 32.6988 65.8074 32.5827C66.3786 32.0205 69.1945 29.0662 74.4827 27.7275C78.856 26.6297 82.6804 26.3664 83.6131 26.884C83.863 27.0224 84.6127 27.8346 84.0951 27.9997H84.0906Z" fill="#FDA44B"/>
    <path d="M83.9121 31.0878C83.0732 31.2395 79.1372 30.8691 74.4158 31.3957C69.8015 31.9089 67.414 32.7702 65.8521 33.0067C65.6022 33.0424 65.3701 33.0915 65.5486 32.846C65.5977 32.7746 65.6825 32.6899 65.8119 32.5828C66.4055 32.1053 69.3463 29.7267 74.6568 28.4772C79.0479 27.4508 83.2963 27.2054 84.1843 27.7944C84.3316 27.8926 84.4119 28.3478 84.4209 28.8922V29.3385C84.4432 30.2801 84.2691 31.0298 83.9166 31.0878H83.9121Z" fill="#541108"/>
    <path d="M84.412 28.8922C84.2201 28.8253 79.2889 28.5397 74.4917 29.3608C69.864 30.1507 66.5081 32.1276 65.8477 32.6363C65.7317 32.73 65.6781 32.6854 65.8075 32.5828C66.401 32.1053 69.3419 29.7267 74.6523 28.4772C79.0435 27.4508 83.2919 27.2054 84.1799 27.7944C84.3272 27.8926 84.4075 28.3478 84.4164 28.8922H84.412Z" fill="#884227"/>
    <path d="M94.7205 78.815C71.8989 78.815 60.5952 63.4325 66.2806 54.8465C70.7253 48.1303 78.7222 55.2303 94.7205 55.2303C110.719 55.2303 118.676 47.6439 123.16 54.8465C128.516 63.4459 116.766 78.815 94.7205 78.815Z" fill="#FDEFD4"/>
    <path d="M107.095 74.8433C107.095 74.8433 101.437 83.8041 94.6803 83.8041C86.7548 83.8041 82.3413 74.8433 82.3413 74.8433C82.3413 74.8433 83.0732 66.6946 94.5598 66.6946C106.046 66.6946 107.095 74.8433 107.095 74.8433Z" fill="#FDEFD4"/>
    <path d="M107.167 74.8879C102.61 82.3494 95.0954 87.8829 87.1074 81.2694C85.0456 79.5022 83.4034 77.3066 82.2655 74.8835C82.2476 74.8388 82.2655 74.7898 82.3056 74.7719C82.3458 74.7541 82.3949 74.7719 82.4172 74.8121C83.0955 75.9411 83.8675 77.021 84.7333 78.0073C89.4368 83.5409 95.6487 85.4464 101.597 80.5152C103.659 78.8864 105.453 76.9095 107.024 74.8076C107.073 74.7228 107.22 74.8076 107.162 74.8924L107.167 74.8879Z" fill="#89543B"/>
    <path d="M94.5777 72.6165C99.9372 72.6165 103.681 80.5152 94.6848 80.5152C85.8087 80.5152 88.4863 72.6165 94.5777 72.6165Z" fill="#FFF7E9"/>
    <path d="M98.4959 65.1417C97.8131 67.3864 103.048 69.8229 106.845 67.6943C110.125 65.8557 112.584 60.697 110.317 58.9253C107.912 57.0421 99.5267 61.7546 98.4959 65.1462V65.1417Z" fill="#FFF7E9"/>
    <path d="M90.7577 65.1417C91.4405 67.3864 86.2059 69.8229 82.4082 67.6943C79.1282 65.8557 76.6693 60.697 78.9363 58.9253C81.3417 57.0421 89.7268 61.7546 90.7577 65.1462V65.1417Z" fill="#FFF7E9"/>
    <path d="M111.754 65.4898C109.893 66.6009 108.55 70.4655 104.467 70.6217C98.902 70.8315 94.725 65.463 94.725 65.463C94.725 65.463 90.5391 70.8315 84.9743 70.6217C80.891 70.4655 79.4898 66.1948 77.6869 65.4898C77.6869 65.4898 79.0926 71.184 84.9743 71.7017C90.8559 72.2193 93.9262 67.8951 94.6982 67.9263C95.4702 67.9576 100.102 72.2327 104.592 71.8311C109.978 71.3491 111.754 65.4898 111.754 65.4898Z" fill="#F7E1BC"/>
    <path d="M111.781 65.5567C111.036 65.9494 110.505 66.6322 109.987 67.3016C108.327 69.6533 106.39 71.3313 103.32 71.01C101.517 70.8761 99.8078 70.1844 98.3129 69.2473C96.8224 68.2833 95.5059 67.1097 94.4126 65.6995C94.4126 65.704 95.0374 65.6861 95.0106 65.704C92.3107 69.033 87.8615 71.9605 83.4257 70.6887C81.6987 70.1085 80.5028 68.676 79.4451 67.2971C78.923 66.659 78.4455 65.8869 77.669 65.5567C77.5932 65.5344 77.6199 65.4005 77.7047 65.4273C78.5705 65.6817 79.1327 66.4448 79.7263 67.0606C81.3328 68.9929 83.3767 70.653 86.0363 70.2067C89.3431 69.8318 92.2438 67.6675 94.4081 65.2354C94.5554 65.039 94.8633 65.039 95.015 65.2354C98.0005 68.5823 103.753 72.322 107.903 68.8635C109.224 67.8148 110.099 66.119 111.723 65.4318C111.799 65.4005 111.857 65.5255 111.776 65.5612L111.781 65.5567Z" fill="#89543B"/>
    <path d="M88.2899 72.313C90.8113 68.2833 98.4735 68.0066 100.848 72.313C100.897 72.4112 100.749 72.496 100.691 72.3978C98.0853 69.3766 93.0069 69.3365 89.7537 71.3134C89.2628 71.6124 88.8076 71.9828 88.4193 72.4067C88.3613 72.4781 88.2408 72.3889 88.2944 72.3086L88.2899 72.313Z" fill="#89543B"/>
    <path d="M84.6618 29.0306C84.6618 29.0306 85.2911 34.2473 85.2911 39.6961C85.2911 45.9571 82.975 51.8878 82.975 51.8878C82.975 51.8878 86.0765 55.7435 94.5598 56.1451C103.043 56.5468 106.448 52.5662 106.448 52.5662C106.448 52.5662 103.735 44.9218 103.713 39.6961C103.69 34.4704 104.208 28.8744 104.208 28.8744L84.6618 29.035V29.0306Z" fill="#FD9A3F"/>
    <path d="M94.2161 49.0273C89.2983 49.0273 86.0674 50.134 85.4739 49.8172C84.5368 49.3129 86.0674 42.6726 86.7815 39.1293C87.0492 37.804 92.2392 37.3398 94.2161 37.3398C96.193 37.3398 101.356 37.8084 101.651 39.1293C102.454 42.7396 103.753 49.1523 102.958 49.8172C102.409 50.2724 99.415 49.0273 94.2161 49.0273Z" fill="#FDA44B"/>
    <path d="M85.0679 34.9702C85.7239 38.0092 85.532 41.1509 85.0679 44.2077C84.6172 47.2825 83.9835 50.2992 82.9794 53.2534C82.7786 53.8067 81.9396 53.5167 82.1404 52.9499C83.7023 48.6792 84.7019 44.1185 85.0634 39.5756C85.1348 38.0583 85.0322 36.5277 84.7823 35.0238C84.7466 34.8408 85.0411 34.7783 85.0768 34.9702H85.0679Z" fill="#7A3C04"/>
    <path d="M104.23 35.0238C103.681 38.0494 103.971 41.1152 104.529 44.1141C105.065 47.104 105.801 50.1162 106.872 52.95C107.073 53.4944 106.261 53.8157 106.037 53.2668C105.029 50.3036 104.395 47.2869 103.94 44.2078C103.472 41.1554 103.28 38.0093 103.94 34.9702C103.976 34.7873 104.266 34.8319 104.23 35.0238Z" fill="#7A3C04"/>
    <path d="M88.1515 42.0077C88.1515 42.0077 90.6193 40.7671 94.5597 40.8207C96.4072 40.843 98.5761 41.1554 100.968 42.0077C100.968 42.0077 99.2544 39.7452 94.5597 39.6961C89.8651 39.647 88.1515 42.0077 88.1515 42.0077Z" fill="#7A3C04"/>
    <path d="M87.4866 32.7613C87.4866 32.7613 90.6639 31.543 94.5597 31.5876C98.4556 31.6322 101.486 32.7613 101.486 32.7613C101.486 32.7613 98.46 30.1864 94.4883 30.231C90.5167 30.2756 87.491 32.7613 87.491 32.7613H87.4866Z" fill="#7A3C04"/>
    <path d="M107.095 54.1861C107.095 56.7878 97.4872 62.8836 94.716 62.8836C91.5029 62.8836 82.3368 56.694 82.3368 54.1861C82.3368 49.4334 92.4668 51.3033 94.716 51.3033C96.9651 51.3033 107.095 49.5495 107.095 54.1861Z" fill="#541108"/>
    <path d="M102.597 58.7067C101.396 59.5412 99.0715 61.1298 97.9692 61.7189C99.8926 59.8044 98.6297 57.6133 101.214 56.8592C102.717 56.4218 103.342 57.9837 102.597 58.7067Z" fill="#350803"/>
    <path d="M86.67 58.7067C87.8704 59.5412 90.1954 61.1298 91.2976 61.7189C89.3743 59.8044 90.6372 57.6133 88.0533 56.8592C86.5495 56.4218 85.9247 57.9837 86.67 58.7067Z" fill="#350803"/>
    <path d="M107.095 54.1861C105.221 50.7276 97.1793 52.7224 94.716 52.7224C92.2526 52.7224 84.1798 50.6249 82.3368 54.1861C82.3368 49.4334 92.4668 51.3033 94.716 51.3033C96.9651 51.3033 107.095 49.5495 107.095 54.1861Z" fill="#884227"/>
    <path d="M107.095 54.1861C107.095 56.7878 97.4872 62.8836 94.716 62.8836C91.5029 62.8836 82.3368 56.694 82.3368 54.1861C82.3368 49.4334 92.4668 51.3033 94.716 51.3033C96.9651 51.3033 107.095 49.5495 107.095 54.1861Z" stroke="#350803" stroke-width="1.28" stroke-linecap="round" stroke-linejoin="round"/>
    <path d="M94.7204 52.7179C94.7829 53.0749 97.5274 52.2493 101.843 52.4055C103.846 52.4769 106.127 53.5613 106.274 53.2311C106.421 52.9008 104.672 52.0173 101.785 51.8923C99.1205 51.7807 94.6624 52.3966 94.7204 52.7134V52.7179Z" fill="#C1755D"/>
    <path d="M64.9372 68.0825C57.5829 72.8575 52.7901 67.0427 51.8931 64.334C48.7292 54.7841 53.165 47.4476 54.6867 43.2528C56.2084 39.058 55.0928 35.421 56.0567 34.2294C57.6855 32.2124 62.4694 32.3819 63.6877 36.3358C64.9015 40.2896 61.1083 47.336 62.0009 50.5982C62.8934 53.8603 73.7374 62.3749 64.9372 68.087V68.0825Z" fill="#FD9A3F"/>
    <path d="M64.9372 68.0825C57.5829 72.8575 52.7053 67.0695 51.8931 64.334C49.0014 54.5743 53.1649 47.4476 54.6867 43.2528C56.2084 39.058 55.0169 35.836 56.0567 34.2294C57.3017 32.3061 62.4694 32.3819 63.6877 36.3358C64.9015 40.2896 61.1083 47.336 62.0008 50.5982C62.8933 53.8603 73.7374 62.3749 64.9372 68.087V68.0825Z" stroke="#7A3C04" stroke-linecap="round" stroke-linejoin="round"/>
    <path d="M50.1796 69.6042C50.791 67.8014 51.09 66.1056 50.8936 63.5441C50.3313 56.2255 53.174 50.6874 62.3401 42.0836C67.2222 37.5005 86.9512 50.9462 84.1175 56.5244C78.0038 68.56 67.0526 76.6908 66.6733 76.963C64.625 78.4267 61.1799 80.6179 56.6414 77.9002C52.7634 75.5796 49.3942 71.9337 50.1841 69.5998L50.1796 69.6042Z" fill="#FD9A3F"/>
    <path d="M56.9895 47.3851C58.1854 45.7072 59.5733 44.1765 61.0326 42.7306C61.7778 41.9854 62.6123 41.0884 63.7012 40.8787C66.9008 40.2316 70.0291 41.6685 72.8093 43.0073C76.9639 45.1851 83.93 49.9645 84.8225 54.8287C84.9653 55.6721 84.6976 56.5557 84.2335 57.2831C83.8541 57.9391 83.5105 58.6799 83.1089 59.3136C79.4362 65.521 74.5408 70.9698 69.0473 75.6198C65.8298 78.4357 61.9117 80.9124 57.5562 78.8195C54.7537 77.3914 52.1967 75.41 50.4875 72.7414C50.2153 72.2863 49.9788 71.7686 49.836 71.2465C49.7065 70.7065 49.6441 70.113 49.836 69.5329C50.1617 68.5689 50.4072 67.6095 50.5187 66.6188C50.6348 65.6281 50.6303 64.624 50.5589 63.6199C50.4072 61.5627 50.5589 59.4385 51.2104 57.4705C51.264 57.3233 51.4782 57.3813 51.4559 57.533C51.1123 59.5367 51.0542 61.5493 51.2238 63.5709C51.4113 65.6326 51.1926 67.7969 50.5053 69.7515C49.8494 72.9422 55.316 76.9006 57.8731 78.1054C61.8715 80.0333 65.5264 77.5878 68.4895 74.9638C70.0336 73.6473 71.5241 72.255 72.9521 70.8136C75.7769 67.9263 78.4366 64.7802 80.6813 61.4199C81.6809 59.9606 82.5779 58.421 83.4124 56.8591C84.7377 54.9938 83.1535 52.7 81.904 51.1515C78.209 46.8987 72.305 42.9538 66.7714 41.7623C65.388 41.5347 63.8484 41.441 62.7373 42.3424C62.3892 42.6503 61.9965 43.0207 61.6305 43.3643L57.1858 47.5681C57.0787 47.6886 56.8824 47.5145 56.9805 47.3896L56.9895 47.3851Z" fill="#7A3C04"/>
    <path d="M62.3579 42.9225C62.3579 42.9225 68.4404 34.8899 70.3013 32.7657C72.5683 30.1774 80.8196 23.2917 81.8549 23.0373C82.8902 22.7829 88.0222 25.3534 84.9609 30.1373C83.1089 33.029 78.3384 36.5946 75.6832 39.5578C71.9301 43.7526 70.5958 46.3364 68.4449 50.0448C67.6416 51.4282 64.6294 52.6866 61.4877 50.7142C58.3461 48.7417 61.8492 43.5473 62.3535 42.9225H62.3579Z" fill="#FD9A3F"/>
    <path d="M83.1402 24.8759C81.9308 23.4791 73.9874 30.9048 70.7342 34.2562C68.3869 36.6749 63.6521 42.1103 65.1024 42.6057C66.5528 43.101 71.0734 37.2506 73.2199 34.9791C76.607 31.3957 83.6712 25.4873 83.1402 24.8759Z" fill="#FDA44B"/>
    <path d="M71.0644 45.6135C72.3809 43.5964 73.8982 41.5614 75.6876 39.5622C78.3429 36.5946 83.1134 33.0335 84.9653 30.1417C88.0267 25.3578 82.8947 22.7874 81.8594 23.0418C80.8241 23.2961 72.5728 30.1819 70.3058 32.7702C68.4404 34.8944 65.0221 39.4417 62.3401 42.0925" stroke="#7A3C04" stroke-linecap="round" stroke-linejoin="round"/>
    <path d="M67.9272 43.7793C67.9272 43.7793 74.7148 35.7021 76.6292 33.627C78.9632 31.1012 88.2989 24.0012 89.3431 23.7736C90.3829 23.546 95.4479 26.2503 92.2661 30.9494C90.3427 33.7921 84.5682 37.6567 81.8371 40.5574C77.9769 44.654 74.0276 49.8797 74.0276 49.8797C74.0276 49.8797 71.5107 52.1288 68.4226 50.076C65.3345 48.0232 67.4051 44.3907 67.9272 43.7793Z" fill="#FD9A3F"/>
    <path d="M90.1106 25.7416C88.7942 24.443 81.0561 31.8152 77.5797 35.3406C75.0762 37.8798 70.0023 43.5785 71.4883 44.0471C72.9744 44.5156 77.8296 38.4019 80.1234 36.0144C83.7381 32.2525 91.262 26.8796 90.1062 25.7416H90.1106Z" fill="#FDA44B"/>
    <path d="M67.9272 43.7793C67.9272 43.7793 74.7148 35.7021 76.6293 33.627C78.9632 31.1012 88.2989 24.0012 89.3431 23.7736C90.3829 23.546 95.4479 26.2503 92.2661 30.9494C90.3427 33.7921 84.5682 37.6567 81.8371 40.5574C80.3064 42.1817 78.7624 43.9846 77.4548 45.5688" stroke="#7A3C04" stroke-linecap="round" stroke-linejoin="round"/>
    <path d="M72.5951 48.059C72.5951 48.059 77.8832 41.8515 79.8958 39.6336C82.3101 36.9784 90.5525 30.0302 91.5833 29.7624C92.6142 29.4947 97.7774 32.0026 94.7785 36.8222C92.9623 39.7363 88.6336 42.9984 86.0185 45.9972C82.3146 50.2367 78.9275 53.9228 78.9275 53.9228C78.9275 53.9228 76.4998 56.2656 73.3359 54.3333C70.1719 52.3966 72.1042 48.6882 72.5995 48.059H72.5951Z" fill="#FD9A3F"/>
    <path d="M92.7793 31.784C91.5923 30.3649 84.3897 36.9427 81.0785 40.2405C78.691 42.6191 73.8625 47.9786 75.3084 48.4963C76.7498 49.0139 81.3685 43.2438 83.5507 41.0036C86.9958 37.4782 93.297 32.4043 92.7793 31.784Z" fill="#FDA44B"/>
    <path d="M72.5951 48.0589C72.5951 48.0589 77.8832 41.8515 79.8959 39.6336C82.3101 36.9784 90.5525 30.0302 91.5833 29.7624C92.6142 29.4947 97.7774 32.0026 94.7785 36.8222C92.9623 39.7363 88.6336 42.9984 86.0185 45.9972C84.5592 47.6662 83.1491 49.2505 81.9799 50.558" stroke="#7A3C04" stroke-width="2" stroke-linecap="round" stroke-linejoin="round"/>
    <path d="M77.0755 52.2047C77.0755 52.2047 80.3109 47.8938 82.1762 45.7696C84.4432 43.1814 92.9712 36.9248 94.0065 36.6705C95.0418 36.4161 100.174 38.9865 97.1125 43.7704C95.2605 46.6622 91.3513 48.4293 88.696 51.3925C84.943 55.5873 83.332 58.1488 83.332 58.1488C83.332 58.1488 80.8732 60.4604 77.7315 58.488C74.5899 56.5155 76.5668 52.8294 77.0755 52.2047Z" fill="#FD9A3F"/>
    <path d="M95.1401 38.1297C93.9887 36.6794 86.9468 42.512 84.238 45.1806C82.2878 47.1039 78.3786 51.4996 79.6906 52.1422C81.0071 52.7893 84.6976 47.9875 86.4827 46.1713C89.2941 43.3108 95.6399 38.7634 95.1401 38.1297Z" fill="#FDA44B"/>
    <path d="M82.2432 60.2061C82.2432 60.2061 83.7739 56.9127 88.6961 51.3925C91.3468 48.4204 95.2605 46.6622 97.1125 43.7704C100.174 38.9865 95.0419 36.4161 94.0065 36.6705C92.9712 36.9248 84.4477 43.1814 82.1763 45.7696C80.3109 47.8938 76.8524 52.044 76.8524 52.044" stroke="#7A3C04" stroke-linecap="round" stroke-linejoin="round"/>
    <path d="M10.4671 141.416C15.4742 141.96 40.1566 136.137 47.4797 116.769C58.8861 86.6066 60.4703 82.4252 65.3389 76.4007C70.2031 70.3718 73.0146 63.5485 68.7305 58.5951C64.7231 53.9674 56.4406 60.5051 51.3666 66.1904C46.2927 71.8712 27.6034 85.7766 18.6158 94.9784C5.63864 108.259 1.81868 123.427 1.35904 132.277C1.20285 135.289 0.725353 138.319 2.23817 140.158C4.49176 142.898 6.41067 140.979 10.4671 141.42V141.416Z" fill="#FD9A3F"/>
    <path d="M51.4648 66.2841C51.2015 67.2168 50.0546 68.1137 49.3986 68.7742C41.1786 76.316 30.87 84.1478 22.7035 91.7252C12.4619 100.909 4.87109 113.208 2.47023 126.841C2.10876 128.934 1.88563 131.027 1.77853 133.147C1.67589 135.164 1.33673 137.382 2.18016 139.225C3.39398 141.385 4.90679 141.385 7.22287 141.032C8.28496 140.943 9.4363 140.724 10.485 141.255C10.5698 141.3 10.6055 141.407 10.5609 141.492C10.5386 141.536 10.4939 141.572 10.4493 141.581C9.41399 141.885 8.38314 141.755 7.32551 141.92C4.72829 142.362 2.76029 142.175 1.35905 139.635C0.381743 137.538 0.743212 135.267 0.841388 133.089C0.944027 130.947 1.16716 128.791 1.52862 126.676C3.92056 112.842 11.5783 100.249 22.0252 90.9934C30.2319 83.4382 40.5538 75.6555 48.8051 68.145L49.952 67.0472C50.3135 66.6634 50.7017 66.3198 51.2551 66.1011C51.3666 66.0476 51.505 66.1636 51.4603 66.2841H51.4648Z" fill="#7A3C04"/>
    <path d="M38.8045 129.157C38.8581 128.524 39.5498 128.082 39.9246 127.658C42.9145 124.592 45.3511 120.96 46.8951 116.961C50.0011 108.723 54.2629 97.1606 57.6455 89.1637C59.2252 85.4419 60.921 81.6844 63.2773 78.3643L63.8395 77.6056C64.2456 77.0969 64.5312 76.5168 65.2095 76.2981C65.3122 76.2669 65.4238 76.3249 65.4595 76.4275C65.4818 77.1951 64.8838 77.6056 64.558 78.1411L64.0136 78.8819C61.7109 82.1664 60.0821 85.8346 58.5335 89.5341C55.258 97.4909 50.9427 109.165 47.7743 117.305C46.1588 121.41 43.633 125.123 40.5404 128.26C40.179 128.573 39.6167 129.367 38.9875 129.358C38.8759 129.367 38.7822 129.269 38.8 129.157H38.8045Z" fill="#7A3C04"/>
    <path d="M59.4037 76.9006C57.6678 75.0441 44.7531 84.8886 35.0961 97.7899C26.9162 108.714 25.2517 124.989 30.8343 127.167C35.7253 129.077 40.6922 126.587 49.0773 105.64C52.3663 97.4195 61.1754 78.7972 59.4037 76.9006Z" fill="#FDA44B"/>
    <path d="M21.7575 91.9439C21.7575 91.9439 23.7299 93.0104 25.747 95.7817C25.747 95.7817 22.1189 94.0457 19.3789 94.318L21.7575 91.9483V91.9439Z" fill="#7A3C04"/>
    <path d="M6.74988 111.954C6.74988 111.954 16.8933 113.784 19.3656 115.301C19.3656 115.301 15.2243 110.78 8.87406 107.938L6.74988 111.954Z" fill="#7A3C04"/>
    <path d="M44.8155 122.155C44.8155 122.155 43.2402 120.362 35.6896 118.867C35.6896 118.867 43.1198 117.813 46.7925 118.429L44.8111 122.155H44.8155Z" fill="#7A3C04"/>
    <path d="M54.6243 97.7185C54.6243 97.7185 50.1528 94.5679 42.0621 94.6571C42.0621 94.6571 48.2383 97.1562 52.8125 102.618L54.6243 97.7185Z" fill="#7A3C04"/>
    <path d="M35.2388 80.243C35.2388 80.243 37.9878 79.8815 43.2492 82.6974C43.2492 82.6974 40.71 78.6856 38.2154 77.7975L35.2344 80.243H35.2388Z" fill="#7A3C04"/>
    <path d="M61.6618 82.0816C61.6618 82.0816 59.0066 78.7302 58.1498 78.2126C58.1498 78.2126 61.8269 79.1675 63.0541 79.9976L61.6618 82.0771V82.0816Z" fill="#7A3C04"/>
    <path d="M122.879 66.6456C130.077 71.6526 135.053 65.994 136.035 63.3165C139.502 53.8737 135.308 46.3989 133.92 42.1594C132.532 37.92 133.764 34.3187 132.84 33.0959C131.278 31.0253 126.49 31.0432 125.146 34.9568C123.803 38.8705 127.373 46.0329 126.374 49.2638C125.374 52.4947 114.267 60.6568 122.875 66.6456H122.879Z" fill="#FD9A3F"/>
    <path d="M122.879 66.6456C130.077 71.6526 135.138 66.0253 136.035 63.3165C139.239 53.655 135.308 46.3989 133.92 42.1594C132.532 37.92 133.826 34.7337 132.84 33.096C131.657 31.1369 126.49 31.0432 125.146 34.9568C123.803 38.8705 127.373 46.033 126.374 49.2639C125.374 52.4948 114.267 60.6568 122.875 66.6456H122.879Z" stroke="#7A3C04" stroke-linecap="round" stroke-linejoin="round"/>
    <path d="M137.579 68.6403C137.026 66.8196 136.785 65.1149 137.061 62.5623C137.856 55.266 135.196 49.6387 126.311 40.7448C121.576 36.0055 101.428 48.8131 104.078 54.4806C109.804 66.708 120.487 75.1869 120.858 75.4681C122.861 76.9987 126.231 79.2969 130.854 76.7265C134.803 74.5309 138.293 70.9966 137.575 68.6403H137.579Z" fill="#FD9A3F"/>
    <path d="M131.282 46.381L126.972 42.0389C126.619 41.6864 126.24 41.2981 125.901 40.9813C124.821 40.0442 123.281 40.0888 121.889 40.2717C116.319 41.2847 110.29 45.0378 106.462 49.1701C105.158 50.674 103.507 52.9187 104.77 54.8242C105.551 56.4129 106.399 57.9792 107.35 59.4742C109.487 62.9059 112.044 66.1368 114.775 69.1133C116.159 70.5994 117.6 72.0363 119.104 73.4063C121.973 76.1196 125.561 78.6856 129.613 76.8871C132.228 75.7537 137.789 71.9962 137.249 68.7742C136.624 66.7973 136.472 64.6329 136.727 62.5757C136.963 60.5631 136.968 58.546 136.691 56.5334C136.66 56.3816 136.905 56.3325 136.941 56.4798C137.53 58.4656 137.61 60.5943 137.396 62.6471C137.293 63.6512 137.258 64.6552 137.343 65.6459C137.423 66.6411 137.637 67.605 137.932 68.5823C138.141 69.3097 137.981 70.0237 137.74 70.6886C136.713 73.0047 134.683 74.6737 132.657 76.0794C130.033 77.9626 126.757 79.0381 123.642 77.6413C121.661 76.8024 120.068 75.4011 118.533 74.0445C117.002 72.67 115.534 71.2241 114.124 69.7247C111.33 66.7303 108.729 63.4503 106.569 59.9651C105.462 58.2157 104.476 56.3861 103.597 54.5073C102.32 50.7276 107.791 46.4167 110.469 44.4666C113.887 42.1148 117.609 40.0888 121.759 39.3748C124.254 39.0178 125.95 39.3837 127.601 41.4276C127.797 41.5614 132.496 46.863 131.282 46.381Z" fill="#7A3C04"/>
    <path d="M126.266 41.5793C126.266 41.5793 120.447 33.3548 118.653 31.1726C116.467 28.5129 108.443 21.3683 107.417 21.0782C106.39 20.7926 101.178 23.198 104.083 28.0756C105.841 31.0253 110.496 34.7382 113.053 37.7906C116.672 42.1014 117.921 44.7299 119.952 48.5052C120.711 49.9109 123.678 51.272 126.882 49.3977C130.086 47.5235 126.753 42.2219 126.266 41.5793Z" fill="#FD9A3F"/>
    <path d="M106.073 22.8722C107.327 21.5156 115.025 29.1912 118.171 32.6452C120.438 35.1354 124.999 40.7225 123.535 41.1732C122.072 41.6239 117.738 35.6307 115.668 33.2879C112.397 29.5973 105.529 23.4657 106.078 22.8722H106.073Z" fill="#FDA44B"/>
    <path d="M117.48 43.9891C116.226 41.9318 114.775 39.8478 113.053 37.7906C110.496 34.7426 105.841 31.0253 104.083 28.0756C101.178 23.198 106.39 20.7926 107.417 21.0782C108.443 21.3639 116.467 28.5129 118.653 31.1726C120.447 33.3548 123.723 38.0137 126.316 40.7448" stroke="#7A3C04" stroke-linecap="round" stroke-linejoin="round"/>
    <path d="M120.675 42.2576C120.675 42.2576 114.151 33.9661 112.303 31.833C110.049 29.2313 100.946 21.8369 99.915 21.578C98.8796 21.3192 93.7343 23.8539 96.7644 28.6557C98.594 31.5608 104.244 35.6084 106.877 38.5938C110.603 42.811 114.383 48.166 114.383 48.166C114.383 48.166 116.824 50.4955 119.979 48.5409C123.134 46.5863 121.179 42.8913 120.679 42.2621L120.675 42.2576Z" fill="#FD9A3F"/>
    <path d="M99.0805 23.5192C100.437 22.2608 107.939 29.8829 111.295 33.5154C113.718 36.1349 118.6 41.9898 117.105 42.4138C115.605 42.8333 110.946 36.5678 108.729 34.1089C105.234 30.231 97.889 24.6215 99.0805 23.5192Z" fill="#FDA44B"/>
    <path d="M120.675 42.2576C120.675 42.2576 114.151 33.9661 112.303 31.833C110.049 29.2313 100.946 21.8369 99.915 21.578C98.8796 21.3192 93.7343 23.8539 96.7644 28.6557C98.594 31.5608 104.244 35.6084 106.877 38.5938C108.354 40.2673 109.84 42.1193 111.098 43.7436" stroke="#7A3C04" stroke-linecap="round" stroke-linejoin="round"/>
    <path d="M115.873 46.3855C115.873 46.3855 110.79 40.0085 108.844 37.7326C106.515 35.0015 98.5047 27.7899 97.4783 27.4909C96.4564 27.192 91.2129 29.5303 94.06 34.4436C95.7781 37.4157 100.004 40.8117 102.521 43.8954C106.087 48.2508 109.358 52.044 109.358 52.044C109.358 52.044 111.709 54.4627 114.936 52.6331C118.162 50.799 116.351 47.0326 115.873 46.3855Z" fill="#FD9A3F"/>
    <path d="M96.2199 29.4723C97.4515 28.0934 104.44 34.8943 107.644 38.2993C109.956 40.7537 114.606 46.265 113.146 46.738C111.687 47.2111 107.26 41.2937 105.149 38.9865C101.82 35.3495 95.6844 30.0792 96.2243 29.4768L96.2199 29.4723Z" fill="#FDA44B"/>
    <path d="M115.873 46.3855C115.873 46.3855 110.79 40.0085 108.844 37.7326C106.515 35.0015 98.5047 27.7899 97.4783 27.4909C96.4564 27.192 91.2129 29.5303 94.06 34.4436C95.7781 37.4157 100.004 40.8117 102.521 43.8954C103.922 45.609 105.283 47.2378 106.412 48.5811" stroke="#7A3C04" stroke-linecap="round" stroke-linejoin="round"/>
    <path d="M111.259 50.3839C111.259 50.3839 108.162 45.9705 106.368 43.7883C104.181 41.1286 95.8629 34.5998 94.8366 34.3142C93.8102 34.0286 88.5979 36.4339 91.503 41.3115C93.2613 44.2613 97.1125 46.1534 99.6695 49.2014C103.289 53.5122 104.815 56.1228 104.815 56.1228C104.815 56.1228 107.198 58.5147 110.398 56.6405C113.602 54.7662 111.741 51.0221 111.259 50.3795V50.3839Z" fill="#FD9A3F"/>
    <path d="M93.6584 35.7378C94.8543 34.3276 101.709 40.3833 104.328 43.1323C106.216 45.1136 109.982 49.6342 108.648 50.2367C107.314 50.8391 103.775 45.9214 102.052 44.0516C99.3348 41.1018 93.1362 36.3536 93.6584 35.7378Z" fill="#FDA44B"/>
    <path d="M105.837 58.2158C105.837 58.2158 104.413 54.8733 99.6695 49.1969C97.1169 46.14 93.2613 44.2568 91.503 41.3071C88.5979 36.4295 93.8102 34.0242 94.8366 34.3098C95.8629 34.5954 104.181 41.1241 106.368 43.7838C108.162 45.966 111.486 50.2278 111.486 50.2278" stroke="#7A3C04" stroke-linecap="round" stroke-linejoin="round"/>
    <path d="M174.966 141.693C169.942 142.076 145.464 135.463 138.766 115.872C128.333 85.3571 126.882 81.1311 122.214 74.9504C117.547 68.7698 114.958 61.8572 119.398 57.0466C123.553 52.5483 131.621 59.3537 136.512 65.1952C141.399 71.0367 159.633 85.5356 168.322 95.0186C180.861 108.71 184.191 123.99 184.365 132.852C184.423 135.869 184.802 138.912 183.236 140.697C180.897 143.362 179.036 141.385 174.971 141.697L174.966 141.693Z" fill="#FD9A3F"/>
    <path d="M136.615 65.1015C137.159 65.3336 137.543 65.695 137.887 66.0877L138.998 67.2212C139.752 67.9665 140.515 68.7073 141.296 69.4302C144.313 72.2862 152.377 79.3237 155.612 82.2155C161.958 87.9454 168.482 93.6129 173.512 100.601C179.759 109.335 183.869 119.714 184.708 130.456C184.838 132.62 184.931 134.727 184.882 136.909C184.829 137.998 184.677 139.149 184.119 140.202C182.651 142.674 180.674 142.831 178.081 142.295C177.033 142.099 175.993 142.192 174.971 141.858C174.873 141.827 174.819 141.724 174.855 141.626C175.828 140.943 177.153 141.318 178.215 141.407C180.504 141.831 182.031 141.893 183.316 139.765C184.222 137.949 183.95 135.722 183.914 133.705C183.874 131.58 183.718 129.483 183.423 127.377C181.464 113.677 174.27 101.141 164.328 91.6315C156.407 83.7952 146.352 75.6376 138.382 67.8326L137.258 66.6768C136.896 66.2752 136.562 65.8378 136.396 65.2755C136.356 65.1595 136.499 65.039 136.606 65.097L136.615 65.1015Z" fill="#7A3C04"/>
    <path d="M146.848 128.724C146.187 128.675 145.75 127.979 145.335 127.578C142.341 124.347 139.94 120.553 138.454 116.399C135.535 108.116 131.63 96.3975 128.596 88.298C127.168 84.5539 125.659 80.8321 123.464 77.4762L122.946 76.7176C122.634 76.1821 122.121 75.7983 122.089 75.0486C122.183 74.4685 123.018 75.2628 123.134 75.4413C123.45 75.834 123.915 76.5569 124.218 76.9809C126.467 80.3724 128.042 84.1835 129.502 87.9543C131.287 92.6043 132.92 97.2945 134.562 101.985L139.355 116.086C140.167 118.394 141.261 120.598 142.599 122.651C143.599 124.19 144.741 125.641 145.978 127.002L146.607 127.676C146.825 127.894 147.008 128.14 147.049 128.541C147.062 128.649 146.964 128.747 146.857 128.733L146.848 128.724Z" fill="#7A3C04"/>
    <path d="M128.127 75.6376C129.921 73.8348 142.515 84.0897 151.748 97.2945C159.571 108.478 160.713 124.797 155.063 126.797C150.114 128.546 145.232 125.9 137.521 104.693C134.495 96.3707 126.289 77.4762 128.123 75.6376H128.127Z" fill="#FDA44B"/>
    <path d="M165.269 91.8814C165.269 91.8814 163.266 92.881 161.159 95.5853C161.159 95.5853 164.841 93.9699 167.572 94.3269L165.269 91.8814Z" fill="#7A3C04"/>
    <path d="M179.63 112.365C179.63 112.365 169.433 113.869 166.916 115.305C166.916 115.305 171.2 110.923 177.635 108.286L179.63 112.365Z" fill="#7A3C04"/>
    <path d="M141.256 121.334C141.256 121.334 142.889 119.594 150.48 118.34C150.48 118.34 143.086 117.046 139.395 117.546L141.256 121.334Z" fill="#7A3C04"/>
    <path d="M132.233 96.5939C132.233 96.5939 136.803 93.5906 144.889 93.9387C144.889 93.9387 138.632 96.2414 133.888 101.552L132.233 96.5939Z" fill="#7A3C04"/>
    <path d="M152.172 79.7521C152.172 79.7521 149.436 79.3014 144.085 81.9477C144.085 81.9477 146.75 78.0207 149.271 77.2085L152.172 79.7477V79.7521Z" fill="#7A3C04"/>
    <path d="M125.704 80.7428C125.704 80.7428 128.466 77.4762 129.337 76.9898C129.337 76.9898 125.628 77.8243 124.379 78.6186L125.7 80.7428H125.704Z" fill="#7A3C04"/>
  </g>
  <defs>
    <clipPath id="clip0_1_1455">
      <rect width="184.206" height="186" fill="white" transform="translate(0.694092 0.0327454)"/>
    </clipPath>
  </defs>
</svg>