<svg width="31" height="31" viewBox="0 0 31 31" fill="none" xmlns="http://www.w3.org/2000/svg">
<g id="insta">
<circle id="Ellipse 67" cx="15.9672" cy="15.5384" r="14.5987" stroke="#D7B27B" stroke-width="0.802618"/>
<g id="Group 1274">
<path id="Vector" d="M18.6131 9.76892H13.3214C11.5991 9.76892 10.198 11.17 10.198 12.8923V18.1841C10.198 19.9063 11.5991 21.3074 13.3214 21.3074H18.6132C20.3354 21.3074 21.7365 19.9063 21.7365 18.1841V12.8923C21.7365 11.17 20.3354 9.76892 18.6131 9.76892ZM15.9672 18.6931C14.2276 18.6931 12.8123 17.2778 12.8123 15.5382C12.8123 13.7985 14.2276 12.3832 15.9672 12.3832C17.7069 12.3832 19.1222 13.7985 19.1222 15.5382C19.1222 17.2778 17.7069 18.6931 15.9672 18.6931ZM19.1977 13.1272C18.6835 13.1272 18.2654 12.7091 18.2654 12.195C18.2654 11.6809 18.6835 11.2626 19.1977 11.2626C19.7118 11.2626 20.13 11.6809 20.13 12.195C20.13 12.7091 19.7118 13.1272 19.1977 13.1272Z" fill="#D7B27B"/>
</g>
</g>
</svg>
