<svg xmlns="http://www.w3.org/2000/svg" width="146" height="30" viewBox="0 0 146 30" fill="none">
  <path d="M36.0632 21.3362V6.78875H40.0735L44.0838 15.829H44.6115L48.6218 6.78875H52.5265V21.3362H50.0993V11.153L50.3103 9.17869H50.0993L46.1945 18.0111H42.3953L38.4905 9.17869H38.2794L38.4905 11.153V21.3362H36.0632ZM55.2688 17.0759V10.7373H57.485V16.8681C57.485 17.7963 57.6889 18.4821 58.0971 18.9255C58.5192 19.355 59.1596 19.5697 60.0178 19.5697C60.8761 19.5697 61.5797 19.2857 62.1285 18.7177C62.6913 18.1358 62.9728 17.3807 62.9728 16.4524V10.7373H65.189V21.3362H62.9728V19.8815H62.8672C62.6984 20.1586 62.438 20.4356 62.0863 20.7128C61.3265 21.2669 60.4611 21.544 59.4902 21.544C58.1533 21.544 57.1122 21.163 56.3664 20.401C55.6348 19.639 55.2688 18.5306 55.2688 17.0759ZM67.7186 21.3362V6.78875H69.9348V19.3619H72.3621V21.3362H67.7186ZM72.9959 12.7116V10.7373H74.2623V8.45132H76.4785V10.7373H79.7501V12.7116H76.4785V19.3619H79.8556V21.3362H74.2623V12.7116H72.9959ZM81.9241 8.80462C81.6708 8.55523 81.5442 8.25044 81.5442 7.8902C81.5442 7.52997 81.6708 7.22518 81.9241 6.97579C82.1774 6.71256 82.4872 6.58093 82.8528 6.58093C83.2188 6.58093 83.5282 6.71256 83.7815 6.97579C84.0491 7.22518 84.1825 7.52997 84.1825 7.8902C84.1825 8.25044 84.0491 8.55523 83.7815 8.80462C83.5282 9.054 83.2188 9.17869 82.8528 9.17869C82.4872 9.17869 82.1774 9.054 81.9241 8.80462ZM81.7552 21.3362V10.7373H83.9715V21.3362H81.7552Z" fill="#1F1E1C"/>
  <path d="M86.7073 21.3359V6.78845H89.1346V12.8153H91.5618L95.9943 6.78845H98.8437L93.6725 13.7505L99.0548 21.3359H96.0998L91.6674 15.1013H89.1346V21.3359H86.7073ZM100.593 20.0266C99.6363 19.0014 99.1577 17.6713 99.1577 16.0365C99.1577 14.4016 99.6363 13.0785 100.593 12.0671C101.564 11.0418 102.774 10.5292 104.223 10.5292C105.138 10.5292 105.975 10.7925 106.735 11.3189C107.059 11.5406 107.347 11.7969 107.6 12.0879H107.706V10.737H109.922V21.3359H107.706V19.8812H107.6C107.389 20.1721 107.101 20.4492 106.735 20.7124C105.975 21.2666 105.138 21.5437 104.223 21.5437C102.774 21.5437 101.564 21.038 100.593 20.0266ZM102.324 13.4179C101.761 14.0276 101.479 14.9004 101.479 16.0365C101.479 17.1726 101.761 18.0454 102.324 18.655C102.887 19.2646 103.661 19.5694 104.645 19.5694C105.574 19.5694 106.313 19.2646 106.862 18.655C107.425 18.0316 107.706 17.1587 107.706 16.0365C107.706 14.9142 107.425 14.0483 106.862 13.4387C106.313 12.8153 105.574 12.5035 104.645 12.5035C103.661 12.5035 102.887 12.8083 102.324 13.4179ZM111.708 18.0108H114.135C114.234 18.2879 114.41 18.5511 114.663 18.8005C115.184 19.3131 115.887 19.5694 116.774 19.5694C117.548 19.5694 118.111 19.4517 118.462 19.2161C118.814 18.9806 118.99 18.6827 118.99 18.3225C118.99 18.1978 118.962 18.087 118.906 17.99C118.849 17.8791 118.751 17.7822 118.61 17.699C118.469 17.6159 118.336 17.5466 118.209 17.4912C118.082 17.4219 117.892 17.3596 117.639 17.3042C117.386 17.2349 117.182 17.1864 117.027 17.1587C116.872 17.1171 116.633 17.0617 116.309 16.9925C116 16.9232 115.768 16.8747 115.613 16.847C113.362 16.3482 112.236 15.2814 112.236 13.6465C112.236 12.8153 112.623 12.0879 113.397 11.4644C114.17 10.841 115.191 10.5292 116.457 10.5292C118.216 10.5292 119.532 11.0834 120.404 12.1918C120.798 12.6767 121.066 13.2309 121.206 13.8544H118.884C118.772 13.5773 118.617 13.3556 118.42 13.1893C117.927 12.7321 117.273 12.5035 116.457 12.5035C115.824 12.5035 115.346 12.6144 115.022 12.836C114.712 13.0577 114.558 13.3348 114.558 13.6673C114.558 13.792 114.586 13.9098 114.642 14.0206C114.698 14.1176 114.797 14.2077 114.937 14.2908C115.078 14.3739 115.212 14.4432 115.338 14.4986C115.479 14.554 115.669 14.6164 115.908 14.6856C116.148 14.7411 116.352 14.7896 116.52 14.8311C116.689 14.8588 116.922 14.9073 117.217 14.9766C117.526 15.032 117.766 15.0805 117.935 15.1221C120.186 15.6208 121.312 16.6877 121.312 18.3225C121.312 19.2092 120.904 19.9712 120.088 20.6085C119.285 21.232 118.181 21.5437 116.774 21.5437C114.945 21.5437 113.544 20.9549 112.574 19.7773C112.137 19.2369 111.849 18.6481 111.708 18.0108ZM122.468 18.0108H124.895C124.993 18.2879 125.169 18.5511 125.423 18.8005C125.943 19.3131 126.647 19.5694 127.533 19.5694C128.307 19.5694 128.87 19.4517 129.222 19.2161C129.574 18.9806 129.75 18.6827 129.75 18.3225C129.75 18.1978 129.721 18.087 129.665 17.99C129.609 17.8791 129.51 17.7822 129.37 17.699C129.229 17.6159 129.095 17.5466 128.969 17.4912C128.842 17.4219 128.652 17.3596 128.399 17.3042C128.145 17.2349 127.941 17.1864 127.787 17.1587C127.632 17.1171 127.392 17.0617 127.069 16.9925C126.759 16.9232 126.527 16.8747 126.372 16.847C124.121 16.3482 122.995 15.2814 122.995 13.6465C122.995 12.8153 123.382 12.0879 124.156 11.4644C124.93 10.841 125.95 10.5292 127.217 10.5292C128.975 10.5292 130.291 11.0834 131.164 12.1918C131.558 12.6767 131.825 13.2309 131.966 13.8544H129.644C129.531 13.5773 129.376 13.3556 129.18 13.1893C128.687 12.7321 128.033 12.5035 127.217 12.5035C126.584 12.5035 126.105 12.6144 125.781 12.836C125.472 13.0577 125.317 13.3348 125.317 13.6673C125.317 13.792 125.345 13.9098 125.402 14.0206C125.458 14.1176 125.556 14.2077 125.697 14.2908C125.838 14.3739 125.971 14.4432 126.098 14.4986C126.239 14.554 126.429 14.6164 126.668 14.6856C126.907 14.7411 127.111 14.7896 127.28 14.8311C127.449 14.8588 127.681 14.9073 127.977 14.9766C128.286 15.032 128.525 15.0805 128.694 15.1221C130.946 15.6208 132.071 16.6877 132.071 18.3225C132.071 19.2092 131.663 19.9712 130.847 20.6085C130.045 21.232 128.94 21.5437 127.533 21.5437C125.704 21.5437 124.304 20.9549 123.333 19.7773C122.897 19.2369 122.608 18.6481 122.468 18.0108ZM134.768 20.0266C133.811 19.0014 133.333 17.6713 133.333 16.0365C133.333 14.4016 133.811 13.0785 134.768 12.0671C135.739 11.0418 136.949 10.5292 138.398 10.5292C139.313 10.5292 140.15 10.7925 140.91 11.3189C141.234 11.5406 141.522 11.7969 141.775 12.0879H141.881V10.737H144.097V21.3359H141.881V19.8812H141.775C141.564 20.1721 141.276 20.4492 140.91 20.7124C140.15 21.2666 139.313 21.5437 138.398 21.5437C136.949 21.5437 135.739 21.038 134.768 20.0266ZM136.499 13.4179C135.936 14.0276 135.654 14.9004 135.654 16.0365C135.654 17.1726 135.936 18.0454 136.499 18.655C137.062 19.2646 137.835 19.5694 138.82 19.5694C139.749 19.5694 140.488 19.2646 141.037 18.655C141.6 18.0316 141.881 17.1587 141.881 16.0365C141.881 14.9142 141.6 14.0483 141.037 13.4387C140.488 12.8153 139.749 12.5035 138.82 12.5035C137.835 12.5035 137.062 12.8083 136.499 13.4179Z" fill="#D7B27B"/>
  <path d="M4.52182 12.4334C4.54604 12.4334 4.5702 12.4315 4.59413 12.4278L11.3272 11.3774C11.4027 11.3656 11.474 11.3356 11.5348 11.29C11.5956 11.2444 11.6439 11.1847 11.6755 11.1161L14.4911 5.0032C14.5256 4.92845 14.5388 4.8459 14.5294 4.76434C14.52 4.68278 14.4884 4.60524 14.4379 4.53996C14.3874 4.47464 14.3199 4.42406 14.2425 4.39349C14.1651 4.36296 14.0807 4.35359 13.9984 4.36644L7.26528 5.41683C7.18982 5.4286 7.11851 5.45865 7.05772 5.50424C6.99696 5.54984 6.94861 5.60956 6.91705 5.67808L4.1014 11.791C4.06952 11.8602 4.05575 11.9363 4.06143 12.0121C4.06708 12.0879 4.09195 12.1611 4.13378 12.225C4.1756 12.2889 4.23304 12.3415 4.30085 12.3779C4.36862 12.4143 4.4446 12.4334 4.52182 12.4334ZM7.89391 10.0206L9.58998 10.7278L6.25836 11.2476L7.89391 10.0206ZM8.18028 8.6628L7.85449 6.24549L12.3342 5.54664L8.18028 8.6628ZM7.33428 9.29745L5.69877 10.5244L7.09198 7.49964L7.33428 9.29745ZM11.0205 10.3369L8.73987 9.38599L12.8938 6.26982L11.0205 10.3369Z" fill="#D7B27B"/>
  <path d="M28.7172 16.0021C28.4411 14.0062 27.4286 11.8982 25.8661 10.0667C23.8454 7.69812 21.2336 6.17185 18.8429 5.95239C18.7086 5.63311 18.5329 5.33229 18.3202 5.05732L16.6413 2.88766C15.645 1.60006 13.9312 0.991985 11.8155 1.17517C9.77754 1.35173 7.59094 2.24729 5.65853 3.69696C3.72612 5.14662 2.26878 6.98462 1.55499 8.87243C0.81398 10.8322 0.954604 12.6205 1.95096 13.9081L2.91607 15.1553C2.72399 15.4143 2.56442 15.6953 2.44082 15.992L1.39191 18.5166C0.7694 20.0148 1.1054 21.7778 2.33796 23.4807C3.52528 25.1211 5.41746 26.5234 7.66595 27.4291C9.30676 28.09 11.0002 28.4314 12.5787 28.4313C13.1478 28.4329 13.7161 28.3855 14.2769 28.2897C16.3682 27.9256 17.8628 26.9 18.4853 25.4017L19.471 23.0292C19.6465 23.0963 19.8223 23.1576 19.9984 23.2131C20.695 23.44 21.4231 23.5597 22.1569 23.5679C23.2948 23.5679 24.2993 23.2366 25.0882 22.5841L27.2094 20.8298C28.4682 19.7887 29.0037 18.0742 28.7172 16.0021ZM15.563 19.1816L16.9766 18.0124C17.5982 18.6987 18.2892 19.3208 19.0389 19.8691L17.6457 21.0214C16.8848 20.4854 16.1863 19.8685 15.563 19.1816ZM14.9694 18.4852C14.7768 18.2429 14.5938 17.9953 14.4205 17.7424C14.4004 17.7081 14.3793 17.6743 14.3568 17.6411L14.3528 17.6437C14.0115 17.1376 13.709 16.6071 13.4479 16.0567C13.8439 15.816 14.2321 15.5533 14.6127 15.2685C14.7119 15.194 14.8097 15.1185 14.9062 15.0419C15.3196 15.8469 15.8143 16.6088 16.3828 17.3162L14.9694 18.4852ZM13.6757 18.9956C13.583 19.2188 13.404 19.3966 13.1782 19.4898C12.9524 19.5831 12.6982 19.5842 12.4715 19.4929L10.3348 18.6322L10.906 17.2574C11.5032 17.0516 12.0838 16.8018 12.6428 16.51C12.9302 17.1088 13.2638 17.6849 13.6408 18.2333C13.7024 18.3503 13.7375 18.479 13.7435 18.6107C13.7495 18.7423 13.7264 18.8737 13.6757 18.9956ZM12.6237 20.8243C12.6944 20.9901 12.7135 21.1729 12.6786 21.3494C12.6438 21.5259 12.5566 21.6883 12.428 21.816C12.2994 21.9438 12.1352 22.031 11.9563 22.0669C11.7773 22.1028 11.5916 22.0856 11.4225 22.0175L9.28585 21.1568L9.98513 19.4738L12.1218 20.3344C12.2342 20.3793 12.3364 20.4458 12.4226 20.5299C12.5088 20.614 12.5771 20.714 12.6237 20.8243ZM6.05274 15.6526C6.1021 15.6526 6.15194 15.6519 6.20185 15.6509L7.15851 16.8873C5.94129 16.7772 4.97123 16.311 4.36439 15.5268L4.28431 15.4233C4.86014 15.5801 5.45532 15.6573 6.05274 15.6526ZM8.37475 16.8846C8.35656 16.8861 8.33864 16.8873 8.32052 16.8887L7.29281 15.5606C7.95732 15.4627 8.61075 15.3024 9.24425 15.0819L10.3326 16.4884C9.69665 16.6906 9.04013 16.8235 8.37475 16.8846ZM12.5621 13.3686L13.681 14.8145C12.9198 15.3501 12.1009 15.8012 11.2392 16.1598L10.1365 14.7348C10.9901 14.3618 11.8028 13.904 12.5621 13.3686ZM14.4154 14.2635L13.2966 12.8176C14.0224 12.2389 14.6864 11.5889 15.2782 10.8776L16.3809 12.3027C15.801 13.0255 15.1419 13.6831 14.4154 14.2635ZM16.9432 11.5292L15.8549 10.1227C16.2389 9.57985 16.5693 9.00208 16.8416 8.39729L17.8693 9.72536C17.863 9.74218 17.8572 9.7589 17.8508 9.77575C17.6144 10.3912 17.31 10.9792 16.9432 11.5292ZM18.1763 8.62193L17.2198 7.38575C17.4092 6.77626 17.5056 6.1424 17.5058 5.50503L17.5857 5.60834C18.1926 6.39255 18.3917 7.43725 18.1763 8.62193ZM2.42036 9.18966C3.07407 7.46085 4.42281 5.76701 6.21815 4.42018C8.01349 3.07335 10.0301 2.24257 11.8964 2.08086C12.1159 2.06186 12.3296 2.05239 12.5377 2.05245C14.025 2.05245 15.2072 2.53456 15.9069 3.43865C16.7043 4.46922 16.7984 5.94926 16.172 7.6061C15.5182 9.33491 14.1695 11.0288 12.3742 12.3756C10.5788 13.7224 8.56221 14.5532 6.69588 14.7149C4.90739 14.8699 3.48359 14.3878 2.68599 13.3578L2.68546 13.3571C1.88804 12.3265 1.79388 10.8465 2.42036 9.18966ZM3.62987 16.0778C4.50993 17.2151 5.94951 17.8223 7.73161 17.8223C7.96706 17.8223 8.20842 17.8116 8.4557 17.7902C8.89949 17.7508 9.33994 17.6809 9.77383 17.581L8.43118 20.8125L7.57652 20.4683L7.22686 21.3098L8.08152 21.6541L7.7319 22.4956L8.58656 22.8398L8.93622 21.9983L9.79088 22.3426L9.44122 23.1841L10.2959 23.5284L10.6455 22.6869L11.0729 22.859C11.4109 22.9951 11.7825 23.0296 12.1404 22.9579C12.4983 22.8861 12.8266 22.7115 13.0838 22.4561C13.3409 22.2007 13.5154 21.8759 13.5851 21.5229C13.6548 21.1698 13.6166 20.8044 13.4753 20.4727C13.46 20.4369 13.4433 20.4019 13.426 20.3674C13.6671 20.2853 13.8882 20.1549 14.0754 19.9843C14.2627 19.8138 14.4118 19.6067 14.5135 19.3764C14.5267 19.392 14.5396 19.4078 14.5528 19.4233C15.7461 20.822 17.1559 21.9369 18.6236 22.6587C18.0921 23.79 16.8706 24.5729 15.165 24.8698C13.3201 25.1909 11.1535 24.9044 9.06455 24.063C6.97546 23.2215 5.2262 21.9307 4.13887 20.4285C3.09678 18.9887 2.79725 17.5354 3.29548 16.3363C3.35564 16.1927 3.42686 16.0538 3.50849 15.9209L3.62987 16.0778ZM8.29032 24.7257L7.59126 26.4081C6.73666 26.0334 5.92668 25.567 5.17606 25.0173L5.86495 23.3592C6.62415 23.8947 7.43679 24.3525 8.29032 24.7257ZM9.14531 25.0692C10.0196 25.3923 10.9251 25.6267 11.8477 25.7689L11.1587 27.4271C10.232 27.3012 9.32221 27.0749 8.44592 26.7524L9.14531 25.0692ZM2.24657 18.8608L2.29652 18.7406C2.46489 19.3561 2.72518 19.9435 3.06886 20.4836L2.47125 21.922C1.95078 20.8331 1.86745 19.7733 2.24657 18.8608ZM3.08996 22.953C3.07935 22.9384 3.0693 22.9237 3.05884 22.9091L3.70089 21.3638C4.12338 21.8782 4.59484 22.3516 5.10887 22.7776L4.42894 24.4141C3.92965 23.9768 3.48063 23.4869 3.08996 22.953ZM12.1209 27.5125L12.801 25.8757C13.0793 25.8959 13.3553 25.9067 13.6276 25.9067C14.0233 25.9071 14.4187 25.8845 14.8117 25.839L14.1696 27.3845C14.1517 27.3877 14.1341 27.3912 14.1161 27.3944C13.4574 27.5055 12.7884 27.5451 12.1209 27.5125ZM15.2913 27.0859L15.8889 25.6475C16.5186 25.4994 17.1224 25.2601 17.6806 24.9373L17.6307 25.0575C17.2515 25.97 16.4377 26.6684 15.2913 27.0859ZM18.4571 21.5376L19.8322 20.4004C20.4011 20.7522 21.003 21.0497 21.6295 21.2887L20.3311 22.3626C20.3137 22.3573 20.2965 22.3523 20.279 22.3469C19.6435 22.1436 19.0325 21.8722 18.4571 21.5376ZM24.4942 21.888C23.7275 22.5221 22.6771 22.7676 21.4651 22.6121L22.6736 21.6126C23.1984 21.7426 23.7371 21.81 24.2781 21.8136C24.3855 21.8136 24.4912 21.8096 24.596 21.8037L24.4942 21.888ZM26.6154 20.1336C25.6079 20.9669 24.1109 21.1298 22.4002 20.5925C20.6154 20.0318 18.8329 18.7858 17.3811 17.0842C16.6864 16.2756 16.098 15.3839 15.6299 14.4303C17.0564 13.1402 18.1338 11.6332 18.7162 10.093C19.1487 8.94933 19.2803 7.86421 19.1174 6.90274C21.1531 7.21869 23.4227 8.61621 25.159 10.6515C26.6107 12.3531 27.5494 14.2969 27.8022 16.1248C28.0444 17.8766 27.623 19.3003 26.6154 20.1336Z" fill="#D7B27B"/>
  <path d="M20.4711 16.3833L21.2796 15.8539C21.4303 16.01 21.6029 16.1263 21.7972 16.2029C22.2241 16.3746 22.6577 16.3164 23.0979 16.0282C23.4527 15.7958 23.6678 15.5531 23.743 15.3C23.8148 15.0418 23.7689 14.7916 23.6053 14.5494C23.4757 14.3576 23.2931 14.2551 23.0575 14.242C22.8264 14.2259 22.5381 14.2691 22.1927 14.3715C21.5221 14.5777 21.0545 14.691 20.7897 14.7115C20.0677 14.7839 19.5175 14.54 19.1391 13.9798C18.8834 13.6012 18.783 13.1792 18.8379 12.7138C18.8973 12.2454 19.1199 11.8412 19.5057 11.5012L19.0199 10.782L19.7947 10.2747L20.2805 10.9939C20.8856 10.7578 21.4672 10.7846 22.0256 11.0741C22.2822 11.2046 22.513 11.3737 22.7182 11.5815L21.9096 12.1109C21.7827 11.9902 21.6414 11.9008 21.4855 11.8427C21.1264 11.7139 20.7492 11.7789 20.3539 12.0377C20.0485 12.2377 19.8627 12.4613 19.7964 12.7086C19.7302 12.9557 19.772 13.1904 19.9221 13.4125C20.1471 13.7456 20.6196 13.8074 21.3398 13.5979C21.3994 13.5807 21.5142 13.5492 21.6841 13.5034C21.8506 13.4526 21.9716 13.4207 22.047 13.4077C22.1235 13.3867 22.2417 13.3603 22.4016 13.3284C22.5625 13.2885 22.6881 13.2682 22.7782 13.2674C22.8684 13.2666 22.985 13.2667 23.1282 13.2676C23.2679 13.2634 23.3863 13.2805 23.4835 13.3188C23.5817 13.3491 23.6867 13.3895 23.7986 13.4401C23.9149 13.4876 24.0218 13.5595 24.1193 13.6559C24.2134 13.7472 24.303 13.8559 24.3882 13.9821C24.6746 14.406 24.7785 14.8476 24.6999 15.3067C24.6224 15.7578 24.3936 16.1624 24.0135 16.5205L24.4993 17.2397L23.7245 17.7471L23.2387 17.0279C22.5427 17.3308 21.88 17.3134 21.2503 16.9759C20.9598 16.824 20.7001 16.6265 20.4711 16.3833Z" fill="#D7B27B"/>
</svg>