<svg xmlns="http://www.w3.org/2000/svg" width="248" height="187" viewBox="0 0 248 187" fill="none">
  <g clip-path="url(#clip0_1_1682)">
    <path d="M132.233 158.738C125.113 164.3 120.793 162.451 117.16 160.116C112.119 156.874 110.917 148.245 112.47 142.779C114.024 137.307 116.925 133.954 118.072 131.213C119.22 128.472 118.794 125.235 120.222 120.164C120.919 117.679 122.562 115.239 124.055 113.405C125.609 111.495 126.997 110.233 126.997 110.233L156.13 124.078C154.837 126.618 154.732 127.23 150.749 134.681C144.154 147.023 137.71 154.464 132.228 158.743L132.233 158.738Z" fill="#F47F2D"/>
    <path d="M112.47 142.774C114.319 137.397 116.925 133.949 118.072 131.208C119.22 128.467 118.794 125.23 120.222 120.159C120.919 117.674 123.569 114.056 125.063 112.217C125.063 112.217 138.557 122.88 141.047 131.248C143.673 140.068 143.673 148.331 133.316 157.856C120.618 169.542 108.106 155.466 112.47 142.774Z" fill="#FD9A3F"/>
    <path d="M158.786 117.859C156.832 122.64 154.787 127.365 150.754 134.671C143.989 146.918 137.71 154.444 132.233 158.733C125.704 163.849 120.498 162.672 117.16 160.111C111.869 156.057 110.917 148.24 112.47 142.774C114.024 137.302 116.925 133.949 118.072 131.208C119.22 128.467 118.794 125.23 120.222 120.159C120.919 117.674 122.562 115.234 124.055 113.4C125.609 111.49 126.997 110.228 126.997 110.228" stroke="#7A3C04" stroke-width="2" stroke-linecap="round" stroke-linejoin="round"/>
    <path d="M156.135 124.068C138.276 124.018 125.063 112.217 125.063 112.217C126.616 110.308 126.997 110.223 126.997 110.223C126.997 110.223 134.198 73.167 159.498 83.5546C182.127 92.8448 158.701 117.779 156.135 124.068Z" fill="#222222"/>
    <path d="M156.135 124.068C138.276 124.018 125.063 112.217 125.063 112.217C126.616 110.308 126.997 110.223 126.997 110.223C126.997 110.223 133.406 73.7683 159.498 83.5546C182.463 92.1684 158.701 117.779 156.135 124.068Z" stroke="black" stroke-width="2" stroke-linecap="round" stroke-linejoin="round"/>
    <path d="M146.179 142.353C146.179 142.353 141.133 139.055 134.704 138.334C134.704 138.334 138.512 140.163 143.723 145.91C143.723 145.91 145.207 144.036 146.179 142.353Z" fill="#7A3C04"/>
    <path d="M117.737 131.945C117.737 131.945 121.77 133.694 125.534 137.226C125.534 137.226 122.156 135.813 115.807 135.302C115.807 135.302 116.885 133.333 117.737 131.945Z" fill="#7A3C04"/>
    <path d="M121.375 117.719C121.375 117.719 125.579 120.074 131.266 124.028C131.266 124.028 124.466 121.643 119.806 121.367L121.375 117.724V117.719Z" fill="#7A3C04"/>
    <path d="M153.56 129.394C153.56 129.394 150.057 127.29 145.803 127.099C145.803 127.099 149.586 128.783 151.871 132.621L153.56 129.394Z" fill="#7A3C04"/>
    <path d="M135.17 149.829C136.828 153.808 134.303 156.774 133.601 157.511C130.404 160.893 128.004 164.646 117.396 164.736C108.031 164.812 78.827 165.127 73.9313 165.713C69.0357 166.3 60.3919 166.24 60.001 159.786C59.5901 152.926 67.7679 151.568 70.0529 151.422C76.2514 151.037 91.1288 146.066 95.8942 144.447C102.744 142.117 112.124 137.963 119.11 139.552C127.142 141.38 132.825 144.202 135.165 149.829H135.17Z" fill="#FD9A3F"/>
    <path d="M82.1843 154.078C82.3747 156.544 95.5434 156.067 101.982 155.261C108.421 154.454 122.647 152.289 122.226 147.298C121.861 142.984 111.899 142.683 101.727 145.53C91.5497 148.371 82.019 151.913 82.1843 154.073V154.078Z" fill="#FDA44B"/>
    <path d="M77.5642 150.024C77.5642 150.024 79.3882 152.084 80.4004 155.145C80.4004 155.145 80.9466 152.44 79.8242 149.463L77.5642 150.024Z" fill="#7A3C04"/>
    <path d="M76.4819 165.603C76.4819 165.603 77.915 163.103 77.7446 161.459C77.7446 161.459 78.3058 163.143 78.9773 165.633L76.4819 165.603Z" fill="#7A3C04"/>
    <path d="M92.3564 165.057C92.3564 165.057 93.975 163.268 94.2957 156.714C94.2957 156.714 96.1297 161.805 95.8791 165.052H92.3615L92.3564 165.057Z" fill="#7A3C04"/>
    <path d="M96.2599 144.507C96.2599 144.507 98.9207 147.073 100.895 152.86C100.895 152.86 100.885 146.893 99.978 143.27L96.265 144.507H96.2599Z" fill="#7A3C04"/>
    <path d="M110.651 139.827C110.651 139.827 112.34 141.17 113.432 144.618C113.432 144.618 114.675 141.38 113.713 139.331L110.651 139.827Z" fill="#7A3C04"/>
    <path d="M117.396 164.731C117.396 164.731 117.366 161.098 115.331 154.489C115.331 154.489 121.515 160.021 121.665 164.27L117.401 164.731H117.396Z" fill="#7A3C04"/>
    <path d="M130.775 160.171C130.775 160.171 131.006 158.002 128.56 154.319C128.56 154.319 132.238 156.864 133.12 158.327L130.775 160.171Z" fill="#7A3C04"/>
    <path d="M69.171 150.896C73.3902 150.766 77.6043 149.548 81.6832 148.426C85.8122 147.243 89.8911 145.885 93.985 144.532C101.186 142.458 108.226 138.705 115.908 138.85C117.005 138.905 118.108 139.075 119.145 139.431C119.21 139.451 119.245 139.526 119.225 139.592C119.205 139.647 119.145 139.682 119.09 139.677C114.82 139.206 110.631 140.248 106.562 141.451C96.3201 144.688 86.183 148.581 75.6751 151.011C73.5505 151.462 71.4109 151.868 69.176 151.903C68.9004 151.903 68.6699 151.688 68.6699 151.407C68.6699 151.127 68.8954 150.896 69.176 150.901L69.171 150.896Z" fill="#7A3C04"/>
    <path d="M135.395 154.88C135.059 156.243 134.172 157.355 133.336 158.443C130.735 161.71 126.847 163.774 122.793 164.581C120.107 165.157 117.336 165.142 114.615 165.172L106.477 165.293C101.131 165.393 87.2503 165.653 82.069 165.809C79.3682 165.904 76.6322 165.969 73.9864 166.215C73.7058 166.255 73.4403 166.049 73.4152 165.764C73.3901 165.488 73.5906 165.242 73.8662 165.217C78.5764 164.801 85.4013 164.751 90.1817 164.611C99.4369 164.426 109.389 164.426 118.659 164.305C123.955 164.135 129.432 162.271 132.83 158.042C133.722 157.02 134.303 155.827 135.175 154.78C135.25 154.684 135.42 154.77 135.385 154.885L135.395 154.88Z" fill="#7A3C04"/>
    <path d="M61.9202 147.9C58.7633 150.365 50.791 149.253 48.1452 151.187C46.8875 152.104 45.4243 155.491 43.2997 158.137L43.2896 158.152C40.9445 161.063 37.7876 163.068 33.2227 159.831C25.9419 154.659 27.9262 147.915 30.617 145.865C39.5465 139.05 47.5639 141.962 52.0236 141.942C56.4783 141.922 59.3847 139.657 60.8579 140.143C61.9503 140.504 62.9023 141.566 63.3533 142.854C63.9296 144.502 63.6991 146.517 61.9252 147.895L61.9202 147.9Z" fill="#FFD0B8"/>
    <path d="M61.9202 147.9C58.7633 150.365 50.791 149.253 48.1452 151.187C46.8875 152.104 45.4243 155.491 43.2997 158.137L43.2896 158.152C40.9445 161.063 37.7876 163.068 33.2227 159.831C25.9419 154.659 27.9262 147.915 30.617 145.865C39.5465 139.05 47.5639 141.962 52.0236 141.942C56.4783 141.922 59.3847 139.657 60.8579 140.143C61.9503 140.504 62.9023 141.566 63.3533 142.854C63.9296 144.502 63.6991 146.517 61.9252 147.895L61.9202 147.9Z" stroke="#AF725A" stroke-width="2" stroke-miterlimit="10"/>
    <path d="M55.2807 141.726C55.1354 143.64 56.4783 144.678 58.3374 144.572C59.3847 144.532 60.5121 144.232 61.5193 143.911C61.6646 143.866 61.7448 144.091 61.5995 144.147L60.5622 144.552C58.4075 145.399 55.3008 145.65 54.469 142.899C54.3637 142.398 53.9428 141.22 54.7847 141.15C55.0903 141.15 55.3258 141.426 55.2807 141.726Z" fill="#AF725A"/>
    <path d="M80.8013 156.699C79.6388 153.136 75.9808 151.027 71.7816 150.445C68.6999 150.019 49.6184 149.729 44.7578 154.028C37.8929 160.106 52.3944 181.242 57.3452 180.27C66.871 178.406 76.1812 170.775 78.9573 166.52C80.3002 164.456 81.8436 159.891 80.8013 156.694V156.699Z" fill="#FD9A3F"/>
    <path d="M59.4348 149.794C53.9328 150.135 48.0149 151.147 44.7578 154.033C37.8929 160.111 52.3944 181.247 57.3452 180.275C66.871 178.411 76.1812 170.78 78.9573 166.525C79.2078 166.139 79.4684 165.663 79.7139 165.127" fill="#FD9A3F"/>
    <path d="M59.4448 149.984C54.8798 150.851 50.0293 151.017 46.0857 153.637C44.833 154.414 43.8859 155.581 43.6153 157.06C42.7133 162.697 46.7521 169.512 50.0243 173.921C51.4674 175.745 55.1855 180.476 57.716 179.629C64.9067 177.975 71.4609 173.846 76.6121 168.62C77.6745 167.482 78.6967 166.375 79.5586 165.057L79.8743 165.202C78.9422 168.339 76.1962 170.494 73.8311 172.568C69.176 176.312 63.8193 179.378 57.9515 180.696C54.7495 181.693 50.9062 176.818 49.1273 174.608C45.7049 169.928 41.5909 162.832 42.6282 156.844C43.2796 153.387 46.9626 151.763 49.9691 150.826C53.0408 149.944 56.2278 149.413 59.4247 149.608L59.4498 149.989L59.4448 149.984Z" fill="#7A3C04"/>
    <path d="M72.2175 148.311C68.2689 145.855 62.8722 144.913 58.7933 143.375C51.6227 140.664 46.2009 147.639 53.131 151.132C57.5807 153.377 60.4519 159.57 67.5123 159.61C75.5448 159.655 75.8956 150.601 72.2125 148.311H72.2175Z" fill="#FD9A3F"/>
    <path d="M74.1968 151.092C73.826 150.014 73.0093 148.947 72.2225 148.306C67.357 144.367 62.8772 144.908 58.7983 143.37C51.6277 140.659 46.2059 147.634 53.136 151.127C57.5857 153.372 60.4569 159.565 67.5173 159.605" fill="#FD9A3F"/>
    <path d="M74.1017 151.127C71.8217 147.469 67.6376 145.83 63.5437 145.069C61.4441 144.743 59.3395 144.081 57.2951 143.48C55.3759 143.064 53.1811 143.36 51.6929 144.668C50.1195 145.966 50.1295 148.115 51.6678 149.453C52.4044 150.18 53.3966 150.586 54.2785 151.132C56.9894 152.911 59.0339 155.622 61.7047 157.325C63.4585 158.463 65.3877 159.074 67.5123 159.53C67.6025 159.54 67.6025 159.69 67.5123 159.7C62.9223 160.617 59.1692 156.834 56.1275 154.028C55.1404 153.146 54.1532 152.324 53.0107 151.718C51.1918 150.816 49.3578 149.298 49.3528 147.038C49.3879 144.457 51.7981 142.728 54.1031 142.348C56.3781 141.862 58.5077 142.749 60.6173 143.415C61.6345 143.691 62.6818 143.891 63.7391 144.121C66.9411 144.733 70.1631 145.96 72.6635 148.15C73.4903 148.927 74.1217 149.939 74.2871 151.067C74.3021 151.172 74.1518 151.222 74.1017 151.132V151.127Z" fill="#7A3C04"/>
    <path d="M187.058 100.747C171.218 103.764 163.932 93.5313 160.52 89.5527C160.565 84.8123 159.883 74.535 157.809 69.5641C148.669 37.0082 197.921 27.2219 204.942 56.5608C206.42 62.7242 208.785 73.2672 213.089 77.6016C214.122 78.5086 202.1 97.8758 187.053 100.742L187.058 100.747Z" fill="#F47F2D"/>
    <path d="M187.058 100.747C171.188 103.608 163.932 93.5313 160.52 89.5526C160.565 84.8123 159.883 74.5349 157.809 69.5641C148.669 37.0082 197.921 27.2219 204.942 56.5608C206.42 62.7242 208.785 73.2672 213.089 77.6016C214.122 78.5086 202.06 98.0361 187.053 100.742L187.058 100.747Z" stroke="#7A3C04" stroke-width="2" stroke-linecap="round" stroke-linejoin="round"/>
    <path d="M187.925 71.2027C178.253 74.4949 169.544 78.7892 169.068 84.1809C168.592 89.5727 179.636 96.4627 193.988 90.6099C209.005 84.4816 209.441 73.7132 206.941 70.5713C204.44 67.4245 196.338 68.3415 187.925 71.2027Z" fill="#FD9A3F"/>
    <path d="M174.41 85.8296C174.41 85.8296 180.032 85.2182 185.489 83.715C190.946 82.2117 195.882 79.591 195.882 79.591C195.882 79.591 191.071 84.1309 186.106 85.5289C180.569 87.0873 174.41 85.8296 174.41 85.8296Z" fill="#7A3C04"/>
    <path d="M170.897 80.979C170.897 80.979 167.084 81.5202 163.461 80.9088C162.204 80.6984 161.236 80.4478 160.024 80.1622C159.914 79.0798 159.778 77.9624 159.608 76.86C159.608 76.86 161.031 78.0075 164.113 79.14C166.363 79.9668 168.257 80.9138 170.897 80.979Z" fill="#7A3C04"/>
    <path d="M208.595 69.494C208.003 70.1654 207.156 70.7668 206.214 71.2879C203.353 72.8713 199.845 74.0439 199.845 74.0439C202.456 72.9766 203.979 71.2428 205.282 70.0853C207.232 68.3465 207.642 66.733 207.642 66.733C207.948 67.68 208.269 68.6071 208.595 69.499V69.494Z" fill="#7A3C04"/>
    <path d="M236.5 107.667C235.508 128.502 219.127 134.375 219.127 134.375C219.127 134.375 214.532 148.481 215.485 165.588C215.485 165.588 208.71 167.658 199.024 168.019H199.014C183.996 168.575 161.988 168.039 147.356 161.685C147.356 161.685 147.722 147.454 146.109 137.863C144.37 127.49 141.042 124.724 141.042 118.546C141.042 113.72 143.648 107.983 144.53 105.051C146.444 98.7427 148.093 86.1953 150.227 82.9533C152.808 79.0297 159.222 79.0297 159.222 79.0297C159.222 79.0297 159.914 91.0058 171.644 92.8448C188.566 95.4906 209.431 71.6938 209.431 71.6938C209.431 71.6938 218.105 71.1275 227.671 79.0297C227.671 79.0297 236.074 86.5962 236.535 103.548C236.575 104.866 236.56 106.239 236.495 107.667H236.5Z" fill="black"/>
    <path d="M178.178 130.402C191.312 136.214 196.107 135.177 198.648 138.84C205.032 148.03 199.014 168.019 199.014 168.019C183.996 168.575 161.988 168.039 147.356 161.685C147.356 161.685 147.722 147.454 146.109 137.863C144.37 127.49 141.042 124.724 141.042 118.546C141.042 113.72 143.648 107.983 144.53 105.051C146.444 98.7427 148.093 86.1953 150.227 82.9533C152.808 79.0297 159.222 79.0297 159.222 79.0297C159.222 79.0297 159.914 91.0058 171.644 92.8448C188.566 95.4906 209.431 71.6938 209.431 71.6938C209.431 71.6938 218.105 71.1275 227.671 79.0297C227.671 79.0297 236.074 86.5962 236.535 103.548C192.88 94.5385 214.673 122.605 195.872 130.046C187.799 133.243 179.997 130.702 178.173 130.402H178.178Z" fill="#222222"/>
    <path d="M150.167 82.9082C151.49 80.5931 154.111 79.4056 156.616 78.8594C157.473 78.679 158.32 78.5587 159.227 78.5287C159.488 78.5287 159.698 78.7241 159.723 78.9796C160.209 84.1158 163.186 89.3422 168.121 91.3365C178.344 95.3703 189.308 88.3951 197.265 82.3369C201.489 79.0097 205.468 75.3167 209.076 71.348C209.161 71.2528 209.281 71.2027 209.401 71.1977C211.446 71.1476 213.375 71.4833 215.329 71.9794C219.158 72.9816 222.755 74.7755 225.962 77.0805C227.581 78.1729 229.104 79.611 230.222 81.2496C234.852 87.6986 236.821 95.696 237.041 103.533C237.052 103.809 236.831 104.039 236.555 104.049C236.28 104.059 236.049 103.839 236.039 103.563C235.829 95.9215 233.91 88.0995 229.41 81.8409C225.627 76.4591 216.016 72.0596 209.471 72.1949L209.817 72.0245C207.988 74.0589 206.069 75.9681 204.08 77.8221C195.13 85.9799 180.468 97.3546 167.736 92.2535C162.444 90.0938 159.252 84.5969 158.731 79.0548L159.232 79.5258C156.03 79.621 152.402 80.3476 150.303 82.9884C150.253 83.0685 150.122 82.9834 150.172 82.9032L150.167 82.9082Z" fill="black"/>
    <path d="M146.855 161.675C146.835 152.124 146.835 142.338 144.5 133.042C143.638 129.535 142.035 126.243 141.083 122.735C139.74 117.874 141.288 112.878 143.097 108.389C143.553 107.266 144.019 106.154 144.455 105.031C144.47 104.986 144.525 104.966 144.57 104.981C144.61 104.996 144.635 105.041 144.625 105.086C144.024 107.442 143.177 109.707 142.576 112.027C139.82 121.367 143.212 124.348 145.572 132.762C147.486 139.847 147.762 147.173 147.907 154.444C147.937 156.864 147.927 159.279 147.862 161.71C147.837 162.331 146.865 162.376 146.86 161.685L146.855 161.675Z" fill="black"/>
    <path d="M178.178 131.965C178.258 131.985 179.095 132.251 180.378 132.682C178.639 132.396 178.218 132.005 178.178 131.965Z" fill="#222222"/>
    <path d="M157.002 125.491C157.027 125.476 157.057 125.461 157.082 125.446L164.078 120.54C164.158 120.485 164.218 120.41 164.263 120.33C164.308 120.244 164.328 120.154 164.328 120.059L164.153 111.731C164.153 111.631 164.123 111.53 164.068 111.445C164.012 111.36 163.932 111.29 163.842 111.25C163.752 111.205 163.647 111.185 163.541 111.195C163.436 111.205 163.336 111.24 163.251 111.3L156.256 116.206C156.175 116.261 156.115 116.336 156.07 116.416C156.025 116.501 156.005 116.592 156.005 116.687L156.18 125.015C156.18 125.11 156.21 125.2 156.256 125.28C156.306 125.361 156.371 125.431 156.451 125.476C156.531 125.521 156.626 125.551 156.722 125.551C156.817 125.551 156.912 125.531 157.002 125.491ZM159.473 120.946L161.768 120.786L158.305 123.211L159.473 120.946ZM159.052 119.282L157.363 116.787L162.018 113.525L159.052 119.282ZM158.445 120.455L157.278 122.72L157.188 118.596L158.445 120.45V120.455ZM163.161 119.558L160.074 119.773L163.04 114.016L163.161 119.558Z" fill="#D7B27B"/>
    <path d="M186.161 115.99C184.758 113.936 182.468 112.167 179.707 111.004C176.139 109.506 172.366 109.271 169.56 110.353C169.234 110.072 168.873 109.837 168.482 109.651L165.406 108.183C163.582 107.311 161.322 107.592 159.042 108.97C156.847 110.298 154.878 112.503 153.5 115.183C152.122 117.859 151.485 120.705 151.716 123.191C151.956 125.772 153.089 127.671 154.918 128.543L156.687 129.384C156.611 129.78 156.586 130.176 156.611 130.572L156.812 133.949C156.932 135.954 158.275 137.718 160.59 138.915C162.825 140.073 165.716 140.569 168.743 140.323C170.948 140.143 173.042 139.582 174.816 138.7C175.457 138.384 176.069 138.018 176.65 137.597C178.805 136.034 179.922 134.065 179.802 132.06L179.611 128.888C179.847 128.863 180.077 128.833 180.303 128.798C181.21 128.663 182.097 128.392 182.924 127.991C184.201 127.36 185.154 126.433 185.68 125.275L187.103 122.154C187.95 120.3 187.614 118.105 186.156 115.975L186.161 115.99ZM173.107 126.819L174.059 124.739C175.132 125.155 176.249 125.456 177.392 125.646L176.455 127.696C175.307 127.525 174.185 127.23 173.107 126.819ZM172.06 126.378C171.709 126.217 171.368 126.042 171.038 125.862C170.998 125.837 170.953 125.812 170.912 125.787C170.251 125.421 169.62 125.005 169.028 124.539C169.344 124.053 169.635 123.547 169.905 123.021C169.975 122.885 170.046 122.745 170.111 122.605C171.018 123.266 171.99 123.832 173.017 124.303L172.065 126.383L172.06 126.378ZM170.882 127.661C170.902 127.961 170.797 128.257 170.592 128.482C170.391 128.713 170.106 128.853 169.8 128.878L166.929 129.114L166.819 127.275C167.38 126.714 167.896 126.117 168.362 125.481C169.013 125.982 169.705 126.438 170.426 126.834C170.562 126.929 170.672 127.054 170.747 127.195C170.827 127.335 170.872 127.495 170.882 127.661ZM170.702 130.271C170.872 130.417 170.993 130.607 171.053 130.823C171.108 131.038 171.103 131.263 171.028 131.479C170.953 131.689 170.817 131.88 170.637 132.02C170.457 132.16 170.236 132.246 170.011 132.261L167.139 132.496L167.004 130.246L169.875 130.011C170.026 129.996 170.176 130.011 170.321 130.061C170.467 130.106 170.597 130.181 170.707 130.276L170.702 130.271ZM160.485 128.202C160.54 128.177 160.595 128.147 160.65 128.117L162.404 128.953C160.976 129.51 159.628 129.53 158.521 128.999L158.375 128.928C159.107 128.783 159.818 128.538 160.49 128.202H160.485ZM163.772 128.277C163.772 128.277 163.732 128.302 163.712 128.312L161.828 127.415C162.519 126.939 163.171 126.398 163.762 125.802L165.756 126.754C165.15 127.33 164.489 127.841 163.772 128.282V128.277ZM166.558 122.058L168.607 123.036C168.046 124.053 167.37 125.005 166.598 125.882L164.579 124.92C165.335 124.033 165.997 123.076 166.558 122.058ZM169.134 122.018L167.084 121.041C167.585 119.999 167.976 118.912 168.252 117.794L170.271 118.756C170.016 119.879 169.635 120.971 169.134 122.018ZM170.482 117.589L168.487 116.637C168.623 115.825 168.678 114.998 168.653 114.181L170.537 115.078C170.537 115.078 170.537 115.123 170.542 115.143C170.612 115.955 170.592 116.777 170.482 117.589ZM170.276 113.685L168.522 112.848C168.402 112.067 168.162 111.315 167.816 110.608L167.961 110.679C169.074 111.21 169.865 112.257 170.271 113.685H170.276ZM152.868 123.071C152.658 120.796 153.249 118.17 154.532 115.68C155.815 113.189 157.629 111.15 159.638 109.937C159.873 109.792 160.109 109.666 160.344 109.551C162.018 108.724 163.612 108.599 164.889 109.21C166.348 109.907 167.265 111.495 167.465 113.675C167.675 115.95 167.084 118.576 165.801 121.066C164.519 123.557 162.705 125.596 160.695 126.809C158.771 127.976 156.902 128.232 155.444 127.535C153.986 126.839 153.069 125.25 152.868 123.071ZM157.994 130.021C159.608 130.792 161.557 130.662 163.561 129.67C163.827 129.54 164.093 129.394 164.358 129.234C164.834 128.943 165.29 128.623 165.726 128.272L165.982 132.596L164.834 132.692L164.899 133.819L166.047 133.724L166.112 134.851L167.26 134.756L167.194 133.629L168.342 133.533L168.407 134.661L169.555 134.566L169.489 133.438L170.066 133.393C170.522 133.358 170.958 133.188 171.318 132.907C171.679 132.626 171.955 132.251 172.105 131.83C172.255 131.404 172.275 130.948 172.16 130.517C172.045 130.086 171.804 129.705 171.464 129.414C171.429 129.384 171.389 129.354 171.348 129.324C171.574 129.099 171.754 128.833 171.87 128.538C171.985 128.247 172.04 127.931 172.03 127.621C172.055 127.631 172.075 127.641 172.1 127.651C174.205 128.538 176.404 128.984 178.449 128.968C178.469 130.517 177.527 132.06 175.768 133.338C173.869 134.721 171.278 135.608 168.467 135.833C165.656 136.064 162.985 135.608 160.941 134.551C158.982 133.538 157.849 132.095 157.754 130.492C157.744 130.301 157.749 130.106 157.764 129.916L157.984 130.021H157.994ZM167.966 137.001L168.101 139.251C166.934 139.311 165.771 139.246 164.624 139.055L164.494 136.836C165.641 137.006 166.804 137.061 167.966 137.001ZM169.114 136.906C170.271 136.775 171.419 136.535 172.536 136.179L172.666 138.399C171.554 138.775 170.406 139.03 169.249 139.161L169.114 136.911V136.906ZM157.959 133.869L157.949 133.709C158.475 134.295 159.087 134.801 159.773 135.207L159.888 137.131C158.706 136.214 158.034 135.087 157.959 133.869ZM161.146 137.928C161.146 137.928 161.106 137.908 161.086 137.898L160.961 135.833C161.717 136.169 162.504 136.43 163.316 136.615L163.446 138.805C162.644 138.599 161.873 138.304 161.141 137.933L161.146 137.928ZM173.794 137.953L173.663 135.763C173.989 135.633 174.305 135.488 174.611 135.337C175.057 135.117 175.487 134.871 175.903 134.606L176.029 136.675C176.029 136.675 175.994 136.7 175.974 136.715C175.292 137.206 174.565 137.622 173.794 137.953ZM177.126 135.718L177.011 133.794C177.637 133.278 178.183 132.682 178.639 132.01L178.649 132.17C178.725 133.393 178.188 134.616 177.126 135.713V135.718ZM177.652 127.821L178.574 125.797C179.406 125.872 180.248 125.867 181.08 125.782L180.208 127.691C180.208 127.691 180.163 127.701 180.143 127.701C179.316 127.831 178.479 127.866 177.652 127.816V127.821ZM184.632 124.855C184.116 125.982 183.069 126.839 181.621 127.34L182.433 125.561C183.094 125.416 183.735 125.19 184.347 124.89C184.467 124.829 184.582 124.764 184.698 124.704L184.627 124.855H184.632ZM186.055 121.733C185.379 123.216 183.786 124.228 181.566 124.584C179.251 124.955 176.565 124.569 174.004 123.492C172.782 122.98 171.629 122.324 170.582 121.527C171.479 119.307 171.87 117.043 171.679 115.013C171.539 113.505 171.093 112.232 170.386 111.26C172.847 110.478 176.164 110.764 179.231 112.052C181.796 113.129 183.911 114.758 185.199 116.642C186.431 118.446 186.732 120.255 186.055 121.738V121.733Z" fill="#D7B27B"/>
    <path d="M177.096 120.996L177.717 119.959C177.973 120.049 178.228 120.079 178.489 120.059C179.065 120.014 179.516 119.708 179.857 119.142C180.128 118.686 180.238 118.3 180.183 117.98C180.123 117.654 179.932 117.403 179.616 117.228C179.366 117.088 179.105 117.078 178.835 117.193C178.564 117.303 178.264 117.514 177.933 117.819C177.291 118.42 176.825 118.806 176.54 118.977C175.768 119.458 175.016 119.493 174.285 119.082C173.789 118.806 173.448 118.395 173.253 117.849C173.062 117.298 173.092 116.727 173.338 116.136L172.396 115.609L172.987 114.617L173.929 115.143C174.48 114.547 175.147 114.251 175.933 114.261C176.294 114.261 176.645 114.322 176.991 114.437L176.369 115.474C176.159 115.409 175.953 115.389 175.748 115.414C175.272 115.469 174.886 115.755 174.58 116.261C174.345 116.652 174.26 117.002 174.32 117.313C174.38 117.624 174.555 117.859 174.846 118.025C175.282 118.27 175.848 118.075 176.54 117.443C176.6 117.393 176.71 117.293 176.875 117.148C177.036 116.997 177.151 116.897 177.231 116.842C177.306 116.777 177.427 116.682 177.587 116.556C177.747 116.421 177.878 116.331 177.978 116.281C178.078 116.231 178.208 116.166 178.374 116.085C178.529 116.005 178.669 115.955 178.8 115.945C178.925 115.925 179.065 115.91 179.221 115.905C179.376 115.895 179.536 115.915 179.702 115.965C179.857 116.015 180.017 116.085 180.183 116.176C180.739 116.486 181.095 116.917 181.26 117.468C181.42 118.01 181.385 118.586 181.15 119.192L182.092 119.718L181.501 120.71L180.558 120.184C179.942 120.906 179.186 121.257 178.294 121.232C177.883 121.227 177.482 121.151 177.091 121.011L177.096 120.996Z" fill="#D7B27B"/>
    <path d="M247.554 131.539C247.229 136.876 245.48 140.348 245.625 143.37C245.976 147.409 247.158 150.3 247.018 155.155C238.424 160.828 231.985 164.055 219.258 165.092C212.443 153.742 208.925 136.254 207.963 122.625L242.779 120.019L244.458 119.894C245.926 122.665 247.815 127.946 247.549 131.539H247.554Z" fill="#F47F2D"/>
    <path d="M247.554 131.539C247.229 136.876 245.48 140.348 245.625 143.37C245.976 147.409 247.158 150.3 247.018 155.155C238.424 161.635 228.994 164.255 219.498 165.037C203.288 120.139 217.895 131.955 245.645 122.504C246.487 124.945 247.609 128.793 247.549 131.539H247.554Z" fill="#FD9A3F"/>
    <path d="M244.894 119.653C249.914 128.507 247.429 134.285 246.041 143.425C246.267 146.862 247.81 151.337 247.113 155.166C247.098 155.271 246.928 155.271 246.918 155.161C246.778 154.168 246.697 153.196 246.597 152.219C246.342 149.218 245.45 146.356 245.204 143.325C245.61 139.326 246.748 135.418 246.903 131.424C247.093 127.46 245.961 123.597 244.027 120.149C243.681 119.573 244.563 119.042 244.899 119.653H244.894Z" fill="#7A3C04"/>
    <path d="M219.072 165.187C218.19 164.165 217.414 162.877 216.812 161.665C210.895 149.558 208.509 136.004 207.467 122.66C207.432 122.033 208.404 121.913 208.469 122.595C209.346 133.568 211.225 144.562 214.873 154.97C216.036 158.478 217.815 161.675 219.348 165.017C219.428 165.177 219.193 165.343 219.077 165.192L219.072 165.187Z" fill="#7A3C04"/>
    <path d="M245.645 122.504C245.645 122.504 222.71 130.487 207.963 125.336C207.718 118.335 206.786 103.067 206.786 103.067C206.786 103.067 203.724 78.1428 218.025 77.5766C221.798 77.4262 226.048 78.0927 230.417 80.7234C254.119 95.0095 244.453 119.894 244.453 119.894C244.453 119.894 244.798 120.109 245.64 122.504H245.645Z" fill="#222222"/>
    <path d="M245.645 122.504L245.54 122.534L244.112 122.93L242.759 119.974C242.759 119.974 245.836 108.168 240.429 95.3352C235.022 82.5023 218.03 77.5716 218.03 77.5716C221.798 77.3511 226.053 78.0877 230.422 80.7184C254.124 95.0045 244.458 119.889 244.458 119.889C244.458 119.889 244.803 120.104 245.645 122.499V122.504Z" fill="#393939"/>
    <path d="M206.966 103.057C207.853 110.438 208.154 117.894 208.484 125.316L208.118 124.839C217.268 127.656 227.15 127.3 236.39 125.04C239.472 124.268 242.548 123.311 245.435 122.043L245.174 122.665C244.869 121.848 244.603 121.001 244.132 120.275C244.132 120.275 244.122 120.265 244.127 120.27C244.142 120.28 244.102 120.254 244.197 120.325L243.992 119.708C244.848 117.283 245.38 114.672 245.67 112.087C247.304 98.2015 240.499 86.2254 228.062 80.0169C223.362 77.762 217.935 77.4162 212.784 78.5988C212.673 78.6339 212.618 78.4485 212.729 78.4134C218.095 76.3439 224.324 76.855 229.39 79.5709C244.828 87.889 250.355 103.613 244.939 120.074L244.733 119.458C244.853 119.543 244.833 119.543 244.868 119.573C245.204 119.979 245.4 120.485 245.605 120.956C245.796 121.417 245.966 121.878 246.126 122.339C246.211 122.585 246.091 122.85 245.861 122.95C239.873 125.506 233.539 127.044 227.075 127.671C220.616 128.287 214.021 127.761 207.813 125.822C207.597 125.756 207.457 125.561 207.447 125.351C207.267 119.788 206.871 114.216 206.705 108.649L206.63 105.863C206.625 104.931 206.6 104.004 206.61 103.072C206.625 102.857 206.931 102.832 206.966 103.052V103.057Z" fill="black"/>
    <path d="M246.743 126.418C246.743 126.418 241.421 129.129 235.684 131.82C235.684 131.82 240.058 131.93 247.544 130.812C247.544 130.812 247.825 128.437 246.743 126.418Z" fill="#7A3C04"/>
    <path d="M208.354 127.079C208.354 127.079 210.223 128.051 217.429 128.267C217.429 128.267 214.056 130.251 208.87 131.253L208.354 127.084V127.079Z" fill="#7A3C04"/>
    <path d="M211.21 145.154C211.21 145.154 214.863 145.419 222.535 143.866C222.535 143.866 217.564 147.038 212.333 148.817L211.21 145.154Z" fill="#7A3C04"/>
    <path d="M216.251 159.605C216.251 159.605 219.213 160.046 223.006 159.41C223.006 159.41 221.437 161.434 218 163.038L216.251 159.605Z" fill="#7A3C04"/>
    <path d="M245.786 144.868C245.786 144.868 242.764 146.391 238.429 147.634C238.429 147.634 241.596 148.306 246.417 148.546L245.786 144.868Z" fill="#7A3C04"/>
    <path d="M206.776 110.684C206.415 108.83 205.889 106.935 205.027 105.242C204.967 105.122 205.012 104.976 205.132 104.916C205.242 104.856 205.383 104.896 205.448 105.001C206.5 106.7 207.196 108.549 207.753 110.463C207.923 111.135 206.906 111.365 206.776 110.679V110.684Z" fill="black"/>
    <path d="M10.0974 132.541C26.7386 140.834 26.7987 143.189 33.0974 145.469C39.8822 147.925 39.8972 153.692 37.5922 158.227C34.3953 164.516 29.3292 164.015 23.4514 160.813C17.5736 157.611 0.912354 157.365 0.912354 157.365C0.912354 157.365 2.04482 150.801 4.64548 143.395C6.91041 136.936 10.0974 132.546 10.0974 132.546V132.541Z" fill="#FFD0B8"/>
    <path d="M10.2025 132.336C16.1204 135.257 21.9431 138.464 27.4651 142.082C29.2891 143.295 31.3135 144.061 33.1425 145.364C33.2377 145.429 33.1726 145.6 33.0523 145.575C30.8325 145.164 28.8832 143.991 26.9891 142.844C22.4041 139.862 17.6888 136.946 12.8784 134.335C11.9113 133.809 10.9391 133.293 9.98206 132.747C9.73652 132.606 9.92694 132.206 10.1975 132.336H10.2025Z" fill="#AF725A"/>
    <path d="M0.912331 157.13C1.9546 156.799 2.98184 156.984 4.01408 156.989C5.04633 157.03 6.07858 157.09 7.10582 157.155C11.7509 157.471 16.4211 157.987 20.8958 159.34C22.349 159.791 23.9776 160.407 25.0649 161.509C25.3606 162.025 23.8122 161.279 23.5015 161.179C18.2451 159.214 12.5978 158.633 7.03566 158.142C6.01344 158.067 4.99121 157.997 3.96899 157.942C3.52803 157.881 -0.0647966 157.947 0.912331 157.135V157.13Z" fill="#AF725A"/>
    <path d="M23.0455 152.109C24.0928 149.568 28.0063 147.459 29.8453 146.958C39.0153 144.457 56.4633 151.362 61.414 156.203C67.6125 162.271 48.7214 183.923 42.7634 180.441C28.783 172.268 28.8231 163.338 24.3984 160.948C21.3017 159.274 21.7727 155.191 23.0455 152.109Z" fill="#FFD0B8"/>
    <path d="M46.9676 148.737C48.6663 148.892 50.2948 149.413 51.8532 150.059C54.98 151.372 57.9916 152.931 60.6875 155.015C64.0899 157.245 63.1979 161.479 61.7748 164.606C59.535 170.078 50.0192 181.884 43.5752 181.167L43.2295 181.087L42.8887 180.967C42.7284 180.897 42.4377 180.731 42.2924 180.641C41.3203 180.065 40.0275 179.228 39.1105 178.571C36.3545 176.617 33.829 174.307 31.7545 171.631C29.6449 169.026 28.2468 165.879 26.3126 163.198C25.571 162.251 24.7091 161.374 23.5917 160.908L22.4442 160.427C22.3189 160.377 22.2588 160.237 22.3139 160.116C22.359 160.006 22.4843 159.946 22.5995 159.981C23.4163 160.222 24.2982 160.457 24.9897 160.968C27.0993 162.481 28.2268 164.952 29.5396 167.066C31.2233 169.933 33.2427 172.578 35.688 174.823C37.7976 176.778 40.2229 178.486 42.7033 179.944C43.009 180.14 43.3547 180.31 43.7205 180.37C48.7966 180.791 55.9471 172.533 58.5779 168.575C60.5171 165.568 64.0297 159.645 61.0683 156.478C58.3223 154.003 54.9149 152.294 51.5275 150.841C49.9942 150.21 48.4508 149.638 46.9075 148.947C46.7972 148.907 46.8473 148.721 46.9626 148.742L46.9676 148.737Z" fill="#AF725A"/>
    <path d="M47.599 173.681C50.7909 175.65 52.4746 176.928 54.7145 178.712C58.2822 181.548 54.2284 187.185 50.1896 184.715C46.221 182.29 43.004 180.676 41.3704 179.238C38.9902 177.143 42.1922 170.344 47.594 173.681H47.599Z" fill="#FFD0B8"/>
    <path d="M49.5232 174.904C51.5977 176.502 52.2691 176.863 54.7145 178.712C58.3474 181.458 54.2284 187.185 50.1896 184.715C46.221 182.29 42.9188 180.551 41.0748 179.398" stroke="#AF725A" stroke-width="2" stroke-linecap="round" stroke-linejoin="round"/>
    <path d="M54.2885 168.725C57.3703 171.596 61.0382 175.795 62.8171 178.045C65.0019 180.811 60.2565 185.752 56.6988 182.635C52.7853 179.213 50.2397 176.888 48.6914 175.354C44.6375 171.336 51.1217 165.774 54.2885 168.725Z" fill="#FFD0B8"/>
    <path d="M54.6493 168.374C57.1347 170.91 59.6402 173.531 61.9703 176.216C62.1958 176.487 62.7971 177.193 63.0125 177.459C65.0319 179.604 63.213 182.951 60.7676 183.788C58.0768 184.77 56.5284 183.121 54.6894 181.498C53.6171 180.551 52.5598 179.579 51.5225 178.597C50.4903 177.604 49.428 176.652 48.5861 175.47C48.531 175.395 48.551 175.294 48.6212 175.239C48.6763 175.199 48.7515 175.199 48.8016 175.234C50.0393 176.006 51.0264 177.038 52.0787 177.995C53.126 178.957 54.1833 179.904 55.2657 180.831L56.8992 182.204C58.3774 183.592 60.6624 183.302 61.9602 181.788C62.9724 180.701 63.233 179.113 62.2108 178.11C62.0104 177.85 61.404 177.163 61.1886 176.898C58.8485 174.247 56.3981 171.611 53.9378 169.076C53.4868 168.61 54.1883 167.908 54.6543 168.374H54.6493Z" fill="#AF725A"/>
    <path d="M58.152 163.599C61.1886 166.169 66.0241 172.052 67.803 174.302C69.9877 177.068 66.3097 182.726 62.8372 179.509C59.4247 176.352 53.6572 171.215 51.9685 169.582C49.0171 166.726 54.474 160.482 58.157 163.599H58.152Z" fill="#FFD0B8"/>
    <path d="M58.5078 163.248C61.394 166.19 64.2052 169.296 66.876 172.433C67.3671 173.064 68.0335 173.731 68.4594 174.453C70.3385 177.93 66.0943 183.061 62.6768 179.919C60.8529 178.246 57.1799 174.893 55.3559 173.22C54.1533 172.087 52.8805 171.02 51.8583 169.697C51.8032 169.627 51.8182 169.527 51.8883 169.472C51.9435 169.427 52.0236 169.427 52.0788 169.472C53.4417 170.434 54.6043 171.601 55.842 172.694L59.535 175.996L63.223 179.298C63.7893 179.799 64.4858 180.1 65.1723 180.035C67.337 179.789 68.6749 176.702 67.6477 174.919C67.347 174.407 66.5503 173.566 66.1444 173.069C63.4485 169.988 60.6625 166.866 57.8012 163.96C57.3402 163.499 58.0468 162.782 58.5128 163.253L58.5078 163.248Z" fill="#AF725A"/>
    <path d="M61.4441 156.769C64.7413 159.279 71.962 167.723 73.9263 170.208C76.3416 173.265 71.2605 178.261 68.289 175.455C64.5559 171.922 58.6881 166.019 57.0445 164.26C53.0208 159.941 57.6709 153.898 61.4391 156.769H61.4441Z" fill="#FFD0B8"/>
    <path d="M61.7147 155.862C66.3498 160.001 70.2633 164.786 74.1217 169.617C75.3143 170.915 75.3243 172.714 74.4825 174.142C73.2298 176.482 69.8073 177.895 67.7629 175.65L66.7356 174.663C65.4378 173.41 62.0154 169.963 60.7025 168.635C59.57 167.407 57.7561 165.854 56.8892 164.421C56.6888 163.173 59.1541 165.734 59.3796 165.954L61.384 167.968C63.248 169.812 66.5853 173.16 68.4694 174.919C70.9949 177.7 75.8806 172.899 73.315 170.263C69.5017 165.503 65.6232 160.657 61.1184 156.554C60.6724 156.163 61.2537 155.466 61.7247 155.862H61.7147Z" fill="#AF725A"/>
    <path d="M28.8181 142.849C28.8181 142.849 25.8065 145.6 23.4915 151.082C21.3869 156.073 20.9309 160.247 20.9309 160.247L15.8649 159.144C15.8649 159.144 16.7969 154.033 18.9416 148.596C21.1464 143.009 24.5839 140.143 24.5839 140.143L28.8181 142.844V142.849Z" fill="#222222" stroke="black" stroke-width="2" stroke-linecap="round" stroke-linejoin="round"/>
    <path d="M25.2789 146.43L20.9832 144.624C20.2791 144.328 19.4683 144.658 19.1722 145.362L16.7206 151.192C16.4245 151.896 16.7552 152.706 17.4593 153.003L21.755 154.809C22.4591 155.105 23.2699 154.775 23.566 154.071L26.0176 148.241C26.3137 147.537 25.983 146.726 25.2789 146.43Z" fill="#222222" stroke="black" stroke-width="2" stroke-miterlimit="10"/>
    <path d="M18.1498 148.877L17.9544 149.333L25.5209 148.24L25.7113 147.714L18.1498 148.877Z" fill="#665B59"/>
    <path d="M17.3632 150.786L25.1351 149.273L24.8144 150.019L17.3632 150.786Z" fill="#665B59"/>
    <path d="M60.7176 149.283C59.9709 151.603 55.7918 152.354 53.0208 150.545C50.2498 148.737 50.7308 148.661 48.6162 148.972C46.5016 149.283 43.1493 151.623 40.8844 150.089C38.6245 148.556 38.0532 145.895 38.5192 144.758C38.9852 143.62 45.2088 141.476 47.0227 141.225C48.8317 140.97 56.0674 142.288 58.4827 143.691C60.8929 145.094 61.4492 147.003 60.7176 149.283Z" fill="#FD9A3F"/>
    <path d="M52.9006 150.731C52.1589 150.37 51.4223 149.869 50.7108 149.483C50.35 149.303 50.1145 149.233 49.7286 149.283C49.3629 149.313 48.9119 149.393 48.531 149.458C46.221 149.954 43.465 151.954 40.9044 150.686C38.9301 149.493 37.3567 147.148 37.953 144.778C38.0733 144.277 38.6345 143.871 39.0604 143.625C41.3905 142.343 43.7556 141.511 46.2912 140.824C47.1581 140.589 48.0951 140.639 48.972 140.694C51.5476 140.894 54.0781 141.305 56.5685 141.987C57.4004 142.227 58.2271 142.483 59.0489 142.944C59.2895 143.079 59.3747 143.385 59.2394 143.625C59.0991 143.871 58.7834 143.956 58.5428 143.811C57.1448 143.079 55.4311 142.738 53.8576 142.423C51.8132 142.057 49.7387 141.756 47.6692 141.731C46.4515 141.756 45.3241 142.227 44.1565 142.593C42.5931 143.144 40.9946 143.751 39.6016 144.542C39.3811 144.678 39.1556 144.818 39.0003 144.988C38.86 145.284 38.8149 145.735 38.875 146.141C39.2107 148.281 41.1199 150.616 43.5251 150.054C45.5896 149.694 47.4838 148.451 49.6735 148.411C50.1295 148.366 50.7358 148.531 51.1066 148.807C51.8483 149.313 52.4696 149.839 53.1361 150.375C53.3365 150.53 53.121 150.866 52.8955 150.741L52.9006 150.731Z" fill="#7A3C04"/>
    <path d="M45.9354 178.231C47.3334 177.8 50.2247 179.283 50.0043 181.623C49.7838 183.963 47.0879 185.642 45.4093 185.527C43.6354 185.401 41.3554 183.332 41.9016 181.748C42.538 179.899 44.5975 178.642 45.9354 178.231Z" fill="#FD9A3F"/>
    <path d="M45.9354 178.231C47.3334 177.8 50.2247 179.283 50.0043 181.623C49.7838 183.963 47.0879 185.642 45.4093 185.527C43.6354 185.401 41.3554 183.332 41.9016 181.748C42.538 179.899 44.5975 178.642 45.9354 178.231Z" stroke="#7A3C04" stroke-width="2" stroke-miterlimit="10"/>
    <path d="M33.363 166.911C32.902 165.167 29.6349 160.828 27.39 164.501C25.5861 167.452 27.2297 169.477 28.4273 170.905C29.5096 172.198 32.1203 173.521 32.9672 171.296C33.7288 169.286 33.6837 168.119 33.363 166.911Z" fill="#FD9A3F" stroke="#7A3C04" stroke-width="2" stroke-miterlimit="10"/>
    <path d="M41.4857 172.137C42.7434 168.59 38.1534 164.967 35.7983 166.56C33.5334 168.089 31.9148 171.722 32.2005 173.47C32.6164 176.036 35.9587 177.905 37.9129 176.853C39.8672 175.8 40.9295 173.711 41.4857 172.142V172.137Z" fill="#FD9A3F" stroke="#7A3C04" stroke-width="2" stroke-miterlimit="10"/>
    <path d="M46.9326 177.073C48.982 174.242 44.4321 169.848 41.9367 171.246C39.6317 172.543 37.953 175.385 37.462 177.199C36.9709 179.012 39.1607 182.435 42.0519 181.002C43.7256 180.175 45.9554 178.416 46.9276 177.068L46.9326 177.073Z" fill="#FD9A3F" stroke="#7A3C04" stroke-width="2" stroke-miterlimit="10"/>
    <path d="M156.887 29.4869C156.596 30.2235 156.17 30.94 155.579 31.6265C151.32 36.5523 144.71 32.8642 144.71 32.8642C139.529 30.2936 136.021 24.1402 136.092 18.047C136.087 18.047 136.087 18.042 136.092 18.037C136.016 14.9853 137.114 11.9988 138.637 9.71884C141.438 5.52972 141.634 13.5271 147.02 16.3633C148.644 17.2202 153.54 18.2875 155.273 19.6755C157.213 21.2239 158.696 24.927 156.887 29.4819V29.4869Z" fill="#FD9A3F"/>
    <path d="M140.802 28.6551C140.882 28.8304 142.065 31.2958 144.024 32.4333C142.145 31.2808 138.251 28.8806 136.613 22.191C135.375 17.135 136.548 13.0761 137.981 10.7461C137.259 12.1742 138.372 23.8496 145.788 29.8777C145.788 29.8777 141.889 28.9206 140.266 25.7036C140.266 25.7036 141.413 29.1211 143.498 30.6995C143.393 30.6594 141.704 30.013 140.802 28.6551Z" fill="#FFBC9B"/>
    <path d="M156.887 29.4869C155.719 26.0243 154.191 22.2361 152.573 21.0184C150.298 19.3147 143.302 18.6633 142.851 12.2894C142.851 12.2894 144.124 14.86 147.02 16.3683C148.098 16.9245 153.545 18.2825 155.273 19.6805C157.208 21.2439 158.696 24.932 156.887 29.4869Z" fill="#F47F2D"/>
    <path d="M139.895 9.02232C136.237 13.4971 140.807 23.6191 143.909 27.6178C144.49 28.3945 145.146 29.1111 145.883 29.7474C146.033 29.8627 145.858 30.1132 145.698 29.998C140.611 26.7459 134.463 13.5923 139.479 8.5964C139.76 8.35086 140.15 8.74171 139.895 9.01731V9.02232Z" fill="#7A3C04"/>
    <path d="M140.06 9.40817C139.81 9.47331 137.685 12.9008 139.584 18.2374C141.859 24.6263 145.332 27.9185 145.332 27.9185C145.332 27.9185 142.496 21.8152 140.957 17.2402C139.389 12.5851 140.426 9.31798 140.065 9.41318L140.06 9.40817Z" fill="#FDA44B"/>
    <path d="M156.887 29.4869C156.596 30.2235 156.17 30.94 155.579 31.6265C151.32 36.5523 144.71 32.8642 144.71 32.8642C139.529 30.2936 136.021 24.1402 136.092 18.047C136.087 18.047 136.087 18.042 136.092 18.037C136.016 14.9853 137.114 11.9988 138.637 9.71884C141.438 5.52972 141.634 13.5271 147.02 16.3633C148.644 17.2202 153.535 18.2875 155.268 19.6705C157.213 21.2189 158.696 24.927 156.887 29.4769V29.4869Z" stroke="#7A3C04" stroke-width="2" stroke-linecap="round" stroke-linejoin="round"/>
    <path d="M146.88 65.2998C146.88 65.2998 146.655 69.1382 147.476 70.3558C147.476 70.3558 144.375 68.6972 143.257 64.6584C143.257 64.6584 142.871 65.9362 143.042 66.7029C143.042 66.7029 138.923 61.9525 140.161 56.8164C140.161 56.8164 139.394 57.583 139.073 58.49C139.073 58.49 137.951 52.6623 141.518 48.1024C143.823 45.161 145.607 45.0407 146.189 44.4194C146.499 49.2399 145.793 53.8198 146.885 65.2948L146.88 65.2998Z" fill="#F47F2D"/>
    <path d="M147.005 65.3049C147.111 66.8783 147.086 68.7373 147.907 70.1003C148.198 70.5162 147.667 71.0674 147.241 70.7968C145.567 69.7896 144.295 68.3064 143.448 66.5726C143.162 66.0064 142.957 65.4001 142.771 64.7937L143.733 64.8038C143.693 64.9441 143.653 65.1094 143.618 65.2648C143.528 65.6857 143.448 66.2369 143.528 66.6127C143.638 67.1088 142.967 67.4245 142.656 67.0286C140.366 64.1624 138.828 60.3892 139.664 56.7011L140.506 57.1721C140.416 57.2674 140.306 57.3926 140.211 57.5079C139.925 57.8637 139.669 58.2796 139.519 58.6955C139.419 58.951 139.133 59.0763 138.878 58.9761C138.707 58.9109 138.597 58.7556 138.567 58.5902C138.347 57.097 138.382 55.6589 138.587 54.2107C139.098 50.6329 141.078 47.1603 144.234 45.3063C144.811 44.9305 145.572 44.7451 146.088 44.3242C146.144 44.2741 146.229 44.2791 146.274 44.3342C146.319 44.3843 146.319 44.4645 146.274 44.5146C145.993 44.8052 145.657 44.9555 145.352 45.1259C140.667 47.5712 138.677 53.3939 139.549 58.3998L138.582 58.3297C138.853 57.6031 139.264 57.0218 139.79 56.4656C139.98 56.2702 140.296 56.2652 140.496 56.4556C140.632 56.5859 140.672 56.7663 140.632 56.9366C139.87 60.2839 141.338 63.7765 143.408 66.3772L142.541 66.8131C142.4 65.9713 142.566 65.2998 142.766 64.5181C142.886 64.0471 143.598 64.0521 143.723 64.5081C143.894 65.0643 144.079 65.6205 144.34 66.1367C145.066 67.655 146.269 69.048 147.702 69.9149L147.051 70.6365C146.279 68.9227 146.61 67.0837 146.745 65.2948C146.76 65.1395 147 65.1595 146.995 65.3099L147.005 65.3049Z" fill="#7A3C04"/>
    <path d="M213.791 59.8279C211.766 63.6011 206.665 69.7946 190.204 75.3918C175.583 80.3576 167.851 79.2602 162.99 78.0376C158.014 76.7899 150.999 72.3151 146.725 67.2691C139.519 58.7606 143.874 48.368 145.958 44.8854C146.885 43.342 146.384 40.3355 146.379 36.1764C146.369 31.2407 146.945 25.2877 150.558 21.765C154.051 18.3526 160.69 16.5537 170.862 14.8299C184.667 12.4949 195.757 11.3624 201.218 18.2574C205.207 23.2984 206.61 28.164 209.186 32.5084C213.159 39.213 219.112 49.9314 213.796 59.8229L213.791 59.8279Z" fill="#F47F2D"/>
    <path d="M208.113 30.4841V30.469C206.194 26.6357 204.596 22.5267 201.213 18.2574C195.757 11.3624 184.662 12.4949 170.857 14.825C160.685 16.5487 154.046 18.3476 150.548 21.7651C146.935 25.2877 146.264 31.3559 146.374 36.1764C150.012 28.7553 160.039 27.5877 160.415 28.2542C162.214 31.4562 163.241 36.5122 163.105 38.4865C162.875 41.924 161.627 44.3342 161.627 44.3342C161.627 44.3342 157.964 42.7207 151.881 44.8503C149.776 45.5919 147.532 46.9048 146.159 48.834C136.813 61.9676 152.487 73.0467 162.985 78.0376C167.841 79.2653 175.477 80.4228 190.199 75.3918C193.086 74.4047 209.527 68.9929 213.786 59.8279C220.345 45.7172 208.945 32.9043 208.108 30.4841H208.113ZM193.256 40.0499L178.218 41.7285C178.684 36.7126 178.058 33.2551 177.311 26.2248C177.311 26.2248 177.903 24.2705 183.891 23.8897C191.011 23.4387 195.341 28.2692 195.341 28.2692C196.533 34.7233 193.256 40.0449 193.256 40.0449V40.0499Z" fill="#FD9A3F"/>
    <path d="M145.878 44.8303C146.439 43.4974 146.179 42.0292 146.098 40.6211C145.978 39.173 145.873 37.7048 145.878 36.2265C145.843 30.474 146.62 23.4938 151.871 20.0263C156.927 16.7541 162.91 15.8121 168.673 14.6646C174.455 13.6624 180.243 12.6452 186.136 12.4798C191.978 12.2794 198.788 13.4369 202.251 18.6984C205.403 22.8274 207.071 27.7431 209.607 32.1978C214.432 40.1551 219.082 50.3774 214.497 59.4621C213.18 62.173 211.135 64.448 208.865 66.3371C206.57 68.1962 204.11 69.9099 201.319 70.9071C201.239 70.9371 201.153 70.892 201.123 70.8119C201.098 70.7467 201.123 70.6766 201.178 70.6365C203.534 68.9177 206.079 67.5447 208.289 65.6506C218.932 56.9116 216.036 45.0858 209.807 34.618C208.284 32.1477 206.921 29.4468 205.703 26.8361C200.948 16.9496 197.596 13.4319 186.156 13.6023C180.358 13.7526 174.58 14.7548 168.863 15.7319C162.71 16.9796 153.184 18.3025 149.536 23.8296C147.216 27.4825 146.905 31.9623 146.885 36.2215C146.885 37.6647 146.97 39.1128 146.975 40.586C146.935 42.0442 147 43.7179 146.038 44.9355C145.978 45.0207 145.833 44.9255 145.883 44.8353L145.878 44.8303Z" fill="#7A3C04"/>
    <path d="M218.742 49.4704C218.742 49.4704 220.45 52.958 218.762 57.2673C218.762 57.2673 218.12 54.2808 217.319 54.4963C217.319 54.4963 219.143 58.3647 215.775 62.4687C215.785 62.3584 216.076 57.6331 212.368 56.5458C213.661 45.3965 209.376 40.0348 207.728 34.4026C210.519 37.4041 212.318 36.9481 214.097 37.9252C220.405 41.3928 220.992 47.8819 220.305 51.2693C220.305 51.2693 219.478 49.3401 218.742 49.4704Z" fill="#FD9A3F"/>
    <path d="M207.868 34.2673C208.59 34.8936 209.351 35.4599 210.158 35.9108C211.396 36.6374 212.864 36.8028 214.197 37.4241C215.55 38.1056 216.767 39.0126 217.8 40.125C220.561 43.1115 221.588 47.4159 220.856 51.3845C220.801 51.6902 220.505 51.8906 220.2 51.8305C219.774 51.7503 219.734 51.2943 219.528 50.9837C219.363 50.683 219.153 50.3423 218.917 50.1218C218.812 50.0166 218.732 50.0316 218.837 50.0266L219.248 49.2198C220.095 51.2041 220.255 53.3588 219.864 55.4534C219.744 56.1449 219.523 56.8114 219.283 57.4678C219.178 57.7584 218.857 57.9037 218.566 57.7985C218.381 57.7334 218.256 57.578 218.215 57.4026C218.045 56.671 217.83 55.8743 217.469 55.2279C217.414 55.1377 217.354 55.0575 217.319 55.0275C217.299 55.0124 217.304 55.0124 217.319 55.0275C217.344 55.0325 217.409 55.0475 217.454 55.0275L217.81 54.2608C218.401 55.744 218.466 57.2673 218.155 58.7957C217.835 60.304 217.088 61.687 216.116 62.8345C215.805 63.2003 215.169 62.8846 215.269 62.4186C215.289 62.2983 215.309 62.0678 215.314 61.8874C215.364 60.5445 215.124 59.1464 214.347 58.014C214.297 57.9488 214.312 57.8536 214.382 57.8085C214.442 57.7684 214.522 57.7785 214.573 57.8286C215.73 59.0913 216.226 60.8351 216.266 62.5338L215.379 62.158C217.078 60.1336 217.825 57.1872 216.802 54.7168C216.682 54.4362 216.812 54.1155 217.088 53.9952C218.561 53.5893 219.017 56.1599 219.303 57.1521L218.231 57.0669C219.132 54.7469 219.198 52.0009 218.215 49.7059C217.955 48.9993 218.782 48.7288 219.278 49.0144C219.879 49.3301 220.2 49.8963 220.515 50.4425C220.621 50.6429 220.716 50.8333 220.811 51.0538L219.739 51.1641C220.776 46.1682 218.411 40.586 213.736 38.3211C212.458 37.7098 210.93 37.4292 209.752 36.5623C208.91 36.001 208.194 35.3045 207.572 34.5479C207.422 34.3775 207.678 34.1069 207.858 34.2723L207.868 34.2673Z" fill="#7A3C04"/>
    <path d="M175.487 78.9345C174.18 79.3855 172.802 79.3104 171.444 79.3755C168.723 79.4206 165.987 79.14 163.336 78.5186C157.363 77.0254 152.081 73.3674 147.767 69.063C147.316 68.5569 146.735 68.146 146.605 67.3643C146.59 67.2691 146.655 67.1789 146.75 67.1589C147.166 67.209 147.476 67.4846 147.717 67.7251C148.388 68.4617 149.105 69.1583 149.837 69.8347C154.772 74.2393 160.76 77.8171 167.445 78.5136C169.429 78.7592 171.444 78.8143 173.443 78.7241C174.109 78.689 174.776 78.6439 175.462 78.7542C175.553 78.7642 175.573 78.9095 175.482 78.9396L175.487 78.9345Z" fill="#7A3C04"/>
    <path d="M193.256 40.0499L178.218 41.7285C178.684 36.7126 178.058 33.2551 177.311 26.2248C177.311 26.2248 177.903 24.2705 183.891 23.8897C191.011 23.4387 195.341 28.2692 195.341 28.2692C196.533 34.7233 193.256 40.0449 193.256 40.0449V40.0499Z" fill="#FD9A3F"/>
    <path d="M196.042 46.6943C196.042 46.6943 198.984 45.3414 203.293 45.6571C205.332 45.8074 207.678 46.3286 210.163 47.5462C210.163 47.5462 207.126 44.5447 203.283 44.3442C199.44 44.1438 196.042 46.6943 196.042 46.6943Z" fill="#7A3C04"/>
    <path d="M199.259 54.356C201.304 53.6545 203.183 53.5493 204.761 53.7046C207.652 53.9902 209.527 55.1578 209.527 55.1578C209.527 55.1578 207.808 52.7926 204.681 52.512C201.554 52.2314 199.259 54.361 199.259 54.361V54.356Z" fill="#7A3C04"/>
    <path d="M153.775 24.0601C153.775 24.0601 161.076 19.6956 167.851 18.6232C174.626 17.5509 185.625 19.5653 185.625 19.5653C185.625 19.5653 176.78 15.7069 167.63 17.3555C159.432 18.8287 153.775 24.0601 153.775 24.0601Z" fill="#7A3C04"/>
    <path d="M142.4 55.3532C142.4 55.3532 143.162 54.2959 145.212 53.5894C146.199 53.2486 147.486 52.983 149.13 52.958C149.13 52.958 147.797 51.8907 145.141 52.6674C142.967 53.3037 142.4 55.3532 142.4 55.3532Z" fill="#7A3C04"/>
    <path d="M148.093 58.5101C148.093 58.5101 146.374 58.5602 145.462 59.1715C144.204 60.0083 143.818 61.5667 143.818 61.5667C143.818 61.5667 145.036 60.2689 145.708 59.8229C146.419 59.3569 148.088 58.5101 148.088 58.5101H148.093Z" fill="#7A3C04"/>
    <path d="M193.256 40.0499L178.218 41.7285C178.684 36.7126 178.058 33.2551 177.311 26.2248C177.311 26.2248 177.903 24.2705 183.891 23.8897C191.011 23.4387 195.341 28.2692 195.341 28.2692C196.533 34.7233 193.256 40.0449 193.256 40.0449V40.0499Z" fill="#F47F2D"/>
    <path d="M212.954 14.8149C211.671 19.1895 209.747 23.1781 208.329 26.4703C207.046 29.4568 206.189 31.8721 206.61 33.4906C206.61 33.4906 204.977 30.93 198.347 23.4888C192.043 16.4084 192.645 13.8528 192.645 13.8528C195.591 10.4254 197.561 12.0289 201.028 8.72167C204.165 5.72515 203.794 0.819466 204.766 0.518811C205.012 0.443647 205.818 0.7894 206.846 1.49093C209.862 3.5454 214.768 8.60141 212.949 14.82L212.954 14.8149Z" fill="#FD9A3F"/>
    <path d="M212.954 14.8149C211.671 19.1894 209.747 23.1781 208.329 26.4703C209.602 22.5718 208.344 18.3626 208.118 17.6761C209.166 21.3441 205.914 25.0372 205.914 25.0372C206.184 23.6492 205.598 22.3664 205.072 21.5546C204.711 20.9934 204.38 20.6576 204.38 20.6576C204.38 20.6576 204.761 26.0744 202.622 25.5082C202.401 25.4531 202.145 25.3328 201.865 25.1324C198.432 22.677 207.302 14.875 208.284 9.04736C208.98 4.96848 207.382 2.2676 206.951 1.6262C206.911 1.56607 206.881 1.52598 206.861 1.50093C206.861 1.50093 206.861 1.50093 206.861 1.49091C206.886 1.50594 206.911 1.52097 206.936 1.54101L207.011 1.59613C210.038 3.71074 214.743 8.70161 212.954 14.8049V14.8149Z" fill="#FFBC9B"/>
    <path d="M212.954 14.8149C211.671 19.1894 209.747 23.1781 208.329 26.4703C209.602 22.5718 208.344 18.3626 208.118 17.6761C209.166 21.3441 205.914 25.0372 205.914 25.0372C206.184 23.6492 205.598 22.3664 205.072 21.5546C204.4 19.0642 208.7 14.1936 209.527 9.28788C210.098 5.87044 207.552 2.25758 206.931 1.54102L207.006 1.59614C210.033 3.71074 214.738 8.70161 212.949 14.8049L212.954 14.8149Z" fill="#FFD0B8"/>
    <path d="M202.601 25.5984C199.69 24.8317 201.213 21.4444 202.201 19.6906C203.278 17.7062 204.531 15.8622 205.638 13.9581C206.725 12.0589 207.918 10.1798 208.093 8.0001C208.349 5.85543 207.983 3.58048 206.861 1.69136C206.776 1.57611 206.971 1.43581 207.051 1.56108C209.717 5.44955 209.015 10.6809 206.5 14.4692C204.861 17.3204 202.406 19.8058 201.374 22.9476C201.043 24.03 201.574 25.0723 202.652 25.428C202.752 25.4581 202.707 25.6185 202.607 25.5934L202.601 25.5984Z" fill="#7A3C04"/>
    <path d="M206.525 33.5156C206.079 32.0324 206.54 30.474 206.961 29.0459C207.407 27.6128 207.983 26.2348 208.554 24.8668C210.113 21.1337 211.817 17.4707 212.693 13.5271C213.44 8.82188 210.283 4.50748 206.575 1.89179C206.35 1.74146 205.428 1.09004 204.851 0.969779C204.871 0.969779 204.922 0.959758 204.937 0.944725C204.671 1.35061 204.581 1.96695 204.43 2.51815C203.323 7.92993 200.868 10.3753 195.636 11.8835C193.908 12.6001 192.214 13.9981 191.898 15.9424C191.893 16.0025 191.833 16.0426 191.778 16.0326C191.723 16.0226 191.688 15.9724 191.693 15.9173C191.903 13.8328 193.622 12.2794 195.431 11.4175C196.358 10.9916 197.32 10.7511 198.177 10.3201C200.813 9.07242 202.586 6.60204 203.218 3.75083C203.569 2.62839 203.554 1.43579 204.19 0.373481C204.31 0.208121 204.561 0.032739 204.791 0.0227172C205.017 0.0177063 205.242 0.0728263 205.388 0.132957C209.767 2.13231 214.086 7.21337 213.886 12.53C213.791 14.0432 213.315 15.5716 212.814 16.9847C211.356 21.2189 209.281 25.1524 207.567 29.2564C207.061 30.5993 206.5 32.0174 206.705 33.4655C206.725 33.5708 206.555 33.6209 206.525 33.5106V33.5156Z" fill="#7A3C04"/>
    <path d="M205.057 1.6262C205.884 1.47587 208.369 4.90835 207.562 7.72448C206.756 10.5406 200.296 18.964 200.291 22.3613C200.291 24.5311 200.136 25.5934 199.264 22.0106C198.392 18.4278 194.013 15.9424 194.479 14.3539C194.945 12.7655 198.498 12.4097 200.642 10.6609C206.204 6.11597 204.05 1.8116 205.062 1.63121L205.057 1.6262Z" fill="#FDA44B"/>
    <path d="M166.162 42.3799C165.997 43.0865 161.808 44.8603 158.09 44.9606C154.462 45.0608 151.776 44.1939 151.6 43.3871C151.45 42.6856 153.029 37.5394 157.934 37.1185C162.835 36.6976 166.322 41.6684 166.162 42.3799Z" fill="#FBFBFB"/>
    <path d="M156.371 46.8296C158.745 46.8296 160.67 44.9048 160.67 42.5303C160.67 40.1558 158.745 38.2309 156.371 38.2309C153.996 38.2309 152.071 40.1558 152.071 42.5303C152.071 44.9048 153.996 46.8296 156.371 46.8296Z" fill="#FFBE2C" stroke="#E5A413" stroke-width="0.86" stroke-miterlimit="10"/>
    <path d="M156.651 45.8345C157.186 45.7889 157.494 44.2744 157.339 42.4517C157.184 40.629 156.624 39.1884 156.089 39.234C155.554 39.2796 155.246 40.7941 155.402 42.6168C155.557 44.4395 156.116 45.8801 156.651 45.8345Z" fill="#350803"/>
    <path d="M154.843 42.5553C155.247 42.5553 155.574 42.2278 155.574 41.8238C155.574 41.4197 155.247 41.0922 154.843 41.0922C154.438 41.0922 154.111 41.4197 154.111 41.8238C154.111 42.2278 154.438 42.5553 154.843 42.5553Z" fill="#FBFBFB"/>
    <path d="M158.801 43.5074C159.02 43.5074 159.197 43.3302 159.197 43.1116C159.197 42.8929 159.02 42.7157 158.801 42.7157C158.583 42.7157 158.405 42.8929 158.405 43.1116C158.405 43.3302 158.583 43.5074 158.801 43.5074Z" fill="#FBFBFB"/>
    <path d="M166.157 43.6327C166.323 42.9261 162.93 38.6769 158.024 39.0928C153.119 39.5087 151.445 43.9383 151.595 44.6399C151.595 44.6399 150.237 36.9832 156.987 35.51C163.827 34.0167 166.152 43.6327 166.152 43.6327H166.157Z" fill="#F47F2D"/>
    <path opacity="0.1" d="M166.162 43.6327C166.162 43.6327 162.65 39.8444 158.225 40.0749C153.535 40.3205 151.605 44.6399 151.605 44.6399C151.455 43.9383 153.129 39.5137 158.034 39.0928C162.935 38.6719 166.328 42.9261 166.167 43.6327H166.162Z" fill="black"/>
    <path d="M151.6 44.6399C151.5 42.9913 152.613 41.4629 153.795 40.4006C157.057 37.6196 162.219 38.5015 164.96 41.5832C165.451 42.1745 166.122 42.8259 166.157 43.6277C166.132 43.2318 165.816 42.9261 165.591 42.6205C164.824 41.7335 163.862 41.017 162.84 40.4658C160.164 38.9775 156.656 39.0276 154.236 40.9468C153.074 41.8839 151.936 43.1416 151.6 44.6349V44.6399Z" fill="#350803"/>
    <path d="M162.003 44.4695C162.003 44.4695 159.513 43.347 155.238 43.9634C150.964 44.5747 148.103 46.9298 148.103 46.9298C148.103 46.9298 154.251 51.124 156.511 50.688C162.259 49.5856 162.003 44.4695 162.003 44.4695Z" fill="#FD9A3F"/>
    <path d="M148.103 46.9299C148.103 46.9299 151.185 44.229 155.905 43.8782C160.625 43.5275 162.65 45.0157 162.65 45.0157C162.65 45.0157 158.415 44.4645 155.053 44.8654C150.779 45.3765 148.103 46.9249 148.103 46.9249V46.9299Z" fill="#FDA44B"/>
    <path d="M161.798 44.9255C157.298 43.4823 152.092 44.4044 148.173 47.01C148.073 47.0952 147.927 46.9299 148.038 46.8447C151.886 43.6778 157.423 42.3248 162.214 44.0085C162.84 44.2791 162.429 45.2111 161.803 44.9205L161.798 44.9255Z" fill="#7A3C04"/>
    <path d="M193.642 39.3884C193.532 40.1551 189.222 42.415 185.274 42.846C181.415 43.2669 178.479 42.5754 178.223 41.7335C178.003 40.9819 179.246 35.3797 184.422 34.5078C189.608 33.6309 193.757 38.6268 193.642 39.3884Z" fill="#FBFBFB"/>
    <path d="M183.234 43.8682C185.772 43.8682 187.829 41.8109 187.829 39.2732C187.829 36.7354 185.772 34.6782 183.234 34.6782C180.697 34.6782 178.639 36.7354 178.639 39.2732C178.639 41.8109 180.697 43.8682 183.234 43.8682Z" fill="#FFBE2C" stroke="#E5A413" stroke-width="0.86" stroke-miterlimit="10"/>
    <path d="M183.821 42.7464C184.386 42.6513 184.581 41.0122 184.256 39.0856C183.932 37.1589 183.211 35.6741 182.646 35.7693C182.081 35.8644 181.886 37.5034 182.211 39.4301C182.535 41.3568 183.256 42.8415 183.821 42.7464Z" fill="#350803"/>
    <path d="M181.501 39.2532C181.938 39.2532 182.292 38.8987 182.292 38.4614C182.292 38.0242 181.938 37.6697 181.501 37.6697C181.063 37.6697 180.709 38.0242 180.709 38.4614C180.709 38.8987 181.063 39.2532 181.501 39.2532Z" fill="#FBFBFB"/>
    <path d="M185.604 39.6791C185.862 39.6791 186.071 39.4704 186.071 39.2131C186.071 38.9557 185.862 38.747 185.604 38.747C185.347 38.747 185.138 38.9557 185.138 39.2131C185.138 39.4704 185.347 39.6791 185.604 39.6791Z" fill="#FBFBFB"/>
    <path d="M193.642 39.3884C193.752 38.6218 189.804 34.5229 184.617 35.3947C179.431 36.2666 177.998 40.9969 178.223 41.7336C178.223 41.7336 177.602 33.2852 183.6 31.9873C191.437 30.2936 193.642 39.3884 193.642 39.3884Z" fill="#F47F2D"/>
    <path opacity="0.1" d="M193.642 39.3884C193.642 39.3884 189.784 35.9008 185.038 36.2115C180.383 36.5172 178.299 41.5281 178.223 41.7335C178.003 40.9869 179.441 36.2717 184.622 35.3998C189.809 34.5228 193.757 38.6268 193.642 39.3935V39.3884Z" fill="black"/>
    <path d="M178.203 41.7436C178.083 40.0098 179.14 38.3762 180.298 37.1586C183.475 33.9666 189.097 34.1621 192.324 37.1736C192.92 37.7849 193.717 38.4865 193.737 39.4035C193.732 39.4536 193.687 39.4887 193.637 39.4836C193.597 39.4836 193.567 39.4486 193.562 39.4135C193.266 38.7019 192.459 38.2209 191.858 37.7599C188.636 35.3897 183.871 34.8486 180.704 37.5995C179.531 38.6518 178.374 40.11 178.259 41.7386C178.259 41.7686 178.213 41.7736 178.208 41.7436H178.203Z" fill="#350803"/>
    <path d="M198.027 41.8438C198.027 41.8438 192.95 39.2431 186.176 40.0599C181.35 40.6462 177.336 43.753 177.336 43.753C177.336 43.753 181.546 47.2556 187.579 46.5941C193.893 45.9026 198.027 41.8438 198.027 41.8438Z" fill="#FD9A3F"/>
    <path d="M178.539 42.8059C178.539 42.8059 181.41 40.3004 186.456 39.8996C191.502 39.5037 198.027 41.8388 198.027 41.8388C197.651 42.4601 192.795 40.8366 186.772 41.2876C181.801 41.6634 178.85 43.2268 178.539 42.8009V42.8059Z" fill="#FDA44B"/>
    <path d="M197.921 42.0392C191.803 39.5688 184.492 39.7793 178.694 43.0214C178.424 43.2068 178.113 42.8009 178.384 42.5954C184.006 38.4714 192.064 38.5015 198.132 41.6484C198.372 41.7887 198.182 42.1645 197.921 42.0392Z" fill="#7A3C04"/>
    <path d="M159.768 26.5104C159.412 26.8512 155.594 26.4854 152.197 28.9156C148.92 31.2557 147.812 34.1621 147.522 34.7032C147.411 34.9137 147.351 34.7684 147.401 34.6231C147.642 33.9266 147.978 30.8198 151.61 27.8233C154.617 25.3579 158.08 25.5132 158.992 25.6636C159.237 25.7037 160.109 26.1747 159.768 26.5054V26.5104Z" fill="#FDA44B"/>
    <path d="M160.735 29.3466C160.139 29.7675 156.446 29.1862 152.873 31.1505C149.3 33.1148 148.163 34.2673 147.587 34.9989C147.446 35.1743 147.241 35.2394 147.291 34.9538C147.301 34.8736 147.336 34.7684 147.401 34.6331C147.692 34.0067 148.328 31.371 152.011 28.4496C155.058 26.0394 158.856 26.0745 159.758 26.3C159.909 26.335 160.134 26.7209 160.334 27.2069C160.69 28.0438 160.981 29.1762 160.73 29.3516L160.735 29.3466Z" fill="#541108"/>
    <path d="M160.339 27.2019C160.164 27.2069 155.644 26.9313 152.207 29.2915C148.89 31.5664 147.787 33.9817 147.456 34.6632C147.396 34.7834 147.341 34.7684 147.406 34.6281C147.697 34.0017 148.333 31.366 152.016 28.4446C155.063 26.0344 158.861 26.0695 159.763 26.295C159.914 26.33 160.139 26.7159 160.339 27.2019Z" fill="#884227"/>
    <path d="M177.362 24.0751C177.888 24.2404 181.691 22.3563 186.326 23.1882C190.801 23.9849 194.459 27.6629 195 28.0437C195.205 28.189 195.21 28.0337 195.095 27.9235C194.539 27.3823 191.613 23.2082 186.481 21.9555C182.237 20.9282 178.719 22.4816 177.823 22.9877C177.582 23.123 176.86 23.9147 177.367 24.0751H177.362Z" fill="#FDA44B"/>
    <path d="M177.562 27.0666C178.374 27.2069 182.042 24.7415 186.577 25.5132C191.111 26.2749 194.789 28.179 195.06 28.3394C195.271 28.4646 195.531 28.4195 195.351 28.179C195.306 28.1089 195.22 28.0287 195.095 27.9285C194.519 27.4725 191.472 23.8546 186.321 22.6871C182.062 21.73 178.133 23.3034 177.276 23.8797C177.136 23.9749 177.061 24.4208 177.061 24.947C177.046 25.859 177.226 27.0165 177.567 27.0716L177.562 27.0666Z" fill="#541108"/>
    <path d="M177.061 24.942C177.246 24.8768 181.836 22.7823 186.486 23.5389C190.976 24.2655 194.419 27.4875 195.06 27.9786C195.175 28.0688 195.225 28.0237 195.1 27.9235C194.524 27.4675 191.477 23.8496 186.326 22.6821C182.067 21.725 178.138 23.2984 177.281 23.8747C177.141 23.9699 177.066 24.4158 177.066 24.942H177.061Z" fill="#884227"/>
    <path d="M149.651 55.8793C148.393 60.8351 156.822 73.192 169.73 72.3101C183.615 71.358 205.137 62.8595 197.125 50.5778C188.766 37.7649 177.121 53.3889 165.806 54.5464C157.483 55.3983 151.886 47.0752 149.651 55.8844V55.8793Z" fill="#FDEFD4"/>
    <path d="M161.181 67.4646C161.181 67.4646 163.065 76.364 169.424 76.7097C175.713 77.0505 182.793 67.1739 182.793 67.1739C182.793 67.1739 184.437 58.9861 170.677 59.372C160.475 59.6576 161.181 67.4696 161.181 67.4696V67.4646Z" fill="#FDEFD4"/>
    <path d="M161.357 67.4245C164.208 76.5945 169.96 79.1701 177.482 72.4855C179.371 70.857 181.1 69.018 182.673 67.0838C182.718 67.0186 182.813 67.0086 182.874 67.0587C182.929 67.1038 182.944 67.189 182.899 67.2491C181.47 69.3437 179.812 71.2779 177.943 73.0117C173.994 76.7749 168.417 79.3004 164.178 74.4448C162.479 72.4354 161.492 70.0001 160.991 67.4997C160.951 67.2692 161.292 67.194 161.347 67.4245H161.357Z" fill="#89543B"/>
    <g style="mix-blend-mode:screen" opacity="0.7">
      <path d="M164.804 65.9663C165.877 65.841 169.099 69.8648 171.343 69.8147C173.588 69.7696 177.487 69.1382 177.772 70.1705C178.268 71.9694 172.872 76.1585 168.888 75.5021C165.481 74.9358 162.84 72.3552 162.594 69.1382C162.489 67.7502 164.032 66.0515 164.804 65.9613V65.9663Z" fill="#FDEFD4"/>
    </g>
    <g style="mix-blend-mode:multiply" opacity="0.9">
      <path d="M189.738 52.3817C189.738 52.3817 183.149 64.4079 177.863 66.4073C172.907 68.2814 167.009 63.4508 167.009 63.4508C167.009 63.4508 164.764 65.5554 162.7 66.1567C160.635 66.758 158.766 66.7179 157.488 64.894C157.488 64.894 158.761 68.1561 163.166 67.1589C165.731 66.5776 166.688 64.6735 167.079 64.6384C167.54 64.6033 171.569 69.8197 178.404 67.4796C185.604 65.0192 189.738 52.3717 189.738 52.3717V52.3817Z" fill="#FDEFD4"/>
    </g>
    <path d="M157.634 57.0268C157.002 59.5072 156.236 62.6441 157.809 64.894C160.269 67.8454 164.524 65.2197 166.708 63.1402C166.869 62.9898 167.109 62.9898 167.275 63.1201C171.193 66.0615 176.46 68.2012 180.508 64.2676C184.231 60.9203 187.028 56.5859 189.623 52.3216C189.658 52.2615 189.733 52.2414 189.794 52.2765C189.849 52.3116 189.869 52.3817 189.839 52.4419C188.636 54.6767 187.328 56.8465 185.875 58.931C184.417 61.0055 182.864 63.0399 180.959 64.7837C180.002 65.6356 178.945 66.4574 177.652 66.8833C176.374 67.3042 175.001 67.3193 173.709 67.0938C171.118 66.6127 168.793 65.385 166.723 63.7816L167.29 63.7615C164.799 66.0465 160.004 68.577 157.383 65.2097C155.744 62.7643 156.611 59.5373 157.363 56.9367C157.428 56.7663 157.679 56.8515 157.624 57.0218L157.634 57.0268Z" fill="#89543B"/>
    <path d="M187.965 51.5199C189.358 50.6179 191.357 51.8756 191.106 53.5292C191.096 53.6695 190.906 53.7297 190.816 53.6244C190.595 53.3739 190.445 53.0983 190.23 52.8678C189.638 52.1713 188.987 51.9558 188.01 51.7153C187.914 51.7053 187.879 51.57 187.965 51.5199Z" fill="#89543B"/>
    <g style="mix-blend-mode:screen" opacity="0.7">
      <path d="M163.757 63.7966C164.398 63.07 161.883 61.2861 160.685 60.5746C159.488 59.863 158.19 59.3268 157.704 60.3841C157.218 61.4415 157.834 64.4831 159.257 65.1144C160.68 65.7458 163.015 64.6384 163.762 63.7966H163.757Z" fill="#FDEFD4"/>
    </g>
    <path d="M162.945 30.2134C162.945 30.2134 166.102 28.3895 168.648 28.1439C171.193 27.9034 174.751 28.4747 174.751 28.4747C174.751 28.4747 171.479 26.2448 168.237 26.6206C164.99 27.0014 162.945 30.2134 162.945 30.2134Z" fill="#7A3C04"/>
    <path d="M162.043 32.2128C162.043 32.2128 163.657 35.6352 162.9 40.0148C162.008 45.1961 158.024 50.7231 156.236 52.8728L176.019 52.2464C177.412 46.6041 179.075 43.2468 177.156 30.1934L162.043 32.2128Z" fill="#FD9A3F"/>
    <path d="M162.209 32.1426C163.597 35.7204 163.712 39.7442 162.269 43.327C160.916 46.8697 159.062 50.2821 156.556 53.1434L156.215 52.4469L175.848 51.7203L175.497 51.9307C175.482 51.7503 175.593 51.59 175.673 51.4296C176.901 48.8741 177.407 46.0429 177.727 43.2418C177.737 43.1466 177.823 43.0765 177.918 43.0865C178.008 43.0965 178.073 43.1717 178.073 43.2619C178.058 44.0335 178.033 44.8052 177.968 45.5769C177.762 47.7065 177.377 49.8462 176.57 51.8405C176.47 52.1061 176.219 52.5521 175.878 52.5771L156.246 53.3037C156.01 53.3137 155.815 53.1283 155.805 52.8928C155.805 52.7826 155.84 52.6824 155.905 52.6022C156.977 51.0939 158.13 49.6257 159.097 48.0423C162.254 42.9612 164.058 38.1658 161.873 32.283C161.833 32.1877 161.878 32.0725 161.978 32.0424C162.073 32.0074 162.173 32.0575 162.209 32.1527V32.1426Z" fill="#7A3C04"/>
    <path d="M176.019 52.2464C176.359 55.7992 168.242 62.0578 166.708 62.1831C164.283 62.138 162.108 59.6876 159.904 58.3397C151.159 51.4296 158.531 50.207 165.285 51.3094C168.046 51.1891 175.132 49.1998 176.019 52.2464Z" fill="#541108"/>
    <path d="M176.019 52.2464C176.274 53.1183 175.578 54.4612 174.455 55.8793C174.455 55.8793 174.455 55.8793 174.455 55.8693C174.876 54.7368 175.262 53.424 174.109 52.6623C171.995 51.2643 168.808 52.7626 165.235 53.0281C161.567 53.2987 159.813 51.8856 157.844 53.1484C156.416 54.0654 156.972 55.5536 157.057 55.6989C156.306 54.827 155.865 54.0303 155.915 53.444C156.256 49.5105 162.99 51.4046 165.28 51.3094C168.041 51.1891 175.127 49.1998 176.014 52.2464H176.019Z" fill="#884227"/>
    <path d="M176.019 52.2464C176.8 54.9273 168.597 62.0428 166.708 62.1831C164.283 62.138 162.108 59.6876 159.904 58.3397C150.889 51.2042 159.102 50.2721 165.285 51.3094C168.046 51.1891 175.127 49.1998 176.019 52.2464Z" stroke="#350803" stroke-width="1.28" stroke-linecap="round" stroke-linejoin="round"/>
    <path d="M164.599 38.1557C164.599 38.1557 166.939 36.6324 169.419 36.5122C171.9 36.3919 174.856 37.4392 174.856 37.4392C174.856 37.4392 172.686 34.7183 169.099 35.1943C165.811 35.6302 164.594 38.1557 164.594 38.1557H164.599Z" fill="#7A3C04"/>
    <path d="M172.957 57.4728C171.985 58.4048 170.091 60.1787 169.174 60.8752C170.652 58.8608 169.189 57.0469 171.434 55.9896C172.741 55.3782 173.533 56.7111 172.957 57.4728Z" fill="#350803"/>
    <path d="M164.012 61.1659C162.394 60.3691 159.448 57.9789 159.448 57.9789C159.448 57.9789 158.691 56.5308 160.059 56.5508C161.793 56.5759 161.367 58.9109 164.012 61.1659Z" fill="#350803"/>
    <path d="M166.177 52.9329C166.152 53.2436 171.168 52.2514 172.777 52.6172C174.535 53.0181 174.636 53.5442 174.781 53.5042C174.936 53.4641 174.355 52.3917 172.847 52.051C171.358 51.7153 166.202 52.6273 166.177 52.9329Z" fill="#C1755D"/>
    <path d="M160.164 49.31C160.535 50.5678 163.882 49.5756 165.841 49.4904C167.59 49.4203 172.631 50.2821 174.721 48.9041C176.004 48.0573 176.475 40.556 175.693 39.5838C173.588 36.9331 166.242 36.9531 164.298 40.0148C163.582 41.012 163.837 42.0943 162.715 44.5046C161.717 46.6442 159.909 48.4331 160.164 49.305V49.31Z" fill="#FDA44B"/>
  </g>
  <defs>
    <clipPath id="clip0_1_1682">
      <rect width="247.153" height="186" fill="white" transform="translate(0.746948 0.0327454)"/>
    </clipPath>
  </defs>
</svg>