<svg xmlns="http://www.w3.org/2000/svg" width="170" height="188" viewBox="0 0 170 188" fill="none">
  <path d="M93.8688 158.533C99.0409 168.101 103.013 168.898 107.104 168.898C112.281 168.898 117.253 157.524 118.025 152.237C118.796 146.955 117.516 142.983 117.567 140.193C117.622 137.408 119.292 134.784 120.017 129.891C120.378 127.492 119.865 124.783 119.246 122.642C118.606 120.42 117.855 118.814 117.855 118.814L108.321 101.102L86.7975 101.865C86.7975 101.865 86.4329 105.417 86.2464 111.785C86.1107 116.626 85.9963 123.104 86.7297 130.896C87.9591 143.962 90.7317 152.737 93.8646 158.528L93.8688 158.533Z" fill="#F47F2D"/>
  <path d="M93.8681 158.532C99.0401 168.101 103.347 168.885 107.103 168.898C111.953 168.915 117.253 157.523 118.024 152.237C118.796 146.955 117.515 142.982 117.566 140.193C117.621 137.408 119.292 134.783 120.017 129.891C120.377 127.492 119.427 123.392 118.808 121.251C118.808 121.251 114.332 124.537 100.257 124.986C82.3284 125.563 91.1888 148.845 93.8681 158.528V158.532Z" fill="#FD9A3F"/>
  <path d="M86.1732 113.438C86.0375 118.28 85.9993 123.108 86.7328 130.9C87.9622 143.966 90.7348 152.742 93.8677 158.533C99.0397 168.101 102.987 169.085 107.103 168.898C112.199 168.673 117.252 157.524 118.024 152.237C118.795 146.955 117.515 142.983 117.566 140.193C117.621 137.408 119.291 134.784 120.016 129.891C120.377 127.492 119.864 124.783 119.245 122.642C118.605 120.42 117.854 118.814 117.854 118.814L108.32 101.102" stroke="#7A3C04" stroke-width="2" stroke-linecap="round" stroke-linejoin="round"/>
  <path d="M86.0933 119.767C102.212 126.436 118.813 121.256 118.813 121.256C118.173 119.034 117.859 118.818 117.859 118.818C117.859 118.818 129.373 83.3934 103.712 82.1301C75.3931 80.7353 86.2756 113.4 86.0933 119.767Z" fill="#222222"/>
  <path d="M86.0933 119.767C102.212 126.436 118.813 121.256 118.813 121.256C118.173 119.034 117.859 118.818 117.859 118.818C117.859 118.818 129.373 83.3934 103.712 82.1301C75.3931 80.7353 86.2756 113.4 86.0933 119.767Z" stroke="black" stroke-width="2" stroke-linecap="round" stroke-linejoin="round"/>
  <path d="M87.8056 139.218C87.8056 139.218 93.6602 138.281 99.748 140.074C99.748 140.074 95.5891 140.218 88.6068 143.194C88.6068 143.194 88.0133 141.028 87.8056 139.213V139.218Z" fill="#7A3C04"/>
  <path d="M118.059 145.573C118.059 145.573 112.51 146.192 108.529 149.346C108.529 149.346 112.209 148.129 118.492 149.036C118.492 149.036 118.28 147.086 118.059 145.577V145.573Z" fill="#7A3C04"/>
  <path d="M119.954 127.369C119.954 127.369 115.227 127.81 108.529 129.073C108.529 129.073 115.609 129.578 119.916 131.091L119.954 127.369Z" fill="#7A3C04"/>
  <path d="M86.3003 125.308C86.3003 125.308 90.2938 124.816 94.2025 126.245C94.2025 126.245 90.1242 126.275 86.5377 128.712L86.3003 125.308Z" fill="#7A3C04"/>
  <path d="M165.197 147.243C167.032 150.512 157.719 159.253 153.165 154.912C148.612 150.571 161.581 140.808 165.197 147.243Z" fill="#F47F2D" stroke="#7A3C04" stroke-width="2" stroke-miterlimit="10"/>
  <path d="M69.8654 103.615C86.187 101.386 90.2866 91.1431 92.2791 86.3102C90.6723 81.8715 87.5267 70.3022 87.8998 64.9691C86.026 31.4609 35.1489 38.0065 38.019 67.8222C38.6168 74.0838 39.7996 84.7459 37.0651 90.1935C36.3656 91.3763 54.3704 105.731 69.8696 103.615H69.8654Z" fill="#F47F2D"/>
  <path d="M69.8655 103.615C86.1617 101.233 90.2867 91.1431 92.2792 86.3102C90.6725 81.8715 87.5268 70.3022 87.8999 64.9691C86.0261 31.4609 35.1491 38.0065 38.0191 67.8222C38.6169 74.0838 39.7997 84.7459 37.0653 90.1935C36.3658 91.3763 54.4595 105.867 69.8697 103.615H69.8655Z" stroke="#7A3C04" stroke-width="2" stroke-linecap="round" stroke-linejoin="round"/>
  <path d="M59.3013 76.1356C69.7429 76.1356 79.5826 77.3862 81.8167 82.2997C84.0509 87.2132 75.6357 97.2181 59.827 96.3067C43.2806 95.3528 39.3125 85.3733 40.6988 81.6214C42.0851 77.8653 50.2247 76.1399 59.3055 76.1399L59.3013 76.1356Z" fill="#FD9A3F"/>
  <path d="M77.1906 87.2978C77.1906 87.2978 71.5479 88.5187 65.7781 88.8537C60.0083 89.1886 54.3657 88.3025 54.3657 88.3025C54.3657 88.3025 60.517 91.0327 65.7781 90.7529C71.6497 90.4434 77.1906 87.2978 77.1906 87.2978Z" fill="#7A3C04"/>
  <path d="M78.989 79.8747C78.989 79.8747 82.8553 79.1668 86.162 77.4329C87.3109 76.8309 88.163 76.284 89.2441 75.6311C88.9939 74.5755 88.7565 73.486 88.5615 72.3922C88.5615 72.3922 87.5653 73.9269 84.9538 75.9745C83.0461 77.471 81.5241 78.9633 78.9932 79.8747H78.989Z" fill="#7A3C04"/>
  <path d="M38.7362 84.0801C39.529 84.521 40.5464 84.8135 41.6275 85.0043C44.9172 85.5766 48.6988 85.5554 48.6988 85.5554C45.8202 85.3901 43.7768 84.2497 42.1362 83.5714C39.6774 82.5582 38.7489 81.1761 38.7489 81.1761C38.7659 82.1639 38.7616 83.1347 38.7362 84.0801Z" fill="#7A3C04"/>
  <path d="M32.0635 140.604C34.9039 147.099 32.5934 165.078 32.5934 165.078C32.5934 165.078 37.0448 166.269 43.8279 167.444C43.8575 167.444 43.883 167.452 43.9126 167.456C50.2802 168.563 58.6149 169.669 67.0131 169.809C67.577 169.818 68.1366 169.822 68.7004 169.822C69.4889 169.822 70.2817 169.809 71.083 169.788C87.3368 169.317 101.886 164.319 101.886 164.319C101.403 142.177 114.524 132.893 113.273 121.65C112.387 113.697 109.25 94.1614 100.564 84.4235C97.7149 81.2228 91.9705 81.1677 91.2074 81.1762C91.2074 81.1762 94.2725 93.5594 76.9376 96.243C55.5795 99.5455 37.9732 83.5333 37.9732 83.5333C37.9732 83.5333 19.0486 85.2841 17.7895 107.337V107.363C16.7042 126.512 28.5787 132.642 32.0635 140.604Z" fill="black"/>
  <path d="M17.7039 107.337C17.7039 107.337 17.7336 107.346 17.7929 107.363C19.2895 107.817 33.3049 108.283 36.7473 119.56C39.6555 129.081 43.8271 136.75 56.9565 136.814C66.6732 136.865 75.0842 133.355 75.665 133.147C75.0757 133.541 68.6996 139.968 56.6979 139.765C43.8271 139.557 43.6745 153.013 43.8228 167.444V167.456C50.2116 168.567 58.5717 169.678 67.0081 169.809C67.572 169.818 68.1316 169.822 68.6954 169.822C69.4839 169.822 70.2767 169.809 71.0779 169.788C87.3318 169.317 101.881 164.319 101.881 164.319C100.694 143.974 114.519 132.893 113.268 121.65C112.382 113.697 109.245 94.1614 100.559 84.4235C97.7098 81.2228 91.9655 81.1677 91.2024 81.1762H91.1176C91.1176 81.1762 94.2335 93.9155 76.8478 96.243C54.9258 99.1766 37.9682 83.5333 37.9682 83.5333C37.9682 83.5333 19.0097 84.4829 17.6997 107.337H17.7039Z" fill="#222222"/>
  <path d="M69.0986 132.384C69.1282 132.371 69.1579 132.354 69.1833 132.333L76.704 127.063C76.7888 127.004 76.8567 126.928 76.9033 126.834C76.9499 126.745 76.9754 126.644 76.9711 126.542L76.7803 117.588C76.7803 117.478 76.7464 117.372 76.6871 117.283C76.6277 117.19 76.5429 117.118 76.4454 117.071C76.3479 117.024 76.2335 117.003 76.1232 117.012C76.013 117.02 75.9028 117.063 75.8138 117.126L68.2931 122.396C68.2083 122.455 68.1405 122.531 68.0938 122.625C68.0472 122.714 68.026 122.815 68.026 122.917L68.2168 131.871C68.2168 131.972 68.2464 132.07 68.2973 132.159C68.3482 132.244 68.4202 132.32 68.5093 132.371C68.5983 132.422 68.6958 132.452 68.8018 132.452C68.9035 132.452 69.0095 132.43 69.1028 132.384H69.0986ZM71.7567 127.5L74.2197 127.326L70.4976 129.933L71.7524 127.496L71.7567 127.5ZM71.303 125.715L69.4886 123.036L74.4911 119.53L71.303 125.715ZM70.6544 126.974L69.3996 129.412L69.3063 124.982L70.6544 126.974ZM75.7205 126.008L72.4053 126.241L75.5933 120.056L75.7205 126.012V126.008Z" fill="#D7B27B"/>
  <path d="M100.432 122.175C98.927 119.967 96.4639 118.063 93.4963 116.821C89.6639 115.21 85.611 114.956 82.5926 116.122C82.2407 115.821 81.8549 115.57 81.4352 115.371L78.1327 113.794C76.1699 112.857 73.745 113.158 71.2946 114.642C68.9375 116.071 66.822 118.44 65.3382 121.319C63.8544 124.198 63.1761 127.254 63.422 129.925C63.6806 132.698 64.9016 134.741 66.8602 135.678L68.7594 136.585C68.6789 137.009 68.6534 137.437 68.6789 137.865L68.8951 141.494C69.0223 143.648 70.4679 145.543 72.9564 146.832C75.3559 148.074 78.4677 148.612 81.715 148.345C84.0849 148.15 86.3317 147.544 88.2395 146.603C88.9263 146.264 89.5876 145.869 90.2066 145.42C92.5213 143.737 93.721 141.626 93.5938 139.472L93.3903 136.064C93.6405 136.038 93.8906 136.009 94.1365 135.966C95.1115 135.822 96.0612 135.529 96.9514 135.097C98.325 134.419 99.3467 133.423 99.9148 132.176L101.445 128.823C102.352 126.834 101.992 124.473 100.428 122.18L100.432 122.175ZM86.4038 133.813L87.4255 131.578C88.5786 132.024 89.7826 132.35 91.0078 132.553L90.0031 134.758C88.7694 134.576 87.5612 134.258 86.4038 133.813ZM85.2761 133.338C84.9031 133.164 84.5342 132.977 84.1781 132.782C84.1315 132.753 84.0891 132.727 84.0425 132.702C83.3345 132.308 82.6562 131.858 82.016 131.362C82.3509 130.841 82.6689 130.294 82.9614 129.73C83.0377 129.582 83.1098 129.433 83.1819 129.285C84.1527 129.997 85.1998 130.608 86.3021 131.108L85.2804 133.342L85.2761 133.338ZM84.0128 134.716C84.034 135.038 83.9195 135.356 83.7033 135.602C83.4871 135.847 83.1776 136 82.8512 136.026L79.7649 136.28L79.6462 134.304C80.2482 133.702 80.8036 133.058 81.3038 132.38C82.0033 132.918 82.7452 133.406 83.521 133.834C83.6652 133.935 83.7839 134.067 83.8686 134.22C83.9534 134.372 84.0043 134.542 84.0128 134.72V134.716ZM83.8178 137.518C84.0001 137.675 84.1315 137.878 84.1908 138.111C84.2544 138.34 84.2417 138.586 84.1612 138.815C84.0806 139.044 83.9322 139.247 83.7372 139.396C83.5422 139.544 83.309 139.637 83.0632 139.654L79.9769 139.909L79.8327 137.488L82.919 137.234C83.0801 137.221 83.2455 137.234 83.3981 137.285C83.5507 137.331 83.6948 137.412 83.8135 137.514L83.8178 137.518ZM72.8377 135.292C72.8971 135.262 72.9564 135.233 73.0158 135.203L74.8981 136.102C73.3634 136.7 71.9178 136.725 70.7223 136.153L70.5654 136.076C71.3539 135.92 72.117 135.657 72.8377 135.292ZM76.3692 135.368C76.3692 135.368 76.3268 135.394 76.3056 135.407L74.2834 134.44C75.0295 133.927 75.7248 133.346 76.3607 132.706L78.5016 133.728C77.8529 134.347 77.1365 134.898 76.3692 135.368ZM79.3622 128.687L81.5624 129.738C80.9562 130.828 80.2312 131.854 79.4046 132.795L77.234 131.761C78.048 130.807 78.7602 129.777 79.3622 128.687ZM82.1263 128.645L79.926 127.593C80.4644 126.47 80.8841 125.304 81.1809 124.104L83.3514 125.139C83.0759 126.343 82.6647 127.521 82.1305 128.645H82.1263ZM83.5719 123.884L81.431 122.862C81.5751 121.989 81.6345 121.103 81.609 120.221L83.6312 121.188C83.6312 121.213 83.6355 121.234 83.6397 121.26C83.716 122.133 83.6948 123.015 83.5719 123.888V123.884ZM83.3514 119.691L81.4692 118.792C81.3377 117.953 81.0834 117.143 80.7103 116.384L80.8672 116.461C82.0627 117.033 82.9148 118.156 83.3514 119.691ZM64.6472 129.777C64.4225 127.33 65.0542 124.511 66.432 121.836C67.8098 119.161 69.7599 116.969 71.9178 115.664C72.1722 115.511 72.4265 115.371 72.6766 115.248C74.4741 114.358 76.1869 114.227 77.5647 114.884C79.1332 115.634 80.1168 117.338 80.333 119.683C80.5577 122.129 79.926 124.948 78.5482 127.623C77.1704 130.298 75.2203 132.49 73.0624 133.796C70.9936 135.046 68.9884 135.326 67.4198 134.576C65.8512 133.825 64.8677 132.121 64.6515 129.777H64.6472ZM70.1584 137.246C71.8923 138.073 73.9866 137.937 76.1402 136.869C76.4243 136.729 76.7083 136.572 76.9966 136.399C77.5096 136.085 78.0013 135.741 78.4677 135.364L78.7432 140.011L77.5095 140.112L77.5816 141.321L78.8153 141.219L78.8874 142.427L80.121 142.325L80.049 141.117L81.2826 141.015L81.3547 142.223L82.5884 142.122L82.5163 140.914L83.1352 140.863C83.6228 140.825 84.0933 140.642 84.4834 140.341C84.8734 140.04 85.1659 139.637 85.327 139.18C85.4881 138.722 85.5093 138.23 85.3821 137.772C85.2592 137.31 84.9963 136.899 84.6317 136.589C84.5936 136.555 84.5512 136.526 84.5088 136.492C84.7504 136.25 84.9412 135.962 85.0684 135.648C85.1956 135.334 85.2549 135 85.2422 134.665C85.2676 134.677 85.2931 134.686 85.3185 134.699C87.5824 135.648 89.9395 136.131 92.1397 136.115C92.1609 137.776 91.1477 139.438 89.2612 140.812C87.222 142.296 84.4325 143.249 81.414 143.495C78.3956 143.741 75.5213 143.254 73.3253 142.113C71.2183 141.024 70.0016 139.472 69.8998 137.751C69.8871 137.543 69.8913 137.335 69.9125 137.128L70.15 137.242L70.1584 137.246ZM80.8714 144.746L81.0155 147.162C79.7607 147.226 78.51 147.158 77.2806 146.95L77.1365 144.568C78.3701 144.75 79.6208 144.81 80.8714 144.746ZM82.1051 144.644C83.3514 144.504 84.5851 144.246 85.7806 143.864L85.9248 146.247C84.7292 146.649 83.4998 146.925 82.2492 147.065L82.1051 144.644ZM70.1203 141.38L70.1118 141.206C70.6756 141.838 71.337 142.38 72.0704 142.817L72.1933 144.886C70.9258 143.902 70.2008 142.69 70.1203 141.38ZM73.5457 145.742C73.5245 145.729 73.5033 145.721 73.4821 145.708L73.3507 143.487C74.1647 143.847 75.0125 144.127 75.8816 144.326L76.0215 146.679C75.1609 146.459 74.33 146.141 73.5457 145.742ZM87.1372 145.772L86.9973 143.419C87.345 143.275 87.6841 143.126 88.0148 142.961C88.4938 142.724 88.9559 142.461 89.4053 142.173L89.5367 144.394C89.5367 144.394 89.4986 144.424 89.4774 144.436C88.7482 144.962 87.9597 145.407 87.1372 145.768V145.772ZM90.7195 143.372L90.5966 141.304C91.2706 140.752 91.8599 140.108 92.3432 139.387L92.3517 139.561C92.428 140.871 91.8557 142.19 90.7153 143.372H90.7195ZM91.2834 134.885L92.2754 132.71C93.1699 132.791 94.0729 132.782 94.9674 132.693L94.0305 134.745C94.005 134.745 93.9839 134.754 93.9584 134.758C93.0724 134.894 92.1736 134.936 91.2834 134.885ZM98.7829 131.697C98.2275 132.91 97.104 133.829 95.5482 134.368L96.4215 132.456C97.1337 132.299 97.8247 132.057 98.4776 131.735C98.609 131.672 98.732 131.604 98.8549 131.532L98.7829 131.693V131.697ZM100.313 128.344C99.5841 129.938 97.8714 131.023 95.4888 131.409C93.0046 131.807 90.1175 131.392 87.3619 130.234C86.0477 129.688 84.8098 128.98 83.6864 128.123C84.6529 125.736 85.0684 123.303 84.8649 121.12C84.7165 119.5 84.2375 118.131 83.4744 117.088C86.1198 116.249 89.6851 116.554 92.9791 117.936C95.7347 119.093 98.0113 120.844 99.3891 122.866C100.712 124.804 101.038 126.75 100.313 128.344Z" fill="#D7B27B"/>
  <path d="M90.6893 127.555L91.3549 126.444C91.6304 126.542 91.906 126.576 92.1858 126.55C92.8005 126.499 93.2923 126.173 93.6569 125.567C93.9494 125.079 94.0681 124.66 94.0087 124.316C93.9451 123.964 93.7416 123.697 93.4025 123.506C93.1312 123.354 92.8514 123.341 92.5589 123.468C92.2706 123.587 91.9484 123.812 91.588 124.138C90.897 124.782 90.401 125.198 90.0915 125.38C89.2606 125.897 88.4551 125.936 87.6666 125.495C87.1367 125.198 86.7678 124.757 86.5601 124.168C86.3566 123.574 86.3863 122.964 86.6534 122.328L85.6444 121.764L86.2803 120.696L87.2893 121.26C87.8828 120.619 88.5993 120.301 89.4471 120.314C89.8329 120.314 90.2102 120.378 90.5833 120.505L89.9177 121.616C89.693 121.548 89.4683 121.527 89.2479 121.552C88.7392 121.611 88.3195 121.917 87.9973 122.459C87.7471 122.879 87.6539 123.256 87.7175 123.591C87.7811 123.926 87.9718 124.18 88.2813 124.354C88.7476 124.617 89.3581 124.409 90.1042 123.727C90.1678 123.672 90.2865 123.566 90.4646 123.409C90.6342 123.248 90.7613 123.138 90.8461 123.078C90.9267 123.006 91.0539 122.904 91.2277 122.773C91.3973 122.629 91.5372 122.531 91.6474 122.476C91.7576 122.421 91.8975 122.353 92.0713 122.269C92.2367 122.179 92.3893 122.129 92.5292 122.116C92.6648 122.095 92.8175 122.078 92.9828 122.073C93.1524 122.061 93.3219 122.082 93.4958 122.137C93.6611 122.188 93.8349 122.264 94.013 122.366C94.6065 122.701 94.9923 123.163 95.1661 123.757C95.3357 124.337 95.2975 124.956 95.0516 125.609L96.0606 126.173L95.4247 127.237L94.4157 126.673C93.7544 127.449 92.9404 127.826 91.9823 127.801C91.5414 127.792 91.1132 127.716 90.6935 127.564L90.6893 127.555Z" fill="#D7B27B"/>
  <path d="M101.466 163.98C101.517 159.084 102.064 154.166 103.352 149.422C104.595 144.678 106.613 140.167 108.813 135.809C112.586 128.369 114.79 123.392 111.106 115.282C110.148 113.061 108.982 110.924 107.757 108.821C107.736 108.783 107.749 108.732 107.787 108.711C107.825 108.69 107.872 108.703 107.897 108.737C109.245 110.767 110.504 112.866 111.547 115.087C115.575 123.257 113.319 128.585 109.542 136.17C105.061 144.801 102.301 154.23 102.314 163.989C102.314 164.222 102.119 164.413 101.886 164.408C101.652 164.408 101.462 164.213 101.466 163.98Z" fill="black"/>
  <path d="M96.5017 82.147C94.789 81.6891 92.9703 81.5238 91.2109 81.6043L91.6179 81.0829C92.4658 85.3011 91.0413 89.9136 87.688 92.6565C84.4194 95.3824 80.1037 96.3829 75.9618 96.7644C66.2917 97.731 56.4182 95.5604 47.88 90.9734C44.2087 89.0021 40.7366 86.6874 37.6758 83.8385L38.0149 83.9614C25.106 85.9497 18.0643 96.527 18.1873 109.148C17.9329 117.266 20.68 124.689 25.7546 130.968C28.1541 134.164 31.0369 137.073 32.6012 140.85C33.1566 142.274 33.4067 143.805 33.6102 145.31C33.89 147.781 33.9621 150.346 33.9239 152.822C33.8561 156.824 33.572 160.805 33.11 164.781C33.0845 165.015 32.8725 165.18 32.6394 165.154C32.4062 165.129 32.2409 164.917 32.2663 164.684C32.7242 160.75 33.0082 156.773 33.076 152.809C33.1015 149.621 33.0464 146.37 32.4062 143.241C31.9144 140.579 30.4137 138.327 28.7815 136.17C26.3396 133.028 23.7027 129.976 21.6763 126.517C16.6696 117.974 15.9277 106.515 19.5227 97.3113C22.5072 89.6846 29.8499 84.2031 37.9344 83.1136C38.0658 83.0966 38.1845 83.1475 38.2735 83.2365C41.2369 85.9921 44.7005 88.3068 48.2785 90.2273C57.8511 95.3654 69.1957 97.4555 79.9002 95.3188C87.0266 93.8265 92.1139 88.9258 90.7912 81.2567C90.7361 81.0023 90.9438 80.7522 91.2024 80.7565C92.1393 80.7989 93.0508 80.9218 93.9538 81.0956C94.8568 81.2737 95.7428 81.5196 96.6034 81.8417C96.6882 81.8714 96.7264 81.9647 96.6967 82.0495C96.667 82.1258 96.5822 82.1682 96.5017 82.147Z" fill="black"/>
  <path d="M51.8684 146.45L75.8168 91.2574L147.997 90.6978L118.974 140.986L51.8684 146.45Z" fill="#222222"/>
  <path d="M51.8684 146.45L75.8168 91.2574L147.997 90.6978L118.974 140.986L51.8684 146.45Z" stroke="black" stroke-width="2" stroke-linecap="round" stroke-linejoin="round"/>
  <path d="M51.869 146.45L49.8298 142.77L74.1979 88.0356L146.764 87.2258L147.997 90.6979L75.8173 91.2575L51.869 146.45Z" fill="#595958"/>
  <path d="M74.1979 88.0355L75.8174 91.2574L51.869 146.45L49.8298 142.77L74.1979 88.0355Z" fill="#424241"/>
  <path d="M51.869 146.45L49.8298 142.77L74.1979 88.0356L146.764 87.2258L147.997 90.6979L75.8173 91.2575L51.869 146.45Z" stroke="black" stroke-width="2" stroke-linecap="round" stroke-linejoin="round"/>
  <path d="M51.8684 146.45L118.974 140.986L163.034 149.901L91.2354 158.176L51.8684 146.45Z" fill="#191919"/>
  <path d="M120.162 148.616L115.011 153.568L105.748 154.242L86.2341 133.948L91.3849 128.997L110.899 149.291L120.162 148.616Z" fill="#75B44D" stroke="#3B661F" stroke-width="1.5" stroke-linecap="round" stroke-linejoin="round"/>
  <path d="M110.899 149.291L105.749 154.242" stroke="#3B661F" stroke-width="1.5" stroke-linecap="round" stroke-linejoin="round"/>
  <path d="M90.1389 130.196L109.653 150.49L118.759 149.965" stroke="#3B661F" stroke-width="1.5" stroke-linecap="round" stroke-linejoin="round"/>
  <path d="M88.8108 131.472L108.321 151.766L117.423 151.254" stroke="#3B661F" stroke-width="1.5" stroke-linecap="round" stroke-linejoin="round"/>
  <path d="M87.481 132.753L106.995 153.047L116.114 152.513" stroke="#3B661F" stroke-width="1.5" stroke-linecap="round" stroke-linejoin="round"/>
  <path d="M100.652 128.323L91.3843 128.997L110.898 149.291L120.161 148.617L100.652 128.323Z" fill="#75B44D" stroke="#3B661F" stroke-width="1.5" stroke-linecap="round" stroke-linejoin="round"/>
  <path d="M117.372 145.717C115.905 145.823 115.964 147.209 117.503 148.811L120.161 148.616L117.372 145.717Z" stroke="#3B661F" stroke-width="1.5" stroke-linecap="round" stroke-linejoin="round"/>
  <path d="M108.108 146.391L110.898 149.291L113.556 149.096C112.017 147.493 109.579 146.281 108.108 146.387V146.391Z" stroke="#3B661F" stroke-width="1.5" stroke-linecap="round" stroke-linejoin="round"/>
  <path d="M100.652 128.323L97.9935 128.518C99.5324 130.12 101.97 131.332 103.441 131.227L100.652 128.327V128.323Z" stroke="#3B661F" stroke-width="1.5" stroke-linecap="round" stroke-linejoin="round"/>
  <path d="M94.0424 128.806L91.3843 129.001L94.1738 131.901C95.6406 131.795 95.5813 130.408 94.0424 128.806Z" stroke="#3B661F" stroke-width="1.5" stroke-linecap="round" stroke-linejoin="round"/>
  <path d="M98.4852 136.386L103.797 141.906L113.06 141.232L107.753 135.712L98.4852 136.386Z" fill="#D7B27B" stroke="#7C5E48" stroke-width="1.5" stroke-linecap="round" stroke-linejoin="round"/>
  <path d="M103.798 141.906L98.6301 146.87L93.3351 141.337L98.4859 136.386L103.798 141.906Z" fill="#D7B27B" stroke="#7C5E48" stroke-width="1.5" stroke-linecap="round" stroke-linejoin="round"/>
  <path d="M106.901 146.42L112.624 150.698L121.9 150.227L138.764 127.687L133.041 123.405L116.177 145.946L106.901 146.42Z" fill="#75B44D" stroke="#3B661F" stroke-width="1.5" stroke-linecap="round" stroke-linejoin="round"/>
  <path d="M116.176 145.946L121.9 150.227" stroke="#3B661F" stroke-width="1.5" stroke-linecap="round" stroke-linejoin="round"/>
  <path d="M134.427 124.439L117.563 146.984L108.461 147.586" stroke="#3B661F" stroke-width="1.5" stroke-linecap="round" stroke-linejoin="round"/>
  <path d="M135.903 125.546L119.038 148.086L109.945 148.697" stroke="#3B661F" stroke-width="1.5" stroke-linecap="round" stroke-linejoin="round"/>
  <path d="M137.378 126.648L120.514 149.193L111.399 149.782" stroke="#3B661F" stroke-width="1.5" stroke-linecap="round" stroke-linejoin="round"/>
  <path d="M123.765 123.875L133.041 123.405L116.177 145.946L106.901 146.42L123.765 123.875Z" fill="#75B44D" stroke="#3B661F" stroke-width="1.5" stroke-linecap="round" stroke-linejoin="round"/>
  <path d="M109.308 143.199C110.779 143.122 110.89 144.504 109.558 146.285L106.896 146.421L109.308 143.199Z" stroke="#3B661F" stroke-width="1.5" stroke-linecap="round" stroke-linejoin="round"/>
  <path d="M118.588 142.724L116.176 145.946L113.514 146.081C114.845 144.301 117.117 142.8 118.584 142.724H118.588Z" stroke="#3B661F" stroke-width="1.5" stroke-linecap="round" stroke-linejoin="round"/>
  <path d="M123.764 123.875L126.427 123.74C125.096 125.52 122.823 127.021 121.356 127.097L123.769 123.875H123.764Z" stroke="#3B661F" stroke-width="1.5" stroke-linecap="round" stroke-linejoin="round"/>
  <path d="M130.378 123.54L133.04 123.405L130.628 126.627C129.157 126.703 129.047 125.321 130.378 123.54Z" stroke="#3B661F" stroke-width="1.5" stroke-linecap="round" stroke-linejoin="round"/>
  <path d="M126.901 131.608L122.314 137.742L113.038 138.213L117.625 132.083L126.901 131.608Z" fill="#D7B27B" stroke="#7C5E48" stroke-width="1.5" stroke-linecap="round" stroke-linejoin="round"/>
  <path d="M122.315 137.742L128.051 142.033L132.626 135.89L126.902 131.608L122.315 137.742Z" fill="#D7B27B" stroke="#7C5E48" stroke-width="1.5" stroke-linecap="round" stroke-linejoin="round"/>
  <path d="M142.88 126.699L146.805 132.672L145.771 141.901L122.247 157.367L118.321 151.398L141.845 135.932L142.88 126.699Z" fill="#75B44D" stroke="#3B661F" stroke-width="1.5" stroke-linecap="round" stroke-linejoin="round"/>
  <path d="M141.845 135.932L145.77 141.901" stroke="#3B661F" stroke-width="1.5" stroke-linecap="round" stroke-linejoin="round"/>
  <path d="M119.27 152.843L142.794 137.374L143.947 128.327" stroke="#3B661F" stroke-width="1.5" stroke-linecap="round" stroke-linejoin="round"/>
  <path d="M120.283 154.382L143.808 138.917L144.969 129.874" stroke="#3B661F" stroke-width="1.5" stroke-linecap="round" stroke-linejoin="round"/>
  <path d="M121.297 155.921L144.821 140.456L145.966 131.392" stroke="#3B661F" stroke-width="1.5" stroke-linecap="round" stroke-linejoin="round"/>
  <path d="M119.355 142.164L118.321 151.398L141.845 135.932L142.88 126.699L119.355 142.164Z" fill="#75B44D" stroke="#3B661F" stroke-width="1.5" stroke-linecap="round" stroke-linejoin="round"/>
  <path d="M139.518 128.908C139.353 130.37 140.726 130.565 142.583 129.344L142.88 126.699L139.518 128.908Z" stroke="#3B661F" stroke-width="1.5" stroke-linecap="round" stroke-linejoin="round"/>
  <path d="M138.483 138.141L141.845 135.932L142.142 133.287C140.285 134.508 138.648 136.683 138.483 138.145V138.141Z" stroke="#3B661F" stroke-width="1.5" stroke-linecap="round" stroke-linejoin="round"/>
  <path d="M119.355 142.164L119.058 144.809C120.915 143.589 122.551 141.414 122.716 139.951L119.355 142.16V142.164Z" stroke="#3B661F" stroke-width="1.5" stroke-linecap="round" stroke-linejoin="round"/>
  <path d="M118.618 148.748L118.321 151.393L121.683 149.185C121.848 147.722 120.475 147.527 118.618 148.748Z" stroke="#3B661F" stroke-width="1.5" stroke-linecap="round" stroke-linejoin="round"/>
  <path d="M126.884 145.768L133.286 141.558L134.316 132.329L127.919 136.534L126.884 145.768Z" fill="#D7B27B" stroke="#7C5E48" stroke-width="1.5" stroke-linecap="round" stroke-linejoin="round"/>
  <path d="M133.286 141.558L137.22 147.544L130.81 151.737L126.884 145.768L133.286 141.558Z" fill="#D7B27B" stroke="#7C5E48" stroke-width="1.5" stroke-linecap="round" stroke-linejoin="round"/>
  <path d="M105.154 151.389L99.9822 156.32L90.7148 156.947L71.2984 136.56L76.4747 131.634L95.8869 152.021L105.154 151.389Z" fill="#75B44D" stroke="#3B661F" stroke-width="1.5" stroke-linecap="round" stroke-linejoin="round"/>
  <path d="M95.8872 152.021L90.7152 156.947" stroke="#3B661F" stroke-width="1.5" stroke-linecap="round" stroke-linejoin="round"/>
  <path d="M75.2248 132.825L94.637 153.212L103.747 152.733" stroke="#3B661F" stroke-width="1.5" stroke-linecap="round" stroke-linejoin="round"/>
  <path d="M73.8884 134.096L93.3006 154.484L102.403 154.013" stroke="#3B661F" stroke-width="1.5" stroke-linecap="round" stroke-linejoin="round"/>
  <path d="M72.5537 135.368L91.9659 155.756L101.089 155.264" stroke="#3B661F" stroke-width="1.5" stroke-linecap="round" stroke-linejoin="round"/>
  <path d="M85.7424 131.002L76.4751 131.633L95.8873 152.021L105.155 151.389L85.7424 131.002Z" fill="#75B44D" stroke="#3B661F" stroke-width="1.5" stroke-linecap="round" stroke-linejoin="round"/>
  <path d="M102.383 148.477C100.916 148.578 100.967 149.96 102.501 151.571L105.159 151.389L102.383 148.477Z" stroke="#3B661F" stroke-width="1.5" stroke-linecap="round" stroke-linejoin="round"/>
  <path d="M93.1148 149.108L95.8916 152.021L98.5497 151.838C97.0193 150.227 94.5859 149.006 93.119 149.104L93.1148 149.108Z" stroke="#3B661F" stroke-width="1.5" stroke-linecap="round" stroke-linejoin="round"/>
  <path d="M85.7425 131.002L83.0844 131.184C84.6148 132.795 87.0482 134.016 88.515 133.919L85.7382 131.006L85.7425 131.002Z" stroke="#3B661F" stroke-width="1.5" stroke-linecap="round" stroke-linejoin="round"/>
  <path d="M79.1333 131.451L76.4752 131.633L79.252 134.546C80.7188 134.444 80.6679 133.062 79.1333 131.451Z" stroke="#3B661F" stroke-width="1.5" stroke-linecap="round" stroke-linejoin="round"/>
  <path d="M83.543 139.052L88.8253 144.602L98.0927 143.97L92.8104 138.425L83.543 139.052Z" fill="#D7B27B" stroke="#7C5E48" stroke-width="1.5" stroke-linecap="round" stroke-linejoin="round"/>
  <path d="M88.8249 144.602L83.6358 149.541L78.3663 143.983L83.5426 139.052L88.8249 144.602Z" fill="#D7B27B" stroke="#7C5E48" stroke-width="1.5" stroke-linecap="round" stroke-linejoin="round"/>
  <path d="M62.0901 134.644L60.7165 141.655L65.1721 149.808L92.8003 155.213L94.1738 148.201L66.5414 142.796L62.0901 134.644Z" fill="#75B44D" stroke="#3B661F" stroke-width="1.5" stroke-linecap="round" stroke-linejoin="round"/>
  <path d="M93.8386 149.897L66.2105 144.492L61.7167 136.556" stroke="#3B661F" stroke-width="1.5" stroke-linecap="round" stroke-linejoin="round"/>
  <path d="M93.4868 151.707L65.8586 146.302L61.3606 138.374" stroke="#3B661F" stroke-width="1.5" stroke-linecap="round" stroke-linejoin="round"/>
  <path d="M93.1306 153.517L65.5024 148.112L61.0129 140.159" stroke="#3B661F" stroke-width="1.5" stroke-linecap="round" stroke-linejoin="round"/>
  <path d="M89.7175 140.049L94.1731 148.201L66.5407 142.796L62.0893 134.643L89.7175 140.049Z" fill="#75B44D" stroke="#3B661F" stroke-width="1.5" stroke-linecap="round" stroke-linejoin="round"/>
  <path d="M66.0362 135.415C66.7399 136.708 65.5444 137.408 63.3654 136.979L62.0893 134.643L66.0362 135.415Z" stroke="#3B661F" stroke-width="1.5" stroke-linecap="round" stroke-linejoin="round"/>
  <path d="M70.4918 143.567L66.5449 142.796L65.2688 140.46C67.4479 140.888 69.788 142.279 70.496 143.572L70.4918 143.567Z" stroke="#3B661F" stroke-width="1.5" stroke-linecap="round" stroke-linejoin="round"/>
  <path d="M89.7181 140.049L90.9942 142.385C88.8151 141.956 86.475 140.566 85.767 139.273L89.7139 140.044L89.7181 140.049Z" stroke="#3B661F" stroke-width="1.5" stroke-linecap="round" stroke-linejoin="round"/>
  <path d="M92.8923 145.861L94.1683 148.197L90.2215 147.425C89.5177 146.132 90.7132 145.433 92.8923 145.861Z" stroke="#3B661F" stroke-width="1.5" stroke-linecap="round" stroke-linejoin="round"/>
  <path d="M84.1167 146.234L76.596 144.763L72.1446 136.611L79.6611 138.082L84.1167 146.234Z" fill="#D7B27B" stroke="#7C5E48" stroke-width="1.5" stroke-linecap="round" stroke-linejoin="round"/>
  <path d="M76.5967 144.763L75.2231 151.792L82.7438 153.246L84.1174 146.234L76.5967 144.763Z" fill="#D7B27B" stroke="#7C5E48" stroke-width="1.5" stroke-linecap="round" stroke-linejoin="round"/>
  <path d="M136.602 144.513L131.981 149.965L122.833 151.576L101.36 133.367L105.981 127.916L127.454 146.124L136.602 144.513Z" fill="#75B44D" stroke="#3B661F" stroke-width="1.5" stroke-linecap="round" stroke-linejoin="round"/>
  <path d="M127.453 146.124L122.832 151.576" stroke="#3B661F" stroke-width="1.5" stroke-linecap="round" stroke-linejoin="round"/>
  <path d="M104.866 129.234L126.334 147.442L135.343 146.001" stroke="#3B661F" stroke-width="1.5" stroke-linecap="round" stroke-linejoin="round"/>
  <path d="M103.67 130.642L125.143 148.85L134.143 147.413" stroke="#3B661F" stroke-width="1.5" stroke-linecap="round" stroke-linejoin="round"/>
  <path d="M102.48 132.049L123.952 150.257L132.969 148.799" stroke="#3B661F" stroke-width="1.5" stroke-linecap="round" stroke-linejoin="round"/>
  <path d="M115.13 126.305L105.985 127.916L127.454 146.124L136.602 144.513L115.13 126.305Z" fill="#75B44D" stroke="#3B661F" stroke-width="1.5" stroke-linecap="round" stroke-linejoin="round"/>
  <path d="M133.532 141.914C132.082 142.168 132.282 143.542 133.977 144.979L136.602 144.517L133.532 141.914Z" stroke="#3B661F" stroke-width="1.5" stroke-linecap="round" stroke-linejoin="round"/>
  <path d="M124.384 143.521L127.453 146.124L130.077 145.662C128.381 144.225 125.833 143.266 124.384 143.521Z" stroke="#3B661F" stroke-width="1.5" stroke-linecap="round" stroke-linejoin="round"/>
  <path d="M115.129 126.305L112.505 126.767C114.201 128.204 116.749 129.162 118.199 128.908L115.129 126.305Z" stroke="#3B661F" stroke-width="1.5" stroke-linecap="round" stroke-linejoin="round"/>
  <path d="M108.605 127.453L105.98 127.916L109.05 130.519C110.5 130.264 110.3 128.891 108.605 127.453Z" stroke="#3B661F" stroke-width="1.5" stroke-linecap="round" stroke-linejoin="round"/>
  <path d="M113.798 134.542L119.64 139.498L128.789 137.887L122.947 132.935L113.798 134.542Z" fill="#D7B27B" stroke="#7C5E48" stroke-width="1.5" stroke-linecap="round" stroke-linejoin="round"/>
  <path d="M119.641 139.498L115.007 144.962L109.178 139.994L113.799 134.542L119.641 139.498Z" fill="#D7B27B" stroke="#7C5E48" stroke-width="1.5" stroke-linecap="round" stroke-linejoin="round"/>
  <path d="M79.7939 138.391L76.182 144.555L77.6912 153.721L101.979 167.957L105.591 161.788L81.3032 147.557L79.7939 138.391Z" fill="#75B44D" stroke="#3B661F" stroke-width="1.5" stroke-linecap="round" stroke-linejoin="round"/>
  <path d="M81.3025 147.557L77.6906 153.721" stroke="#3B661F" stroke-width="1.5" stroke-linecap="round" stroke-linejoin="round"/>
  <path d="M104.717 163.281L80.4295 149.049L78.81 140.07" stroke="#3B661F" stroke-width="1.5" stroke-linecap="round" stroke-linejoin="round"/>
  <path d="M103.784 164.87L79.4964 150.639L77.8727 141.668" stroke="#3B661F" stroke-width="1.5" stroke-linecap="round" stroke-linejoin="round"/>
  <path d="M102.852 166.464L78.5646 152.229L76.9536 143.237" stroke="#3B661F" stroke-width="1.5" stroke-linecap="round" stroke-linejoin="round"/>
  <path d="M104.085 152.623L105.59 161.788L81.3029 147.557L79.7937 138.391L104.085 152.623Z" fill="#75B44D" stroke="#3B661F" stroke-width="1.5" stroke-linecap="round" stroke-linejoin="round"/>
  <path d="M83.2658 140.426C83.5032 141.876 82.1423 142.143 80.2261 141.019L79.7937 138.391L83.2658 140.426Z" stroke="#3B661F" stroke-width="1.5" stroke-linecap="round" stroke-linejoin="round"/>
  <path d="M84.7747 149.591L81.3026 147.557L80.8702 144.928C82.7864 146.052 84.5373 148.142 84.7747 149.591Z" stroke="#3B661F" stroke-width="1.5" stroke-linecap="round" stroke-linejoin="round"/>
  <path d="M104.085 152.623L104.518 155.251C102.601 154.128 100.851 152.038 100.613 150.588L104.085 152.623Z" stroke="#3B661F" stroke-width="1.5" stroke-linecap="round" stroke-linejoin="round"/>
  <path d="M105.159 159.16L105.591 161.788L102.119 159.753C101.881 158.304 103.242 158.036 105.159 159.16Z" stroke="#3B661F" stroke-width="1.5" stroke-linecap="round" stroke-linejoin="round"/>
  <path d="M96.752 156.608L90.1428 152.737L88.6336 143.572L95.2428 147.442L96.752 156.608Z" fill="#D7B27B" stroke="#7C5E48" stroke-width="1.5" stroke-linecap="round" stroke-linejoin="round"/>
  <path d="M90.1425 152.737L86.5221 158.918L93.1398 162.776L96.7518 156.608L90.1425 152.737Z" fill="#D7B27B" stroke="#7C5E48" stroke-width="1.5" stroke-linecap="round" stroke-linejoin="round"/>
  <path d="M128.313 151.953L132.438 157.786L141.409 160.194L164.399 143.941L160.27 138.107L137.284 154.361L128.313 151.953Z" fill="#75B44D" stroke="#3B661F" stroke-width="1.5" stroke-linecap="round" stroke-linejoin="round"/>
  <path d="M137.284 154.361L141.409 160.194" stroke="#3B661F" stroke-width="1.5" stroke-linecap="round" stroke-linejoin="round"/>
  <path d="M161.27 139.519L138.284 155.773L129.436 153.543" stroke="#3B661F" stroke-width="1.5" stroke-linecap="round" stroke-linejoin="round"/>
  <path d="M162.334 141.024L139.348 157.278L130.509 155.056" stroke="#3B661F" stroke-width="1.5" stroke-linecap="round" stroke-linejoin="round"/>
  <path d="M163.398 142.529L140.412 158.783L131.556 156.54" stroke="#3B661F" stroke-width="1.5" stroke-linecap="round" stroke-linejoin="round"/>
  <path d="M151.299 135.699L160.27 138.107L137.284 154.361L128.313 151.953L151.299 135.699Z" fill="#75B44D" stroke="#3B661F" stroke-width="1.5" stroke-linecap="round" stroke-linejoin="round"/>
  <path d="M131.599 149.63C133.019 150.011 132.701 151.359 130.887 152.644L128.313 151.953L131.599 149.63Z" stroke="#3B661F" stroke-width="1.5" stroke-linecap="round" stroke-linejoin="round"/>
  <path d="M140.569 152.038L137.284 154.361L134.711 153.67C136.525 152.385 139.149 151.656 140.569 152.038Z" stroke="#3B661F" stroke-width="1.5" stroke-linecap="round" stroke-linejoin="round"/>
  <path d="M151.299 135.699L153.872 136.39C152.058 137.675 149.434 138.404 148.013 138.022L151.299 135.699Z" stroke="#3B661F" stroke-width="1.5" stroke-linecap="round" stroke-linejoin="round"/>
  <path d="M157.701 137.416L160.274 138.107L156.989 140.43C155.569 140.049 155.887 138.7 157.701 137.416Z" stroke="#3B661F" stroke-width="1.5" stroke-linecap="round" stroke-linejoin="round"/>
  <path d="M151.905 144.025L145.652 148.447L136.681 146.039L142.934 141.613L151.905 144.025Z" fill="#D7B27B" stroke="#7C5E48" stroke-width="1.5" stroke-linecap="round" stroke-linejoin="round"/>
  <path d="M145.652 148.447L149.785 154.293L156.03 149.859L151.905 144.025L145.652 148.447Z" fill="#D7B27B" stroke="#7C5E48" stroke-width="1.5" stroke-linecap="round" stroke-linejoin="round"/>
  <path d="M92.0632 155.756L96.3026 161.508L105.32 163.738L127.979 147.035L123.74 141.282L101.08 157.985L92.0632 155.756Z" fill="#75B44D" stroke="#3B661F" stroke-width="1.5" stroke-linecap="round" stroke-linejoin="round"/>
  <path d="M101.08 157.986L105.32 163.739" stroke="#3B661F" stroke-width="1.5" stroke-linecap="round" stroke-linejoin="round"/>
  <path d="M124.765 142.677L102.106 159.38L93.2158 157.324" stroke="#3B661F" stroke-width="1.5" stroke-linecap="round" stroke-linejoin="round"/>
  <path d="M125.859 144.161L103.2 160.864L94.3137 158.816" stroke="#3B661F" stroke-width="1.5" stroke-linecap="round" stroke-linejoin="round"/>
  <path d="M126.953 145.645L104.294 162.348L95.3951 160.279" stroke="#3B661F" stroke-width="1.5" stroke-linecap="round" stroke-linejoin="round"/>
  <path d="M114.723 139.052L123.74 141.282L101.08 157.986L92.0632 155.756L114.723 139.052Z" fill="#75B44D" stroke="#3B661F" stroke-width="1.5" stroke-linecap="round" stroke-linejoin="round"/>
  <path d="M95.3021 153.369C96.7308 153.721 96.4383 155.077 94.6492 156.396L92.0632 155.756L95.3021 153.369Z" stroke="#3B661F" stroke-width="1.5" stroke-linecap="round" stroke-linejoin="round"/>
  <path d="M104.32 155.599L101.081 157.986L98.4952 157.345C100.284 156.027 102.891 155.243 104.32 155.599Z" stroke="#3B661F" stroke-width="1.5" stroke-linecap="round" stroke-linejoin="round"/>
  <path d="M114.722 139.052L117.308 139.693C115.519 141.011 112.912 141.795 111.483 141.439L114.722 139.052Z" stroke="#3B661F" stroke-width="1.5" stroke-linecap="round" stroke-linejoin="round"/>
  <path d="M121.153 140.642L123.74 141.282L120.501 143.669C119.072 143.317 119.364 141.961 121.153 140.642Z" stroke="#3B661F" stroke-width="1.5" stroke-linecap="round" stroke-linejoin="round"/>
  <path d="M115.49 147.362L109.326 151.906L100.308 149.676L106.473 145.132L115.49 147.362Z" fill="#D7B27B" stroke="#7C5E48" stroke-width="1.5" stroke-linecap="round" stroke-linejoin="round"/>
  <path d="M109.326 151.906L113.578 157.676L119.733 153.115L115.49 147.362L109.326 151.906Z" fill="#D7B27B" stroke="#7C5E48" stroke-width="1.5" stroke-linecap="round" stroke-linejoin="round"/>
  <path d="M51.8684 146.45L91.2354 158.176L163.034 149.901V167.033L91.3584 176.007L52.5849 163.204L51.8684 146.45Z" fill="#595958"/>
  <path d="M91.3584 176.007L91.2354 158.176L51.8684 146.45L52.5849 163.204L91.3584 176.007Z" fill="#424241"/>
  <path d="M103.135 164.052L103.415 168.211L110.592 167.368L110.283 163.31L103.135 164.052Z" fill="#D7B27B"/>
  <path d="M103.135 164.052L103.415 168.211L110.592 167.368L110.283 163.31L103.135 164.052Z" stroke="black" stroke-width="2" stroke-linecap="round" stroke-linejoin="round"/>
  <path d="M149.192 158.647L155.272 157.931V161.555L149.192 162.331V158.647Z" fill="#D7B27B"/>
  <path d="M149.192 158.647L155.272 157.931V161.555L149.192 162.331V158.647Z" stroke="black" stroke-width="2" stroke-linecap="round" stroke-linejoin="round"/>
  <path d="M118.973 162.48L119.219 166.566C119.219 166.566 121.458 167.041 121.292 164.294C121.127 161.577 118.973 162.484 118.973 162.484V162.48Z" fill="#D7B27B" stroke="black" stroke-width="2" stroke-miterlimit="10"/>
  <path d="M142.57 159.66L142.79 163.357C142.79 163.357 144.813 163.785 144.664 161.301C144.516 158.842 142.57 159.66 142.57 159.66Z" fill="#D7B27B" stroke="black" stroke-width="2" stroke-miterlimit="10"/>
  <path d="M51.8684 146.45L91.2354 158.176L163.034 149.901V167.033L91.3584 176.007L52.5849 163.204L51.8684 146.45Z" stroke="black" stroke-width="2" stroke-linecap="round" stroke-linejoin="round"/>
  <path d="M118.881 174.045C118.537 174.045 118.203 173.926 117.935 173.701C117.622 173.438 117.427 173.061 117.401 172.65L116.88 164.218C116.829 163.4 117.452 162.696 118.27 162.645C119.106 162.59 119.792 163.217 119.843 164.035L120.267 170.891L140.769 168.321L140.468 161.288C140.434 160.47 141.07 159.779 141.888 159.741C142.71 159.711 143.397 160.343 143.435 161.161L143.796 169.559C143.83 170.331 143.266 171.001 142.499 171.094L119.072 174.028C119.012 174.036 118.949 174.04 118.889 174.04L118.881 174.045Z" fill="#D7B27B"/>
  <path d="M118.881 174.045C118.537 174.045 118.203 173.926 117.935 173.701C117.622 173.438 117.427 173.061 117.401 172.65L116.88 164.218C116.829 163.4 117.452 162.696 118.27 162.645C119.106 162.59 119.792 163.217 119.843 164.035L120.267 170.891L140.769 168.321L140.468 161.288C140.434 160.47 141.07 159.779 141.888 159.741C142.71 159.711 143.397 160.343 143.435 161.161L143.796 169.559C143.83 170.331 143.266 171.001 142.499 171.094L119.072 174.028C119.012 174.036 118.949 174.04 118.889 174.04L118.881 174.045Z" stroke="black" stroke-width="2" stroke-linecap="round" stroke-linejoin="round"/>
  <path d="M106.866 163.667L107.129 167.775" stroke="black" stroke-width="2" stroke-linecap="round" stroke-linejoin="round"/>
  <path d="M152.389 158.291V161.92" stroke="black" stroke-width="2" stroke-linecap="round" stroke-linejoin="round"/>
  <path d="M115.493 162.764L115.738 166.85C115.738 166.85 117.977 167.325 117.811 164.578C117.646 161.861 115.493 162.768 115.493 162.768V162.764Z" fill="#D7B27B" stroke="black" stroke-width="2" stroke-miterlimit="10"/>
  <path d="M139.425 159.915L139.646 163.611C139.646 163.611 141.668 164.04 141.519 161.555C141.371 159.096 139.425 159.915 139.425 159.915Z" fill="#D7B27B" stroke="black" stroke-width="2" stroke-miterlimit="10"/>
  <path d="M123.383 171.615C123.383 172.23 138.577 170.394 138.425 169.797C138.323 169.381 123.383 171.302 123.383 171.615Z" fill="white"/>
  <path d="M147.006 168.376C149.469 166.922 151.478 167.978 151.826 169.572C152.199 171.272 152.899 172.87 150.329 174.168C148.511 175.087 146.815 173.896 145.988 172.811C145.081 171.624 144.928 169.602 147.006 168.376Z" fill="#FD9A3F" stroke="#7A3C04" stroke-width="2" stroke-miterlimit="10"/>
  <path d="M152.585 163.819C155.87 161.776 157.244 164.052 158.232 165.604C159.22 167.156 159.898 170.42 157.609 171.798C155.553 173.036 153.488 171.882 151.962 169.623C150.775 167.864 150.211 165.299 152.585 163.823V163.819Z" fill="#FD9A3F" stroke="#7A3C04" stroke-width="2" stroke-miterlimit="10"/>
  <path d="M158.867 159.876C161.406 158.037 162.958 159.698 163.967 161.136C164.976 162.573 166.095 165.888 164.196 167.465C162.297 169.042 159.172 167.575 158.146 165.477C157.12 163.378 156.747 161.42 158.867 159.881V159.876Z" fill="#FD9A3F" stroke="#7A3C04" stroke-width="2" stroke-miterlimit="10"/>
  <path d="M162.65 155.315C163.659 153.704 164.312 153.645 164.986 153.759C166.152 153.958 169.993 157.837 168.653 160.283C167.313 162.73 164.214 161.225 163.324 160.194C162.429 159.16 161.421 157.282 162.65 155.315Z" fill="#FD9A3F" stroke="#7A3C04" stroke-width="2" stroke-miterlimit="10"/>
  <path d="M28.2423 165.922C23.0702 175.49 19.0979 176.287 15.0069 176.287C9.83057 176.287 4.85776 164.913 4.08619 159.626C3.31462 154.344 4.59492 150.372 4.54404 147.582C4.48893 144.797 2.81861 142.173 2.09367 137.28C1.73332 134.881 2.24629 132.172 2.86524 130.031C3.50539 127.81 4.25576 126.203 4.25576 126.203L13.7902 108.491L35.3136 109.254C35.3136 109.254 35.6782 112.806 35.8647 119.174C36.0004 124.015 36.1148 130.493 35.3814 138.285C34.152 151.351 31.3794 160.127 28.2465 165.918L28.2423 165.922Z" fill="#F47F2D"/>
  <path d="M28.2419 165.922C23.0699 175.49 18.7626 176.275 15.0065 176.287C10.1567 176.304 4.85741 164.913 4.08584 159.626C3.31427 154.344 4.59457 150.372 4.54369 147.582C4.48858 144.797 2.81826 142.173 2.09332 137.281C1.73297 134.881 2.6826 130.782 3.30155 128.641C3.30155 128.641 7.77835 131.926 21.8532 132.376C39.7816 132.952 30.9212 156.235 28.2419 165.918V165.922Z" fill="#FD9A3F"/>
  <path d="M35.763 121.485C35.8986 126.326 36.1106 130.493 35.3772 138.285C34.1478 151.351 31.3752 160.127 28.2423 165.918C23.0702 175.486 19.1233 176.47 15.0069 176.283C9.91112 176.058 4.85776 164.909 4.08619 159.622C3.31462 154.34 4.59492 150.368 4.54404 147.578C4.48893 144.793 2.81861 142.169 2.09367 137.276C1.73332 134.877 2.24629 132.168 2.86524 130.027C3.50539 127.806 4.25576 126.199 4.25576 126.199L13.7902 108.487" stroke="#7A3C04" stroke-width="2" stroke-linecap="round" stroke-linejoin="round"/>
  <path d="M36.0129 127.157C22.5825 132.715 8.82145 130.044 4.60325 128.997L4.51846 128.976C3.72569 128.781 3.29751 128.645 3.29751 128.645C3.93766 126.423 4.25138 126.207 4.25138 126.207C4.25138 126.207 -6.22842 104.201 15.0534 89.7993C20.997 85.7804 26.9534 85.7295 31.5065 86.7427C36.3351 87.8153 39.5868 90.0791 39.5868 90.0791L35.9578 109.334C35.9578 109.334 35.8307 120.789 36.0129 127.157Z" fill="#222222"/>
  <path d="M31.5149 86.7512C31.5149 86.7512 23.0234 85.1402 16.4905 90.7744C-1.65835 106.422 5.71397 125.228 5.71397 125.228L4.60325 128.997L4.51846 128.976C3.72569 128.781 3.29751 128.645 3.29751 128.645C3.93766 126.423 4.25138 126.207 4.25138 126.207C4.25138 126.207 -6.22842 104.201 15.0534 89.7993C20.997 85.7804 26.9534 85.7295 31.5065 86.7427L31.5149 86.7512Z" fill="#393939"/>
  <path d="M36.1108 109.334C36.1532 115.27 36.2041 121.217 36.4372 127.144C36.4457 127.326 36.3313 127.488 36.1702 127.551C30.9557 129.62 25.3979 130.82 19.7934 131.07C14.1762 131.299 8.53777 130.76 3.14949 129.043C2.93328 128.971 2.81882 128.742 2.88665 128.526C3.00959 128.098 3.14101 127.674 3.28939 127.25C3.45473 126.813 3.60735 126.343 3.89138 125.961C3.92106 125.932 3.9041 125.936 4.00161 125.86L3.86171 126.39C0.487148 118.547 0.097123 109.199 3.89986 101.441C7.39737 94.2634 15.3547 87.1921 23.4053 86.022C29.0607 85.1699 35.0043 86.6876 39.6253 90.0155C39.7058 90.0748 39.6126 90.2063 39.532 90.1512C37.0944 88.7776 34.4532 87.8068 31.7527 87.1963C29.0522 86.5985 26.2542 86.4247 23.5325 86.8656C15.6006 88.1629 8.33427 94.8187 4.77318 101.869C1.11458 109.356 1.44949 118.432 4.6248 126.025L4.4849 126.555C4.55697 126.496 4.53153 126.512 4.53153 126.521C4.13303 127.212 3.93378 128.005 3.69637 128.768L3.43353 128.251C6.01108 129.099 8.76245 129.611 11.4884 129.938C19.7043 130.9 28.1577 129.836 35.848 126.767L35.5809 127.174C35.547 124.194 35.5809 121.222 35.619 118.25C35.6614 115.278 35.725 112.306 35.7971 109.334C35.7886 109.152 36.0981 109.135 36.0981 109.334H36.1108Z" fill="black"/>
  <path d="M2.1107 133.575C2.1107 133.575 8.01618 132.537 13.5825 134.957C13.5825 134.957 8.95309 134.682 1.97504 137.662C1.97504 137.662 1.5299 135.589 2.1107 133.575Z" fill="#7A3C04"/>
  <path d="M35.4278 136.458C35.4278 136.458 30.7008 136.899 24.0026 138.162C24.0026 138.162 31.0824 138.667 35.3896 140.18L35.4278 136.458Z" fill="#7A3C04"/>
  <path d="M4.48031 148.956C4.48031 148.956 7.53267 148.651 11.4414 150.083C11.4414 150.083 7.69377 149.893 4.10724 152.33L4.48031 148.952V148.956Z" fill="#7A3C04"/>
  <path d="M35.5432 116.109C35.9374 114.341 36.4758 112.607 37.3491 111.013C37.4043 110.916 37.5272 110.878 37.629 110.933C37.7222 110.984 37.7604 111.102 37.7137 111.2C37.0058 112.789 36.6157 114.532 36.3783 116.249C36.2935 116.821 35.4329 116.681 35.5432 116.109Z" fill="black"/>
  <path d="M3.92084 125.94C4.58643 125.279 5.29017 124.74 6.01086 124.206C6.07021 124.16 6.15924 124.172 6.20588 124.236C6.24827 124.291 6.23979 124.363 6.1974 124.414C5.6166 125.075 5.04004 125.766 4.58219 126.478C4.23032 126.991 3.4969 126.398 3.92084 125.944V125.94Z" fill="black"/>
  <path d="M9.01261 169.377C8.90238 170.912 7.90612 172.387 8.88118 174.303C9.8944 176.291 11.4418 175.656 13.5827 176.906C14.5069 177.445 22.3031 181.311 32.8041 181.311C43.2839 181.311 49.2572 177.381 59.0417 177.86C64.2477 178.114 69.0764 175.439 69.2417 171.675C69.4156 167.707 68.254 162.28 56.3667 162.064C44.3819 161.848 39.5914 153.933 32.041 151.673C25.5759 149.736 15.2615 151.868 10.1784 159.597C6.98193 164.459 9.11435 167.974 9.01261 169.381V169.377Z" fill="#FD9A3F"/>
  <path d="M9.11075 169.386C9.28032 170.763 8.4918 172.048 8.86062 173.371C9.17858 174.736 10.124 175.486 11.5018 175.753C12.8584 176.041 14.0539 176.864 15.3257 177.394C21.5958 180.065 28.5187 181.281 35.3187 180.866C42.212 180.522 48.7449 177.826 55.6551 177.47C56.8803 177.419 58.5591 177.428 59.8012 177.466C63.4429 177.432 68.4157 175.795 68.8269 171.62C69.2339 164.926 63.9304 162.98 58.2327 162.556L56.1893 162.454C52.3441 162.382 48.5202 161.36 45.1287 159.584C37.4172 155.438 33.5 150.033 23.7621 151.656C21.087 152.093 18.5137 152.966 16.0252 154.132C15.9489 154.175 15.8684 154.047 15.9447 154.001C20.4766 150.732 26.6067 149.863 31.9908 151.258C37.0653 152.788 40.8681 156.532 45.4933 158.88C48.2065 160.267 51.1444 161.233 54.184 161.526C56.096 161.666 58.4828 161.699 60.3778 161.971C65.9526 162.81 69.9885 165.506 69.6536 171.654C69.2721 176.313 63.8626 178.28 59.8097 178.276C58.576 178.246 56.91 178.199 55.7017 178.263C48.8212 178.602 42.2798 181.269 35.3696 181.582C28.4424 181.981 21.4389 180.722 15.0713 177.983C13.8038 177.453 12.7058 176.665 11.3364 176.359C10.6878 176.173 9.93319 175.986 9.34815 175.448C8.79279 174.922 8.44516 174.248 8.26287 173.515C7.90252 172.078 8.47908 170.691 8.9115 169.373C8.93693 169.267 9.10227 169.284 9.11075 169.386Z" fill="#7A3C04"/>
  <path d="M16.2196 157.511C18.8861 153.513 28.7894 154.298 34.9619 156.837C40.4774 159.105 44.2929 164.035 47.5911 164.726C51.7584 165.6 53.9672 167.44 53.416 169.28C52.9328 170.891 49.5921 171.103 46.5228 170.992C41.5245 170.81 35.9709 173.752 27.4285 171.56C20.1368 169.691 12.6076 162.937 16.228 157.511H16.2196Z" fill="#FDA44B"/>
  <path d="M30.8115 151.36C30.8115 151.36 26.4237 153.56 24.4778 157.821C24.4778 157.821 30.7564 153.573 34.6439 152.699L30.8115 151.36Z" fill="#7A3C04"/>
  <path d="M15.2836 177.724C15.2836 177.724 14.2874 172.663 17.7255 167.817C17.7255 167.817 16.9921 176.096 18.9973 179.115L15.2836 177.72V177.724Z" fill="#7A3C04"/>
  <path d="M44.0979 158.571C44.0979 158.571 43.8435 161.717 42.843 164.243C42.843 164.243 45.5732 161.797 46.2091 159.677L44.1021 158.571H44.0979Z" fill="#7A3C04"/>
  <path d="M31.6302 181.294C31.6302 181.294 33.983 178.021 34.3858 176.292C34.3858 176.292 34.9666 179.297 34.6401 181.273L31.6302 181.298V181.294Z" fill="#7A3C04"/>
  <path d="M48.5282 178.793C48.5282 178.793 51.4237 172.031 51.5805 169.453C51.5805 169.453 52.5895 176.716 51.979 178.242L48.5282 178.793Z" fill="#7A3C04"/>
  <path d="M56.3627 162.06C57.9652 162.123 69.2547 165.833 71.6118 166.354C73.9689 166.876 77.7929 175.223 77.8819 179.547C77.9667 183.871 74.9101 184.058 73.8163 183.727C72.7226 183.397 59.0039 178.165 57.838 177.347L56.3627 162.06Z" fill="#FD9A3F"/>
  <path d="M56.3794 161.636C56.9687 161.699 57.5877 161.848 58.1515 161.992C62.1789 163.022 67.741 164.875 71.7854 165.939C74.6088 166.99 76.9744 173.315 77.746 176.096C78.5006 178.746 78.9966 183.125 75.6051 184.1C73.8118 184.596 72.0864 183.397 70.4415 182.892C68.3006 182.07 66.164 181.23 64.0315 180.378C62.9674 179.95 61.9034 179.517 60.8435 179.072C59.7879 178.619 58.7153 178.191 57.7869 177.423C57.7488 177.394 57.7445 177.338 57.7742 177.3C57.8039 177.262 57.8463 177.262 57.8886 177.279C58.9655 177.622 60.0423 178.021 61.0936 178.466C64.2774 179.759 67.4866 180.984 70.7044 182.193C72.6248 182.778 74.9692 184.427 76.6353 182.566C79.2213 179.467 74.9649 169.915 72.4298 167.397C72.0525 167.016 71.6667 166.799 71.1452 166.71C70.5729 166.566 70.026 166.409 69.4707 166.248C65.2101 165.027 61.03 163.552 56.7143 162.543L56.3455 162.492L56.2692 162.479C55.735 162.403 55.8241 161.581 56.3794 161.644V161.636Z" fill="#7A3C04"/>
  <path d="M54.7557 163.552C55.6502 162.458 60.8053 156.366 61.6193 155.917C62.4333 155.467 69.14 154.98 70.9757 154.59C72.8113 154.2 77.2288 152.483 77.924 152.729C78.6193 152.975 81.2732 155.913 80.1709 158.571C79.0687 161.229 72.3916 161.555 71.1537 162.577C70.2804 163.298 68.5846 164.455 67.3976 166.151C67.3976 166.151 63.4507 170.102 58.8934 169.148C54.743 168.279 54.7515 163.552 54.7515 163.552H54.7557Z" fill="#FD9A3F"/>
  <path d="M77.073 154.725C77.6538 155.645 66.5932 159.758 65.173 160.466C62.5191 161.793 57.7116 165.934 56.9146 164.612C56.2957 163.594 60.4927 157.337 62.4725 156.752C63.3797 156.485 66.0887 156.188 69.2598 155.756C73.2575 155.213 76.4795 153.78 77.0772 154.725H77.073Z" fill="#FDA44B"/>
  <path d="M54.6755 163.488C56.3415 160.877 58.4867 158.677 60.5513 156.392C60.9455 155.997 61.3568 155.514 61.946 155.425C65.4435 154.649 69.0725 154.819 72.4809 153.725L75.3976 152.788C76.254 152.58 77.2079 152.11 78.1151 152.318C80.5485 153.797 82.2188 158.168 79.4632 160.105C77.2884 161.598 74.4523 161.839 72.1206 162.598C71.7645 162.717 71.5059 162.836 71.2473 163.069C70.2553 163.815 68.445 165.388 67.4954 166.227C67.4021 166.312 67.241 166.206 67.2919 166.087C67.9405 164.383 69.4964 163.361 70.8403 162.267C72.0231 161.466 73.5281 161.356 74.8211 160.962C76.5126 160.466 78.8824 160.004 79.7345 158.405C80.4298 156.638 79.3869 154.645 78.1066 153.424C77.9413 153.267 77.742 153.14 77.742 153.174C75.7707 153.445 73.1932 154.548 71.2261 154.98C68.1483 155.565 64.9942 155.561 61.9503 156.197C61.8188 156.231 61.7001 156.303 61.5942 156.409C59.1692 158.651 57.2742 161.394 54.8281 163.633C54.7518 163.713 54.6076 163.599 54.6712 163.505L54.6755 163.488Z" fill="#7A3C04"/>
  <path d="M103.823 176.368C103.496 177.504 93.4788 185.711 90.9775 186.479C88.4763 187.25 74.1725 184.088 72.1927 183.206L71.2685 178.793L73.3543 177.279L74.6897 176.308C74.6897 176.308 87.1281 178.911 87.8064 178.793C88.4847 178.67 94.3139 174.104 97.8411 172.756C99.6725 172.056 101.309 172.722 102.411 173.701C103.433 174.604 103.992 175.77 103.823 176.368Z" fill="#F47F2D"/>
  <path d="M103.823 176.368C103.496 177.504 93.4788 185.711 90.9775 186.479C88.4763 187.25 74.1725 184.088 72.1927 183.206L71.2685 178.793L73.3543 177.279C73.3543 177.279 76.2583 182.99 79.493 183.363C83.5925 183.838 87.781 184.719 89.3072 184.44C92.0246 183.935 99.1723 173.019 102.093 173.659C102.208 173.684 102.314 173.697 102.411 173.701C103.433 174.604 103.992 175.77 103.823 176.368Z" fill="#FD9A3F"/>
  <path d="M72.0014 182.676C74.668 183.609 77.5296 184.168 80.2979 184.774C83.1086 185.343 85.949 185.889 88.7767 186.127C89.4253 186.169 90.1884 186.22 90.7904 186.089C91.3627 185.919 92.0029 185.525 92.5922 185.165C93.7919 184.41 94.9577 183.57 96.1024 182.706C98.5952 180.747 101.241 178.801 103.318 176.414C103.403 176.287 103.42 176.262 103.428 176.135C103.428 176.02 103.415 175.872 103.369 175.745C102.762 173.956 100.613 172.561 98.7308 172.959C97.4251 173.243 96.1405 174.028 94.962 174.702C93.1899 175.753 91.278 177.071 89.5568 178.237C89.0184 178.576 88.5223 178.992 87.9034 179.208C87.7847 179.229 87.6321 179.212 87.5134 179.212C85.9957 179.017 84.55 178.716 83.079 178.445C80.247 177.898 77.4236 177.317 74.6002 176.732C74.3712 176.686 74.2229 176.461 74.2695 176.232C74.3161 176.003 74.5408 175.855 74.774 175.906C77.5932 176.491 80.4166 177.067 83.2401 177.618C84.6899 177.89 86.161 178.191 87.5897 178.377C87.7592 178.403 87.8144 178.348 87.9755 178.259C90.1376 176.898 92.3166 175.274 94.5296 173.981C95.8353 173.243 97.0647 172.468 98.5824 172.137C101.02 171.679 103.699 173.417 104.255 175.846C104.433 176.639 103.738 177.275 103.258 177.779C100.109 180.815 96.6959 183.498 93.0415 185.898C92.4056 186.279 91.8164 186.674 91.0024 186.924C90.1969 187.098 89.4932 187.021 88.7089 186.979C85.7922 186.72 82.9603 186.157 80.1283 185.571C77.2795 184.927 74.4518 184.376 71.6877 183.384C71.2298 183.18 71.5181 182.485 71.9972 182.693L72.0014 182.676Z" fill="#7A3C04"/>
  <path d="M100.418 169.11C100.418 170.314 90.6889 182.57 89.3069 183.426C87.9248 184.278 76.2368 183.066 76.2368 183.066C76.2368 183.066 73.1251 182.082 73.2565 177.737C73.265 177.372 73.2989 177.042 73.3498 176.741C73.7991 174.095 75.6306 173.849 75.6306 173.849C75.6306 173.849 84.8809 174.96 85.6483 174.846C86.4114 174.731 92.4483 167.168 95.3268 166.155C96.747 165.655 98.0019 166.07 98.9133 166.765C99.8503 167.482 100.418 168.495 100.418 169.11Z" fill="#F47F2D"/>
  <path d="M100.418 169.11C100.418 170.314 90.6889 182.57 89.3069 183.426C87.9248 184.278 76.2368 183.066 76.2368 183.066C76.2368 183.066 73.1251 182.082 73.2565 177.737C73.265 177.372 73.2989 177.042 73.3498 176.741H73.354C73.354 176.741 83.4395 178.487 86.5216 177.262C89.6079 176.041 95.0936 166.863 98.9133 166.766C99.8503 167.482 100.418 168.495 100.418 169.11Z" fill="#FD9A3F"/>
  <path d="M76.2493 182.947C78.8226 182.875 81.362 183.227 83.9226 183.312C85.5039 183.363 87.0936 183.46 88.6453 183.248C88.9463 183.189 89.0904 183.172 89.3236 182.943C92.4268 179.776 95.1315 176.16 97.7896 172.603C98.5485 171.488 99.4769 170.356 99.9814 169.131C99.8712 168.224 99.053 167.397 98.3026 166.91C95.9879 165.379 93.7876 167.503 92.1428 169.033C90.0655 170.937 88.2976 173.141 86.1906 175.036C86.1186 175.092 86.038 175.151 85.9066 175.219C85.665 175.312 85.6353 175.278 85.5335 175.299C85.364 175.316 84.9655 175.333 84.7916 175.346L82.8627 175.422L75.1682 175.655C74.935 175.664 74.74 175.477 74.7316 175.244C74.7231 175.011 74.9096 174.812 75.1428 174.808L82.8288 174.553L84.745 174.468L85.5378 174.418C85.5378 174.418 85.6014 174.379 85.6522 174.337C87.6914 172.459 89.4719 170.267 91.5365 168.389C93.5163 166.515 95.9879 164.4 98.7605 166.176C99.7313 166.791 101.207 168.33 100.736 169.572C99.5108 171.988 97.743 174.019 96.1278 176.164C94.5338 178.182 92.9059 180.17 91.1847 182.091C90.5869 182.689 90.1036 183.409 89.3066 183.829C87.5345 184.283 85.6777 184.037 83.8887 184.003C82.6041 183.935 81.3196 183.846 80.0393 183.74C79.6874 183.71 75.3929 183.333 76.245 182.947H76.2493Z" fill="#7A3C04"/>
  <path d="M72.803 176.779C72.803 176.779 84.7453 176.474 86.0935 175.757C87.4416 175.045 96.5521 165.897 96.7556 164.727C96.9463 163.624 95.2675 160.152 91.681 160.746C88.7558 161.229 80.6119 167.592 79.0815 167.694C77.5511 167.796 69.9244 165.956 69.9244 165.956C69.9244 165.956 67.8132 168.114 68.767 172.374C69.5895 176.046 72.8072 176.775 72.8072 176.775L72.803 176.779Z" fill="#FD9A3F"/>
  <path d="M93.1132 162.162C94.5207 162.861 84.3461 172.09 81.8703 172.947C79.9922 173.595 72.3571 174.647 72.7344 171.556C72.9803 169.547 77.4062 169.398 79.4962 168.737C81.7389 168.029 90.2813 160.763 93.1132 162.166V162.162Z" fill="#FDA44B"/>
  <path d="M72.8025 176.66C77.0589 175.961 81.5018 176.372 85.72 175.473C86.2584 175.287 86.6484 174.816 87.0935 174.464C88.9334 172.811 90.6928 171.043 92.414 169.254C93.7452 167.804 95.2078 166.393 96.2719 164.743C96.4075 164.421 96.2718 164.091 96.1616 163.739C95.5723 162.14 93.9444 161.025 92.2359 161.14C90.43 161.314 88.9165 162.408 87.3522 163.298C85.2197 164.595 83.1891 166.028 81.027 167.308C80.3826 167.656 79.9374 167.987 79.1447 168.139C75.9651 167.961 72.9128 167.033 69.8307 166.371C69.3008 166.24 69.4746 165.422 70.03 165.549C72.4464 166.113 74.8883 166.668 77.3175 167.071C77.8729 167.156 78.53 167.266 79.0641 167.249C79.5093 167.16 80.1282 166.778 80.5691 166.532C82.6888 165.256 84.7449 163.811 86.8731 162.522C88.5095 161.589 90.2307 160.394 92.1851 160.241C94.6227 160.072 97.0434 162.022 97.2215 164.493C97.2342 164.926 97.0222 165.282 96.7975 165.596C95.6656 167.139 94.3387 168.47 93.033 169.848C90.8454 171.997 88.7639 174.329 86.2499 176.118C85.5207 176.389 84.7576 176.457 84.0539 176.542C81.5569 176.8 79.0641 176.902 76.5629 177.008C76.2025 177.029 72.0479 177.161 72.8068 176.66H72.8025Z" fill="#7A3C04"/>
  <path d="M71.0357 27.0307C71.6038 27.5733 72.2821 28.0482 73.096 28.4255C78.9676 31.1217 83.419 25.0721 83.419 25.0721C87.0394 20.6207 87.6796 13.6172 85.1062 8.14418C85.1062 8.13994 85.1062 8.1357 85.1062 8.1357C83.915 5.34618 81.702 3.10354 79.3873 1.67062C75.1309 -0.962046 78.2511 6.34244 74.5501 11.1245C73.4352 12.5659 71.8242 13.8462 70.4634 15.1646C70.4506 15.1773 70.4422 15.1858 70.4294 15.2028C69.6579 15.9532 68.9075 16.8901 68.4666 17.509C68.4666 17.509 68.4666 17.509 68.4666 17.5133C67.5763 19.811 67.5382 23.6646 71.0442 27.0307H71.0357Z" fill="#FD9A3F"/>
  <path d="M85.2167 19.6583C85.2167 19.8491 85.1616 22.5623 83.8601 24.3979C85.0853 22.5835 87.612 18.8147 86.3401 12.0994C85.3778 7.02065 82.6476 3.8411 80.3965 2.32339C81.6344 3.31541 85.1786 16.2371 81.6387 21.6296C81.6387 21.6296 84.3434 20.3493 84.4875 16.7713C84.4875 16.7713 84.8606 20.3324 83.6269 22.6132C83.7075 22.5326 84.9666 21.2565 85.2167 19.6583Z" fill="#FFBC9B"/>
  <path d="M71.0357 27.0306C70.6668 23.4187 70.4846 19.37 71.4469 17.6107C72.7993 15.1349 78.8489 11.6713 76.6359 5.72766C76.6359 5.72766 76.5427 8.57654 74.5501 11.1244C73.8082 12.0698 72.0065 13.5578 70.4634 15.1646C70.4506 15.1773 70.4422 15.1858 70.4294 15.2027C69.6833 15.9743 68.9117 16.8942 68.4666 17.5089C68.4666 17.5089 68.4666 17.5089 68.4666 17.5132C67.5763 19.8109 67.5382 23.6646 71.0442 27.0306H71.0357Z" fill="#F47F2D"/>
  <path d="M78.1451 1.04315C83.4741 3.07806 83.9192 12.4386 83.1816 17.2461C82.8678 19.1963 82.3676 21.1633 81.3332 22.876C81.295 22.9396 81.2145 22.9566 81.1509 22.9227C81.0915 22.8888 81.0703 22.8125 81.1 22.7531C81.5112 21.8798 81.8165 20.9556 82.0327 20.0145C83.2324 15.1561 83.1731 3.98529 77.9756 1.51796C77.6831 1.4035 77.8442 0.945641 78.1494 1.04739L78.1451 1.04315Z" fill="#7A3C04"/>
  <path d="M77.9675 1.9716C78.2219 1.92497 81.5498 4.15065 82.0289 9.74666C82.6054 16.4534 80.8249 20.8539 80.8249 20.8539C80.8249 20.8539 80.8715 14.1726 80.3797 9.40751C79.8795 4.55764 77.5987 2.03519 77.9675 1.9716Z" fill="#FDA44B"/>
  <path d="M71.0357 27.0307C71.6038 27.5733 72.2821 28.0482 73.096 28.4255C78.9676 31.1217 83.419 25.0721 83.419 25.0721C87.0394 20.6207 87.6795 13.6172 85.1062 8.14418C85.1062 8.13994 85.1062 8.1357 85.1062 8.1357C83.915 5.34618 81.702 3.10354 79.3873 1.67062C75.1309 -0.962046 78.2511 6.34244 74.5501 11.1245C73.4352 12.5659 71.8242 13.8462 70.4634 15.1646C70.4506 15.1773 70.4422 15.1858 70.4294 15.2028C69.6579 15.9532 68.9075 16.8901 68.4666 17.509C68.4666 17.509 68.4666 17.509 68.4666 17.5133C67.5763 19.811 67.5382 23.6646 71.0442 27.0307H71.0357Z" stroke="#7A3C04" stroke-width="2" stroke-linecap="round" stroke-linejoin="round"/>
  <path d="M23.1336 72.1337C23.1336 72.1337 23.087 70.0522 23.8034 69.8657C23.8034 69.8657 23.6932 73.7193 26.9914 76.9158C26.9914 76.9158 26.3428 73.9524 27.1525 73.8168C27.1525 73.8168 27.1017 78.0647 31.8244 80.3878C31.7692 80.2946 30.7391 78.5861 30.862 78.0265C30.862 78.0265 42.3932 83.9489 59.8341 82.1981C75.0789 80.6676 80.7809 76.6148 84.6642 73.5115C85.2238 73.0622 85.7283 72.6382 86.1989 72.244C88.6662 70.1751 93.7323 63.4854 95.0126 56.7362C95.0126 56.7362 95.7545 58.7499 95.5086 60.1871C95.5086 60.1871 97.6283 57.4145 96.9797 53.3066C96.9797 53.3066 97.853 54.3028 98.0183 55.0617C98.0183 55.0617 99.7819 49.0756 96.5515 44.9507C96.5515 44.9507 97.5647 45.328 98.2261 46.0148C98.2261 46.0148 96.9118 41.1437 91.7398 37.6377C88.6704 35.5604 87.1188 35.2552 86.3345 34.9372C85.5036 34.5939 84.9864 32.4996 83.2779 28.7435C81.2557 24.2836 78.2839 19.1455 73.5739 17.4497C69.0124 15.8048 62.2802 16.9156 52.3812 19.544C38.955 23.1136 27.2119 26.84 25.1219 35.3146C22.9894 43.9629 25.0328 50.2118 22.6164 57.4908C20.8104 62.9597 21.1199 69.3654 23.1336 72.138V72.1337Z" fill="#F47F2D"/>
  <path d="M84.6651 73.5073C80.7819 76.6105 75.0799 80.6592 59.835 82.1938C57.0073 82.4736 53.1071 82.7322 50.6694 82.6644C50.2921 82.6559 49.9106 82.639 49.5417 82.622C48.8295 82.5881 48.1342 82.5415 47.4559 82.4863C36.8532 81.5791 30.8629 78.0223 30.8629 78.0223C30.74 78.5819 31.7659 80.2903 31.8253 80.3836C27.0984 78.0604 27.1535 73.8168 27.1535 73.8168C26.3395 73.9482 26.9881 76.9115 26.9881 76.9115C23.6941 73.7193 23.8043 69.8656 23.8043 69.8656C23.0836 70.0479 23.1303 72.1337 23.1303 72.1337C21.1166 69.3612 20.8071 62.9554 22.6131 57.4866C23.5627 54.6292 23.8255 51.9372 23.923 49.1901V49.1774C24.0714 44.9295 23.8255 40.5587 25.1228 35.3103C27.2128 26.8358 38.9559 23.1093 52.3821 19.5397C62.2811 16.9113 69.0133 15.8048 73.5749 17.4497C78.2848 19.1412 80.9514 23.9487 82.732 27.548C76.3941 22.342 67.3684 26.026 67.3048 26.7806C66.9953 30.4138 68.1866 35.9801 69.115 37.7098C70.743 40.724 72.0275 41.7839 72.0275 41.7839C72.0275 41.7839 75.1604 37.3622 81.5238 37.4046C83.7367 37.4215 85.619 37.9727 87.2766 39.3377C100.618 48.1642 92.0926 64.6766 84.6651 73.5073Z" fill="#FD9A3F"/>
  <path d="M41.4911 58.8644C41.4911 58.8644 38.2734 58.8517 34.5131 60.9078C32.7325 61.8828 30.829 63.32 29.0866 65.4439C29.0866 65.4439 30.5958 61.4843 33.9831 59.7207C37.3704 57.9571 41.4911 58.8644 41.4911 58.8644Z" fill="#7A3C04"/>
  <path d="M41.7412 67.1101C39.6046 67.3178 37.8622 67.9961 36.5013 68.7889C34.0086 70.2345 32.7961 72.0617 32.7961 72.0617C32.7961 72.0617 33.3769 69.2171 36.0816 67.6782C38.7864 66.1393 41.737 67.1143 41.737 67.1143L41.7412 67.1101Z" fill="#7A3C04"/>
  <path d="M71.4298 19.5864C71.4298 19.5864 63.3665 19.366 56.8039 21.1847C50.2413 23.0034 40.8129 28.6333 40.8129 28.6333C40.8129 28.6333 47.5366 22.2276 56.4817 19.9468C64.4899 17.9076 71.4298 19.5864 71.4298 19.5864Z" fill="#7A3C04"/>
  <path d="M93.9228 44.5479C93.9228 44.5479 92.7994 43.9077 90.6585 44.1112C89.6241 44.2087 88.3565 44.5012 86.86 45.1541C86.86 45.1541 87.6273 43.6406 90.3448 43.2506C92.5747 42.9284 93.9271 44.5479 93.9271 44.5479H93.9228Z" fill="#7A3C04"/>
  <path d="M90.0826 49.7455C90.0826 49.7455 91.6596 49.0841 92.728 49.258C94.2075 49.4996 95.1995 50.746 95.1995 50.746C95.1995 50.746 93.5674 50.0762 92.7746 49.9532C91.9394 49.8218 90.0826 49.7455 90.0826 49.7455Z" fill="#7A3C04"/>
  <path d="M23.1336 72.1337C23.1336 72.1337 23.087 70.0521 23.8034 69.8656C23.8034 69.8656 23.6932 73.7192 26.9914 76.9157C26.9914 76.9157 26.3428 73.9524 27.1525 73.8167C27.1525 73.8167 27.1017 78.0646 31.8244 80.3878C31.7692 80.2945 30.7391 78.586 30.862 78.0264C30.862 78.0264 36.8523 81.5833 47.455 82.4905C40.0742 81.4052 31.4258 76 27.6655 69.9885C23.0318 62.5781 24.1595 51.7252 23.9221 49.1943C23.8246 51.9414 23.5618 54.6334 22.6164 57.4908C20.8104 62.9596 21.1199 69.3653 23.1336 72.1379V72.1337Z" fill="#FDA44B"/>
  <path d="M68.7838 80.6294C74.8928 79.4424 80.9043 76.9496 85.4489 72.6127C87.6407 70.4125 89.4297 67.8095 91.0958 65.2022C92.728 62.5653 94.1015 59.7165 94.6908 56.6768C94.7205 56.4987 94.8943 56.38 95.0724 56.414C95.1911 56.4352 95.2801 56.5199 95.3182 56.6259C95.704 57.8045 96.0008 58.983 95.8312 60.2421L95.2504 59.9878C96.5477 58.0843 97.0098 55.6254 96.6579 53.3574C96.624 53.1751 96.7554 53.0012 96.9377 52.98C97.0522 52.9673 97.1581 53.014 97.226 53.0903C97.7008 53.6796 98.1332 54.2264 98.3367 54.9938L97.705 54.9726C98.519 51.7252 98.413 47.9012 96.2975 45.1541C96.1831 45.0142 96.2085 44.8022 96.3527 44.692C96.4459 44.62 96.5646 44.6072 96.6706 44.6454C97.3447 44.9167 97.9467 45.2686 98.4681 45.79L97.917 46.1037C97.0903 43.5983 95.4836 41.2963 93.5462 39.4988C91.4265 37.5698 88.8913 36.103 86.1611 35.217C85.6143 34.9202 85.3599 34.3479 85.1098 33.8476C84.2661 31.9696 83.5624 30.0576 82.6764 28.2092C80.4507 23.4993 77.2584 18.2891 71.7472 17.297C69.1018 16.801 66.3632 17.0257 63.7051 17.3988C58.3295 18.2127 53.0557 19.6923 47.82 21.1422C40.7953 23.2661 30.9472 25.9115 26.7629 32.3215C26.038 33.4449 25.5929 34.6913 25.3046 36.0055C24.3677 39.9905 24.3465 44.0604 24.2871 48.1514C24.232 50.8815 24.0412 53.6626 23.3121 56.3377C22.0318 60.1701 21.3238 64.2653 22.036 68.28C22.2776 69.5858 22.6592 70.9 23.4053 71.9471L22.8161 72.1464C22.8161 71.7055 22.8372 71.2858 22.9136 70.8449C23.0111 70.3573 23.1637 69.7214 23.7318 69.5519C23.9395 69.4925 24.1472 69.6663 24.1387 69.8783C24.2023 72.4219 25.4106 74.9147 27.225 76.6825L26.6781 76.9878C26.551 76.1441 25.9574 73.7997 27.1063 73.4987C27.3056 73.4563 27.4921 73.6217 27.4879 73.8252C27.5684 75.8219 28.7046 77.7551 30.3028 78.9464C30.8412 79.3491 31.4093 79.7179 32.0198 80.0105L31.4687 80.6082C31.0744 79.9172 30.6801 79.2177 30.4936 78.4292C30.4724 78.2977 30.4427 78.1578 30.4851 77.9416C30.5318 77.6745 30.8497 77.5389 31.0744 77.6873C35.7335 80.2055 41.037 81.4942 46.2599 82.2234C47.0188 82.3209 47.7819 82.393 48.5407 82.4778C48.5916 82.482 48.6298 82.5287 48.6213 82.5795C48.617 82.6304 48.5704 82.6643 48.5238 82.6643C46.9933 82.5753 45.4587 82.4778 43.9367 82.2701C39.3455 81.6469 34.8051 80.5192 30.6632 78.3698L31.2525 78.1154C31.2525 78.1154 31.2525 78.1918 31.2737 78.2681C31.4602 78.9421 31.8417 79.5696 32.1936 80.18C32.4268 80.5192 31.9901 80.9728 31.6425 80.7735C30.324 80.1292 29.1328 79.1711 28.2934 77.9543C27.4497 76.7207 26.8944 75.3386 26.8308 73.8167L27.2123 74.1431C27.225 74.1431 27.2123 74.1304 27.1699 74.2152C26.9452 75.0504 27.1699 76 27.3183 76.8479C27.3649 77.0259 27.2462 77.2082 27.0682 77.2421C26.9579 77.2633 26.8477 77.2252 26.7714 77.1531C26.2966 76.6656 25.8345 76.1653 25.4487 75.6015C24.2617 73.9227 23.5325 71.9344 23.4859 69.8613L23.8929 70.1878C23.8632 70.1878 23.7657 70.281 23.7021 70.4379C23.6385 70.5905 23.5919 70.7728 23.5579 70.9636C23.4901 71.3409 23.4647 71.7563 23.4689 72.1421C23.4944 72.4474 23.0365 72.5915 22.8796 72.3329C22.036 71.1416 21.6502 69.7596 21.3959 68.3945C20.6667 64.2865 21.3747 60.0768 22.6846 56.1681C24.1303 50.89 23.3545 45.3407 23.9946 39.9312C24.355 37.2052 24.6983 34.3479 26.216 31.9738C30.5318 25.3561 40.452 22.6895 47.6504 20.5105C52.9243 19.0521 58.1981 17.5726 63.6245 16.7501C66.3547 16.3686 69.1442 16.1397 71.8829 16.6569C77.5933 17.6659 81.006 23.0753 83.2784 27.9337C83.8634 29.1758 84.3975 30.4392 84.9148 31.7025C85.1734 32.3342 85.4277 32.9658 85.7118 33.5678C85.9237 33.9494 86.0975 34.42 86.4579 34.6277C89.2432 35.5307 91.8292 37.0442 94.004 39.0197C96.0432 40.9317 97.6753 43.2506 98.5614 45.9342C98.6546 46.2606 98.2561 46.498 98.023 46.2606C97.7093 45.9342 97.298 45.6628 96.8826 45.4551C96.7427 45.3873 96.5943 45.3152 96.4586 45.2643L96.8317 44.7556C99.0871 47.685 99.227 51.6913 98.3537 55.1591C98.2646 55.4855 97.7983 55.4686 97.7262 55.1506C97.5778 54.5783 97.1454 53.989 96.7596 53.5269L97.3277 53.2598C97.51 54.485 97.493 55.7441 97.2345 56.9566C96.9674 58.186 96.5222 59.3391 95.7931 60.3863C95.6913 60.5304 95.4878 60.5643 95.3394 60.4626C95.2292 60.3863 95.1868 60.2549 95.208 60.1319C95.3564 59.0593 95.0681 57.8766 94.7247 56.8506L95.3522 56.7998C93.3088 66.0756 86.5851 74.3212 77.8901 78.1494C75.003 79.4424 71.9507 80.3369 68.8474 80.8753C68.6821 80.8965 68.6482 80.6676 68.805 80.6337L68.7838 80.6294Z" fill="#7A3C04"/>
  <path d="M56.8033 46.8627L42.5292 51.5345C42.5292 51.5345 36.8654 46.3115 35.2883 39.9906C35.2883 39.9906 36.8569 34.615 43.4746 32.0926C49.0367 29.9771 50.6689 31.4397 50.6689 31.4397C52.8861 38.0956 54.3232 42.5258 56.8033 46.8627Z" fill="#F47F2D"/>
  <path d="M14.3579 36.8532C17.3127 40.2786 20.7 43.0851 23.3327 45.4804C25.7194 47.6509 27.4915 49.4781 27.7713 51.1103C27.7713 51.1103 28.1953 48.1258 31.1162 38.6761C33.8972 29.6886 32.299 27.624 32.299 27.624C28.2249 25.7417 27.1057 28.0013 22.6162 26.437C18.5464 25.021 16.8633 20.4382 15.8628 20.5654C15.6085 20.5993 15.0234 21.2437 14.3833 22.2993C12.501 25.3983 10.1524 31.9864 14.3579 36.8532Z" fill="#FD9A3F"/>
  <path d="M14.3582 36.8532C17.313 40.2786 20.7003 43.0851 23.333 45.4803C20.5774 42.4831 19.9838 38.1631 19.9075 37.4551C20.4671 41.1985 24.927 43.1995 24.927 43.1995C24.1088 42.0591 24.113 40.6559 24.2529 39.7063C24.3504 39.0492 24.5115 38.6083 24.5115 38.6083C24.5115 38.6083 26.3981 43.6574 28.098 42.2669C28.2761 42.1227 28.4542 41.9108 28.6237 41.614C30.7138 37.9808 19.4921 34.5851 16.2065 29.7267C13.9003 26.331 14.2352 23.232 14.3582 22.4774C14.3709 22.4053 14.3836 22.3587 14.3878 22.329C14.3878 22.329 14.3878 22.3247 14.3878 22.3205C14.3709 22.3417 14.3539 22.3671 14.3412 22.3968L14.2946 22.4774C12.4292 25.6315 10.2375 32.0754 14.3666 36.8532H14.3582Z" fill="#FFBC9B"/>
  <path d="M14.3574 36.8531C17.3123 40.2785 20.6996 43.085 23.3322 45.4803C20.5766 42.483 19.9831 38.1631 19.9068 37.4551C20.4664 41.1985 24.9262 43.1995 24.9262 43.1995C24.108 42.0591 24.1123 40.6559 24.2522 39.7062C23.8325 37.1795 17.9482 34.5554 15.1841 30.4643C13.2594 27.6155 14.0776 23.304 14.3362 22.401L14.2896 22.4816C12.4243 25.6357 10.2325 32.0795 14.3617 36.8573L14.3574 36.8531Z" fill="#FFDBC7"/>
  <path d="M28.0467 42.2074C30.709 39.5069 24.7315 36.8658 22.9085 35.6067C21.0093 34.4451 19.0719 33.2962 17.4694 31.7149C15.0487 29.3663 13.7091 25.801 14.2559 22.4645C14.2644 22.4137 14.3153 22.3755 14.3662 22.384C14.417 22.3925 14.4552 22.4433 14.4467 22.4942C14.1966 24.669 14.7943 26.882 15.9008 28.7261C16.9564 30.6339 18.8006 31.8675 20.5684 33.1309C22.3574 34.3942 24.2524 35.5388 26.0457 36.8743C27.326 37.9256 29.4627 39.3458 28.8946 41.2875C28.725 41.686 28.4918 42.059 28.1357 42.3219C28.1018 42.3473 28.0594 42.3388 28.034 42.3049C28.0128 42.2753 28.017 42.2329 28.0467 42.2074Z" fill="#7A3C04"/>
  <path d="M27.6953 51.1231C27.301 49.7198 26.2115 48.66 25.2067 47.6468C24.1554 46.642 23.0447 45.6839 21.9339 44.7216C19.721 42.7927 17.4868 40.851 15.4434 38.6974C14.4175 37.6291 13.3661 36.4548 12.6666 35.1321C10.5723 30.9563 11.7467 25.9326 14.019 22.0832C14.2352 21.7568 14.9092 20.5867 15.5791 20.2179C16.5202 19.8236 17.207 21.176 17.6945 21.7144C20.8359 26.0513 23.5703 27.0263 28.7848 26.5134C30.7688 26.5346 33.0072 27.2765 34.0035 29.1079C34.0289 29.1503 34.012 29.2054 33.9696 29.2266C33.9272 29.2478 33.8806 29.2351 33.8509 29.2011C33.4185 28.6415 32.8843 28.1286 32.2484 27.8233C31.1589 27.357 29.9718 27.0814 28.7933 27.145C27.8521 27.1747 26.8771 27.3994 25.8469 27.3909C21.9339 27.4206 19.1783 25.2924 17.012 22.2273C16.6474 21.778 16.3294 21.2523 15.897 20.981C15.9055 20.9852 15.9055 20.981 15.9225 20.981C15.9309 20.981 15.9521 20.9725 15.9564 20.9725C15.9309 20.981 15.8419 21.053 15.7741 21.1209C12.9634 24.4657 11.2591 30.4263 13.4551 34.7208C14.1165 35.9799 15.1 37.0652 16.0751 38.0912C18.0676 40.2236 20.2466 42.1822 22.4257 44.1577C23.5067 45.154 24.5963 46.1545 25.5925 47.2567C26.5634 48.3632 27.6232 49.5672 27.8437 51.0807C27.8564 51.174 27.708 51.2036 27.6868 51.1061L27.6953 51.1231Z" fill="#7A3C04"/>
  <path d="M16.0624 21.6888C15.2527 21.8965 14.4218 26.0172 16.3083 28.2302C18.1948 30.4431 27.4961 35.3905 28.8993 38.4556C29.7938 40.4142 30.3662 41.3087 29.6836 37.7179C29.0011 34.1229 31.9305 30.0785 30.8579 28.8321C29.7854 27.5858 26.4278 28.7304 23.7739 28.0309C16.8806 26.2164 17.0587 21.4429 16.0667 21.693L16.0624 21.6888Z" fill="#FDA44B"/>
  <path d="M67.9613 42.4875C68.4022 43.0598 72.9172 42.9369 76.313 41.4955C79.6324 40.0922 81.697 38.2057 81.5232 37.4045C81.3706 36.7092 77.8264 32.7115 73.2267 34.3521C68.6269 35.9885 67.5204 41.9152 67.9613 42.4875Z" fill="#FBFBFB"/>
  <path d="M74.2566 42.1314C76.612 42.1314 78.5214 40.222 78.5214 37.8666C78.5214 35.5111 76.612 33.6017 74.2566 33.6017C71.9012 33.6017 69.9917 35.5111 69.9917 37.8666C69.9917 40.222 71.9012 42.1314 74.2566 42.1314Z" fill="#FFBE2C" stroke="#E5A413" stroke-width="0.86" stroke-miterlimit="10"/>
  <path d="M75.3585 40.9699C75.8591 40.7914 75.771 39.2612 75.1617 37.552C74.5524 35.8428 73.6527 34.6019 73.152 34.7804C72.6514 34.9588 72.7395 36.4891 73.3488 38.1983C73.9581 39.9075 74.8578 41.1484 75.3585 40.9699Z" fill="#350803"/>
  <path d="M75.3469 37.3282C75.7473 37.3282 76.0718 37.0036 76.0718 36.6032C76.0718 36.2029 75.7473 35.8783 75.3469 35.8783C74.9465 35.8783 74.6219 36.2029 74.6219 36.6032C74.6219 37.0036 74.9465 37.3282 75.3469 37.3282Z" fill="#FBFBFB"/>
  <path d="M72.302 39.7869C72.5198 39.7869 72.6963 39.6104 72.6963 39.3927C72.6963 39.1749 72.5198 38.9984 72.302 38.9984C72.0843 38.9984 71.9077 39.1749 71.9077 39.3927C71.9077 39.6104 72.0843 39.7869 72.302 39.7869Z" fill="#FBFBFB"/>
  <path d="M67.9659 42.4875C67.5293 41.9152 68.8435 36.6838 73.4432 35.0431C78.043 33.4067 81.3751 36.7092 81.5278 37.4087C81.5278 37.4087 78.31 31.1556 72.6971 32.8174C67.0841 34.4793 67.9659 42.4917 67.9659 42.4917V42.4875Z" fill="#F47F2D"/>
  <path opacity="0.1" d="M67.961 42.4875C67.961 42.4875 69.5762 37.6206 73.6672 36.0097C78.0041 34.297 81.527 37.4087 81.527 37.4087C81.3744 36.7134 78.0422 33.4067 73.4383 35.0431C68.8385 36.6795 67.5243 41.9194 67.961 42.4875Z" fill="black"/>
  <path d="M81.5272 37.4087C80.6284 36.1708 79.0768 35.4883 77.6396 35.111C73.803 34.1317 69.9197 36.722 68.4486 40.2449C68.1858 40.9402 67.783 41.7372 67.9653 42.4918C67.677 41.7456 68.0247 40.8935 68.2282 40.1601C69.4533 36.2768 73.7309 33.3855 77.7922 34.5387C79.293 35.0008 80.9124 35.908 81.5314 37.413L81.5272 37.4087Z" fill="#350803"/>
  <path d="M72.0601 41.5337C72.0601 41.5337 73.7389 39.0791 77.8511 37.8708C81.9634 36.6668 85.6262 38.0319 85.6262 38.0319L79.5808 44.887L72.2721 42.9878L72.0601 41.5294" fill="#FD9A3F"/>
  <path d="M85.6255 38.0361C85.6255 38.0361 81.5218 36.3191 77.1722 38.0912C72.8268 39.8632 71.6991 42.2966 71.6991 42.2966C71.6991 42.2966 75.2348 39.8166 78.427 38.761C82.4841 37.4171 85.6255 38.0361 85.6255 38.0361Z" fill="#FDA44B"/>
  <path d="M71.7083 41.2962C74.9599 37.2434 80.9374 36.1708 85.6559 37.9513C85.7619 37.9937 85.7025 38.1633 85.5923 38.1209C82.0906 37.1458 78.1861 37.6079 75.0828 39.5114C74.0866 40.1134 73.0818 40.8977 72.3823 41.8049C72.0432 42.2416 71.3776 41.7498 71.704 41.2962H71.7083Z" fill="#7A3C04"/>
  <path d="M41.9141 51.0977C42.3295 51.7463 47.1539 52.0134 50.8931 50.7755C54.5517 49.5673 56.9173 47.7359 56.8028 46.871C56.6926 46.1037 53.2672 41.5506 48.2308 42.8945C43.1901 44.2384 41.4944 50.4533 41.9141 51.0977Z" fill="#FBFBFB"/>
  <path d="M49.02 51.2843C51.5369 51.2843 53.5773 49.2439 53.5773 46.7269C53.5773 44.21 51.5369 42.1696 49.02 42.1696C46.503 42.1696 44.4626 44.21 44.4626 46.7269C44.4626 49.2439 46.503 51.2843 49.02 51.2843Z" fill="#FFBE2C" stroke="#E5A413" stroke-width="0.86" stroke-miterlimit="10"/>
  <path d="M49.9257 50.1209C50.4754 49.9743 50.5159 48.3369 50.0161 46.4638C49.5163 44.5907 48.6655 43.1911 48.1158 43.3378C47.5661 43.4845 47.5256 45.1218 48.0254 46.995C48.5252 48.8681 49.376 50.2676 49.9257 50.1209Z" fill="#350803"/>
  <path d="M50.249 46.0697C50.6845 46.0697 51.0375 45.7167 51.0375 45.2812C51.0375 44.8457 50.6845 44.4927 50.249 44.4927C49.8135 44.4927 49.4604 44.8457 49.4604 45.2812C49.4604 45.7167 49.8135 46.0697 50.249 46.0697Z" fill="#FBFBFB"/>
  <path d="M46.8539 48.1131C47.1091 48.1131 47.316 47.9062 47.316 47.651C47.316 47.3958 47.1091 47.1889 46.8539 47.1889C46.5987 47.1889 46.3918 47.3958 46.3918 47.651C46.3918 47.9062 46.5987 48.1131 46.8539 48.1131Z" fill="#FBFBFB"/>
  <path d="M41.914 51.0977C41.4986 50.4533 43.3766 45.1244 48.4215 43.7805C53.4622 42.4366 56.701 46.1164 56.807 46.871C56.807 46.871 53.2671 39.8166 47.6075 41.5336C40.8584 43.5812 41.9183 51.0977 41.9183 51.0977H41.914Z" fill="#F47F2D"/>
  <path opacity="0.1" d="M41.9145 51.0977C41.9145 51.0977 43.9622 46.3581 48.3754 44.6878C52.7038 43.0471 56.6507 46.7184 56.8033 46.8668C56.6931 46.1037 53.4542 42.4324 48.4178 43.7805C43.3771 45.1244 41.4948 50.4533 41.9145 51.0977Z" fill="black"/>
  <path d="M56.7821 46.8752C56.0148 45.4423 54.3784 44.5902 52.8819 44.1111C48.8544 42.9071 44.7422 45.3448 42.809 48.8635C42.4614 49.5376 41.94 50.3134 41.9866 51.0807C41.9993 51.1231 41.9739 51.1613 41.9315 51.174C41.8976 51.1824 41.8637 51.1697 41.8467 51.1401C41.5075 50.3218 41.9569 49.351 42.241 48.5752C43.9367 44.569 48.8671 42.0805 53.0345 43.6278C54.2469 44.0645 55.3365 44.8022 56.1801 45.7687C56.4472 46.0952 56.7185 46.4386 56.8203 46.8625C56.8203 46.8752 56.816 46.8837 56.8033 46.8879C56.7906 46.8879 56.7779 46.8795 56.7736 46.8667L56.7821 46.8752Z" fill="#350803"/>
  <path d="M38.9646 55.1167C38.9646 55.1167 42.3562 50.2372 48.8128 48.1895C53.4083 46.7312 58.4362 48.3294 58.4362 48.3294L53.9551 53.4761L45.7943 56.3377L38.9646 55.121V55.1167Z" fill="#FD9A3F"/>
  <path d="M56.9609 47.969C56.9609 47.969 53.1793 46.5869 48.4566 48.3081C43.7382 50.0251 38.9646 55.1209 38.9646 55.1209C39.5624 55.5278 43.1192 51.7632 48.7492 49.6944C53.3913 47.9859 56.8549 48.4862 56.9609 47.9732V47.969Z" fill="#FDA44B"/>
  <path d="M38.8114 55.0108C42.754 49.4656 50.245 45.506 57.0323 47.7572C57.2994 47.8589 57.1637 48.2659 56.8839 48.1811C50.245 46.7185 43.356 50.1948 39.1166 55.227C38.981 55.4178 38.6715 55.2185 38.8114 55.015V55.0108Z" fill="#7A3C04"/>
  <path d="M67.0717 24.2538C67.5338 24.4149 70.8321 22.5156 74.8977 23.3126C78.8233 24.0757 81.0194 26.2463 81.4984 26.6194C81.6849 26.7635 81.6807 26.6109 81.5747 26.5007C81.0702 25.9707 79.4889 23.2999 74.9782 22.0917C71.2475 21.0997 68.1825 22.6683 67.4236 23.1812C67.2201 23.3169 66.6266 24.1054 67.0675 24.258L67.0717 24.2538Z" fill="#FDA44B"/>
  <path d="M67.3653 27.2129C68.0775 27.3443 71.1722 25.3052 75.2081 25.6062C79.0702 25.8945 80.7448 26.4837 81.5672 26.9034C81.7665 27.0052 81.9785 26.9798 81.8131 26.7423C81.7707 26.6745 81.6944 26.594 81.58 26.4965C81.0585 26.0513 79.4009 23.9316 74.8732 22.8082C71.1298 21.8882 67.7129 23.478 66.9922 24.0546C66.8735 24.1478 66.8269 24.5887 66.8438 25.1102C66.8692 26.0132 67.0685 27.1578 67.3695 27.2087L67.3653 27.2129Z" fill="#541108"/>
  <path d="M66.8431 25.1144C67.0042 25.0466 70.9723 22.9354 75.0463 23.6561C78.9805 24.3471 80.9688 26.0725 81.5453 26.5516C81.6471 26.6364 81.6895 26.5982 81.575 26.5007C81.0536 26.0556 79.396 23.9359 74.8683 22.8124C71.1249 21.8925 67.7079 23.4822 66.9872 24.0588C66.8685 24.1521 66.8219 24.593 66.8389 25.1144H66.8431Z" fill="#884227"/>
  <path d="M49.5207 28.8621C49.1137 29.2266 44.904 29.0952 41.0588 31.7533C37.3451 34.3182 35.5519 39.1426 35.2254 39.7064C35.0982 39.9226 35.0304 39.7827 35.0898 39.6344C35.3696 38.9179 36.298 33.9409 40.4145 30.702C43.8229 28.0311 47.6426 27.9803 48.6601 28.0735C48.9314 28.099 49.9107 28.5144 49.5207 28.8663V28.8621Z" fill="#FDA44B"/>
  <path d="M50.5672 31.6431C49.8932 32.101 45.569 31.3887 41.7874 33.9493C38.0059 36.5057 35.4707 39.7361 35.2884 39.9905C35.1485 40.1897 34.8984 40.2576 34.9578 39.965C34.9705 39.8803 35.0129 39.7743 35.0849 39.6344C35.4199 38.9857 36.679 34.4623 40.8505 31.2912C44.3014 28.6755 48.4984 28.4763 49.5116 28.6459C49.6769 28.6713 49.9271 29.0444 50.1475 29.5192H50.1518C50.5375 30.3374 50.8513 31.4523 50.5672 31.6431Z" fill="#541108"/>
  <path d="M50.1476 29.5192C49.9526 29.5361 44.9459 29.5361 41.0584 32.1306C37.3023 34.6319 35.5217 38.9603 35.1444 39.6683C35.0766 39.7955 35.0172 39.7785 35.0893 39.6386C35.4242 38.99 36.6833 34.4665 40.8549 31.2955C44.3057 28.6798 48.5027 28.4805 49.516 28.6501C49.6813 28.6755 49.9314 29.0486 50.1519 29.5234L50.1476 29.5192Z" fill="#884227"/>
  <path d="M81.1495 65.6771C81.1495 65.6771 82.3153 74.3339 76.6727 77.1828C71.0936 79.9978 63.5051 74.3382 62.3266 73.2105C59.66 70.6669 56.0777 63.7397 68.6009 59.8691C79.8777 56.3843 81.1495 65.6728 81.1495 65.6728V65.6771Z" fill="#F47F2D"/>
  <path d="M88.429 47.8886C91.6043 51.8482 89.0776 66.4783 77.0547 70.9891C64.1245 75.8432 41.1893 77.0217 43.3726 62.6332C45.6492 47.6215 62.5941 56.9397 73.2901 53.3277C81.1584 50.6696 82.7863 40.8512 88.429 47.8886Z" fill="#FDEFD4"/>
  <path d="M80.943 64.24C80.943 64.24 82.7744 73.0791 77.136 75.9238C71.5569 78.7387 61.1831 72.5789 61.1831 72.5789C61.1831 72.5789 56.4265 65.7916 69.0854 60.6577C78.4756 56.8507 80.943 64.2357 80.943 64.2357V64.24Z" fill="#FDEFD4"/>
  <g style="mix-blend-mode:multiply" opacity="0.9">
    <path d="M52.7841 59.848C52.7841 59.848 61.6911 69.3739 67.2871 69.0051C72.5355 68.6617 75.8719 61.8702 75.8719 61.8702C75.8719 61.8702 78.7632 62.8453 80.8786 62.54C83.0195 62.2305 84.6602 61.4251 85.0672 59.2545C85.0672 59.2545 85.2622 62.7223 80.8701 63.638C78.3138 64.1722 76.6647 62.841 76.3001 62.9767C75.8677 63.1335 74.3966 69.747 67.2405 70.2049C60.5846 70.6288 52.7841 59.848 52.7841 59.848Z" fill="#FDEFD4"/>
  </g>
  <path d="M81.095 64.2104C81.998 68.382 81.608 74.0246 77.3304 76.2418C74.3586 77.662 70.8992 76.9032 67.9274 75.9196C65.5406 75.0972 63.2641 74.0077 61.1232 72.685C61.0681 72.651 61.0511 72.579 61.085 72.5196C61.119 72.4645 61.191 72.4476 61.2461 72.4772C63.4464 73.6219 65.7441 74.6139 68.114 75.3473C77.6738 78.4505 81.909 73.7872 80.794 64.2655C80.7516 64.0747 81.0568 64.0027 81.095 64.2019V64.2104Z" fill="#89543B"/>
  <path d="M81.8751 52.0391C83.5878 54.0231 85.7372 56.6982 85.2412 59.4962C84.2746 63.5914 78.9075 63.2353 75.7576 62.2136L76.1985 62.0313C75.5881 63.2056 74.8759 64.2909 74.0407 65.2957C72.0185 67.7715 68.7796 70.0735 65.4262 69.1069C62.2933 68.1912 59.6522 66.1181 57.1806 64.1044C55.2093 62.4553 53.3609 60.6747 51.61 58.8009C51.5719 58.7585 51.5719 58.6907 51.6143 58.6525C51.6567 58.6144 51.7203 58.6144 51.7626 58.6568C53.5602 60.467 55.4679 62.1755 57.4434 63.778C59.4317 65.3593 61.5175 66.8642 63.8153 67.8944C67.635 69.8191 71.0222 67.869 73.4684 64.8209C74.2484 63.85 74.9776 62.7987 75.5457 61.7049C75.6305 61.5396 75.817 61.4675 75.9866 61.5226C77.4364 61.9889 78.9965 62.345 80.4973 62.273C84.2152 62.0652 85.911 59.5174 84.2831 56.0835C83.6345 54.6717 82.723 53.366 81.7013 52.1874C81.5995 52.0815 81.7776 51.9204 81.8751 52.0348V52.0391Z" fill="#89543B"/>
  <path d="M53.5522 57.9785C52.9417 58.2413 52.4203 58.5126 52.0642 58.9111C51.6572 59.3308 51.4749 59.8947 51.2587 60.4416C51.229 60.5221 51.14 60.5645 51.0595 60.5263C50.9026 60.3822 50.928 60.1109 50.8899 59.9116C50.8305 58.9578 51.5385 58.0124 52.4712 57.8004C52.6195 57.7156 53.8914 57.669 53.548 57.9785H53.5522Z" fill="#89543B"/>
  <g style="mix-blend-mode:screen" opacity="0.7">
    <path d="M72.913 62.5867C73.4302 63.7525 71.2978 66.8303 67.8512 67.4535C64.4045 68.0767 60.004 64.9183 60.5509 63.6211C60.9197 62.7435 62.9801 60.8273 66.1766 60.3737C68.6948 60.0176 72.5993 61.8829 72.913 62.5867Z" fill="#FDEFD4"/>
  </g>
  <g style="mix-blend-mode:screen" opacity="0.7">
    <path d="M78.9451 60.84C78.0676 60.45 79.6065 57.8046 80.3908 56.6642C81.1793 55.5281 82.1289 54.5106 83.0065 55.261C83.884 56.0114 84.5793 59.0171 83.5534 60.1744C82.5274 61.3318 79.9626 61.2936 78.9451 60.84Z" fill="#FDEFD4"/>
  </g>
  <g style="mix-blend-mode:screen" opacity="0.7">
    <path d="M77.0503 64.3249C76.0286 64.6344 74.7017 69.5775 72.6413 70.4296C70.581 71.2817 66.7867 72.261 66.9393 73.3166C67.2022 75.1481 73.7817 76.8099 77.1393 74.6224C80.0136 72.7528 81.3872 69.3528 80.3273 66.3301C79.8695 65.0244 77.7879 64.1002 77.0503 64.3249Z" fill="#FDEFD4"/>
  </g>
  <path d="M65.8585 30.1763C65.8585 30.1763 62.255 29.8245 59.8555 30.6554C57.456 31.4863 54.4799 33.4661 54.4799 33.4661C54.4799 33.4661 56.5148 30.1043 59.6011 29.1122C62.6874 28.1202 65.8585 30.1763 65.8585 30.1763Z" fill="#7A3C04"/>
  <path d="M67.4985 31.6135C67.4985 31.6135 67.4519 35.3696 69.9362 39.0155C72.8741 43.3312 78.7456 46.6803 81.2469 47.8843L63.1235 55.4601C59.5454 50.9367 56.6584 48.5881 53.021 36.0098L67.5028 31.6135H67.4985Z" fill="#FD9A3F"/>
  <path d="M67.6507 31.6049C67.9008 34.3309 68.7148 37.1119 70.4318 39.2782C73.2976 42.886 77.4013 45.3745 81.3991 47.5535C81.6746 47.6765 81.6619 48.1047 81.3779 48.2107L63.3477 55.6338C63.229 55.6847 63.1018 55.6635 63.0043 55.5957C62.3048 55.265 61.8131 54.5358 61.2831 53.989C59.7824 52.2338 58.5742 50.2498 57.5864 48.1725C57.5101 48.0072 57.7517 47.8757 57.845 48.0368C58.6081 49.3383 59.4347 50.6059 60.3589 51.7972C61.1687 52.8231 62.042 53.7982 63.0467 54.6291C63.1866 54.7436 63.3435 54.8453 63.424 55.0064L63.0806 54.9683L81.1108 47.5451L81.0896 48.2022C79.343 47.4688 77.7744 46.4089 76.2228 45.3406C73.925 43.6999 71.7417 41.8431 70.0587 39.5623C68.346 37.2815 67.5744 34.4241 67.3455 31.6176C67.3412 31.5329 67.4006 31.4608 67.4854 31.4523C67.5744 31.4438 67.6465 31.5159 67.6507 31.6007V31.6049Z" fill="#7A3C04"/>
  <path d="M63.1188 55.4558C64.272 58.8049 74.1794 61.1154 75.6166 60.5982C77.7914 59.5595 78.7453 56.452 80.1782 54.3281C85.2315 44.4927 78.0712 46.4174 72.4243 50.1905C69.8807 51.2206 62.6652 52.3356 63.1146 55.4558H63.1188Z" fill="#541108"/>
  <path d="M63.1196 55.4558C63.2467 56.3461 64.4295 57.2746 66.0278 58.097C66.0278 58.097 66.0278 58.097 66.0235 58.0885C65.1757 57.2406 64.2896 56.2105 65.0146 55.0489C66.35 52.9164 69.839 52.9588 73.1796 51.7252C76.6051 50.4618 77.6056 48.4651 79.9033 48.7958C81.5694 49.0374 81.6839 50.6102 81.6627 50.7756C81.9806 49.6775 82.0527 48.7746 81.7644 48.2658C79.8397 44.8531 74.5363 49.3384 72.4293 50.1905C69.8856 51.2207 62.6702 52.3356 63.1196 55.4558Z" fill="#884227"/>
  <path d="M63.1188 55.4559C63.5131 58.1988 73.853 61.2512 75.6166 60.5983C77.7871 59.5597 78.7452 56.4522 80.1782 54.3283C85.3841 44.1707 77.5837 46.7143 72.4243 50.1906C69.8849 51.2165 62.6652 52.3357 63.1146 55.4517L63.1188 55.4559Z" stroke="#350803" stroke-width="1.28" stroke-linecap="round" stroke-linejoin="round"/>
  <path d="M67.6342 38.032C67.6342 38.032 64.8956 37.6208 62.6021 38.5323C60.3128 39.4437 58.0702 41.6058 58.0702 41.6058C58.0702 41.6058 58.9096 38.2567 62.3477 37.2096C65.4976 36.2515 67.6342 38.032 67.6342 38.032Z" fill="#7A3C04"/>
  <path d="M68.0335 58.9194C69.2968 59.3603 71.7345 60.187 72.8495 60.4329C70.6831 59.2204 71.2597 56.9778 68.7966 56.9523C67.3637 56.9354 67.1983 58.4658 68.0293 58.9194H68.0335Z" fill="#350803"/>
  <path d="M77.6343 58.5717C78.7662 57.1854 80.445 53.8193 80.445 53.8151C80.445 53.8151 80.5298 52.1957 79.3046 52.7765C77.7488 53.5141 79.0927 55.4473 77.6343 58.5717Z" fill="#350803"/>
  <path d="M72.2925 52.0262C72.4409 52.2975 67.5063 53.4634 66.2005 54.4554C64.7761 55.5407 64.9033 56.0579 64.7549 56.0833C64.598 56.1087 64.6828 54.9005 65.9038 53.9763C67.112 53.0606 72.1442 51.7591 72.2925 52.0262Z" fill="#C1755D"/>
  <path d="M76.2267 46.2819C76.4132 47.5707 72.975 48.0497 71.1733 48.7831C69.5623 49.436 65.3653 52.2933 62.9107 51.9118C61.4015 51.6786 57.8913 45.0906 58.1965 43.8951C59.0062 40.635 65.6451 37.6293 68.6636 39.5921C69.7234 40.1983 69.9354 41.2836 71.9406 42.9963C73.7212 44.5183 76.091 45.3916 76.2224 46.2819H76.2267Z" fill="#FDA44B"/>
</svg>