<svg xmlns="http://www.w3.org/2000/svg" width="166" height="186" viewBox="0 0 166 186" fill="none">
  <g clip-path="url(#clip0_1_1025)">
    <path d="M112.243 87.7368C112.243 87.7368 104.345 107.933 83.3286 107.933C78.7066 107.933 74.6873 106.918 71.2343 105.332H71.2298C58.9815 99.7042 53.8157 86.9302 53.8157 86.9302L55.3654 67.9437L110.653 67.5449L110.961 71.4283L112.243 87.7368Z" fill="#F47F2D"/>
    <path d="M112.243 87.7367C112.243 87.7367 104.345 107.933 83.3284 107.933C78.7064 107.933 74.687 106.918 71.2341 105.332H71.2296C71.2296 105.332 61.478 94.4749 68.9775 85.394C76.4724 76.3085 110.961 71.4282 110.961 71.4282L112.243 87.7367Z" fill="#FD9A3F"/>
    <path d="M54.7355 75.6516C54.7355 75.6516 58.9135 80.0335 68.9777 82.5484C68.9777 82.5484 59.8062 82.2539 54.4954 78.6287L54.7401 75.6516H54.7355Z" fill="#7A3C04"/>
    <path d="M111.314 75.9868L111.559 79.0999C111.559 79.0999 106.647 81.4879 100.158 80.6949C100.158 80.6949 107.775 78.8235 111.314 75.9868Z" fill="#7A3C04"/>
    <path d="M74.0026 85.7792C74.0026 85.7792 91.6977 88.3757 102.541 84.7914C102.541 84.7914 96.3106 88.8787 88.0997 88.8107C79.8889 88.7428 73.998 85.7792 73.998 85.7792H74.0026Z" fill="#7A3C04"/>
    <path d="M112.243 87.7368C112.243 87.7368 104.345 107.933 83.3286 107.933C78.7066 107.933 74.6873 106.918 71.2343 105.332H71.2298C58.9815 99.7042 53.8157 86.9302 53.8157 86.9302L55.3654 67.9437L110.653 67.5449L110.961 71.4283L112.243 87.7368Z" stroke="#7A3C04" stroke-width="1.71" stroke-linecap="round" stroke-linejoin="round"/>
    <path d="M122.181 178.351C122.181 178.351 125.018 145.992 126.817 138.484C128.616 130.975 139.555 130.486 141.512 116.325C145.024 90.9133 123.55 82.0907 123.55 82.0907C118.307 79.1408 112.502 79.4036 112.502 79.4036C112.502 79.4036 102.882 96.1018 83.0075 96.1018C64.2113 96.1018 53.5172 79.4036 53.5172 79.4036C53.5172 79.4036 47.7125 79.1408 42.4697 82.0907C42.4697 82.0907 20.9955 90.9088 24.5073 116.325C26.4648 130.481 37.4036 130.971 39.2026 138.484C41.0015 145.992 43.8382 178.351 43.8382 178.351H122.177H122.181Z" fill="#222222"/>
    <path d="M122.213 178.002C122.213 178.002 125.023 145.997 126.817 138.484C128.616 130.975 139.555 130.486 141.512 116.325C145.024 90.9133 123.55 82.0907 123.55 82.0907C118.307 79.1408 112.502 79.4036 112.502 79.4036C112.502 79.4036 102.882 96.1018 83.0075 96.1018C64.2113 96.1018 53.5172 79.4036 53.5172 79.4036C53.5172 79.4036 47.7125 79.1408 42.4697 82.0907C42.4697 82.0907 20.9955 90.9088 24.5073 116.325C26.4648 130.481 37.4036 130.971 39.2026 138.484C41.0015 145.992 43.7974 178.007 43.7974 178.007" stroke="black" stroke-width="1.71" stroke-linecap="round" stroke-linejoin="round"/>
    <path d="M65.2848 134.038C65.3301 134.038 65.3709 134.038 65.4116 134.029L77.4289 132.185C77.5648 132.162 77.6917 132.113 77.8005 132.031C77.9092 131.949 77.9953 131.845 78.0497 131.727L83.075 120.993C83.1384 120.861 83.1611 120.716 83.143 120.571C83.1248 120.426 83.0705 120.29 82.9798 120.177C82.8892 120.064 82.7714 119.973 82.6309 119.919C82.495 119.864 82.3409 119.851 82.1959 119.873L70.1832 121.718C70.0473 121.74 69.9204 121.79 69.8116 121.872C69.7029 121.953 69.6168 122.057 69.5624 122.175L64.5371 132.91C64.4782 133.032 64.4555 133.164 64.4646 133.3C64.4736 133.431 64.519 133.563 64.5915 133.676C64.664 133.789 64.7682 133.88 64.8905 133.943C65.0129 134.007 65.1488 134.043 65.2848 134.043V134.038ZM71.3024 129.802L74.3294 131.043L68.3842 131.954L71.3024 129.797V129.802ZM71.8145 127.418L71.2345 123.172L79.2278 121.944L71.8145 127.418ZM70.3055 128.533L67.3873 130.69L69.8751 125.379L70.3055 128.537V128.533ZM76.8851 130.359L72.8159 128.687L80.2293 123.213L76.8851 130.354V130.359Z" fill="#D7B27B"/>
    <path d="M108.46 140.305C107.966 136.798 106.162 133.096 103.371 129.883C99.7639 125.723 95.1057 123.041 90.8371 122.656C90.5969 122.094 90.2842 121.568 89.9036 121.083L86.9084 117.272C85.1321 115.011 82.0734 113.942 78.2987 114.264C74.66 114.572 70.7585 116.149 67.3101 118.691C63.8617 121.237 61.2607 124.464 59.9874 127.781C58.6642 131.225 58.918 134.365 60.6943 136.626L62.4162 138.815C62.0718 139.268 61.7909 139.762 61.5688 140.283L59.6974 144.714C58.5872 147.347 59.1853 150.442 61.3876 153.433C63.5083 156.315 66.8842 158.775 70.8944 160.366C73.8217 161.526 76.8441 162.124 79.6627 162.124C80.6777 162.124 81.6927 162.042 82.6942 161.875C86.428 161.236 89.0925 159.432 90.2027 156.804L91.9609 152.635C92.2735 152.753 92.5862 152.862 92.9034 152.957C94.145 153.356 95.4455 153.564 96.7551 153.582C98.7851 153.582 100.58 153.002 101.984 151.856L105.768 148.775C108.016 146.944 108.972 143.935 108.46 140.296V140.305ZM84.9871 145.888L87.511 143.835C88.6212 145.041 89.8538 146.133 91.1905 147.098L88.7028 149.124C87.3434 148.181 86.0972 147.098 84.9871 145.893V145.888ZM83.9267 144.665C83.5823 144.239 83.2561 143.804 82.9479 143.36C82.9117 143.301 82.8754 143.242 82.8346 143.183H82.8256C82.2184 142.299 81.6746 141.366 81.2124 140.401C81.9193 139.979 82.6126 139.517 83.2923 139.014C83.469 138.883 83.6458 138.751 83.818 138.615C84.5566 140.029 85.4402 141.366 86.4507 142.607L83.9267 144.66V144.665ZM81.6202 145.562C81.4526 145.952 81.1354 146.264 80.7321 146.432C80.3288 146.595 79.8757 146.6 79.4724 146.436L75.6615 144.923L76.681 142.508C77.7459 142.145 78.7836 141.706 79.7805 141.194C80.2925 142.245 80.8907 143.255 81.5613 144.221C81.6701 144.424 81.7335 144.651 81.7426 144.882C81.7516 145.113 81.7109 145.344 81.6202 145.557V145.562ZM79.7442 148.775C79.8711 149.065 79.9028 149.386 79.8439 149.699C79.7805 150.007 79.6264 150.293 79.3953 150.519C79.1642 150.746 78.8742 150.895 78.5525 150.959C78.2353 151.022 77.9 150.99 77.6009 150.873L73.79 149.359L75.0361 146.405L78.847 147.918C79.0464 147.995 79.2322 148.113 79.3817 148.263C79.5358 148.412 79.6581 148.584 79.7397 148.779L79.7442 148.775ZM68.017 139.694C68.1031 139.694 68.1937 139.694 68.2844 139.694L69.9927 141.864C67.8222 141.669 66.0912 140.854 65.0082 139.476L64.8632 139.295C65.8918 139.571 66.9521 139.707 68.017 139.698V139.694ZM72.1587 141.855C72.127 141.855 72.0953 141.86 72.0635 141.864L70.2283 139.531C71.4155 139.358 72.5801 139.077 73.7084 138.688L75.6524 141.157C74.5195 141.511 73.3459 141.746 72.1587 141.855ZM79.631 135.679L81.6293 138.216C80.2699 139.159 78.8108 139.947 77.2701 140.577L75.3035 138.076C76.826 137.419 78.2761 136.617 79.631 135.674V135.679ZM82.9389 137.251L80.9405 134.714C82.2365 133.699 83.4192 132.557 84.475 131.306L86.4416 133.807C85.4085 135.076 84.2303 136.232 82.9343 137.251H82.9389ZM87.4476 132.448L85.5036 129.978C86.1879 129.027 86.777 128.012 87.2663 126.947L89.1016 129.281C89.0925 129.312 89.0789 129.339 89.0698 129.371C88.6484 130.454 88.1047 131.483 87.4521 132.453L87.4476 132.448ZM89.6499 127.341L87.9415 125.171C88.2814 124.101 88.4536 122.986 88.4536 121.867L88.594 122.048C89.677 123.426 90.0305 125.261 89.6499 127.341ZM61.5326 128.338C62.6971 125.302 65.1078 122.325 68.3115 119.959C71.5152 117.594 75.1132 116.135 78.4437 115.85C78.8334 115.818 79.2186 115.8 79.5902 115.8C82.2456 115.8 84.3527 116.647 85.6033 118.233C87.0262 120.041 87.1938 122.642 86.0746 125.551C84.91 128.587 82.4993 131.564 79.2956 133.93C76.0919 136.295 72.494 137.754 69.1634 138.04C65.9733 138.312 63.4312 137.464 62.0084 135.656C60.5855 133.844 60.4179 131.247 61.5371 128.338H61.5326ZM63.6895 140.437C65.2619 142.435 67.8267 143.5 71.0077 143.5C71.4291 143.5 71.8596 143.482 72.2992 143.446C73.0922 143.378 73.8761 143.255 74.651 143.079L72.2538 148.752L70.7268 148.149L70.1014 149.626L71.6285 150.229L71.0032 151.706L72.5303 152.309L73.1556 150.832L74.6827 151.435L74.0573 152.912L75.5844 153.514L76.2098 152.037L76.971 152.341C77.5737 152.581 78.2353 152.64 78.8742 152.513C79.5131 152.386 80.0977 152.083 80.5554 151.634C81.013 151.185 81.3257 150.614 81.448 149.994C81.5704 149.373 81.5024 148.734 81.2532 148.149C81.226 148.086 81.1943 148.027 81.1671 147.963C81.5976 147.818 81.9918 147.592 82.3271 147.293C82.6625 146.994 82.9253 146.631 83.1111 146.223C83.1337 146.251 83.1564 146.278 83.179 146.305C85.3088 148.761 87.8237 150.719 90.4428 151.987C89.4958 153.972 87.3162 155.35 84.2711 155.871C80.9768 156.433 77.1115 155.93 73.3867 154.452C69.6574 152.975 66.5352 150.709 64.5958 148.068C62.7379 145.539 62.2032 142.988 63.0914 140.881C63.2001 140.627 63.327 140.387 63.472 140.151L63.6895 140.428V140.437ZM72.0046 155.626L70.7585 158.581C69.2314 157.923 67.7859 157.103 66.4491 156.138L67.6771 153.224C69.032 154.167 70.4821 154.969 72.0046 155.626ZM73.5317 156.229C75.0905 156.795 76.7082 157.208 78.3531 157.457L77.1251 160.37C75.4711 160.148 73.8489 159.754 72.2856 159.188L73.5317 156.233V156.229ZM61.2199 145.326L61.3105 145.113C61.6096 146.196 62.0763 147.225 62.6881 148.176L61.6232 150.7C60.6943 148.788 60.5447 146.926 61.2244 145.326H61.2199ZM62.7243 152.513C62.7062 152.486 62.6881 152.463 62.67 152.436L63.8164 149.722C64.5686 150.623 65.4114 151.457 66.3268 152.205L65.1124 155.078C64.2197 154.312 63.4222 153.451 62.7243 152.513ZM78.838 160.52L80.0524 157.647C80.5508 157.683 81.0402 157.701 81.5296 157.701C82.2365 157.701 82.9434 157.661 83.6412 157.584L82.4948 160.298C82.4631 160.302 82.4314 160.312 82.3996 160.316C81.226 160.511 80.0297 160.579 78.838 160.524V160.52ZM84.4931 159.772L85.558 157.248C86.6818 156.99 87.7603 156.569 88.7572 156.002L88.6665 156.215C87.9914 157.819 86.5368 159.043 84.4931 159.777V159.772ZM90.1438 150.03L92.5953 148.031C93.6103 148.648 94.6842 149.173 95.8035 149.59L93.4879 151.475C93.4562 151.466 93.4245 151.457 93.3973 151.448C92.2645 151.09 91.1724 150.614 90.1483 150.025L90.1438 150.03ZM100.915 150.646C99.5464 151.761 97.6704 152.191 95.5089 151.919L97.6659 150.166C98.6039 150.392 99.5645 150.515 100.53 150.519C100.72 150.519 100.91 150.51 101.096 150.501L100.915 150.651V150.646ZM104.699 147.565C102.9 149.028 100.231 149.314 97.1765 148.371C93.9909 147.388 90.8099 145.199 88.2225 142.209C86.9809 140.79 85.9341 139.222 85.0958 137.546C87.6424 135.28 89.5638 132.634 90.6014 129.929C91.3718 127.921 91.6074 126.013 91.3174 124.328C94.9516 124.881 98.9981 127.337 102.098 130.912C104.69 133.903 106.362 137.315 106.815 140.523C107.245 143.6 106.493 146.101 104.699 147.565Z" fill="#D7B27B"/>
    <path d="M93.742 140.976L95.183 140.047C95.4503 140.319 95.7585 140.527 96.1074 140.659C96.8686 140.962 97.6435 140.858 98.4275 140.351C99.0618 139.943 99.4425 139.517 99.5784 139.073C99.7053 138.62 99.6237 138.18 99.3337 137.754C99.1026 137.419 98.7764 137.238 98.3549 137.215C97.9426 137.188 97.426 137.265 96.8097 137.442C95.6135 137.804 94.7797 138.003 94.3039 138.04C93.017 138.167 92.0337 137.741 91.3585 136.753C90.9008 136.087 90.7241 135.348 90.8192 134.528C90.9235 133.703 91.3222 132.996 92.011 132.398L91.1455 131.134L92.5276 130.241L93.3931 131.505C94.4715 131.093 95.5092 131.138 96.5061 131.646C96.9638 131.877 97.3762 132.172 97.7432 132.539L96.3022 133.468C96.0757 133.255 95.8219 133.101 95.5455 132.996C94.9066 132.77 94.2314 132.883 93.5245 133.341C92.9807 133.69 92.6499 134.084 92.5276 134.519C92.4098 134.954 92.4823 135.366 92.7496 135.756C93.1529 136.34 93.9957 136.449 95.2781 136.082C95.3824 136.05 95.5908 135.996 95.8944 135.915C96.1935 135.824 96.4064 135.77 96.5424 135.747C96.6783 135.711 96.8913 135.665 97.1768 135.606C97.4623 135.538 97.6888 135.502 97.8474 135.498C98.0106 135.498 98.2145 135.498 98.4728 135.498C98.722 135.489 98.935 135.52 99.1072 135.588C99.2839 135.643 99.4697 135.711 99.669 135.801C99.8775 135.883 100.068 136.01 100.24 136.182C100.408 136.34 100.566 136.535 100.72 136.753C101.232 137.496 101.418 138.271 101.278 139.077C101.137 139.87 100.729 140.582 100.054 141.207L100.92 142.471L99.5376 143.364L98.6721 142.1C97.4305 142.63 96.2478 142.603 95.1241 142.009C94.6075 141.742 94.1408 141.397 93.7329 140.967L93.742 140.976Z" fill="#D7B27B"/>
    <path d="M122.826 133.055C122.89 134.872 123.393 137.097 123.995 139.209C124.815 142.091 125.826 144.764 126.179 145.952C126.8 148.013 123.497 163.343 131.943 174.064C137.621 181.265 146.353 182.941 152.566 182.18H152.57C154.75 181.913 156.621 181.346 157.94 180.617C164.76 176.828 165.616 166.655 165.616 162.713C165.616 158.771 161.021 148.05 160.473 145.97C159.925 143.894 161.348 140.174 161.239 132.511C161.13 124.849 154.782 119.053 154.782 119.053L136.878 122.28L123.814 124.631C123.814 124.631 122.704 129.489 122.826 133.055Z" fill="#F47F2D"/>
    <path d="M144.993 158.581C155.782 166.669 157.309 180.431 152.57 182.175C154.749 181.913 156.621 181.346 157.939 180.617C164.759 176.828 165.615 166.655 165.615 162.713C165.615 158.771 161.021 148.05 160.472 145.97C159.924 143.894 161.347 140.174 161.238 132.511C161.129 124.849 154.781 119.053 154.781 119.053L136.877 122.28C136.075 128.701 161.238 132.511 161.238 132.511C161.238 132.511 115.707 136.621 144.993 158.581Z" fill="#FD9A3F"/>
    <path d="M161.239 134.682C161.239 134.682 153.186 135.706 147.812 138.312C147.812 138.312 154.849 138.108 160.804 139L161.243 134.677L161.239 134.682Z" fill="#7A3C04"/>
    <path d="M123.814 124.631C123.814 124.631 122.704 129.489 122.826 133.055C122.89 134.872 123.393 137.097 123.995 139.209C124.815 142.091 125.826 144.764 126.179 145.952C126.8 148.013 123.497 163.343 131.943 174.064C139.61 183.793 152.856 183.435 157.94 180.617C164.76 176.828 165.616 166.655 165.616 162.713C165.616 158.771 161.021 148.05 160.473 145.97C159.925 143.894 161.348 140.174 161.239 132.511C161.13 124.849 154.782 119.053 154.782 119.053L123.814 124.631Z" stroke="#7A3C04" stroke-width="1.71" stroke-linecap="round" stroke-linejoin="round"/>
    <path d="M161.066 147.252C161.066 147.252 160.006 147.583 159.068 147.932C157.763 148.412 153.906 149.971 153.906 149.971C153.906 149.971 157.84 150.134 159.154 150.134C160.105 150.134 162.131 150.134 162.131 150.134L161.061 147.257L161.066 147.252Z" fill="#7A3C04"/>
    <path d="M124.957 142.557C124.957 142.557 127.966 142.431 128.963 142.431C130.354 142.431 134.509 142.557 134.509 142.557C134.509 142.557 130.875 144.075 129.638 144.524C128.745 144.85 125.999 145.666 125.999 145.666L124.957 142.557Z" fill="#7A3C04"/>
    <path d="M123.813 124.631C123.813 124.631 122.703 129.489 122.825 133.055C122.889 134.872 123.392 137.097 123.994 139.209C123.994 139.209 128.48 135.52 141.495 132.788C154.518 130.051 161.238 132.511 161.238 132.511C161.129 124.849 154.781 119.053 154.781 119.053C154.781 119.053 160.69 102.636 149.746 91.0356C138.803 79.4352 124.144 82.0997 124.144 82.0997C124.144 82.0997 115.725 84.959 113.237 97.6333C109.63 116.008 123.813 124.631 123.813 124.631Z" fill="#222222"/>
    <path d="M120.659 84.0754C121.556 83.015 122.748 82.2039 124.089 81.7961C126.536 81.429 128.979 81.4517 131.408 81.7009C141.096 82.6571 150.544 88.5479 154.554 97.5925C157.513 104.376 157.336 112.193 155.143 119.176C155.143 119.198 155.039 118.759 155.039 118.763C156.915 120.589 158.442 122.687 159.638 125.003C160.839 127.314 161.55 129.888 161.623 132.502C161.641 132.774 161.351 132.978 161.102 132.874C160.39 132.638 159.593 132.471 158.818 132.339C150.095 131.002 141.164 132.865 132.849 135.498C129.881 136.517 126.786 137.704 124.239 139.512C124.031 139.685 123.691 139.58 123.618 139.318C123.093 137.528 122.617 135.702 122.445 133.83C122.281 131.95 122.494 130.06 122.762 128.211C122.948 126.979 123.174 125.755 123.478 124.541C123.75 123.784 124.062 123.05 124.411 122.325C124.783 121.595 125.1 120.861 125.73 120.286C125.87 120.177 126.033 120.376 125.907 120.494C125.055 121.681 124.611 123.476 124.148 124.708C123.704 127.092 123.305 129.53 123.251 131.954C123.16 134.378 123.75 136.762 124.361 139.1L123.741 138.905C125.114 137.89 126.564 137.188 128.054 136.508C137.072 132.697 149.211 130.024 158.949 131.569C159.761 131.709 160.549 131.872 161.365 132.14L160.844 132.511C160.771 130.019 160.091 127.568 158.94 125.356C157.808 123.145 156.289 121.061 154.513 119.334C154.395 119.225 154.359 119.058 154.409 118.917C155.143 116.674 155.583 114.286 155.814 111.916C156.258 107.181 155.728 102.292 153.829 97.9097C149.964 89.0826 140.774 83.3232 131.335 82.3399C128.965 82.0816 126.532 82.0544 124.194 82.3897C124.003 82.4078 123.596 82.6117 123.319 82.7069C122.413 83.0921 121.575 83.6132 120.786 84.2068C120.704 84.2838 120.578 84.1479 120.655 84.0708L120.659 84.0754Z" fill="black"/>
    <path d="M123.447 124.754C122.889 122.551 122.975 120.313 123.27 118.092C123.37 117.363 123.515 116.642 123.673 115.926C123.691 115.849 123.764 115.8 123.841 115.818C123.918 115.836 123.963 115.908 123.95 115.981C123.592 118.111 123.46 120.299 123.737 122.443C123.832 123.154 123.968 123.884 124.185 124.522C124.344 125.021 123.592 125.257 123.442 124.749L123.447 124.754Z" fill="black"/>
    <path d="M43.7971 133.055C43.7337 134.872 43.2307 137.097 42.628 139.209C41.8078 142.091 40.7973 144.764 40.4439 145.952C39.8231 148.013 43.1265 163.343 34.68 174.064C29.0021 181.265 20.2701 182.941 14.0576 182.18H14.0531C11.8735 181.913 10.002 181.346 8.68338 180.617C1.86363 176.828 1.0072 166.655 1.0072 162.713C1.0072 158.771 5.60203 148.05 6.15033 145.97C6.69863 143.894 5.27577 140.174 5.38453 132.511C5.49328 124.849 11.8418 119.053 11.8418 119.053L29.7453 122.28L42.8093 124.631C42.8093 124.631 43.9195 129.489 43.7971 133.055Z" fill="#F47F2D"/>
    <path d="M21.625 158.581C10.8358 166.669 9.30871 180.431 14.0485 182.175C11.8689 181.913 9.99748 181.346 8.67885 180.617C1.86364 176.828 1.0072 166.655 1.0072 162.713C1.0072 158.771 5.60203 148.05 6.15033 145.97C6.69863 143.894 5.27577 140.174 5.38453 132.511C5.49328 124.849 11.8418 119.053 11.8418 119.053L29.7453 122.28C30.5473 128.701 5.38453 132.511 5.38453 132.511C5.38453 132.511 50.9159 136.621 21.6296 158.581H21.625Z" fill="#FD9A3F"/>
    <path d="M5.93335 138.108C5.93335 138.108 10.0116 138.724 15.3904 141.334C15.3904 141.334 12.3498 140.958 6.25961 141.334L5.93335 138.108Z" fill="#7A3C04"/>
    <path d="M42.8093 124.631C42.8093 124.631 43.9195 129.489 43.7971 133.055C43.7337 134.872 43.2307 137.097 42.628 139.209C41.8078 142.091 40.7973 144.764 40.4439 145.952C39.8231 148.013 43.1265 163.343 34.68 174.064C27.0129 183.793 13.7676 183.435 8.68338 180.617C1.86363 176.828 1.0072 166.655 1.0072 162.713C1.0072 158.771 5.60203 148.05 6.15033 145.97C6.69863 143.894 5.27577 140.174 5.38453 132.511C5.49328 124.849 11.8418 119.053 11.8418 119.053L42.8093 124.631Z" stroke="#7A3C04" stroke-width="1.71" stroke-linecap="round" stroke-linejoin="round"/>
    <path d="M3.54474 154.366C3.54474 154.366 4.60508 154.697 5.54308 155.046C6.84812 155.526 10.7043 157.085 10.7043 157.085C10.7043 157.085 6.77109 157.248 5.45698 157.248C4.50539 157.248 2.47986 157.248 2.47986 157.248L3.54927 154.371L3.54474 154.366Z" fill="#7A3C04"/>
    <path d="M42.2375 140.537C42.2375 140.537 40.135 139.866 38.0324 139.603C35.2048 139.245 26.645 139.603 26.645 139.603C26.645 139.603 35.0508 142.145 37.2394 142.965C38.9931 143.623 41.0412 144.085 41.0412 144.085L42.233 140.537H42.2375Z" fill="#7A3C04"/>
    <path d="M42.8093 124.631C42.8093 124.631 43.9195 129.489 43.7971 133.055C43.7337 134.872 43.2307 137.097 42.628 139.209C42.628 139.209 38.1419 135.52 25.1278 132.788C12.1046 130.051 5.38452 132.512 5.38452 132.512C5.49327 124.849 11.8418 119.053 11.8418 119.053C11.8418 119.053 5.93282 102.636 16.8761 91.0357C27.8194 79.4354 42.4785 82.0998 42.4785 82.0998C42.4785 82.0998 50.8978 84.9591 53.3855 97.6334C56.9925 116.008 42.8093 124.631 42.8093 124.631Z" fill="#222222"/>
    <path d="M45.8272 84.2159C44.7941 83.4411 43.6386 82.7568 42.4015 82.3943C40.1766 82.0771 37.6209 82.0816 35.2827 82.349C25.8483 83.3278 16.6541 89.0917 12.7889 97.9188C10.8902 102.301 10.36 107.19 10.8041 111.925C11.0307 114.3 11.4748 116.683 12.2088 118.926C12.2632 119.08 12.2179 119.239 12.1046 119.343C9.45829 121.953 7.31947 125.243 6.31803 128.846C5.96458 130.042 5.8377 131.283 5.77427 132.521L5.25316 132.149C8.41153 131.193 11.7059 131.075 14.973 131.134C23.2428 131.442 36.0168 134.229 42.8682 138.91C42.8954 138.919 42.2474 139.105 42.252 139.109C42.8637 136.771 43.4528 134.387 43.3622 131.963C43.3078 129.539 42.9135 127.101 42.4649 124.718C42.0027 123.485 41.5632 121.691 40.7068 120.503C40.5663 120.385 40.7566 120.186 40.8835 120.295C41.5179 120.866 41.8305 121.604 42.2021 122.334C42.551 123.059 42.8637 123.793 43.1356 124.55C43.4392 125.764 43.6658 126.983 43.8515 128.22C44.2322 130.681 44.418 133.241 43.9059 135.706C43.6703 136.934 43.3486 138.135 42.9951 139.327C42.9226 139.59 42.5782 139.698 42.3743 139.517C39.8277 137.714 36.7373 136.526 33.7692 135.507C25.4496 132.874 16.5227 131.016 7.7998 132.348C7.01587 132.484 6.21381 132.656 5.49332 132.892C5.29394 132.956 5.08096 132.851 5.01299 132.652C4.9994 130.001 5.78333 127.368 6.97962 125.017C8.1759 122.701 9.69845 120.603 11.579 118.777C11.579 118.777 11.4748 119.212 11.4748 119.189C9.28156 112.206 9.10937 104.39 12.0638 97.6062C16.0741 88.5615 25.5221 82.6707 35.2102 81.7146C37.639 81.4654 40.0814 81.4427 42.5284 81.8098C43.8697 82.213 45.0614 83.0242 45.9586 84.0891C46.0357 84.1706 45.9088 84.2975 45.8272 84.225V84.2159Z" fill="black"/>
    <path d="M42.4421 124.505C43.2668 121.777 43.1218 118.777 42.6686 115.986C42.6369 115.813 42.9133 115.754 42.9451 115.931C43.4344 118.088 43.6882 120.304 43.5296 122.515C43.4707 123.263 43.3846 123.983 43.1716 124.754C43.1127 124.962 42.8997 125.08 42.6958 125.026C42.4693 124.967 42.3514 124.718 42.4375 124.505H42.4421Z" fill="black"/>
    <path d="M98.2386 154.203C112.313 163.57 123.107 180.657 138.187 184.296C149.711 187.078 151.496 185.008 155.312 184.346C157.487 183.97 160.083 184.55 162 182.175C163.328 180.535 163.015 178.655 162.811 177.055C162.684 176.094 162.598 175.233 162.929 174.581C163.808 172.85 165.113 161.25 154.324 153.229C146.312 147.266 128.531 147.909 101.76 134.279C96.0998 131.397 90.1002 132.593 87.7756 136.621C87.2772 137.487 86.8784 138.361 86.6609 139.272C85.7818 142.961 87.8481 147.288 98.2386 154.203Z" fill="#F47F2D"/>
    <path d="M97.3896 152.323C100.666 154.249 125.085 175.542 134.506 180.417C143.927 185.293 154.34 182.715 155.922 182.348C157.503 181.981 159.116 183.095 160.553 182.175C161.985 181.256 162.805 177.055 162.805 177.055H162.809C162.682 176.094 162.596 175.233 162.927 174.581C163.806 172.85 165.111 161.25 154.322 153.229C146.31 147.266 128.529 147.909 101.758 134.279C96.0982 131.397 90.0986 132.593 87.774 136.621C87.2755 137.487 86.8768 138.361 86.6593 139.272V139.29C86.3285 142.897 94.1134 150.401 97.3896 152.323Z" fill="#FD9A3F"/>
    <path d="M104.532 141.86C105.583 139.286 121.307 147.252 130.782 149.717C136.945 151.321 154.173 153.524 153.91 163.801C153.648 174.078 129.822 161.97 125.073 159.197C119.988 156.229 103.381 144.687 104.536 141.86H104.532Z" fill="#FDA44B"/>
    <path d="M160.123 159.36C158.759 157.235 156.879 155.128 154.318 153.229C146.307 147.266 128.526 147.909 101.754 134.279C96.0944 131.397 90.0949 132.593 87.7703 136.621C87.2718 137.487 86.8731 138.361 86.6556 139.272C85.7765 142.961 87.8428 147.288 98.2333 154.203C112.308 163.57 123.102 180.657 138.182 184.296C149.705 187.078 151.491 185.008 155.306 184.346C157.481 183.97 160.078 184.55 161.994 182.176C163.322 180.535 163.009 178.655 162.806 177.055C162.679 176.094 162.593 175.233 162.923 174.581C163.141 174.15 163.39 173.104 163.467 171.654" stroke="#7A3C04" stroke-width="1.28" stroke-linecap="round" stroke-linejoin="round"/>
    <path d="M143.868 173.085C143.868 173.085 143.415 175.963 143.415 180.621C143.415 182.112 143.551 183.666 143.737 185.393C144.761 185.424 145.903 185.687 147.575 185.71C147.575 185.71 146.778 183.403 145.758 180.127C145.092 177.984 144.544 176.217 143.868 173.085Z" fill="#7A3C04"/>
    <path d="M136.098 158.553C136.098 158.553 136.619 155.526 138.921 151.475C139.655 150.179 139.922 149.536 140.933 148.127C142.075 148.426 143.611 148.833 144.997 149.21C144.997 149.21 143.221 150.719 140.715 153.061C139.075 154.593 138.232 156.165 136.098 158.549V158.553Z" fill="#7A3C04"/>
    <path d="M128.765 162.895C128.765 162.895 126.908 165.341 125.521 169.791C125.077 171.214 123.804 174.635 123.468 176.335C124.465 176.969 126.169 178.51 127.388 179.262C127.13 179.846 127.252 174.921 127.904 170.013C128.199 167.788 128.475 166.085 128.761 162.895H128.765Z" fill="#7A3C04"/>
    <path d="M113.444 153.175C113.444 153.175 113.435 149.803 115.488 145.58C116.141 144.243 116.856 142.743 117.872 141.334C119.009 141.66 120.477 142.286 121.755 142.707C121.755 142.707 119.693 144.184 117.754 146.822C116.29 148.811 114.709 150.7 113.444 153.175Z" fill="#7A3C04"/>
    <path d="M113.939 167.702C113.939 167.702 114.057 165.772 114.225 164.789C114.456 163.42 115.176 159.908 115.176 159.908C115.176 159.908 113.355 162.609 112.811 163.805C112.39 164.725 111.968 165.849 111.968 165.849L113.939 167.702Z" fill="#7A3C04"/>
    <path d="M106.544 136.612C106.544 136.612 105.651 137.863 105.162 138.733C104.482 139.943 103.286 142.304 103.286 142.304C103.286 142.304 103.222 139.866 103.648 138.171C103.898 137.188 104.518 135.665 104.518 135.665L106.539 136.612H106.544Z" fill="#7A3C04"/>
    <path d="M103.752 158.358C103.752 158.358 104.056 155.916 104.283 154.57C104.6 152.699 105.583 147.896 105.583 147.896C105.583 147.896 103.095 151.593 102.348 153.224C101.772 154.484 101.07 156.215 101.07 156.215L103.752 158.358Z" fill="#7A3C04"/>
    <path d="M68.3843 154.203C54.3098 163.569 43.516 180.657 28.4355 184.296C16.9122 187.078 15.1268 185.007 11.3114 184.346C9.13633 183.97 6.53985 184.55 4.62307 182.175C3.29537 180.535 3.60804 178.654 3.81195 177.055C3.93883 176.094 4.02492 175.233 3.69413 174.581C2.81504 172.85 1.51 161.249 12.2992 153.229C20.3107 147.266 38.0919 147.909 64.8634 134.279C70.5231 131.397 76.5226 132.593 78.8473 136.621C79.3457 137.487 79.7445 138.361 79.962 139.272C80.8411 142.961 78.7747 147.288 68.3843 154.203Z" fill="#F47F2D"/>
    <path d="M69.2316 152.323C65.9554 154.248 41.5358 175.541 32.115 180.417C22.6943 185.293 12.2811 182.715 10.6997 182.348C9.11821 181.981 7.50503 183.095 6.06858 182.175C4.63666 181.256 3.81648 177.055 3.81648 177.055H3.81195C3.93883 176.094 4.02492 175.233 3.69413 174.581C2.81504 172.85 1.51 161.249 12.2992 153.229C20.3107 147.266 38.0919 147.909 64.8634 134.279C70.5231 131.397 76.5226 132.593 78.8472 136.621C79.3457 137.487 79.7445 138.361 79.962 139.272V139.29C80.2928 142.897 72.5078 150.401 69.2316 152.323Z" fill="#FD9A3F"/>
    <path d="M63.2767 140.373C62.2254 137.799 46.5015 145.766 37.0263 148.231C30.8636 149.835 13.6353 152.037 13.8981 162.314C14.1609 172.592 37.987 160.484 42.7359 157.71C47.8201 154.742 64.4277 143.201 63.2722 140.373H63.2767Z" fill="#FDA44B"/>
    <path d="M6.49492 159.36C7.85887 157.235 9.7394 155.128 12.2996 153.229C20.3111 147.266 38.0923 147.909 64.8638 134.279C70.5235 131.397 76.523 132.593 78.8476 136.621C79.3461 137.487 79.7449 138.361 79.9624 139.272C80.8415 142.961 78.7751 147.288 68.3847 154.203C54.3102 163.569 43.5164 180.657 28.4359 184.296C16.9126 187.078 15.1272 185.008 11.3118 184.346C9.13672 183.97 6.54024 184.55 4.62346 182.175C3.29576 180.535 3.60843 178.654 3.81234 177.055C3.93922 176.094 4.02532 175.233 3.69452 174.581C3.47702 174.15 3.22779 173.104 3.15076 171.653" stroke="#7A3C04" stroke-width="1.28" stroke-linecap="round" stroke-linejoin="round"/>
    <path d="M22.4048 174.617C22.4048 174.617 23.2023 176.706 23.2023 180.621C23.2023 182.112 23.0664 183.666 22.8806 185.393C21.8565 185.424 20.7146 185.687 19.0425 185.71C19.0425 185.71 19.9578 183.843 20.9774 180.567C21.6435 178.423 21.7296 177.748 22.4048 174.621V174.617Z" fill="#7A3C04"/>
    <path d="M24.5121 162.133C24.5121 162.133 23.7599 157.321 21.4625 153.27C20.7284 151.974 20.4611 151.33 19.4506 149.921C18.3087 150.22 17.0127 150.696 15.7076 151.28C15.7076 151.28 17.28 152.073 19.2467 154.883C21.0003 157.384 22.754 159.056 24.5121 162.128V162.133Z" fill="#7A3C04"/>
    <path d="M37.8513 162.894C37.8513 162.894 39.7092 165.341 41.0958 169.791C41.5399 171.214 42.8132 174.635 43.1485 176.335C42.1516 176.969 40.4478 178.51 39.2289 179.262C39.4872 179.846 39.3648 174.921 38.7123 170.013C38.4177 167.788 38.1413 166.085 37.8559 162.894H37.8513Z" fill="#7A3C04"/>
    <path d="M41.6438 154.031C41.6438 154.031 41.739 151.203 40.7239 148.711C40.162 147.334 39.5231 146.115 38.5126 144.705C37.3752 145.032 35.7394 145.412 34.4615 145.838C34.4615 145.838 37.6245 147.574 41.6438 154.031Z" fill="#7A3C04"/>
    <path d="M52.679 167.702C52.679 167.702 52.5611 165.772 52.3935 164.788C52.1624 163.42 51.4419 159.908 51.4419 159.908C51.4419 159.908 53.2635 162.609 53.8073 163.805C54.2287 164.725 54.6501 165.849 54.6501 165.849L52.679 167.702Z" fill="#7A3C04"/>
    <path d="M54.6228 138.946C54.6228 138.946 56.0366 140.781 56.5486 141.637C57.5546 143.314 59.2992 146.762 59.2992 146.762C59.2992 146.762 59.3853 143.051 58.4065 140.577C57.8627 139.209 56.961 138.008 56.961 138.008L54.6228 138.95V138.946Z" fill="#7A3C04"/>
    <path d="M66.4265 155.667C66.4265 155.667 66.6033 153.075 66.4492 151.715C66.2408 149.826 65.7831 146.128 65.7831 146.128C65.7831 146.128 67.4688 148.951 68.1213 150.623C68.6243 151.915 69.2269 153.682 69.2269 153.682L66.422 155.667H66.4265Z" fill="#7A3C04"/>
    <path d="M83.6061 141.864C83.529 146.473 89.2658 149.092 93.2308 147.896C96.6293 146.871 99.8194 142.304 100.644 140.165C102.579 135.167 101.066 129.117 100.168 125.044C99.4342 121.731 98.4192 114.431 98.2334 112.41C96.3982 104.716 84.0955 111.295 83.588 120.027C82.8901 131.995 83.6378 139.78 83.6061 141.864Z" fill="#FD9A3F"/>
    <path d="M100.589 140.142C102.094 135.647 101.137 130.871 100.118 126.371C99.0349 121.781 98.4095 117.127 97.8431 112.446C96.9051 108.45 92.6955 108.962 89.7772 110.919C86.9134 112.782 84.6251 115.818 84.0949 119.221C83.8593 121.532 83.823 123.988 83.7369 126.303C83.6055 131.057 83.7233 135.806 83.9408 140.568L83.9589 141.47C83.7913 143.514 84.8607 145.372 86.5509 146.504C88.4541 147.809 90.9373 148.362 93.2075 147.814C93.3072 147.778 93.3525 147.941 93.2528 147.973C90.9418 148.734 88.3136 148.281 86.2382 146.976C84.3668 145.861 83.107 143.695 83.2475 141.484L83.2113 140.6C82.9575 135.847 82.8261 131.061 82.9303 126.29C82.962 124.563 83.0391 122.656 83.1252 120.92C83.107 117.816 84.4121 114.803 86.5056 112.569C89.5507 109.007 97.0411 105.89 98.6271 112.374C99.1482 117.001 99.8007 121.663 100.775 126.226C101.736 130.762 102.556 135.76 100.698 140.188C100.671 140.256 100.557 140.215 100.585 140.142H100.589Z" fill="#7A3C04"/>
    <path d="M87.942 125.171C90.3301 124.908 95.301 141.361 93.2347 143.369C91.1684 145.376 85.7307 145.127 85.486 141.506C85.2413 137.886 85.9528 125.393 87.942 125.171Z" fill="#FDA44B"/>
    <path d="M98.1923 112.102C97.7437 110.167 96.3163 106.053 94.7757 102.808C92.7592 98.5622 91.0055 91.602 90.6294 87.7412C90.4935 86.3546 90.8424 83.4047 88.6084 82.4848C85.7219 81.2976 83.6602 83.5996 83.6058 85.394C83.2931 95.2452 86.2748 102.912 87.9197 109.089C88.613 111.69 88.8622 118.414 93.6791 119.053C97.1139 119.511 98.94 115.315 98.1923 112.102Z" fill="#FD9A3F"/>
    <path d="M98.1825 115.976C98.4454 113.017 97.2264 110.19 96.2748 107.435C95.2643 104.603 93.7916 101.97 92.8581 99.1106C91.8884 96.2513 91.1181 93.3285 90.5698 90.3559C90.4384 89.6083 90.316 88.8651 90.2345 88.1038C90.0578 86.6583 90.2707 85.1358 89.5684 83.8806C88.9476 82.7477 87.3117 82.358 86.1336 82.7432C85.2092 83.0468 84.4343 83.8534 84.1488 84.7869C83.9222 85.7928 84.0446 86.9619 84.0355 88.0087C84.099 90.9813 84.4796 93.9403 85.0687 96.8539C85.9025 101.245 87.4386 105.545 88.4627 109.904C88.7391 111.391 88.9702 112.854 89.4143 114.254C89.4687 114.427 89.3735 114.612 89.2013 114.667C89.0291 114.721 88.8479 114.626 88.7935 114.458C88.0775 112.27 87.9144 110.067 87.2211 107.897C85.2635 101.444 83.2924 94.842 83.1836 88.0359C83.2018 86.4861 82.8846 84.7415 83.8769 83.4138C85.2862 81.2116 89.0019 81.1391 90.3387 83.4456C91.1498 84.8729 90.9368 86.5224 91.1045 88.0177C91.1815 88.7473 91.2993 89.4814 91.4262 90.2109C91.9564 93.1337 92.7086 96.0292 93.6511 98.8478C94.5755 101.698 96.0392 104.34 97.0316 107.163C97.7611 109.297 98.7082 111.463 98.749 113.761C98.749 114.526 98.6946 115.324 98.3547 116.04C98.3139 116.13 98.1644 116.081 98.1871 115.981L98.1825 115.976Z" fill="#7A3C04"/>
    <path d="M95.6271 114.209C95.2737 110.734 92.4823 104.072 91.1773 98.6166C89.8949 93.2469 89.8133 91.7335 89.7907 89.6807C89.7635 87.27 88.7122 86.0058 86.4103 86.4181C83.0208 87.0299 83.6099 90.1792 83.6099 91.6655C83.6099 94.629 84.1174 107.041 84.9874 112.591C85.4224 115.356 86.3921 121.944 92.2875 121.079C95.899 120.549 95.8174 116.108 95.6226 114.209H95.6271Z" fill="#FD9A3F"/>
    <path d="M95.4874 114.223C95.134 111.826 94.2594 109.524 93.5072 107.222C91.7309 102.02 89.9546 96.709 89.4425 91.1988C89.3066 89.6763 89.6963 87.4015 87.8928 86.8396C86.9276 86.6085 85.5954 86.8895 84.8522 87.5737C84.0774 88.2897 83.9596 89.495 84.0003 90.6641C84.0547 93.1201 84.1136 95.5354 84.2224 97.9778C84.4671 102.831 84.671 107.725 85.3145 112.542C85.3779 112.954 84.7435 113.076 84.6665 112.641C83.6741 105.708 83.3569 98.5941 83.1892 91.5931C83.1303 90.0252 82.9989 88.1583 84.2813 86.962C85.7631 85.6479 88.7402 85.3488 89.728 87.3834C90.3398 88.5797 90.1494 89.8983 90.2355 91.1444C90.3352 92.9525 90.6932 94.7288 91.0693 96.5051C92.0254 101.295 93.7428 105.867 95.0388 110.575C95.1521 110.974 96.2306 115.129 95.4874 114.218V114.223Z" fill="#7A3C04"/>
    <path d="M93.0886 117.395C92.8167 115.569 90.5465 107.824 90.1024 105.609C89.6176 103.184 89.5994 100.47 89.5994 99.2556C89.5994 97.3615 89.1055 95.2634 86.3096 95.8525C82.8703 96.5775 83.6271 103.733 83.6271 104.662L83.5908 120.027C83.5908 120.027 86.7582 124.35 90.4695 122.764C94.1807 121.178 93.0931 117.399 93.0931 117.399L93.0886 117.395Z" fill="#FD9A3F"/>
    <path d="M92.944 117.417C92.0468 113.439 90.5107 109.211 89.6633 105.214C89.473 104.163 89.3506 103.103 89.2827 102.038C89.2147 100.987 89.2102 99.8944 89.192 98.8749C89.1467 97.9822 88.9836 96.8947 88.2042 96.4053C87.5018 95.9839 86.3101 96.1289 85.6485 96.5729C84.9189 97.085 84.5202 98.0502 84.2891 99.0154C83.8133 101.036 83.9673 103.116 84.0353 105.196C84.1123 108.259 84.1713 111.626 84.1577 114.676C84.1395 116.787 84.135 118.89 83.9311 121.024C83.9084 121.242 83.7136 121.405 83.4961 121.382C83.274 121.36 83.1109 121.156 83.1381 120.934C83.3329 118.876 83.342 116.765 83.3556 114.671C83.3873 110.521 83.2333 106.202 83.1426 102.042C83.2333 99.9171 83.3329 97.3297 85.1682 95.8887C86.7043 94.8691 89.1648 95.1863 89.7041 97.1711C89.8899 97.7284 89.9533 98.2858 89.976 98.8341C89.976 100.964 90.0303 103.026 90.3566 105.078C91.1496 109.138 92.509 113.271 93.225 117.363C93.2522 117.544 92.9667 117.608 92.935 117.404L92.944 117.417Z" fill="#7A3C04"/>
    <path d="M83.0112 141.864C83.0883 146.473 77.3515 149.092 73.3866 147.896C69.988 146.871 66.7979 142.304 65.9732 140.165C64.0383 135.167 65.5518 129.117 66.449 125.044C67.1831 121.731 68.1981 114.431 68.3839 112.41C70.2191 104.716 82.5218 111.295 83.0294 120.027C83.7272 131.995 82.9795 139.78 83.0112 141.864Z" fill="#FD9A3F"/>
    <path d="M65.9192 140.188C64.0613 135.765 64.8815 130.762 65.8422 126.226C66.8209 121.668 67.4689 117.001 67.99 112.374C69.5715 105.89 77.0573 109.003 80.1115 112.569C82.205 114.803 83.5146 117.816 83.4919 120.92C83.5735 122.66 83.6551 124.559 83.6868 126.29C83.791 131.061 83.6596 135.847 83.4058 140.6L83.3696 141.484C83.51 143.69 82.2549 145.861 80.3789 146.976C78.3035 148.285 75.6753 148.734 73.3643 147.973C73.2646 147.932 73.3099 147.796 73.4096 147.814C75.6798 148.362 78.163 147.814 80.0662 146.504C81.7519 145.372 82.8258 143.518 82.6582 141.47L82.6763 140.568C82.8938 135.806 83.0116 131.057 82.8802 126.304C82.8394 124.586 82.7533 122.687 82.6627 120.961C82.6763 118.056 81.4528 115.279 79.4726 113.149C76.8489 110.04 70.1878 106.941 68.774 112.447C68.2075 117.127 67.5822 121.781 66.4992 126.371C65.4796 130.871 64.5235 135.647 66.028 140.142C66.0551 140.21 65.9419 140.256 65.9147 140.188H65.9192Z" fill="#7A3C04"/>
    <path d="M78.1588 125.171C75.7708 124.908 70.7998 141.361 72.8662 143.369C74.9325 145.376 80.3701 145.127 80.6148 141.506C80.8641 137.881 80.1481 125.393 78.1588 125.171Z" fill="#FDA44B"/>
    <path d="M68.4254 112.102C68.874 110.167 70.3014 106.053 71.842 102.808C73.8585 98.5623 75.6122 91.6021 75.9883 87.7414C76.1242 86.3548 75.7753 83.4048 78.0093 82.485C80.8958 81.2977 82.9576 83.5997 83.0119 85.3941C83.3246 95.2453 80.3429 102.912 78.698 109.089C78.0047 111.69 77.7555 118.414 72.9387 119.053C69.5039 119.511 67.6777 115.315 68.4254 112.102Z" fill="#FD9A3F"/>
    <path d="M68.2666 116.031C67.1247 113.076 68.6745 109.954 69.5898 107.154C70.5822 104.331 72.0458 101.689 72.9702 98.8388C73.9173 96.0202 74.665 93.1247 75.1951 90.2019C75.3175 89.4724 75.4398 88.7383 75.5169 88.0087C75.6845 86.5134 75.4716 84.864 76.2827 83.4366C78.0091 80.6543 82.4046 81.4156 83.2973 84.5332C83.5782 85.6751 83.4287 86.8668 83.4377 88.0314C83.3652 91.0538 82.9665 94.0627 82.3638 97.0217C81.4892 101.431 79.9123 105.699 78.8429 110.04C78.5529 111.495 78.3037 112.999 77.8279 114.458C77.7735 114.631 77.5877 114.726 77.4155 114.667C77.2433 114.613 77.1527 114.427 77.2071 114.259C77.6512 112.859 77.8823 111.391 78.1587 109.909C79.1828 105.55 80.7144 101.249 81.5527 96.8586C82.1418 93.9449 82.5269 90.9859 82.5858 88.0133C82.5768 86.9665 82.6991 85.7974 82.4726 84.7915C82.1825 83.858 81.4122 83.0514 80.4878 82.7478C79.3096 82.3626 77.6738 82.7569 77.053 83.8852C76.3506 85.1449 76.5636 86.6629 76.3869 88.1084C76.3053 88.8697 76.1785 89.6129 76.0516 90.3605C75.4987 93.3331 74.7329 96.2513 73.7632 99.1152C73.2784 100.543 72.7165 101.965 72.0594 103.32C70.5822 106.687 69.1049 110.163 68.4932 113.806C68.4026 114.531 68.3301 115.265 68.4388 115.99C68.4615 116.085 68.3074 116.135 68.2712 116.04L68.2666 116.031Z" fill="#7A3C04"/>
    <path d="M70.9901 114.209C71.3436 110.734 74.1349 104.073 75.4399 98.6168C76.7223 93.2471 76.8039 91.7336 76.8265 89.6809C76.8537 87.2702 77.905 86.0059 80.207 86.4183C83.5964 87.03 83.0074 90.1793 83.0074 91.6656C83.0074 94.6291 82.4998 107.041 81.6298 112.592C81.1948 115.356 80.2251 121.944 74.3297 121.079C70.7182 120.549 70.7998 116.108 70.9946 114.209H70.9901Z" fill="#FD9A3F"/>
    <path d="M70.8544 114.196C71.1353 111.744 71.9147 109.406 72.6171 107.059C74.1034 102.423 75.499 97.7558 76.215 92.9389C76.7316 90.6506 75.5987 86.9937 78.5124 86.0467C80.5062 85.5663 82.9487 86.6222 83.3202 88.7655C83.5966 90.0162 83.3973 91.2714 83.4245 92.5175C83.3157 96.6954 83.0891 101.182 82.7629 105.337C82.5635 107.775 82.3369 110.213 81.9563 112.641C81.9291 112.818 81.7614 112.94 81.5802 112.913C81.4034 112.886 81.2811 112.718 81.3083 112.537C81.6481 110.14 81.8339 107.707 81.9971 105.278C82.3279 100.407 82.5272 95.549 82.6224 90.6642C82.6632 89.4951 82.5454 88.2852 81.7705 87.5737C80.6965 86.6448 78.3674 86.237 77.6243 87.7595C77.1032 88.7882 77.2844 90.0388 77.1847 91.1943C77.1439 91.8151 77.0714 92.4359 76.9808 93.0477C76.5911 95.4856 76.0247 97.8555 75.3812 100.239C74.117 104.952 71.9963 109.42 71.1398 114.223C71.1308 114.3 71.0583 114.359 70.9812 114.35C70.9042 114.341 70.8544 114.273 70.8589 114.196H70.8544Z" fill="#7A3C04"/>
    <path d="M73.528 117.395C73.7999 115.569 76.0701 107.825 76.5142 105.609C76.9991 103.184 77.0172 100.47 77.0172 99.2557C77.0172 97.3616 77.5111 95.2636 80.307 95.8526C83.7463 96.5777 82.9896 103.733 82.9896 104.662L83.0258 120.028C83.0258 120.028 79.8584 124.351 76.1472 122.765C72.436 121.179 73.5235 117.399 73.5235 117.399L73.528 117.395Z" fill="#FD9A3F"/>
    <path d="M73.387 117.377C74.0985 113.289 75.4624 109.152 76.2554 105.092C76.5817 103.039 76.6315 100.973 76.636 98.8479C76.6859 97.7151 76.9125 96.4055 77.9864 95.7213C79.083 95.105 80.4243 95.2636 81.4439 95.9025C83.986 97.9824 83.4241 102.31 83.3833 105.228C83.3063 108.282 83.2473 111.649 83.2564 114.685C83.27 116.779 83.2791 118.895 83.4739 120.948C83.5011 121.17 83.338 121.373 83.1159 121.396C82.8984 121.419 82.7036 121.256 82.6809 121.038C82.477 118.904 82.4725 116.801 82.4544 114.69C82.4181 110.562 82.5812 106.189 82.6583 102.07C82.5812 100.212 82.4861 97.7876 80.9681 96.5822C80.3065 96.1336 79.1147 95.9931 78.4124 96.4146C77.633 96.9085 77.4698 97.9915 77.4245 98.8842C77.4154 100.973 77.3429 103.144 76.9532 105.219C76.5953 107.05 75.8295 109.537 75.3265 111.35L74.461 114.382C74.1755 115.397 73.8764 116.412 73.6725 117.431C73.6408 117.608 73.3508 117.567 73.387 117.377Z" fill="#7A3C04"/>
    <path d="M128.087 54.0141C128.219 54.2543 131.749 60.6073 126.809 64.6221C126.809 64.6221 127.747 62.0891 126.044 60.4306C126.107 60.707 127.593 67.2685 121.141 71.4872C121.141 71.4872 121.916 69.2124 121.381 67.708C121.381 67.708 109.137 79.399 82.719 79.399C74.5716 79.399 67.6975 78.2027 62.0876 76.5533C62.0831 76.5487 62.0786 76.5487 62.0786 76.5487C49.4994 72.8421 43.2688 66.8334 43.2688 66.8334C42.7386 68.3379 44.5285 71.6594 44.5285 71.6594C37.9036 66.3848 39.3355 60.6617 39.3944 60.4306C37.6861 62.0891 37.6589 65.0707 37.6589 65.0707C34.1244 59.9503 37.3508 54.0096 37.3508 54.0096C35.6379 54.7256 34.9446 56.8191 34.9446 56.8191C34.1199 47.4391 44.2611 42.8397 47.8953 33.5141C49.3952 29.6715 51.167 25.4981 53.4553 21.805C55.6349 18.2841 58.2812 15.2028 61.6118 13.2724C67.4029 9.90558 77.5034 9.77417 82.8414 9.77417C88.1794 9.77417 98.0306 9.90558 103.822 13.2724C110.641 17.2374 114.615 26.0056 117.538 33.5141C121.172 42.8397 131.567 48.0372 130.738 57.4172C130.738 57.4172 129.796 54.7301 128.087 54.0141Z" fill="#F47F2D"/>
    <path d="M130.737 57.4172C131.566 48.0372 121.171 42.8397 117.537 33.5141C114.614 26.0056 110.64 17.2374 103.82 13.2724C98.0291 9.90558 88.1734 9.77417 82.8399 9.77417C77.5065 9.77417 67.4015 9.90558 61.6103 13.2724C58.2798 15.2028 55.6334 18.2841 53.4538 21.8005C51.1655 25.4981 49.3937 29.6715 47.8938 33.5141C45.9634 38.4624 41.4864 43.1796 41.4819 43.1841C36.076 50.6065 40.2856 62.8549 54.5686 71.4283C68.1038 79.544 82.7176 79.399 82.7176 79.399C107.794 79.8521 121.379 67.708 121.379 67.708C121.914 69.2124 121.139 71.4872 121.139 71.4872C127.592 67.2685 126.106 60.707 126.042 60.4306C127.746 62.0891 126.808 64.6221 126.808 64.6221C131.747 60.6073 128.217 54.2543 128.086 54.0141C129.794 54.7301 130.737 57.4172 130.737 57.4172ZM74.0037 32.7619C73.8632 37.3885 73.0249 40.5831 73.0249 40.5831C73.0249 40.5831 63.0151 34.7784 53.2635 41.5075C53.2635 41.5075 55.9416 37.035 54.6592 27.5191C54.6592 27.5191 58.7284 23.0058 63.6042 21.9999C68.4845 20.9894 71.4435 21.9274 71.4435 21.9274C71.4435 21.9274 74.1442 28.1354 74.0037 32.7619ZM93.1805 40.5061C93.1805 40.5061 92.2652 37.3885 92.1247 32.7619C91.9843 28.1354 94.472 21.9228 94.472 21.9228C94.472 21.9228 97.431 20.9848 102.311 21.9953C107.187 23.0013 111.252 27.5146 111.252 27.5146C109.969 37.0305 112.652 41.503 112.652 41.503C102.9 34.7739 93.1805 40.5015 93.1805 40.5015V40.5061Z" fill="#FD9A3F"/>
    <path d="M130.765 57.0094C130.756 57.1499 130.747 57.2858 130.738 57.4172C130.738 57.4172 129.795 54.7301 128.087 54.0142C128.218 54.2543 131.748 60.6073 126.809 64.6221C126.809 64.6221 127.747 62.0891 126.043 60.4306C126.107 60.707 127.593 67.2685 121.14 71.4872C121.14 71.4872 121.915 69.2124 121.381 67.708C121.381 67.708 115.345 73.472 102.602 76.9022C103.717 76.4581 121.711 69.1309 122.681 57.3175C123.402 48.4723 120.37 39.9351 118.653 35.9113C121.865 41.8338 127.493 46.1703 129.777 51.5808C130.452 53.4704 130.838 55.3192 130.765 57.0094Z" fill="#FDA44B"/>
    <path d="M82.7184 79.5033C70.3976 79.5622 57.832 76.8751 47.3011 70.2864C45.8012 69.3303 44.3511 68.3289 42.9962 67.1145L43.6306 66.9649C43.3497 68.4829 44.2288 70.1188 44.8677 71.4782C45.0988 71.8452 44.6003 72.2531 44.2831 71.9676C40.8212 69.2442 38.0933 64.8941 39.0131 60.34L39.6611 60.7161C38.5509 61.8309 38.1114 63.5618 38.0434 65.107C38.0615 65.4741 37.5087 65.6146 37.3365 65.2974C36.8064 64.4455 36.2988 63.5573 36.0451 62.5785C35.7596 61.6133 35.6055 60.6074 35.6237 59.6059C35.6418 57.5895 36.113 55.6455 37.0103 53.8284L37.4997 54.3722C36.9921 54.5942 36.539 54.9613 36.172 55.4189C35.8049 55.8675 35.5013 56.4249 35.3065 56.9596C35.234 57.159 35.0119 57.2632 34.8125 57.1952C34.663 57.1409 34.5678 57.0095 34.5588 56.8599C34.2053 53.3889 35.6055 49.9767 37.6401 47.2398C39.6294 44.4802 41.9903 42.083 43.9977 39.4322C46.141 36.7859 47.4279 33.8087 48.6242 30.6639C49.9157 27.5599 51.3431 24.4922 53.1239 21.6102C53.6813 20.5997 55.8337 17.5954 57.2837 16.1997C58.8878 14.5775 60.7412 13.1547 62.8528 12.2167C67.0534 10.3814 71.6346 9.8558 76.1524 9.56126C80.6657 9.32563 85.1699 9.3211 89.6832 9.57486C100.382 10.2818 106.757 12.3707 112.517 21.9501C114.873 25.829 116.591 30.0613 118.24 34.203C119.137 36.2194 120.37 38.0864 121.725 39.8536C123.08 41.6254 124.566 43.3111 125.993 45.0647C128.866 48.5086 131.63 52.7499 131.123 57.4581C131.105 57.671 130.914 57.8296 130.701 57.8115C130.547 57.7979 130.42 57.6937 130.371 57.5578C129.899 56.3524 129.129 54.9341 127.933 54.3767L128.422 53.833C129.94 56.7059 130.484 60.408 128.603 63.2447L128.127 63.8473C128.046 63.947 127.973 64.0512 127.883 64.1419C127.742 64.2597 127.203 64.7853 127.049 64.9258C126.759 65.1977 126.301 64.8895 126.428 64.527C126.854 63.2673 126.777 61.6768 125.767 60.7116L126.415 60.3491C126.646 61.4683 126.655 62.574 126.541 63.6797C126.297 65.8819 125.354 68.0298 123.854 69.6611C123.134 70.5085 122.246 71.1746 121.344 71.8135C121.049 72.0355 120.642 71.7319 120.755 71.3966C121.099 70.291 121.353 68.9451 121.009 67.8395L121.643 67.989C116.169 72.5431 109.445 75.2302 102.643 77.0654C102.425 77.1243 102.344 76.798 102.557 76.7437C104.233 76.2452 105.91 75.7332 107.546 75.1078C112.404 73.259 117.216 70.8483 121.131 67.409C121.326 67.2141 121.684 67.3229 121.747 67.5903C122.164 68.9633 121.888 70.2955 121.507 71.6141L120.927 71.1655C121.339 70.8483 121.784 70.5719 122.173 70.2275C124.987 67.9392 126.383 64.0739 125.667 60.5213C125.608 60.3083 125.744 60.0863 125.957 60.0455C126.093 60.0183 126.224 60.0636 126.315 60.1588C127.534 61.3415 127.697 63.2084 127.176 64.7627L126.569 64.3277L127.072 63.8519C128.241 62.7643 128.934 61.1874 129.029 59.5923C129.12 57.739 128.603 55.8313 127.742 54.1955C127.547 53.8873 127.933 53.5067 128.236 53.6608C129.75 54.3858 130.506 55.8358 131.105 57.2949L130.352 57.3901C130.448 56.3071 130.393 55.2105 130.176 54.1456C129.5 50.8694 127.484 48.1279 125.395 45.5541C122.545 42.074 119.395 38.6981 117.538 34.5202C115.866 30.3513 114.198 26.1915 111.86 22.3534C108.058 16.0638 103.667 12.3617 96.2854 11.1382C91.8899 10.3135 87.3903 10.173 82.9223 10.1685C76.2929 10.2274 69.3644 10.3089 63.179 12.9236C59.1144 14.7452 56.1101 18.2887 53.79 22.0135C52.5575 23.9258 50.4912 28.0811 49.3447 30.963C48.6831 32.5128 48.153 34.1214 47.3736 35.6213C45.0807 40.1527 41.1927 43.6645 38.2745 47.6929C36.3306 50.3257 35.0074 53.4886 35.3382 56.7965L34.5814 56.7104C35.0663 55.4189 35.9046 54.2408 37.2051 53.6653C37.4 53.5792 37.6265 53.6698 37.7126 53.8692C37.7625 53.9825 37.7489 54.1094 37.6945 54.2091C36.0587 57.5079 35.8049 61.7448 37.98 64.8624L37.2731 65.0799C37.3637 63.2945 37.835 61.4819 39.1264 60.1633C39.3983 59.8869 39.856 60.1633 39.7789 60.5168C38.9316 64.74 41.5507 68.8409 44.7725 71.3649L44.188 71.8543C43.4539 70.2728 42.4842 68.5192 42.9056 66.7157C42.9917 66.4483 43.3451 66.3668 43.54 66.5662C48.7919 71.161 55.3488 74.1291 61.9556 76.2633C68.662 78.3161 75.7129 79.2223 82.7229 79.3084C82.8544 79.2994 82.8589 79.5214 82.7229 79.5169L82.7184 79.5033Z" fill="#7A3C04"/>
    <path d="M62.4501 17.4549C62.4501 17.4549 73.1396 14.3238 83.0996 14.3238C93.0596 14.3238 103.763 17.6271 103.763 17.6271C103.763 17.6271 94.7951 12.8964 83.0996 12.8964C70.5069 12.8964 62.4501 17.4595 62.4501 17.4595V17.4549Z" fill="#7A3C04"/>
    <path d="M55.5202 47.992C55.5202 47.992 51.1112 45.0783 47.2187 45.101C43.5664 45.1236 40.6074 47.992 40.6074 47.992C40.6074 47.992 43.4803 46.5465 47.4861 46.5465C51.4918 46.5465 55.5202 47.992 55.5202 47.992Z" fill="#7A3C04"/>
    <path d="M41.5278 60.5529C41.5278 60.5529 43.2679 57.3945 45.9731 56.3296C49.6073 54.8977 52.7385 56.2526 52.7385 56.2526C52.7385 56.2526 49.3128 56.3659 46.4127 57.6165C43.5126 58.8672 41.5278 60.5529 41.5278 60.5529Z" fill="#7A3C04"/>
    <path d="M111.924 47.6748C111.924 47.6748 114.47 44.7792 118.453 44.6977C122.437 44.6116 125.291 47.5253 125.291 47.5253C125.291 47.5253 121.276 45.8622 118.544 46.0979C115.812 46.3335 111.924 47.6748 111.924 47.6748Z" fill="#7A3C04"/>
    <path d="M112.24 56.7285C112.24 56.7285 116.776 55.5186 120.075 56.7285C123.373 57.9384 124.447 60.3853 124.447 60.3853C124.447 60.3853 122.177 58.6317 119.191 57.739C116.422 56.9143 112.235 56.7285 112.235 56.7285H112.24Z" fill="#7A3C04"/>
    <path d="M124.107 15.6196C122.761 20.2643 120.727 24.5011 119.236 27.9993C117.885 31.1713 116.979 33.7361 117.432 35.4489C117.432 35.4489 115.692 32.7392 108.637 24.8636C101.926 17.3732 102.56 14.6544 102.56 14.6544C105.678 11.0112 107.771 12.7059 111.437 9.18501C114.759 5.99491 114.351 0.792871 115.38 0.471142C115.642 0.389577 116.499 0.75662 117.591 1.49524H117.595C120.804 3.66577 126.019 9.01735 124.107 15.6196Z" fill="#FD9A3F"/>
    <path d="M124.107 15.6197C122.761 20.2643 120.727 24.5012 119.236 27.9994C120.577 23.8577 119.227 19.3988 118.987 18.6738C120.111 22.5618 116.671 26.4905 116.671 26.4905C116.957 25.0178 116.327 23.6584 115.77 22.7974C115.384 22.2038 115.031 21.8458 115.031 21.8458C115.031 21.8458 115.448 27.5916 113.178 26.998C112.942 26.9391 112.675 26.8122 112.376 26.5992C108.728 24.0027 118.112 15.7012 119.141 9.51588C119.866 5.1884 118.162 2.32909 117.704 1.64938C117.659 1.58594 117.627 1.54516 117.609 1.51797C117.609 1.51797 117.605 1.51797 117.605 1.50891C117.632 1.52251 117.659 1.54063 117.686 1.56329L117.768 1.6222C120.985 3.85617 125.988 9.13524 124.107 15.6197Z" fill="#FFBC9B"/>
    <path d="M124.107 15.6199C122.761 20.2645 120.727 24.5014 119.236 27.9996C120.577 23.8579 119.227 19.399 118.987 18.674C120.11 22.5619 116.671 26.4907 116.671 26.4907C116.957 25.018 116.327 23.6585 115.769 22.7976C115.049 20.1558 119.598 14.9809 120.459 9.77436C121.057 6.14924 118.343 2.32475 117.686 1.56348L117.768 1.62238C120.985 3.85636 125.988 9.13543 124.107 15.6199Z" fill="#FFDBC7"/>
    <path d="M113.159 27.0705C110.087 26.2322 111.727 22.7113 112.765 20.8489C113.911 18.7554 115.244 16.7978 116.417 14.7723C117.573 12.7558 118.81 10.7303 118.987 8.40568C119.24 6.12186 118.833 3.7021 117.618 1.70375C117.586 1.65391 117.6 1.59047 117.65 1.55875C117.695 1.53156 117.754 1.54516 117.786 1.59047C119.48 4.08727 119.916 7.31362 119.317 10.259C118.343 14.3826 115.448 17.6316 113.282 21.148C112.226 22.8427 110.431 25.9331 113.191 26.9209C113.282 26.9436 113.245 27.0931 113.155 27.0705H113.159Z" fill="#7A3C04"/>
    <path d="M102.497 14.6001C103.077 13.8389 103.761 13.141 104.582 12.5973C106.399 11.4644 108.592 11.1608 110.21 9.73343C112.28 8.20182 113.372 5.85909 113.916 3.3487C114.03 2.87743 114.265 1.71287 114.406 1.24613C114.551 0.774868 114.759 0.0634395 115.425 0C116.372 0.0770336 117.179 0.666114 117.936 1.16004C121.497 3.5662 125.24 8.29245 124.937 13.1909C124.837 14.7859 124.329 16.381 123.799 17.8673C122.281 22.3443 120.015 26.5177 118.294 30.9041C117.786 32.3405 117.22 33.8857 117.523 35.4174C117.537 35.4672 117.505 35.517 117.455 35.5261C117.41 35.5352 117.36 35.508 117.346 35.4627C116.948 33.8857 117.46 32.2726 117.927 30.7727C119.843 25.2308 122.752 20.0242 123.98 14.2739C124.837 9.26669 120.994 4.30935 117.324 1.876C116.78 1.51348 116.191 1.13285 115.588 0.933466C115.516 0.901747 115.403 0.915341 115.52 0.897215C115.208 1.36395 114.954 2.86384 114.768 3.53902C114.161 6.36207 112.634 9.19872 110.078 10.7485C108.492 11.8768 106.471 12.0716 104.813 12.9643C104.002 13.4039 103.286 14.0201 102.624 14.6908C102.561 14.7633 102.434 14.6636 102.502 14.5865L102.497 14.6001Z" fill="#7A3C04"/>
    <path d="M115.693 1.64943C116.568 1.49083 119.219 5.12048 118.371 8.11119C117.524 11.1019 110.695 20.0559 110.7 23.6584C110.7 25.9603 110.546 27.0841 109.608 23.2914C108.67 19.4986 104.02 16.8704 104.505 15.1802C104.99 13.49 108.765 13.1048 111.031 11.2424C116.917 6.40286 114.619 1.84428 115.693 1.64943Z" fill="#FDA44B"/>
    <path d="M41.2407 15.6197C42.5865 20.2644 44.6211 24.5012 46.112 27.9995C47.4623 31.1714 48.3686 33.7362 47.9154 35.4491C47.9154 35.4491 49.6555 32.7393 56.7109 24.8637C63.4219 17.3734 62.7875 14.6545 62.7875 14.6545C59.6699 11.0113 57.5764 12.706 53.9105 9.18513C50.589 5.99503 50.9968 0.792993 49.9682 0.471264C49.7053 0.389699 48.8489 0.756742 47.7568 1.49536H47.7523C44.5441 3.66589 39.3285 9.01747 41.2407 15.6197Z" fill="#FD9A3F"/>
    <path d="M41.2413 15.6197C42.5872 20.2643 44.6218 24.5012 46.1126 27.9994C44.7713 23.8577 46.1216 19.3988 46.3618 18.6738C45.238 22.5618 48.6773 26.4905 48.6773 26.4905C48.3919 25.0178 49.0217 23.6584 49.5791 22.7974C49.9643 22.2038 50.3177 21.8458 50.3177 21.8458C50.3177 21.8458 49.9008 27.5916 52.1711 26.998C52.4067 26.9391 52.674 26.8122 52.9731 26.5992C56.6209 24.0027 47.2364 15.7012 46.2077 9.51588C45.4827 5.1884 47.1865 2.32909 47.6442 1.64938C47.6895 1.58594 47.7212 1.54516 47.7394 1.51797C47.7394 1.51797 47.7439 1.51797 47.7439 1.50891C47.7167 1.52251 47.6895 1.54063 47.6623 1.56329L47.5808 1.6222C44.3635 3.85617 39.3608 9.13524 41.2413 15.6197Z" fill="#FFBC9B"/>
    <path d="M41.2413 15.6196C42.5872 20.2643 44.6218 24.5011 46.1126 27.9994C44.7713 23.8577 46.1216 19.3988 46.3618 18.6738C45.238 22.5617 48.6773 26.4904 48.6773 26.4904C48.3919 25.0177 49.0217 23.6583 49.5791 22.7973C50.2996 20.1555 45.7501 14.9807 44.8891 9.77411C44.291 6.149 47.0053 2.32451 47.6623 1.56323L47.5808 1.62214C44.3635 3.85612 39.3608 9.13519 41.2413 15.6196Z" fill="#FFDBC7"/>
    <path d="M52.1525 26.9211C55.9498 25.4846 51.3232 20.2463 50.1088 18.2117C48.7857 16.2361 47.4172 14.2558 46.5607 12.0083C45.2557 8.65504 45.5412 4.59038 47.5577 1.59513C47.5894 1.54982 47.6528 1.53623 47.6981 1.56795C47.7434 1.59967 47.757 1.66311 47.7253 1.70842C46.5109 3.70676 46.1031 6.12652 46.3568 8.41035C46.5336 10.7349 47.7706 12.7605 48.9261 14.777C50.1043 16.8025 51.4365 18.7555 52.5784 20.8535C53.3533 22.4441 54.7988 24.7732 53.385 26.4045C53.0406 26.7172 52.6509 26.9755 52.1887 27.0706C52.148 27.0797 52.1072 27.0525 52.0981 27.0117C52.089 26.9709 52.1117 26.9347 52.1525 26.9256V26.9211Z" fill="#7A3C04"/>
    <path d="M62.7292 14.7043C62.063 14.0337 61.3471 13.4219 60.5405 12.9779C58.882 12.0806 56.861 11.8903 55.275 10.762C52.7148 9.21227 51.1877 6.37109 50.585 3.55257C50.3992 2.87739 50.1455 1.3775 49.8328 0.910765C49.9506 0.928891 49.8374 0.915297 49.7649 0.947016C49.1576 1.1464 48.5731 1.52703 48.0293 1.88955C44.3498 4.3365 40.5253 9.26212 41.3727 14.2874C42.6007 20.0378 45.5099 25.2443 47.4267 30.7862C47.8889 32.2861 48.4054 33.8948 48.0067 35.4762C47.9931 35.5261 47.9432 35.5532 47.8979 35.5397C47.8481 35.5261 47.8209 35.4762 47.8345 35.4309C48.1336 33.8993 47.5717 32.3496 47.0641 30.9176C45.3422 26.5313 43.0765 22.3578 41.5585 17.8808C41.0283 16.3945 40.5208 14.7949 40.4211 13.2044C40.1175 8.30599 43.8605 3.57522 47.4221 1.17359C48.1789 0.675133 48.9809 0.0905835 49.9325 0.0135498C50.5986 0.0769893 50.8071 0.788418 50.9521 1.25968C51.5321 3.7021 51.9988 6.40734 53.6618 8.33318C54.8627 9.72432 56.3988 10.7801 58.1479 11.4055C59.0225 11.7453 59.9559 12.0716 60.7761 12.6108C61.5918 13.1546 62.2806 13.8524 62.8606 14.6137C62.9195 14.6907 62.8062 14.7904 62.7382 14.7179L62.7292 14.7043Z" fill="#7A3C04"/>
    <path d="M49.6561 1.64943C48.7815 1.49083 46.1306 5.12048 46.978 8.11119C47.8254 11.1019 54.6542 20.0559 54.6497 23.6584C54.6497 25.9603 54.8037 27.0841 55.7417 23.2914C56.6797 19.4986 61.3289 16.8704 60.8441 15.1802C60.3592 13.49 56.5846 13.1048 54.3189 11.2424C48.4326 6.40286 50.73 1.84428 49.6561 1.64943Z" fill="#FDA44B"/>
    <path d="M109.055 38.245C108.851 39.0426 104.053 40.9457 99.843 40.9593C95.724 40.9729 92.7061 39.9171 92.5294 39.0018C92.3844 38.1861 94.3147 32.4086 99.8748 32.0687C105.439 31.7244 109.264 37.452 109.055 38.245Z" fill="#FBFBFB"/>
    <path d="M100.372 41.0908C103.063 41.0908 105.243 38.9098 105.243 36.2195C105.243 33.5292 103.063 31.3483 100.372 31.3483C97.6819 31.3483 95.501 33.5292 95.501 36.2195C95.501 38.9098 97.6819 41.0908 100.372 41.0908Z" fill="#FFBE2C" stroke="#E5A413" stroke-width="0.86" stroke-miterlimit="10"/>
    <path d="M100.604 39.9659C101.211 39.9286 101.6 38.2217 101.473 36.1534C101.346 34.0851 100.751 32.4388 100.144 32.4761C99.5367 32.5134 99.1478 34.2204 99.275 36.2886C99.4023 38.3569 99.9975 40.0033 100.604 39.9659Z" fill="#350803"/>
    <path d="M101.758 35.5081C102.224 35.5081 102.601 35.1307 102.601 34.6652C102.601 34.1997 102.224 33.8224 101.758 33.8224C101.293 33.8224 100.916 34.1997 100.916 34.6652C100.916 35.1307 101.293 35.5081 101.758 35.5081Z" fill="#FBFBFB"/>
    <path d="M97.6764 37.0715C97.9492 37.0715 98.1703 36.8503 98.1703 36.5775C98.1703 36.3048 97.9492 36.0836 97.6764 36.0836C97.4036 36.0836 97.1825 36.3048 97.1825 36.5775C97.1825 36.8503 97.4036 37.0715 97.6764 37.0715Z" fill="#FBFBFB"/>
    <path d="M109.054 38.2495C109.258 37.452 105.438 31.7243 99.8735 32.0687C94.309 32.4131 92.3786 38.1997 92.5281 39.0017L93.3438 34.9552L99.724 28.6022L110.649 35.0866L109.05 38.2495H109.054Z" fill="#F47F2D"/>
    <path opacity="0.1" d="M109.055 38.245C109.055 38.245 105.417 33.7544 100.378 33.555C95.4341 33.3602 92.6337 38.7933 92.5295 38.9972C92.3845 38.1861 94.3149 32.4086 99.8749 32.0687C105.439 31.7244 109.264 37.452 109.055 38.245Z" fill="black"/>
    <path d="M92.506 39.0063C92.5649 37.0759 93.6841 35.286 94.9892 33.9085C98.7729 30.0749 104.949 31.534 107.935 35.5942C108.47 36.3826 109.186 37.2617 109.141 38.2677C109.132 38.313 109.091 38.3402 109.046 38.3311C109.009 38.3221 108.982 38.2949 108.982 38.2586C108.765 37.4022 107.994 36.6953 107.423 36.0337C104.247 32.5627 99.2306 30.9268 95.3608 34.3027C93.9923 35.4945 92.8549 37.3342 92.5105 39.0063H92.506Z" fill="#350803"/>
    <path d="M113.405 41.3217C113.405 41.3217 108.312 37.5199 101.075 37.6286C95.9228 37.7057 91.3643 41.0272 91.3643 41.0272L97.6493 44.7293L106.893 44.8653L113.405 41.3172V41.3217Z" fill="#FD9A3F"/>
    <path d="M92.7378 40.1662C92.7378 40.1662 96.1046 37.4882 101.474 37.6286C106.839 37.7736 113.405 41.3217 113.405 41.3217C112.939 41.9335 108.058 39.3234 101.651 39.1331C96.3674 38.9745 93.0233 40.6511 92.7423 40.1662H92.7378Z" fill="#FDA44B"/>
    <path d="M113.287 41.4804C107.287 37.8054 99.1123 36.6091 92.8771 40.352C92.646 40.5288 92.356 40.1708 92.5962 39.985C97.1412 36.5094 103.481 36.6091 108.637 38.544C110.373 39.2011 112.031 40.0394 113.518 41.1677C113.708 41.3172 113.495 41.6254 113.287 41.4758V41.4804Z" fill="#7A3C04"/>
    <path d="M56.9656 38.245C57.1696 39.0426 61.9683 40.9457 66.178 40.9593C70.297 40.9729 73.3149 39.9171 73.4916 39.0018C73.6366 38.1861 71.7063 32.4086 66.1462 32.0687C60.5817 31.7244 56.7572 37.452 56.9656 38.245Z" fill="#FBFBFB"/>
    <path d="M65.6486 41.0906C68.3389 41.0906 70.5198 38.9097 70.5198 36.2194C70.5198 33.5291 68.3389 31.3481 65.6486 31.3481C62.9583 31.3481 60.7773 33.5291 60.7773 36.2194C60.7773 38.9097 62.9583 41.0906 65.6486 41.0906Z" fill="#FFBE2C" stroke="#E5A413" stroke-width="0.86" stroke-miterlimit="10"/>
    <path d="M66.7424 36.2862C66.8697 34.2179 66.4807 32.511 65.8737 32.4737C65.2667 32.4363 64.6716 34.0827 64.5443 36.151C64.4171 38.2192 64.806 39.9261 65.413 39.9635C66.02 40.0008 66.6152 38.3544 66.7424 36.2862Z" fill="#350803"/>
    <path d="M67.2206 35.3539C67.6861 35.3539 68.0635 34.9765 68.0635 34.5111C68.0635 34.0456 67.6861 33.6682 67.2206 33.6682C66.7552 33.6682 66.3778 34.0456 66.3778 34.5111C66.3778 34.9765 66.7552 35.3539 67.2206 35.3539Z" fill="#FBFBFB"/>
    <path d="M63.1387 36.9172C63.4115 36.9172 63.6326 36.696 63.6326 36.4232C63.6326 36.1505 63.4115 35.9293 63.1387 35.9293C62.8659 35.9293 62.6448 36.1505 62.6448 36.4232C62.6448 36.696 62.8659 36.9172 63.1387 36.9172Z" fill="#FBFBFB"/>
    <path d="M56.9613 38.2495C56.7573 37.452 60.5773 31.7243 66.1419 32.0687C71.7064 32.4131 73.6368 38.1997 73.4872 39.0017L72.6716 34.9552L66.2914 28.6022L55.3662 35.0866L56.9658 38.2495H56.9613Z" fill="#F47F2D"/>
    <path opacity="0.1" d="M56.9656 38.245C56.9656 38.245 60.6043 33.7544 65.6433 33.555C70.587 33.3602 73.3874 38.7933 73.4916 38.9972C73.6366 38.1861 71.7063 32.4086 66.1462 32.0687C60.5817 31.7244 56.7572 37.452 56.9656 38.245Z" fill="black"/>
    <path d="M73.4642 38.9972C73.002 36.3781 70.8269 33.8314 68.3392 32.9116C64.8047 31.5295 61.021 33.4055 58.6012 36.0337C58.0257 36.6907 57.2599 37.4022 57.0424 38.2586C57.0424 38.3039 57.0016 38.3356 56.9563 38.3356C56.9201 38.3356 56.8883 38.3039 56.8838 38.2722C56.834 37.2662 57.5544 36.3871 58.0892 35.5987C61.0753 31.5386 67.2562 30.0794 71.0353 33.913C72.073 34.9462 72.8207 36.2195 73.2829 37.5925C73.4188 38.0502 73.5548 38.5214 73.514 39.0108C73.514 39.0244 73.5004 39.0335 73.4914 39.0335C73.4732 39.0335 73.4687 39.0199 73.4687 39.0018L73.4642 38.9972Z" fill="#350803"/>
    <path d="M52.6155 41.322C52.6155 41.322 57.7088 37.5201 64.9454 37.6289C70.0976 37.7059 74.6562 41.0274 74.6562 41.0274L68.3711 44.7296L59.1271 44.8655L52.6155 41.3174V41.322Z" fill="#FD9A3F"/>
    <path d="M73.2796 40.1663C73.2796 40.1663 69.9128 37.4883 64.5431 37.6288C59.1779 37.7738 52.6119 41.3218 52.6119 41.3218C53.0787 41.9336 57.959 39.3235 64.3664 39.1332C69.65 38.9746 72.9941 40.6512 73.2751 40.1663H73.2796Z" fill="#FDA44B"/>
    <path d="M52.4985 41.1678C58.3757 36.8901 67.298 35.4174 73.4199 39.9851C73.6465 40.1709 73.3836 40.5289 73.1389 40.3521C66.9037 36.6092 58.7337 37.8055 52.7296 41.4804C52.5347 41.6255 52.2945 41.3264 52.4985 41.1723V41.1678Z" fill="#7A3C04"/>
    <path d="M95.1024 18.9638C95.5691 19.2674 99.7833 18.8868 104.075 20.944C108.216 22.9242 110.781 27.0569 111.202 27.5689C111.366 27.7683 111.411 27.6188 111.329 27.4783C110.935 26.8031 109.213 22.3805 104.555 19.784C100.703 17.6452 96.8515 17.7766 95.841 18.0303C95.5691 18.0983 94.6583 18.6738 95.1024 18.9638Z" fill="#FDA44B"/>
    <path d="M94.4948 21.9274C95.2471 22.2808 99.4839 21.302 103.694 23.2687C107.903 25.2307 110.962 27.6414 111.184 27.868C111.356 28.0447 111.619 28.0719 111.51 27.791C111.483 27.7094 111.424 27.6097 111.329 27.4783C110.889 26.8802 108.905 22.9696 104.206 20.4501C100.318 18.3748 96.0627 18.4155 95.0749 18.7463C94.9117 18.8007 94.7214 19.2131 94.5764 19.7251C94.3181 20.6087 94.1822 21.7824 94.4994 21.9274H94.4948Z" fill="#541108"/>
    <path d="M94.5769 19.725C94.7763 19.7114 99.8107 19.3398 104.134 21.3246C108.307 23.2368 110.786 26.871 111.28 27.519C111.37 27.6368 111.425 27.6096 111.329 27.4782C110.89 26.8801 108.905 22.9695 104.206 20.45C100.318 18.3746 96.0632 18.4154 95.0754 18.7462C94.9122 18.8006 94.7219 19.2129 94.5769 19.725Z" fill="#884227"/>
    <path d="M70.8327 18.9638C70.366 19.2674 66.1518 18.8868 61.8605 20.944C57.7189 22.9242 55.1541 27.0569 54.7327 27.5689C54.5695 27.7683 54.5242 27.6188 54.6058 27.4783C55 26.8031 56.722 22.3805 61.3802 19.784C65.2319 17.6452 69.0836 17.7766 70.0941 18.0303C70.366 18.0983 71.2768 18.6738 70.8327 18.9638Z" fill="#FDA44B"/>
    <path d="M71.4443 21.9274C70.692 22.2808 66.4552 21.302 62.2455 23.2687C58.0359 25.2307 54.9772 27.6414 54.7551 27.868C54.583 28.0447 54.3201 28.0719 54.4289 27.791C54.4561 27.7094 54.515 27.6097 54.6101 27.4783C55.0497 26.8802 57.0344 22.9696 61.7335 20.4501C65.6214 18.3748 69.8764 18.4155 70.8642 18.7463C71.0274 18.8007 71.2177 19.2131 71.3627 19.7251C71.621 20.6087 71.7569 21.7824 71.4397 21.9274H71.4443Z" fill="#541108"/>
    <path d="M71.3634 19.725C71.164 19.7114 66.1297 19.3398 61.8067 21.3246C57.6333 23.2368 55.1546 26.871 54.6607 27.519C54.5701 27.6368 54.5157 27.6096 54.6109 27.4782C55.0504 26.8801 57.0352 22.9695 61.7342 20.45C65.6221 18.3746 69.8771 18.4154 70.865 18.7462C71.0281 18.8006 71.2184 19.2129 71.3634 19.725Z" fill="#884227"/>
    <path d="M83.3288 71.4238C65.7425 71.4238 52.0305 56.0488 57.7129 47.7382C62.6385 40.5333 67.691 48.3681 83.3288 48.3681C98.9666 48.3681 103.861 40.642 108.945 47.7382C114.713 55.7859 100.476 71.4238 83.3288 71.4238Z" fill="#FDEFD4"/>
    <path d="M95.4274 67.5449C95.4274 67.5449 89.8945 76.3041 83.2923 76.3041C75.5481 76.3041 71.2297 67.5449 71.2297 67.5449C71.2297 67.5449 71.9457 59.5787 83.1745 59.5787C94.4033 59.5787 95.4274 67.5449 95.4274 67.5449Z" fill="#FDEFD4"/>
    <path d="M95.4953 67.5857C91.0636 74.8903 83.6729 80.3053 75.8744 73.8344C73.8579 72.1035 72.2538 69.9556 71.1481 67.5811C71.13 67.5358 71.1481 67.486 71.1889 67.4678C71.2297 67.4497 71.2796 67.4678 71.3022 67.5086C71.9683 68.6098 72.7251 69.6656 73.5724 70.6262C78.1537 76.0186 84.2484 77.8855 90.044 73.0732C92.0605 71.4872 93.8142 69.5523 95.3548 67.4996C95.4047 67.4135 95.5542 67.4996 95.4953 67.5857Z" fill="#89543B"/>
    <path d="M83.188 65.3654C88.4263 65.3654 92.0831 73.0868 83.2922 73.0868C74.6191 73.0868 77.2338 65.3654 83.188 65.3654Z" fill="#FFF7E9"/>
    <path d="M87.021 58.0608C86.3549 60.254 91.4709 62.6375 95.1821 60.553C98.3903 58.7541 100.787 53.7106 98.5761 51.9796C96.2243 50.1399 88.027 54.7438 87.021 58.0608Z" fill="#FFF7E9"/>
    <path d="M79.4547 58.0608C80.1208 60.254 75.0049 62.6375 71.2937 60.553C68.0855 58.7541 65.6884 53.7106 67.8997 51.9796C70.2515 50.1399 78.4488 54.7438 79.4547 58.0608Z" fill="#FFF7E9"/>
    <path d="M100.471 57.3447C99.0983 58.8491 97.2178 63.7566 93.0715 63.9152C87.4209 64.1282 83.1795 59.5832 83.1795 59.5832H83.1704C83.1704 59.5832 78.9291 64.1282 73.2784 63.9152C69.1322 63.7566 67.2517 58.8491 65.8787 57.3447C65.8787 57.3447 67.3061 64.4862 73.2784 65.0118C79.2508 65.5375 82.3684 61.1466 83.1523 61.1783C83.9363 61.21 88.6398 65.5511 93.1984 65.1432C98.6678 64.6539 100.471 57.3447 100.471 57.3447Z" fill="#F7E1BC"/>
    <path d="M103.168 57.3901C101.065 55.5594 100.014 58.5048 99.017 59.973C97.9113 61.7448 96.4567 63.5165 94.3406 64.1283C93.969 64.2551 93.5023 64.305 93.1171 64.3503C89.2428 64.5044 85.5315 62.6057 82.8988 59.8461L83.1843 59.9684C83.148 59.973 83.4698 59.8461 83.4607 59.8461C81.2539 62.1163 78.3855 63.7748 75.2317 64.2234C71.448 64.8125 69.2684 63.009 67.3607 59.9594C66.3683 58.4912 65.2762 55.5458 63.1873 57.3901C63.1601 57.4173 63.1102 57.4218 63.083 57.3901C63.0604 57.3629 63.0604 57.3221 63.083 57.2949C63.441 56.9098 63.9123 56.6016 64.4742 56.5518C65.0406 56.4883 65.5844 56.7919 65.965 57.1681C67.8772 59.3839 69.1778 62.5604 72.2274 63.3489C72.5491 63.4486 72.9433 63.4712 73.2741 63.5029C75.8797 63.5664 78.4173 62.6057 80.5651 61.1647C81.3944 60.621 82.1919 59.9866 82.8897 59.3159C82.9668 59.2344 83.071 59.1936 83.1752 59.1936C83.2885 59.1936 83.3927 59.2389 83.4652 59.3159C84.1676 59.982 84.9697 60.6074 85.8034 61.1466C87.9513 62.574 90.4798 63.5256 93.0808 63.4667C93.4071 63.435 93.8059 63.4123 94.1231 63.3171C96.5609 62.6918 98.0427 60.3581 99.4112 58.3915C99.9957 57.5713 100.712 56.4385 101.885 56.5427C102.447 56.5971 102.918 56.9052 103.276 57.2949C103.335 57.3584 103.231 57.4581 103.172 57.3901H103.168Z" fill="#89543B"/>
    <path d="M76.6444 65.6326C79.2047 61.5408 86.9851 61.2598 89.3958 65.6326C89.4456 65.7323 89.2961 65.8184 89.2372 65.7187C86.5909 62.651 81.4341 62.6102 78.1307 64.6176C77.6323 64.9212 77.1701 65.2973 76.7759 65.7278C76.717 65.8003 76.5946 65.7097 76.649 65.6281L76.6444 65.6326Z" fill="#89543B"/>
    <path d="M71.7881 22.7793C71.7881 22.7793 74.1127 27.868 74.1127 33.1879C74.1127 39.3053 71.847 45.1009 71.847 45.1009C71.847 45.1009 74.8785 48.871 83.1709 49.2607C91.4634 49.655 94.7894 45.7625 94.7894 45.7625C94.7894 45.7625 92.1386 38.2948 92.1114 33.1834C92.0887 28.0765 94.214 22.5935 94.214 22.5935L71.7836 22.7748L71.7881 22.7793Z" fill="#FD9A3F"/>
    <path d="M82.8413 42.3095C78.0335 42.3095 74.8751 43.3925 74.2951 43.0844C73.3798 42.595 74.8752 36.097 75.573 32.635C75.8358 31.339 80.9064 30.8859 82.8368 30.8859C84.7672 30.8859 89.8151 31.3435 90.1006 32.635C90.8846 36.1604 92.1579 42.4318 91.3785 43.0844C90.8438 43.533 87.9165 42.3095 82.8323 42.3095H82.8413Z" fill="#FDA44B"/>
    <path d="M73.8819 28.5749C74.5163 31.5475 74.326 34.6152 73.8638 37.5969C73.4197 40.5967 72.7944 43.5421 71.8066 46.4286C71.6298 46.9089 70.9048 46.6551 71.077 46.1658C72.595 41.9833 73.5693 37.5199 73.9137 33.0791C73.9816 31.5928 73.8774 30.0974 73.6327 28.6247C73.601 28.4661 73.8593 28.4118 73.8865 28.5794L73.8819 28.5749Z" fill="#7A3C04"/>
    <path d="M92.6097 28.6203C92.0659 31.5793 92.3423 34.5791 92.8861 37.5109C93.4027 40.4382 94.1186 43.3836 95.1608 46.1568C95.333 46.6281 94.6261 46.909 94.4358 46.4332C93.448 43.5467 92.8226 40.5968 92.374 37.5925C91.9118 34.6108 91.717 31.5431 92.3559 28.5705C92.3876 28.4119 92.6414 28.4527 92.6097 28.6158V28.6203Z" fill="#7A3C04"/>
    <path d="M76.9097 35.4491C76.9097 35.4491 79.3249 34.2392 83.172 34.2891C84.9755 34.3117 87.0962 34.6153 89.4344 35.4491C89.4344 35.4491 87.7623 33.2378 83.172 33.1879C78.5817 33.1381 76.9097 35.4491 76.9097 35.4491Z" fill="#7A3C04"/>
    <path d="M76.2557 26.4135C76.2557 26.4135 79.3598 25.2217 83.1706 25.267C86.9815 25.3123 89.936 26.4135 89.936 26.4135C89.936 26.4135 86.977 23.8985 83.0936 23.9438C79.2102 23.9892 76.2512 26.4135 76.2512 26.4135H76.2557Z" fill="#7A3C04"/>
    <path d="M95.4289 47.353C95.4289 49.8952 86.0399 55.8539 83.3301 55.8539C80.1899 55.8539 71.2313 49.8045 71.2313 47.353C71.2313 42.7084 81.1324 44.5345 83.3301 44.5345C85.5279 44.5345 95.4289 42.8217 95.4289 47.353Z" fill="#541108"/>
    <path d="M91.0294 51.7712C89.8558 52.5869 87.5856 54.1411 86.5071 54.7166C88.3876 52.8497 87.1505 50.7064 89.6791 49.9677C91.1472 49.5373 91.759 51.0689 91.0339 51.7712H91.0294Z" fill="#350803"/>
    <path d="M75.4636 51.7711C76.6372 52.5868 78.9075 54.141 79.9859 54.7165C78.1054 52.8496 79.3425 50.7062 76.814 49.9676C75.3458 49.5371 74.7341 51.0687 75.4591 51.7711H75.4636Z" fill="#350803"/>
    <path d="M95.4289 47.353C93.5937 43.9726 85.7363 45.9211 83.3301 45.9211C80.924 45.9211 73.0303 43.8684 71.2313 47.353C71.2313 42.7084 81.1324 44.5345 83.3301 44.5345C85.5279 44.5345 95.4289 42.8217 95.4289 47.353Z" fill="#884227"/>
    <path d="M95.4289 47.353C95.4289 49.8952 86.0399 55.8539 83.3301 55.8539C80.1899 55.8539 71.2313 49.8045 71.2313 47.353C71.2313 42.7084 81.1324 44.5345 83.3301 44.5345C85.5279 44.5345 95.4289 42.8217 95.4289 47.353Z" stroke="#350803" stroke-width="1.28" stroke-linecap="round" stroke-linejoin="round"/>
    <path d="M83.3303 45.9211C83.3938 46.27 86.0764 45.4634 90.2951 45.6175C92.2526 45.69 94.4821 46.7504 94.6271 46.4241C94.7721 46.0978 93.0638 45.2369 90.2362 45.1145C87.6352 45.0058 83.276 45.6084 83.3303 45.9211Z" fill="#C1755D"/>
  </g>
  <defs>
    <clipPath id="clip0_1_1025">
      <rect width="165.382" height="186" fill="white" transform="translate(0.617798)"/>
    </clipPath>
  </defs>
</svg>