<svg xmlns="http://www.w3.org/2000/svg" width="215" height="187" viewBox="0 0 215 187" fill="none">
  <g clip-path="url(#clip0_1_57)">
    <path d="M126.227 129.959C116.588 143.757 81.4658 148.946 63.1843 137.851C63.2419 137.72 57.265 139.088 52.4982 137.762C44.5675 134.995 44.7299 136.431 43.127 135.923C37.4382 134.13 34.0543 127.092 34.1119 120.106C34.1853 111.056 41.4455 103.724 50.4867 103.724C54.0749 103.724 57.396 104.882 60.0989 106.842C63.9805 103.645 75.5413 99.0232 81.7067 98.1585C90.837 96.4081 96.1853 97.7497 96.1853 97.7497C101.298 92.9545 110.24 91.3457 112.948 92.1789C140.889 100.774 130.894 124.545 126.227 129.959Z" fill="#FD9A3F"/>
    <path d="M86.2215 135.435L84.6919 143.946C77.3112 143.39 68.951 140.964 63.1784 137.851C63.2727 137.809 57.2382 139.025 52.4976 137.767C51.5495 137.599 48.3018 136.132 45.2793 135.991C45.2793 135.991 52.4871 136.452 54.4672 136.488C59.8364 136.583 58.2492 131.751 58.2492 131.751C65.0485 143.574 82.9843 136.111 86.2215 135.44V135.435Z" fill="#F47F2D"/>
    <path d="M61.5088 120.332C62.6036 128.481 85.5681 137.474 83.7923 118.267C81.5294 93.7511 60.3459 111.69 61.5088 120.332Z" fill="#FDA44B"/>
    <path d="M81.2831 128.434C81.2831 134.356 80.204 143.401 80.204 143.401C78.9521 143.197 77.7578 142.961 76.6106 142.704C76.7101 142.19 78.5488 136.42 78.9469 127.978C79.2193 122.176 78.5645 113.508 78.5645 113.508C78.5645 113.508 81.2831 120.908 81.2831 128.428V128.434Z" fill="#7A3C04"/>
    <path d="M81.2822 98.2369C64.5408 102.54 58.8416 112.984 58.8416 112.984L59.7687 109.614L60.0044 106.915C60.0044 106.915 62.0736 105.286 66.0389 103.341C67.0185 102.859 68.108 102.361 69.3181 101.858C70.13 101.528 70.9891 101.187 71.9058 100.857C73.1158 100.417 79.8941 98.6405 81.2822 98.2369Z" fill="#F47F2D"/>
    <path d="M69.8994 114.231C69.3913 111.664 68.438 108.624 67.4217 106.208C66.9084 104.997 66.395 103.986 66.0441 103.341C67.0236 102.859 68.1132 102.361 69.3232 101.858C69.7056 103.116 69.9047 104.426 69.9885 105.715C70.2818 110.311 69.9047 114.231 69.9047 114.231H69.8994Z" fill="#7A3C04"/>
    <path d="M126.227 129.959C116.588 143.757 81.4658 148.946 63.1843 137.851C63.2419 137.72 57.265 139.088 52.4982 137.762C44.5675 134.995 44.7299 136.431 43.127 135.923C37.4382 134.13 34.0543 127.092 34.1119 120.106C34.1853 111.056 41.4455 103.724 50.4867 103.724C54.0749 103.724 57.396 104.882 60.0989 106.842C63.9805 103.645 75.5413 99.0232 81.7067 98.1585C90.837 96.4081 96.1853 97.7497 96.1853 97.7497C101.298 92.9545 110.24 91.3457 112.948 92.1789C140.889 100.774 130.894 124.545 126.227 129.959Z" stroke="#7A3C04" stroke-width="1.7156" stroke-linecap="round" stroke-linejoin="round"/>
    <path d="M62.933 138.223C61.7544 137.337 60.6649 136.368 59.701 135.252C59.6329 135.173 59.6434 135.053 59.722 134.99C59.7953 134.927 59.9001 134.932 59.9682 134.99C61.0106 135.943 62.1997 136.766 63.4254 137.474C63.9597 137.799 63.4464 138.585 62.933 138.223Z" fill="#7A3C04"/>
    <path d="M126.233 130.179C122.137 138.333 97.0506 146.074 84.704 144.166C84.835 143.836 85.4374 142.002 85.8774 138.784C86.3855 135.189 86.7679 129.686 86.3174 121.961C85.3693 105.899 81.7078 98.3838 81.7078 98.3734C86.5689 97.2833 94.002 97.3043 96.1863 97.9698C101.299 93.1746 110.241 91.5658 112.954 92.4043C140.895 100.994 130.9 124.765 126.233 130.179Z" fill="#222222"/>
    <g style="mix-blend-mode:multiply" opacity="0.5">
      <path d="M96.1792 97.7496C93.822 100.213 93.1567 100.857 91.9153 101.989L93.822 98.4571C93.822 98.4571 85.0898 97.5347 81.6954 98.1531C87.4261 97.105 93.8272 97.3461 95.3463 97.5872L96.174 97.7496H96.1792Z" fill="black"/>
    </g>
    <g style="mix-blend-mode:multiply" opacity="0.5">
      <path d="M105.327 141.729C103.535 142.19 101.566 142.646 99.3969 143.092C94.1796 144.166 89.198 144.313 84.6931 143.946C84.7036 143.93 84.7088 143.909 84.7141 143.894C85.5522 142.169 86.2227 135.435 86.2227 135.435C92.8124 135.126 96.1806 126.741 96.1806 126.741C96.1806 126.741 101.634 135.571 105.321 141.729H105.327Z" fill="#D7D8DB"/>
    </g>
    <path d="M126.227 129.959C122.036 134.822 117.929 139.282 99.3964 143.092C94.1791 144.166 89.1975 144.313 84.6926 143.946C84.6926 143.946 87.2331 137.427 86.3112 121.741C85.3683 105.684 81.7015 98.1585 81.7015 98.1585C90.8371 96.4081 96.1801 97.7497 96.1801 97.7497C101.293 92.9546 110.234 91.3457 112.948 92.1842C140.889 100.774 130.894 124.545 126.227 129.959Z" stroke="black" stroke-width="1.7156" stroke-linecap="round" stroke-linejoin="round"/>
    <path d="M96.4829 98.0798C95.3829 98.9812 94.2723 99.9298 93.319 100.978C93.2456 101.067 93.1147 101.077 93.0256 100.999C92.9471 100.931 92.9366 100.815 92.9942 100.732C93.8638 99.5315 94.8538 98.4676 95.8752 97.409C96.3153 96.9688 96.9596 97.6711 96.4777 98.0694L96.4829 98.0798Z" fill="black"/>
    <path d="M136.094 124.267C117.132 120.51 112.637 107.146 110.301 101.308C112.187 95.9417 115.377 84.0087 114.942 77.568C117.142 37.0736 176.817 44.9869 173.454 81.0163C172.752 88.5838 171.364 101.471 174.575 108.053C175.397 109.484 149.509 126.93 136.094 124.267Z" fill="#FD9A3F"/>
    <path d="M141.155 95.9469C133.365 96.0989 117.593 91.3351 121.632 107.319C121.632 107.319 114.67 103.577 112.418 93.6305C112.287 93.054 112.936 92.2837 113.361 90.4494C114.78 85.1721 114.937 79.8214 115.084 74.7118C121.836 79.9786 141.16 95.9416 141.16 95.9416L141.155 95.9469Z" fill="#F47F2D"/>
    <path d="M127.504 102.451C127.504 102.451 134.119 103.928 140.893 104.332C147.66 104.735 154.282 103.661 154.282 103.661C154.282 103.661 147.068 106.958 140.893 106.622C134.004 106.25 127.504 102.445 127.504 102.445V102.451Z" fill="#7A3C04"/>
    <path d="M125.387 95.58C125.387 95.58 120.851 94.7206 116.975 92.6296C115.629 91.9011 114.628 91.246 113.36 90.4547C113.654 89.1812 113.931 87.8606 114.162 86.5452C114.162 86.5452 115.33 88.4004 118.394 90.8739C120.631 92.682 122.417 94.49 125.387 95.5853V95.58Z" fill="#7A3C04"/>
    <path d="M165.853 93.6777C165.853 93.6777 170.06 93.7406 170.06 96.5653V100.564L172.852 98.8135L172.831 90.6014L165.853 93.6777Z" fill="#F47F2D"/>
    <path d="M172.604 97.1051C171.677 97.6397 170.483 97.9908 169.21 98.2214C165.349 98.9131 160.918 98.8922 160.918 98.8922C164.291 98.693 166.743 97.4248 168.618 96.4972C171.358 95.1399 172.594 93.5991 172.594 93.5991C172.578 94.794 172.578 95.9679 172.61 97.1051H172.604Z" fill="#7A3C04"/>
    <path d="M136.094 124.267C117.132 120.51 112.637 107.146 110.301 101.308C110.301 101.308 112.009 96.3451 113.36 90.4494C113.654 89.1759 113.931 87.8553 114.162 86.5399C114.738 83.3798 115.089 80.1987 114.942 77.5679C114.455 68.7427 123.983 47.0359 147.095 50.3847C170.211 53.7335 174.391 72.8304 173.454 81.011C173.019 84.7738 172.657 89.2808 172.594 93.5938C172.579 94.7887 172.579 95.9626 172.61 97.0998C172.731 101.727 173.286 105.81 174.58 108.047C175.402 109.478 149.515 126.924 136.1 124.262L136.094 124.267Z" stroke="#7A3C04" stroke-width="1.7156" stroke-linecap="round" stroke-linejoin="round"/>
    <path d="M202.688 30.853C200.252 41.0094 192.986 42.2672 189.686 44.7565C183.479 54.5041 193.662 62.1187 190.886 73.8682C190.886 73.8682 189.744 72.1388 188.33 71.5833C188.33 71.5833 190.2 77.7987 187.821 79.9736C187.821 79.9736 187.418 77.2484 186.103 76.085C186.103 76.085 187.465 83.359 183.379 86.037C183.379 86.037 184.134 84.7059 183.406 82.8193C175.967 91.9432 153.301 99.9195 130.3 94.2963C116.325 90.3186 103.774 72.1074 103.941 70.1212C102.899 71.6305 103.376 73.4699 103.376 73.4699C100.489 70.2155 101.678 65.8134 101.678 65.8134C100.851 66.044 100.117 67.8258 100.117 67.8258C97.4563 61.0391 102.962 54.6613 102.962 54.6613C101.128 54.7084 99.4888 56.6789 99.4888 56.6789C102.438 41.8951 114.659 52.7484 114.224 30.8216C111.615 28.0807 107.823 25.0779 107.54 15.8072C107.535 8.6432 110.971 1.65742 115.439 0.556885C118.441 1.90897 118.457 7.77325 120.95 11.2006C122.846 13.8419 128.818 15.6604 130.51 18.0187C144.381 15.2359 169.812 21.1998 176.868 24.5748C179.524 22.1326 186.454 21.9282 189.304 20.6338C194.83 17.9768 197.282 13.9205 198.989 13.648C201.787 13.4541 204.327 23.6786 202.688 30.8321V30.853Z" fill="#FD9A3F"/>
    <path d="M182.506 40.0921C182.574 45.4848 188.063 47.167 188.063 47.167C186.398 58.078 192.809 62.0504 190.882 73.8628C190.882 73.8628 189.74 72.1334 188.325 71.5779C188.325 71.5779 190.195 77.7933 187.817 79.9682C187.817 79.9682 187.414 77.2431 186.099 76.0796C186.099 76.0796 187.461 83.3536 183.375 86.0316C183.375 86.0316 184.13 84.7005 183.401 82.8139C183.401 82.8139 176.487 90.2084 164.984 93.966C202.191 67.0186 169.206 30.9001 178.257 25.7485C184.119 22.971 187.016 24.3335 190.719 21.8023C194.428 19.2658 197.492 15.4297 197.995 15.4297C200.185 22.5622 183.475 33.2217 182.5 40.0869L182.506 40.0921Z" fill="#FDA44B"/>
    <path d="M169.567 64.152C169.567 64.152 173.496 63.5703 178.462 65.4255C180.814 66.3059 183.391 67.7261 185.895 70.0163C185.895 70.0163 183.354 65.436 178.902 63.8742C174.449 62.3125 169.567 64.1468 169.567 64.1468V64.152Z" fill="#7A3C04"/>
    <path d="M170.713 74.2821C173.364 74.1616 175.611 74.6857 177.413 75.4089C180.718 76.74 182.52 78.7576 182.52 78.7576C182.52 78.7576 181.31 75.3774 177.727 73.9729C174.144 72.5632 170.713 74.2821 170.713 74.2821Z" fill="#7A3C04"/>
    <path d="M202.688 30.8529C200.252 41.0093 192.987 42.2671 189.687 44.7564C192.824 40.2756 191.043 36.5443 190.53 35.6586C190.451 35.5224 190.404 35.4542 190.404 35.4542C190.43 35.5538 190.451 35.6586 190.467 35.7582C190.75 37.5819 189.336 39.9612 188.613 41.0408C188.398 41.3552 188.246 41.5543 188.215 41.6015C188.173 38.8606 186.868 37.7706 186.868 37.7706C186.868 37.7706 186.659 40.4328 186.056 41.9998C185.732 42.8331 185.302 43.3571 184.742 42.985C184.689 42.9483 184.647 42.9117 184.611 42.8855C179.739 38.6825 192.594 30.3918 198.319 21.3097C200.477 17.8981 198.639 14.3659 198.937 13.7265L198.984 13.6584C201.656 13.3911 204.385 23.7362 202.683 30.8425L202.688 30.8529Z" fill="#FFDBC7"/>
    <path d="M110.737 24.7057C110.784 24.9416 111.507 28.2117 113.529 30.1193C111.606 28.217 107.625 24.2655 107.536 15.8124C107.468 9.42402 110.003 4.90659 112.366 2.52209C111.103 4.02616 109.951 20.5447 115.551 26.2203C115.551 26.2203 111.962 25.3241 110.92 21.0268C110.92 21.0268 111.334 25.4342 113.382 27.8973C113.267 27.8187 111.433 26.5766 110.737 24.7057Z" fill="#FFBC9B"/>
    <path d="M175.224 26.1417C175.224 26.1417 158.268 19.0825 143.124 17.4736C145.094 17.4946 147.184 17.5837 149.305 17.7566C161.112 18.7261 176.874 24.5904 176.874 24.5904L175.23 26.1417H175.224Z" fill="#F47F2D"/>
    <path d="M133.019 43.0427L132.039 48.6659C132.039 48.6659 125.649 43.8864 117.844 44.8402C116.23 45.0394 113.595 45.3328 111.757 47.1461C91.2385 65.4202 124.732 93.3528 130.3 94.3014C116.361 90.3342 103.747 72.102 103.941 70.1263C102.899 71.6356 103.376 73.4751 103.376 73.4751C100.489 70.2206 101.678 65.8185 101.678 65.8185C100.851 66.0491 100.117 67.8309 100.117 67.8309C97.4563 61.0443 102.962 54.6664 102.962 54.6664C101.128 54.7136 99.4888 56.6841 99.4888 56.6841C102.438 41.9002 114.659 52.7536 114.224 30.8267C112.239 29.4275 110.594 24.952 110.735 24.7057C111.432 26.5818 113.265 27.8238 113.381 27.8972C111.332 25.4289 110.919 21.0267 110.919 21.0267C111.82 24.7371 114.612 25.911 115.361 26.1626C117.838 29.0921 116.136 31.3351 118.813 28.699C122.16 26.346 132.642 27.7976 133.014 28.6571C134.58 35.6219 133.899 40.7682 133.014 43.0374L133.019 43.0427Z" fill="#F47F2D"/>
    <path d="M130.62 18.0187L126.922 18.8781C126.922 18.8781 126.859 17.437 123.915 16.001C122.333 15.2307 118.98 11.9186 119.101 7.33301C119.368 7.87803 120.426 10.3621 120.955 11.2163C122.338 13.4541 124.921 13.9834 127.157 15.3459C128.42 16.1111 130.515 18.0396 130.515 18.0396C130.515 18.0396 130.552 18.0396 130.625 18.0239L130.62 18.0187Z" fill="#F47F2D"/>
    <path d="M199.388 22.7666C198.204 24.8576 196.072 28.5784 191.777 32.8601C187.403 37.2203 188.23 41.5752 188.215 41.5962C188.173 38.8553 186.868 37.7653 186.868 37.7653C186.868 37.7653 186.659 40.4275 186.056 41.9945C185.732 42.8278 185.302 43.3518 184.742 42.9797C184.689 42.943 184.647 42.9064 184.611 42.8802C179.739 38.6772 192.594 30.3865 198.319 21.3044C200.477 17.8928 198.833 14.0933 198.911 14.0461C198.911 14.0461 201.457 19.0981 199.383 22.7561L199.388 22.7666Z" fill="#FFBC9B"/>
    <path d="M164.947 93.8455C170.017 91.9798 174.789 89.3595 179.064 86.0526C180.478 84.9573 181.861 83.7782 183.081 82.5152C183.249 82.3318 183.537 82.3213 183.71 82.4942C184.307 83.6315 184.328 85.0779 183.768 86.2518L183.134 85.6544C184.569 84.7163 185.334 83.0602 185.643 81.3989C185.968 79.6905 185.936 77.851 185.664 76.1373C185.57 75.7233 186.125 75.4561 186.402 75.7391C187.576 76.8815 187.969 78.3699 188.267 79.9001L187.523 79.6329C188.472 78.7157 188.608 77.196 188.576 75.8963C188.534 74.4918 188.278 73.0506 187.901 71.7038C187.77 71.3526 188.168 71.012 188.493 71.1587C189.692 71.6776 190.52 72.5894 191.258 73.6114L190.441 73.7895C191.096 69.9744 190.818 66.0963 189.744 62.3807C188.33 57.7112 186.759 52.8217 187.523 47.8588C187.576 47.4029 187.654 46.7426 187.838 46.3128C188.953 43.8917 191.777 43.158 193.851 41.8583C203.092 37.1103 204.474 25.6909 201.164 16.7189C200.792 15.849 199.928 13.7789 198.89 14.151C197.659 14.7327 196.717 15.9171 195.643 16.8133C193.809 18.4798 191.777 19.9629 189.535 21.0372C187.256 22.0854 184.658 22.1797 182.327 22.7352C180.452 23.1178 178.687 23.8515 177.136 24.9467C177.01 25.0358 176.853 25.0463 176.722 24.9992C173.04 23.6628 169.279 22.4784 165.497 21.4146C157.938 19.2607 150.201 17.8247 142.317 17.9033C138.399 17.8876 134.455 18.0553 130.568 18.4693C130.432 18.485 130.306 18.4379 130.212 18.354C128.41 16.6351 126.508 15.3092 124.193 14.303C120.301 12.6994 119.07 8.8999 117.928 5.18953C117.362 3.54396 116.823 1.72546 115.22 0.955087C114.837 0.834553 114.371 1.23284 114.052 1.52108C107.446 6.98183 106.393 17.3845 110.05 24.8262C110.6 25.9005 111.265 26.9067 112.03 27.8396C112.794 28.7934 113.659 29.5847 114.56 30.528C114.638 30.6066 114.675 30.7115 114.675 30.8163C114.555 34.8568 114.293 38.9812 112.737 42.7702C112.208 44.0751 111.233 45.2333 109.95 45.8831C107.619 47.2457 105.183 48.3148 103.261 50.0494C101.302 51.7369 100.128 54.1581 99.945 56.7208L99.1541 56.3958C100.165 55.2901 101.38 54.3101 102.962 54.2157C103.355 54.1895 103.565 54.6822 103.313 54.9599C100.537 58.4292 98.8345 63.3502 100.547 67.6632L99.7146 67.658C100.155 66.7671 100.558 65.7713 101.569 65.3835C101.805 65.3154 102.051 65.4464 102.119 65.6823C102.145 65.7661 102.14 65.8552 102.119 65.9338C101.558 68.3969 101.988 71.2583 103.717 73.1764L102.947 73.5852C102.868 73.2393 102.842 72.9458 102.826 72.6209C102.674 71.9186 103.497 68.6328 104.366 69.9639C104.969 71.8138 105.98 73.6218 107.069 75.3041C112.517 83.359 121.39 90.3395 130.578 93.5468C134.387 94.8779 138.399 95.6168 142.448 95.8317C142.527 95.8317 142.59 95.905 142.584 95.9837C142.584 96.0623 142.516 96.1199 142.443 96.1199C140.4 96.1304 138.357 95.9627 136.325 95.6692C128.158 94.4534 120.652 90.3971 114.513 84.9626C109.887 80.8906 105.634 76.1321 103.507 70.2416L104.309 70.3779C103.722 71.2321 103.596 72.3798 103.811 73.3755C103.863 73.6166 103.717 73.8577 103.47 73.9101C103.308 73.9468 103.14 73.8891 103.036 73.7686C102.077 72.689 101.443 71.3422 101.171 69.9429C100.904 68.5227 100.914 67.1182 101.244 65.698L101.794 66.2483C101.192 66.5522 100.804 67.4012 100.526 68.0091C100.396 68.3707 99.8141 68.3602 99.6988 67.9934C99.2641 66.8509 98.9917 65.6351 98.955 64.414C98.9026 63.193 99.0545 61.9666 99.3584 60.7927C99.9765 58.4345 101.092 56.2806 102.622 54.373L102.973 55.1171C101.768 55.1748 100.616 56.0971 99.8246 56.9828C99.6622 57.1715 99.3793 57.1924 99.196 57.03C99.0807 56.9304 99.0283 56.7889 99.0441 56.6474C99.1069 55.9609 99.2169 55.2743 99.3898 54.6035C100.762 49.0851 106.042 47.2247 110.306 44.5939C113.36 42.1308 113.643 34.6053 113.779 30.8267L113.895 31.1255C113.083 30.2817 112.124 29.3961 111.338 28.4108C107.263 23.4898 106.31 16.567 107.677 10.4511C108.593 6.42632 110.872 2.64781 114.287 0.24236C114.644 0.0484562 115.157 -0.0615973 115.555 0.127066C117.472 0.970809 118.2 3.15092 118.782 4.91177C119.526 7.20193 120.207 9.59691 121.731 11.4783C122.48 12.3535 123.507 12.9614 124.596 13.5012C125.686 14.0515 126.843 14.5493 127.917 15.2935C128.955 16.0377 129.887 16.85 130.819 17.6937L130.463 17.5784C138.352 16.8185 146.319 16.6665 154.166 17.919C161.976 19.2659 169.572 21.5036 177.031 24.1607L176.612 24.2183C179.839 21.7552 184.124 21.6661 187.838 20.7176C191.552 19.5122 194.37 16.7294 197.225 14.172C199.676 11.9185 201.033 14.0567 201.992 16.3835C204.684 23.7309 204.506 32.9649 199.037 39.0074C197.01 41.2556 194.323 42.6601 191.704 44.0279C190.357 44.8035 188.754 45.6054 188.508 47.2457C188.021 50.3377 188.21 53.482 189.001 56.5111C189.975 60.2792 191.452 64.0262 191.651 67.9829C191.777 69.9691 191.646 71.9658 191.332 73.9258C191.274 74.3136 190.74 74.4394 190.52 74.1092C190.216 73.669 189.844 73.234 189.456 72.8619C189.063 72.4899 188.629 72.1702 188.173 71.9868L188.765 71.4417C189.346 73.6323 189.744 75.9015 189.278 78.1602C189.205 78.7629 188.267 80.9483 187.497 80.267C187.272 79.9054 187.319 79.4337 187.162 79.0249C186.911 78.0973 186.497 77.0387 185.811 76.4099L186.549 75.9906C187.073 79.5909 186.905 84.1241 183.626 86.4038C183.422 86.54 183.144 86.4824 183.008 86.278C182.914 86.1313 182.914 85.9531 182.992 85.8116C183.39 84.9416 183.343 83.8778 182.992 82.9764L183.726 83.1179C179.807 86.9802 175.161 90.0041 170.148 92.2209C168.482 92.9598 166.764 93.5625 165.03 94.0918C164.962 94.1127 164.884 94.0761 164.863 94.0027C164.842 93.9346 164.878 93.8612 164.947 93.8402V93.8455Z" fill="#7A3C04"/>
    <path d="M185.444 44.6776C182.055 42.0887 182.736 39.416 185.209 36.455C189.027 31.555 193.632 27.3101 197.204 22.2476C198.084 21.0004 198.844 19.7636 199.006 18.2281C199.163 17.1118 199.053 15.9484 198.912 14.8216C198.912 14.4495 198.729 13.9674 198.99 13.6635C198.875 13.8259 198.964 14.0303 199.001 14.2137C200.111 17.3476 200.001 20.0623 197.88 22.7193C194.26 27.8184 189.63 32.0424 185.664 36.8114C183.239 39.6099 182.459 41.8371 185.56 44.5466C185.649 44.6147 185.528 44.7562 185.444 44.6828V44.6776Z" fill="#7A3C04"/>
    <path d="M115.073 0.907848C109.887 4.744 111.636 15.6498 113.334 21.0476C114.067 23.3168 115.01 25.5598 116.45 27.4727C116.55 27.5932 116.356 27.7714 116.246 27.6404C114.596 25.8061 113.527 23.5474 112.689 21.2625C110.667 15.6603 108.928 4.22517 114.811 0.472874C115.088 0.320896 115.345 0.724425 115.073 0.902607V0.907848Z" fill="#7A3C04"/>
    <path d="M127.604 22.9451C127.604 22.9451 137.698 20.3195 146.042 21.3886C154.387 22.4577 166.639 28.6155 166.639 28.6155C166.639 28.6155 157.561 21.027 146.221 19.8164C136.069 18.7316 127.604 22.9398 127.604 22.9398V22.9451Z" fill="#7A3C04"/>
    <path d="M103.444 55.8718C103.444 55.8718 104.707 54.8918 107.363 54.7608C108.641 54.6979 110.249 54.8289 112.192 55.3687C112.192 55.3687 110.988 53.6498 107.598 53.6498C104.817 53.6498 103.45 55.8718 103.45 55.8718H103.444Z" fill="#7A3C04"/>
    <path d="M109.06 61.5527C109.06 61.5527 107.017 61.0233 105.739 61.4216C103.973 61.9771 102.978 63.6804 102.978 63.6804C102.978 63.6804 104.859 62.5693 105.801 62.2811C106.802 61.9771 109.06 61.5527 109.06 61.5527Z" fill="#7A3C04"/>
    <path d="M153.469 31.6758C153.212 40.2966 152.589 45.5006 149.965 51.9361L168.917 54.483C168.917 54.483 173.233 51.8837 174.553 44.7616C174.553 44.7616 169.943 35.5276 163.202 32.5876C156.46 29.6476 153.469 31.6758 153.469 31.6758Z" fill="#F47F2D"/>
    <path d="M177.151 24.9364C176.281 25.539 175.449 26.2518 174.747 27.0431C174.673 27.1374 174.532 27.1479 174.443 27.0693C174.364 27.0012 174.349 26.8859 174.406 26.7968C175.03 25.8482 175.763 25.0097 176.591 24.2341C177.057 23.8096 177.664 24.5695 177.151 24.9364Z" fill="#7A3C04"/>
    <path d="M115.224 1.51052C114.905 1.51576 111.416 5.02175 112.191 11.9237C113.124 20.1934 116.351 25.0934 116.351 25.0934C116.351 25.0934 114.674 17.0071 114.109 11.1114C113.543 5.21565 115.691 1.50004 115.224 1.51052Z" fill="#FDA44B"/>
    <path d="M178.136 35.8935C177.869 35.3855 177.623 34.8617 177.388 34.3275C177.618 34.7413 177.869 35.2703 178.136 35.8935Z" fill="#FDA44B"/>
    <path d="M130.583 18.4747C129.268 18.6057 127.953 18.8049 126.691 19.1927C126.272 19.3237 125.837 19.4809 125.481 19.6906C125.413 19.7272 125.329 19.7063 125.287 19.6381C125.25 19.5753 125.266 19.4967 125.323 19.4547C125.716 19.1613 126.12 18.9726 126.539 18.7839C127.791 18.2389 129.116 17.8825 130.446 17.5891C130.687 17.5367 130.928 17.6886 130.981 17.9349C131.038 18.197 130.85 18.4538 130.588 18.48L130.583 18.4747Z" fill="#7A3C04"/>
    <path d="M60.01 106.905C59.9523 106.905 58.5956 130.116 43.1271 135.923C34.2063 138.035 34.3215 135.037 32.4986 127.328C17.1453 98.8188 29.1357 94.6577 24.9346 71.7404H24.9398C23.5936 67.0029 26.218 61.9981 30.9376 60.4311C35.7935 58.817 41.0422 61.453 42.6504 66.3111C45.5838 73.5379 46.1967 73.517 47.0872 75.0053H47.0924C52.1735 83.1598 59.4023 96.0465 60.01 106.905Z" fill="#FD9A3F"/>
    <path d="M54.215 133.218C53.5812 134.916 53.1412 136.268 52.4969 137.762C51.3445 137.505 50.4592 137.128 49.6787 136.887C50.2968 136.227 51.0669 135.315 52.2717 133.187C53.4764 131.059 54.0946 130.409 55.2313 126.956C55.2313 127.564 55.1003 130.855 54.2203 133.218H54.215Z" fill="#7A3C04"/>
    <path d="M60.0047 106.916C60.0047 106.916 58.0403 98.0222 54.384 90.8478C48.9572 80.1988 41.0946 69.8695 40.8903 69.9376L43.5932 68.5803C43.7818 68.8424 44.1485 70.4984 45.4004 72.3903C45.9085 73.1554 46.4742 74.0306 47.0871 75.0053L55.6621 90.9421C58.4175 95.3181 60.0099 106.921 60.0099 106.921L60.0047 106.916Z" fill="#F47F2D"/>
    <path d="M57.9567 96.9111C56.5581 98.1217 54.929 98.7768 53.0956 99.4371C48.6012 101.056 44.0701 100.931 44.0701 100.931C47.0821 99.5053 49.7745 98.2265 51.8594 96.8535C54.8452 94.883 56.469 92.8706 56.469 92.8706C57.0138 94.2122 57.5114 95.5643 57.9567 96.9111Z" fill="#7A3C04"/>
    <path d="M32.2828 78.3331C36.992 76.7819 54.8073 107.083 43.2727 113.561C23.4511 124.687 26.1226 80.3665 32.2828 78.3331Z" fill="#FDA44B"/>
    <path d="M47.0872 75.0053C46.0815 75.6709 44.8976 76.1321 43.7085 76.4518C40.5237 77.306 37.4384 77.6886 37.4384 77.6886C38.7322 77.0335 40.6389 75.7967 42.5142 74.5861C43.6509 73.8524 44.6986 73.0716 45.4005 72.3955C45.9086 73.1606 46.4744 74.0358 47.0872 75.0106V75.0053Z" fill="#7A3C04"/>
    <path d="M35.9355 92.4672C35.9355 92.4672 33.1278 94.2543 29.5972 94.9303C27.6381 95.3077 26.3495 95.5173 24.5842 95.4701C24.7152 94.1233 24.8723 92.7502 25.0347 91.3719C25.4957 91.503 27.2348 91.9956 29.5972 92.2209C31.6454 92.4148 33.3112 92.724 35.9355 92.4672Z" fill="#7A3C04"/>
    <path d="M42.1199 113.823C42.1199 113.823 39.2755 115.625 34.3411 117.779C32.7643 118.466 30.6743 119.079 28.7623 119.676C28.2542 118.602 27.9504 117.418 27.1542 115.652C27.1542 115.652 29.8466 115.489 33.7858 115.059C36.363 114.782 38.4898 114.546 42.1199 113.823Z" fill="#7A3C04"/>
    <path d="M28.8838 72.5004C28.8838 72.5004 27.1971 73.7738 27.129 76.7453C26.9037 86.0631 25.1803 90.4234 24.6513 94.7941C24.7665 93.6673 24.8975 92.5249 25.0389 91.3772C25.8823 84.2132 26.8147 77.5733 25.1961 72.5842C25.1961 72.5842 24.4994 72.0549 23.8394 71.7352L26.3642 72.579L28.889 72.5004H28.8838Z" fill="#F47F2D"/>
    <path d="M35.9345 135.98C35.6935 135.833 35.4631 135.661 35.2535 135.446C32.8073 132.983 33.9806 130.965 32.4982 127.328C31.1782 124.414 29.68 122.061 28.4805 119.021C26.5842 114.216 24.8084 109.08 24.3999 102.571C24.3265 101.439 24.5203 100.118 24.5884 98.866C24.2951 110.479 34.0749 126.316 34.6354 128.455C35.2273 130.692 35.2535 135.446 35.9345 135.98Z" fill="#F47F2D"/>
    <path d="M58.8309 113.818C59.1609 111.7 59.4281 109.436 59.5695 107.298C59.5852 107.162 59.58 106.979 59.6009 106.848C59.6009 106.654 59.8681 106.47 60.0043 106.491L59.6009 106.921C59.3443 104.075 58.6947 101.282 57.8723 98.5411C55.3318 90.2766 51.1307 82.6462 46.5786 75.3146L47.0867 75.5976C46.8667 75.5976 46.6729 75.4823 46.5681 75.3041C46.2015 74.6857 45.6515 74.0359 45.2324 73.3074C43.9857 71.1745 43.0847 68.9472 42.1418 66.6727C41.639 65.1896 40.8794 63.9371 39.7532 62.8838C36.4478 59.6922 30.7224 59.8547 27.6161 63.2401C25.5313 65.3993 24.7037 68.6694 25.5523 71.557C25.6727 71.9553 25.3532 72.3693 24.9446 72.3641C24.9237 72.3693 25.568 71.6147 25.5627 71.6147C26.4428 76.347 26.7099 81.2155 26.3432 86.016C25.7618 93.1747 24.1641 100.145 25.4789 107.246C26.2542 111.905 27.8414 116.401 29.7848 120.704C30.7381 122.873 31.8329 124.991 32.933 127.092C33.352 128.68 33.6506 130.305 34.1116 131.851C35.4264 137.138 38.5484 136.541 43.0166 135.634C43.75 135.472 44.5095 135.163 45.2481 134.874C45.29 134.859 45.3372 134.874 45.3581 134.922C45.3738 134.958 45.3581 135 45.3319 135.021C45.0019 135.262 44.6562 135.472 44.3052 135.676C41.969 136.861 38.2498 137.846 35.835 136.42C34.3211 135.461 33.7082 133.716 33.2158 132.128C32.8282 130.776 32.2468 128.444 32.0844 127.553C30.9634 125.436 29.8529 123.314 28.8733 121.123C26.8723 116.758 25.2327 112.188 24.4156 107.429C22.5926 97.886 25.9347 88.3847 25.1803 78.8677C25.0389 76.5147 24.7351 74.1721 24.3213 71.8505C24.2479 71.4627 24.557 71.0958 24.9499 71.1011L24.3422 71.9081C23.8813 70.2573 23.8446 68.486 24.2689 66.8247C24.688 65.1634 25.5418 63.6175 26.7256 62.3807C30.2876 58.5131 36.8302 58.3296 40.6018 61.9876C41.8485 63.1301 42.7652 64.6551 43.2995 66.2483C44.1952 68.4074 45.1014 70.6661 46.2853 72.689C46.6624 73.3546 47.1601 73.931 47.621 74.6909L47.1077 74.3974C47.3225 74.3974 47.5163 74.5075 47.621 74.6804C50.6854 79.6119 53.5507 84.6848 55.9237 90.0146C58.2704 95.3443 60.2557 100.988 60.4338 106.874L60.0305 107.303C60.1248 107.324 60.35 107.22 60.3971 107.068C60.4129 107.036 60.4181 107.005 60.4233 106.979C60.4233 106.963 60.4233 106.979 60.4233 106.968C60.2662 108.1 60.0829 109.295 59.8367 110.411C59.5852 111.559 59.3128 112.707 58.9671 113.828C58.9514 113.896 58.8414 113.87 58.8571 113.802L58.8309 113.818Z" fill="#7A3C04"/>
    <path d="M24.9242 72.1963C15.5844 69.7437 14.5368 52.9946 8.59133 47.9531C3.82975 43.6401 0.388218 39.3008 0.723466 36.1722C0.980141 33.337 3.9188 31.052 6.06649 31.7962C8.73276 32.6714 9.39802 36.5809 11.31 39.2065C13.6358 42.3352 15.1077 43.7658 16.1082 43.137C16.9673 42.4976 14.2172 36.0202 12.5095 33.1326C10.6185 29.8257 6.02458 24.1658 8.16703 20.031C9.36659 17.7094 12.2424 16.4045 14.4058 17.2849C19.0731 18.8151 20.7284 38.1112 24.568 38.6091C26.349 32.3779 13.9763 18.3225 21.0793 11.5254C21.0793 11.5254 21.0793 11.5254 21.0898 11.5254C30.1572 5.78691 29.5915 18.6999 29.7906 24.4384C30.1677 27.0272 31.1577 32.3203 32.4097 34.6733C32.8235 35.4489 33.2688 35.9154 33.7297 35.842C37.2865 32.7238 29.7382 19.4755 32.3206 14.4549C33.8031 11.6355 38.1508 10.2572 40.5761 13.4278C43.2476 16.8447 42.0743 22.8295 42.179 26.891C42.3676 30.963 42.3938 43.7658 45.1806 50.259C51.016 51.7369 51.676 46.8526 59.6486 46.6534C64.8397 45.8673 68.7213 50.977 67.5374 54.8446C66.8984 56.7207 59.4548 55.6569 54.8137 56.9408C43.7243 60.3839 46.9144 66.5784 43.0695 68.9576C43.0695 68.9576 38.9523 71.0067 34.5259 71.7299C29.5391 72.5422 24.9399 72.1858 24.9399 72.1858L24.9242 72.1963Z" fill="#FD9A3F"/>
    <path d="M40.4924 50.8147C40.4924 50.8147 36.0084 51.475 33.426 53.1625C29.5444 55.6989 28.9892 59.7814 28.9892 59.7814C28.9892 59.7814 28.2244 54.9443 32.6297 52.2978C37.6008 49.3158 40.4871 50.8147 40.4871 50.8147H40.4924Z" fill="#F47F2D"/>
    <path d="M15.993 43.2052C11.5509 45.3853 8.49177 33.7092 5.46406 33.2427C2.49397 32.7868 0.896301 35.491 0.807251 35.6325C1.3887 32.9388 4.06545 31.1412 6.05598 31.7963C8.72226 32.6715 9.38752 36.581 11.2995 39.2066C13.5519 42.2986 15.1129 43.6664 15.9877 43.2052H15.993Z" fill="#F47F2D"/>
    <path d="M24.557 38.6144C20.7331 40.7159 17.4749 20.8853 14.0857 19.0092C11.3723 17.5051 8.53841 19.4232 8.16125 20.0363C9.36082 17.7147 12.2366 16.4098 14.4 17.2902C17.3806 18.5008 17.9254 22.8453 19.3135 27.3313C20.7016 31.8225 23.3103 39.3586 24.5622 38.6197L24.557 38.6144Z" fill="#F47F2D"/>
    <path d="M33.7125 35.8473C33.7125 35.8473 32.6648 37.016 31.4338 34.904C30.2029 32.7868 28.7047 26.4351 28.5476 23.1545C28.4114 20.2564 28.3799 13.5798 25.7608 12.0705C23.8069 10.949 21.3031 11.1796 20.0354 12.5998C20.3287 12.2068 20.6745 11.8452 21.0673 11.5255C21.0673 11.5255 21.0673 11.5255 21.0778 11.5255C23.105 9.87993 26.2375 9.38206 27.9609 11.8347C30.4438 15.3669 29.1604 20.1987 29.7786 24.4384C30.1557 27.0273 31.1457 32.3204 32.3977 34.6734C32.8115 35.4595 33.2568 35.9102 33.7125 35.8421V35.8473Z" fill="#F47F2D"/>
    <path d="M45.1693 50.2696C39.952 46.4177 41.3664 22.1064 40.193 16.1006C39.4963 12.5422 35.5781 12.212 34.0171 12.5736C36.2957 11.1796 38.9987 11.4417 40.5597 13.4384C43.2312 16.8552 42.0578 22.8401 42.1626 26.9016C42.1626 26.9907 42.1626 27.0955 42.1731 27.2055C42.2516 30.4809 42.5188 41.1247 44.2422 47.5759C44.5984 48.9175 45.1693 50.2643 45.1693 50.2696Z" fill="#F47F2D"/>
    <path d="M67.521 54.8551C66.882 56.7313 60.5123 55.6465 55.5935 56.7418C50.5072 57.8738 48.3071 60.1692 46.9347 62.0872C50.1405 53.5974 64.1162 54.7975 65.52 53.5555C66.9291 52.3082 65.52 48.472 65.52 48.472C67.5629 50.3692 68.0396 53.283 67.5106 54.8499L67.521 54.8551Z" fill="#F47F2D"/>
    <path d="M28.889 72.6628C18.4858 74.8115 15.5681 61.951 12.289 54.8185C11.4089 52.8532 10.4765 50.8775 9.14078 49.2738C8.45456 48.472 7.58501 47.7855 6.8307 47.0309C4.10681 44.2743 -0.429519 39.8826 0.272407 35.6377C0.990048 31.7911 5.81972 29.2703 8.42837 32.9702C9.76413 34.773 10.3718 36.9269 11.6028 38.7087C12.2156 39.5472 12.928 40.4014 13.6352 41.1823C14.2166 41.7745 14.8033 42.4872 15.5629 42.7807C15.6205 42.7859 15.5838 42.7755 15.5315 42.8121C15.4895 42.8488 15.521 42.8331 15.5315 42.7597C15.6519 41.9265 15.3533 41.0565 15.1386 40.239C14.1957 37.147 12.6609 34.2856 10.8904 31.5814C9.18268 28.7829 7.15024 25.801 7.05071 22.3422C6.89356 18.0134 12.8547 14.4445 16.0186 17.7828C17.0715 18.9882 17.7106 20.4765 18.2868 21.9282C20.1254 26.629 20.9478 31.6758 23.0274 36.2509C23.3731 36.9164 23.9127 37.9383 24.6198 38.0798L24.0227 38.4834C24.5098 36.1198 23.4622 33.5676 22.6502 31.3142C20.7173 25.8691 16.1653 18.0239 19.502 12.4007C21.1207 10.1263 24.4574 8.71652 27.0189 10.2311C28.2499 10.9648 28.9728 12.3011 29.4443 13.6113C30.5076 16.7871 29.9209 20.1044 30.1881 23.3432C30.6648 27.064 31.3038 30.9368 32.8229 34.3799C33.0377 34.7416 33.2577 35.2289 33.6296 35.339L33.3677 35.4595C34.9497 33.7353 33.8025 30.2032 33.3991 28.0912C32.6082 24.1135 29.8633 17.4212 32.1472 13.7371C33.6244 11.5727 36.6573 10.4459 39.0879 11.6094C41.4451 12.799 42.4247 15.5765 42.6709 18.0187C42.9694 20.7752 42.6394 23.5371 42.6185 26.2674C42.8228 33.0436 43.1842 39.9088 44.2685 46.6011C44.5042 47.6807 44.6457 48.8651 45.2428 49.7874C45.3267 49.8765 45.269 49.8398 45.4786 49.908C48.0977 50.7779 50.5387 49.0642 52.9117 48.0633C54.1688 47.4973 55.4836 46.9942 56.8456 46.6745C59.559 46.0456 62.702 45.857 65.0854 47.5968C66.8768 48.8703 67.9716 50.9613 68.1078 53.1362C68.1707 55.2744 67.6731 55.9557 65.5149 56.2596C61.8219 56.7627 57.9718 56.2858 54.4098 57.5017C53.5088 57.7742 52.4559 58.2091 51.6073 58.6022C44.9652 61.7466 47.6577 66.6885 42.9171 69.4451C42.2623 69.7281 41.6075 69.9167 40.9003 70.0111C40.8584 70.0163 40.8165 69.9849 40.8113 69.9429C41.8118 69.052 43.1842 68.6904 44.0433 67.5899C45.7248 65.5146 45.8243 62.3493 47.8358 60.3683C49.8001 58.2825 52.4874 57.2344 55.1693 56.4326C58.8309 55.4631 62.6758 56.0552 66.3321 55.2429C66.6202 55.1486 66.903 55.0228 67.0288 54.8656C67.2173 54.5459 67.2697 54.0428 67.2907 53.655C67.3326 51.5745 66.3006 49.4782 64.6034 48.2781C61.2195 45.9932 56.7303 47.3296 53.2679 48.8494C50.8006 49.9342 48.0139 51.7317 45.1957 50.7412C43.9385 50.4635 43.6504 47.8327 43.3885 46.7583C42.8961 44.0384 42.6237 41.3081 42.3775 38.5777C42.0423 34.469 41.7594 30.3866 41.6756 26.257C41.6389 22.3107 42.5294 18.0134 40.6175 14.4026C39.3027 12.0024 36.5107 11.4259 34.2792 12.9824C31.8853 14.4498 32.0739 17.4369 32.4982 19.9053C33.1582 23.9249 34.6878 27.8396 35.133 31.9535C35.243 33.4209 35.2483 35.1084 34.0435 36.2351C33.0744 36.7749 32.2572 35.5696 31.8905 34.8516C30.2771 31.2408 29.6276 27.3156 29.1195 23.4218C28.8366 20.2774 29.4128 16.9705 28.4123 13.9572C28.0247 12.8881 27.4537 11.7613 26.4532 11.1639C24.4627 9.96379 21.655 11.232 20.4083 13.0191C19.7902 13.9572 19.4811 15.194 19.4287 16.3993C19.3344 22.8296 23.3574 28.5157 24.887 34.6577C25.1908 35.9574 25.4108 37.3566 25.0651 38.7926C24.8398 39.5001 23.9493 39.0179 23.5355 38.7506C22.0845 37.4929 21.5397 35.5643 20.8954 33.8559C19.4601 30.2556 17.4591 19.1926 14.2219 17.7986C11.388 16.7347 8.06693 19.3969 8.12979 22.3474C8.25027 25.5285 10.1675 28.3113 11.8018 30.9997C12.9909 32.8392 14.1381 34.773 14.9971 36.8011C15.5 38.0432 18.203 44.0909 15.3533 43.8288C14.2847 43.5249 13.5828 42.6392 12.8495 41.9055C12.0952 41.067 11.4037 40.2442 10.728 39.3219C9.4184 37.4248 8.79505 35.2551 7.57978 33.6148C5.53686 30.6486 1.84912 32.9126 1.30958 35.8421C0.680991 39.8931 6.00306 44.7564 8.74267 47.382C10.8851 49.2319 12.1371 51.9256 13.2476 54.3992C15.8405 59.8862 18.0772 69.3088 24.1746 71.468C25.6989 71.9029 27.2966 71.9763 28.8785 72.3432C29.0514 72.3589 29.0514 72.6419 28.8785 72.6681L28.889 72.6628Z" fill="#7A3C04"/>
    <path d="M41.1941 51.0138C35.6468 51.3126 30.0733 54.8762 29.0571 60.599C29.0309 60.8034 28.7061 60.7772 28.7114 60.5675C28.8685 54.436 35.3587 49.9133 41.1994 50.6208C41.4351 50.6418 41.4246 51.0034 41.1889 51.0138H41.1941Z" fill="#7A3C04"/>
    <path d="M37.4793 33.117C38.2388 33.1642 36.0283 26.0212 35.8816 20.4766C35.7611 16.022 38.2283 12.7938 35.1482 13.669C32.4243 14.4446 33.6291 19.79 34.5249 24.9835C35.3054 29.5272 36.0178 33.0331 37.4845 33.117H37.4793Z" fill="#FDA44B"/>
    <path d="M22.2894 12.5999C26.1867 11.6985 23.8085 16.5775 24.5523 22.206C25.3014 27.8344 28.1353 34.359 27.3129 34.4167C25.0133 34.5844 23.8556 28.8197 22.347 25.0464C21.3046 22.4366 18.1617 13.5484 22.2842 12.5999H22.2894Z" fill="#FDA44B"/>
    <path d="M10.2775 20.0416C14.3843 17.7828 11.7546 23.1597 14.1433 29.7839C15.1386 32.5405 18.753 38.1061 17.8205 38.4624C16.38 39.0127 14.3528 32.9335 13.1271 30.984C11.9013 29.0345 6.84116 21.9334 10.2827 20.0416H10.2775Z" fill="#FDA44B"/>
    <path d="M41.6236 64.2308C38.6797 66.6782 30.5918 70.813 25.5264 69.5396C23.0801 68.9212 20.2201 66.2904 18.2243 60.5885C16.2285 54.892 13.7194 51.1292 14.6989 48.1053C15.4061 45.9305 21.142 44.6308 24.8088 42.8856C27.517 41.5965 31.0161 38.8923 34.0124 37.8494C37.9463 36.4763 40.2669 38.7246 39.6016 42.2935C39.1197 44.8771 31.6133 44.1329 26.3488 47.749C24.2221 49.2059 22.7868 60.751 28.2555 62.1817C30.6599 62.8106 30.2618 57.9263 35.0443 54.3574C37.1292 52.8009 41.1993 51.5799 43.0536 53.9224C44.667 55.9611 44.5727 61.7782 41.6236 64.2255V64.2308Z" fill="#FDA44B"/>
    <path d="M48.6369 53.5032C48.9093 54.8343 53.0527 52.6594 58.8882 52.7537C63.8802 52.8324 65.6927 51.7947 65.195 49.929C64.8074 48.4721 61.7116 47.1829 57.3272 48.0214C54.1266 48.6346 48.3855 52.2821 48.6369 53.5084V53.5032Z" fill="#FDA44B"/>
    <path d="M208.299 174.158C181.831 194.434 124.314 186.081 102.445 176.559C101.91 170.668 101.439 164.489 99.4013 158.908C96.8765 152.415 93.6759 145.827 93.8383 138.711C93.4087 128.685 108.589 101.261 112.136 92.0217C118.5 124.508 161.218 108.713 172.611 98.8922C171.825 98.3157 189.395 94.4429 201.107 107.471C201.107 107.471 201.109 107.473 201.113 107.476C211.07 122.302 208.855 155.156 208.299 174.158Z" fill="#222222"/>
    <path d="M102.984 160.444C102.984 160.444 105.173 168.713 106.362 178.115C104.691 177.502 103.382 177.098 102.444 176.559C101.91 170.668 101.438 164.489 99.4008 158.908C96.7607 152.504 93.9006 145.765 93.8377 138.711C93.8377 138.684 93.8325 138.59 93.8273 138.564C96.4883 152.834 102.942 164.054 122.072 159.506C121.464 159.616 111.276 163.965 102.984 160.444Z" fill="black"/>
    <path d="M180.48 185.048C176.363 185.714 172.209 186.133 168.028 186.353C166.97 181.259 167.295 165.815 168.327 161.172C156.609 167.891 140.219 160.58 139.171 160.281C149.857 162.351 163.555 162.079 167.898 155.717C165.284 150.062 165.284 143.076 165.284 143.087C165.98 145.681 167.751 150.979 168.998 153.332C170.071 149.113 175.126 140.833 175.325 139.979C175.252 146.089 173.183 152.142 170.794 157.729C172.937 163.777 178.274 178.833 180.48 185.048Z" fill="black"/>
    <path d="M97.2643 125.766C95.7033 129.471 94.7604 133.522 94.3518 137.521C93.9694 141.562 94.9018 145.586 96.1957 149.407C97.9453 153.563 99.6215 158.148 100.79 162.639C101.989 167.167 102.696 171.863 102.586 176.548C102.586 176.627 102.518 176.69 102.44 176.69C102.366 176.69 102.304 176.627 102.298 176.553C102.115 174.232 101.853 171.926 101.444 169.641C101.046 167.356 100.575 165.087 99.983 162.844C98.8044 158.358 97.2014 153.987 95.3942 149.706C94.0533 145.786 93.0894 141.614 93.4718 137.437C93.8961 133.297 94.8809 129.257 96.51 125.42C96.7352 124.944 97.4791 125.242 97.2591 125.761L97.2643 125.766Z" fill="black"/>
    <path d="M214.057 161.392C214.105 163.614 214.094 166.062 213.989 168.572C212.318 170.642 210.401 172.518 208.301 174.158C198.804 181.532 186.567 184.545 174.278 185.866C171.973 177.408 170.365 165.307 170.716 155.58C174.797 152.19 180.48 149.433 190.255 147.819C196.991 146.708 206.184 146.792 214.23 148.128C212.921 152.792 214.052 155.04 214.057 161.392Z" fill="#FD9A3F"/>
    <path d="M214.055 161.392C214.103 163.614 214.092 166.062 213.987 168.572C212.814 170.029 211.525 171.376 210.127 172.628C211.002 161.24 210.74 149.522 210.687 147.641C210.954 147.667 211.222 147.704 211.494 147.74C211.793 147.777 212.091 147.819 212.395 147.861C212.997 147.945 213.61 148.034 214.228 148.128C213.877 150.324 213.448 151.404 213.448 151.404C213.448 151.404 213.746 154.013 213.93 157.902C213.982 158.976 214.029 160.15 214.055 161.392Z" fill="#FDA44B"/>
    <path d="M185.188 162.508C185.188 162.508 179.614 164.4 176.89 164.966C174.58 165.448 171.076 167.298 171.076 167.298C170.976 166.088 170.929 165.517 170.866 164.222C170.866 164.222 173.915 162.912 176.587 162.32C180.342 161.492 185.193 162.508 185.193 162.508H185.188Z" fill="#7A3C04"/>
    <path d="M214.05 161.392C214.05 161.392 211.547 160.349 209.158 159.71C207.063 159.149 202.521 158.599 202.521 158.599C202.521 158.599 206.654 157.671 209.347 157.65C212.028 157.629 213.946 158.19 213.946 158.19C213.998 159.264 214.03 160.145 214.056 161.387L214.05 161.392Z" fill="#7A3C04"/>
    <path d="M206.067 175.788C204.637 176.763 203.128 177.654 201.557 178.482C197.309 177.863 192.458 177.313 192.458 177.313C192.458 177.313 199.786 175.081 205.197 175.678C205.491 175.709 205.784 175.746 206.067 175.788Z" fill="#7A3C04"/>
    <path d="M209.893 147.567C209.893 147.567 209.526 147.573 208.861 147.604C206.027 147.153 175.525 150.623 174.089 157.656C173.77 162.629 174.786 180.044 176.258 185.646C175.598 185.724 174.938 185.798 174.278 185.866C172.272 177.921 170.046 165.275 170.716 155.58C173.361 142.002 203.115 147.232 208.84 147.415C209.092 147.463 209.291 147.463 209.505 147.515C209.626 147.525 209.924 147.573 209.893 147.567Z" fill="#F47F2D"/>
    <path d="M213.989 168.572C214.292 164.337 213.831 154.045 213.449 151.404C213.449 151.404 213.879 150.324 214.23 148.128C212.648 147.887 211.087 147.667 209.505 147.515C209.29 147.478 209.07 147.468 208.86 147.447C208.86 147.442 208.845 147.442 208.839 147.447C201.532 146.729 195.361 147.022 190.254 147.819C188.709 148.071 187.247 148.354 185.885 148.678C180.474 149.999 174.796 152.19 170.715 155.58C170.323 164.636 172.161 178.608 173.979 185.897" stroke="#7A3C04" stroke-width="1.28419" stroke-linecap="round" stroke-linejoin="round"/>
    <path d="M214.706 141.651C214.696 144.418 214.513 146.351 214.23 148.128C183.827 143.396 170.548 155.585 170.548 155.585C168.694 154.574 170.82 105.537 170.721 102.451C190.181 86.1574 216.362 113.451 214.706 141.651Z" fill="#222222"/>
    <path d="M214.707 141.651C214.618 144.224 214.513 146.278 214.283 147.824L210.684 147.363C214.236 106.654 183.545 97.9229 183.545 97.9229C202.292 98.8976 215.509 119.001 214.712 141.651H214.707Z" fill="#393939"/>
    <path d="M170.055 155.591C182.182 146.32 199.719 145.555 214.287 147.74L213.842 148.086C214.083 145.13 214.119 142.138 214.03 139.167C213.763 130.305 211.883 121.275 207.205 113.66C202.642 106.124 195.193 99.9561 186.404 98.321C183.528 97.8284 180.463 97.7288 177.792 99.0809C177.682 99.149 177.572 98.9656 177.677 98.8975C180.175 96.9951 183.575 97.2624 186.508 97.7026C205.555 101.387 214.8 121.244 214.874 139.14C214.942 142.148 214.874 145.151 214.617 148.159C214.596 148.369 214.413 148.526 214.198 148.511C210.432 147.934 206.634 147.583 202.831 147.504C193.402 147.311 183.727 148.746 175.283 153.112C173.628 153.992 171.978 154.988 170.574 156.167C170.411 156.324 170.144 156.314 170.003 156.141C169.866 155.979 169.887 155.732 170.05 155.591H170.055Z" fill="black"/>
    <path d="M213.757 151.529L211.62 155.738C211.573 155.832 211.426 155.759 211.468 155.664L213.134 151.273C213.286 150.822 213.967 151.094 213.757 151.529Z" fill="#7A3C04"/>
    <path d="M169.504 145.78C169.363 149.108 169.861 152.473 170.751 155.669C170.908 156.256 170.023 156.487 169.882 155.889C169.19 152.562 168.913 149.145 169.279 145.759C169.29 145.618 169.515 145.634 169.504 145.78Z" fill="black"/>
    <path d="M165.399 143.066C166.436 147.484 168.431 151.65 170.705 155.554C171.003 156.057 170.239 156.518 169.935 156.015C168.84 153.972 167.902 151.875 167.064 149.721C166.247 147.578 165.556 145.377 165.158 143.113C165.131 142.966 165.362 142.914 165.399 143.066Z" fill="black"/>
    <path d="M116.515 140.927C116.551 140.927 116.593 140.927 116.63 140.917L127.536 139.24C127.657 139.219 127.772 139.172 127.871 139.098C127.971 139.025 128.049 138.931 128.102 138.821L132.664 129.073C132.722 128.952 132.743 128.821 132.727 128.69C132.711 128.559 132.659 128.439 132.581 128.334C132.497 128.229 132.392 128.151 132.266 128.098C132.141 128.051 132.004 128.035 131.873 128.056L120.967 129.733C120.847 129.754 120.732 129.801 120.632 129.875C120.533 129.948 120.454 130.042 120.407 130.152L115.844 139.9C115.792 140.01 115.771 140.131 115.781 140.251C115.792 140.372 115.829 140.487 115.897 140.592C115.965 140.691 116.059 140.775 116.169 140.838C116.279 140.896 116.4 140.927 116.525 140.927H116.515ZM121.978 137.081L124.723 138.207L119.328 139.035L121.978 137.081ZM122.444 134.916L121.915 131.059L129.17 129.943L122.444 134.911V134.916ZM121.072 135.928L118.422 137.882L120.679 133.061L121.072 135.928ZM127.044 137.584L123.351 136.069L130.077 131.101L127.044 137.589V137.584Z" fill="#D7B27B"/>
    <path d="M155.702 146.619C155.257 143.438 153.617 140.073 151.082 137.154C147.808 133.376 143.581 130.944 139.704 130.593C139.484 130.085 139.201 129.602 138.856 129.168L136.137 125.709C134.524 123.654 131.747 122.685 128.322 122.978C125.021 123.261 121.48 124.687 118.348 126.998C115.221 129.309 112.858 132.239 111.701 135.252C110.501 138.375 110.726 141.231 112.34 143.281L113.901 145.272C113.592 145.686 113.33 146.131 113.131 146.608L111.433 150.633C110.428 153.023 110.967 155.832 112.968 158.552C114.891 161.167 117.955 163.405 121.596 164.851C124.251 165.904 126.996 166.449 129.553 166.449C130.475 166.449 131.396 166.376 132.303 166.224C135.692 165.642 138.112 164.007 139.118 161.618L140.715 157.834C140.998 157.939 141.286 158.038 141.569 158.127C142.695 158.489 143.879 158.678 145.063 158.693C146.907 158.693 148.531 158.164 149.809 157.126L153.245 154.328C155.283 152.667 156.152 149.931 155.686 146.629L155.702 146.619ZM134.398 151.692L136.687 149.826C137.693 150.921 138.814 151.912 140.029 152.787L137.771 154.627C136.54 153.772 135.409 152.787 134.398 151.692ZM133.434 150.581C133.12 150.193 132.826 149.8 132.544 149.396C132.512 149.344 132.476 149.286 132.439 149.234H132.434C131.878 148.432 131.391 147.583 130.967 146.708C131.606 146.325 132.235 145.906 132.853 145.45C133.015 145.33 133.172 145.209 133.329 145.089C134 146.373 134.801 147.588 135.723 148.715L133.434 150.581ZM131.339 151.393C131.187 151.749 130.899 152.032 130.532 152.179C130.165 152.326 129.757 152.331 129.39 152.179L125.928 150.806L126.855 148.616C127.824 148.285 128.762 147.887 129.668 147.426C130.134 148.38 130.674 149.302 131.286 150.172C131.386 150.361 131.444 150.565 131.454 150.775C131.465 150.984 131.428 151.194 131.344 151.388L131.339 151.393ZM129.636 154.307C129.752 154.569 129.783 154.862 129.725 155.145C129.668 155.428 129.526 155.685 129.317 155.89C129.107 156.094 128.84 156.23 128.552 156.288C128.264 156.345 127.96 156.319 127.688 156.209L124.225 154.836L125.357 152.153L128.819 153.526C129.003 153.599 129.165 153.704 129.306 153.835C129.448 153.971 129.558 154.129 129.631 154.307H129.636ZM118.992 146.058C119.071 146.058 119.155 146.058 119.233 146.058L120.784 148.029C118.814 147.856 117.243 147.111 116.258 145.859L116.127 145.696C117.059 145.948 118.023 146.069 118.992 146.063V146.058ZM122.753 148.023C122.722 148.023 122.696 148.023 122.664 148.029L120.998 145.911C122.072 145.754 123.13 145.497 124.157 145.146L125.917 147.389C124.885 147.714 123.822 147.924 122.748 148.023H122.753ZM129.537 142.416L131.349 144.722C130.118 145.576 128.788 146.294 127.394 146.865L125.608 144.591C126.991 143.993 128.306 143.265 129.537 142.411V142.416ZM132.538 143.841L130.726 141.535C131.899 140.613 132.978 139.575 133.937 138.443L135.723 140.718C134.786 141.871 133.717 142.919 132.538 143.847V143.841ZM136.635 139.481L134.869 137.238C135.493 136.373 136.027 135.451 136.467 134.487L138.133 136.604C138.122 136.63 138.112 136.656 138.101 136.683C137.719 137.663 137.227 138.601 136.629 139.481H136.635ZM138.63 134.843L137.08 132.873C137.389 131.903 137.541 130.892 137.541 129.875L137.672 130.037C138.657 131.29 138.976 132.956 138.63 134.843ZM113.11 135.75C114.168 132.993 116.352 130.289 119.259 128.146C122.167 125.997 125.435 124.671 128.458 124.414C128.814 124.383 129.16 124.367 129.495 124.367C131.905 124.367 133.817 125.137 134.953 126.579C136.247 128.224 136.399 130.582 135.383 133.224C134.325 135.98 132.14 138.685 129.233 140.828C126.326 142.977 123.057 144.302 120.035 144.559C117.138 144.806 114.833 144.035 113.539 142.395C112.245 140.749 112.093 138.391 113.11 135.75ZM115.069 146.734C116.494 148.547 118.825 149.517 121.711 149.517C122.093 149.517 122.481 149.501 122.884 149.465C123.602 149.402 124.314 149.292 125.021 149.129L122.848 154.281L121.465 153.73L120.899 155.072L122.282 155.622L121.716 156.964L123.099 157.514L123.665 156.173L125.048 156.723L124.482 158.064L125.865 158.615L126.431 157.273L127.122 157.546C127.672 157.76 128.269 157.818 128.851 157.703C129.432 157.588 129.961 157.31 130.38 156.901C130.799 156.492 131.077 155.973 131.192 155.413C131.307 154.852 131.245 154.265 131.014 153.736C130.988 153.678 130.962 153.62 130.935 153.568C131.328 153.437 131.685 153.227 131.988 152.955C132.292 152.682 132.533 152.352 132.696 151.985C132.716 152.011 132.737 152.038 132.758 152.059C134.691 154.291 136.975 156.068 139.353 157.221C138.494 159.023 136.514 160.271 133.754 160.748C130.768 161.261 127.258 160.805 123.874 159.458C120.49 158.117 117.656 156.057 115.896 153.662C114.21 151.367 113.723 149.051 114.529 147.138C114.629 146.907 114.744 146.687 114.875 146.477L115.074 146.729L115.069 146.734ZM122.617 160.528L121.486 163.211C120.103 162.613 118.788 161.869 117.573 160.994L118.688 158.347C119.919 159.202 121.234 159.93 122.617 160.528ZM124 161.078C125.414 161.591 126.881 161.969 128.379 162.194L127.263 164.841C125.76 164.641 124.288 164.28 122.869 163.766L124 161.083V161.078ZM112.827 151.178L112.905 150.984C113.178 151.964 113.602 152.902 114.157 153.762L113.188 156.057C112.345 154.323 112.209 152.63 112.827 151.173V151.178ZM114.194 157.703C114.194 157.703 114.163 157.656 114.142 157.635L115.184 155.172C115.87 155.994 116.63 156.749 117.463 157.425L116.363 160.035C115.556 159.338 114.828 158.557 114.194 157.703ZM128.819 164.972L129.919 162.362C130.37 162.393 130.815 162.409 131.26 162.409C131.899 162.409 132.544 162.372 133.177 162.299L132.135 164.762C132.104 164.762 132.077 164.772 132.046 164.778C130.977 164.956 129.893 165.019 128.814 164.966L128.819 164.972ZM133.953 164.29L134.922 161.995C135.943 161.759 136.918 161.377 137.824 160.863L137.745 161.057C137.132 162.514 135.812 163.625 133.958 164.29H133.953ZM139.081 155.444L141.307 153.631C142.229 154.192 143.203 154.668 144.22 155.046L142.119 156.759C142.093 156.749 142.062 156.744 142.035 156.733C141.009 156.408 140.019 155.979 139.086 155.444H139.081ZM148.861 156.005C147.619 157.016 145.917 157.409 143.953 157.158L145.912 155.565C146.76 155.774 147.635 155.879 148.51 155.884C148.683 155.884 148.856 155.879 149.023 155.869L148.861 156.005ZM152.297 153.206C150.663 154.537 148.243 154.794 145.472 153.94C142.58 153.044 139.694 151.058 137.342 148.343C136.216 147.054 135.262 145.634 134.508 144.109C136.818 142.049 138.562 139.649 139.505 137.191C140.207 135.367 140.417 133.638 140.155 132.102C143.45 132.605 147.127 134.833 149.94 138.082C152.292 140.796 153.811 143.894 154.22 146.813C154.612 149.606 153.931 151.875 152.297 153.206Z" fill="#D7B27B"/>
    <path d="M142.349 147.227L143.659 146.383C143.905 146.629 144.183 146.818 144.497 146.938C145.189 147.211 145.89 147.122 146.603 146.661C147.179 146.289 147.525 145.901 147.645 145.497C147.761 145.083 147.687 144.685 147.42 144.302C147.21 143.998 146.912 143.831 146.535 143.81C146.163 143.784 145.691 143.852 145.136 144.014C144.052 144.344 143.292 144.523 142.863 144.554C141.695 144.669 140.804 144.281 140.191 143.385C139.777 142.783 139.615 142.107 139.704 141.368C139.798 140.618 140.16 139.974 140.783 139.434L139.997 138.286L141.255 137.479L142.04 138.627C143.02 138.25 143.963 138.291 144.869 138.753C145.283 138.962 145.66 139.23 145.99 139.56L144.68 140.403C144.476 140.21 144.246 140.068 143.994 139.974C143.413 139.769 142.8 139.874 142.161 140.283C141.668 140.603 141.365 140.959 141.26 141.352C141.155 141.745 141.218 142.122 141.464 142.473C141.831 143.003 142.596 143.102 143.758 142.767C143.853 142.741 144.041 142.688 144.314 142.615C144.586 142.536 144.78 142.484 144.9 142.463C145.026 142.432 145.215 142.39 145.477 142.337C145.739 142.274 145.943 142.243 146.084 142.238C146.231 142.238 146.42 142.238 146.65 142.238C146.875 142.232 147.069 142.259 147.226 142.321C147.383 142.369 147.556 142.437 147.734 142.515C147.923 142.589 148.096 142.704 148.253 142.861C148.405 143.008 148.551 143.181 148.688 143.38C149.154 144.056 149.322 144.758 149.191 145.492C149.065 146.21 148.693 146.855 148.08 147.426L148.866 148.574L147.609 149.381L146.823 148.233C145.697 148.715 144.623 148.689 143.601 148.149C143.13 147.908 142.711 147.594 142.339 147.206L142.349 147.227Z" fill="#D7B27B"/>
    <path d="M112.545 91.9852C113.86 101.188 121.099 108.236 129.936 110.537C138.773 113.026 148.113 110.579 156.384 107.194C162.073 104.987 167.133 101.576 172.528 98.7718C172.665 98.6985 172.817 98.9028 172.691 99.0077C171.575 100.092 170.302 100.952 168.998 101.754C165.085 104.159 160.931 106.161 156.698 107.953C145.248 112.764 132.162 114.965 121.325 107.45C116.217 103.908 112.603 98.2373 111.723 92.0586C111.681 91.5083 112.482 91.4192 112.54 91.9852H112.545Z" fill="black"/>
    <path d="M168.917 54.4829C168.524 55.3476 162.673 56.5215 157.88 55.6725C153.191 54.8392 149.975 53.0155 149.965 51.9359C149.965 50.9769 153.354 44.8034 159.75 45.5633C166.151 46.3179 169.32 53.6234 168.922 54.4881L168.917 54.4829Z" fill="#FBFBFB"/>
    <path d="M159.457 56.0236C162.567 56.0236 165.088 53.5013 165.088 50.3899C165.088 47.2785 162.567 44.7562 159.457 44.7562C156.347 44.7562 153.826 47.2785 153.826 50.3899C153.826 53.5013 156.347 56.0236 159.457 56.0236Z" fill="#FFBE2C" stroke="#E5A413" stroke-width="0.862815" stroke-miterlimit="10"/>
    <path d="M160.71 50.5335C160.991 48.1535 160.653 46.1573 159.955 46.0748C159.257 45.9922 158.463 47.8546 158.182 50.2346C157.901 52.6145 158.239 54.6107 158.937 54.6933C159.635 54.7758 160.429 52.9134 160.71 50.5335Z" fill="#350803"/>
    <path d="M158.021 49.0901C158.559 49.0901 158.995 48.6537 158.995 48.1154C158.995 47.577 158.559 47.1406 158.021 47.1406C157.483 47.1406 157.046 47.577 157.046 48.1154C157.046 48.6537 157.483 49.0901 158.021 49.0901Z" fill="#FBFBFB"/>
    <path d="M162.27 51.7048C162.585 51.7048 162.841 51.4492 162.841 51.1339C162.841 50.8186 162.585 50.563 162.27 50.563C161.955 50.563 161.7 50.8186 161.7 51.1339C161.7 51.4492 161.955 51.7048 162.27 51.7048Z" fill="#FBFBFB"/>
    <path d="M168.919 54.4829C169.317 53.6182 166.147 46.3127 159.746 45.5581C153.345 44.8034 149.956 50.9926 149.967 51.936L151.727 47.4971L160.296 41.5804L171.391 51.2127L168.924 54.4829H168.919Z" fill="#F47F2D"/>
    <path opacity="0.1" d="M168.919 54.4828C168.919 54.4828 165.702 48.6238 160.014 47.3556C154.43 46.1135 150.124 51.721 149.967 51.9307C149.967 50.9769 153.356 44.8034 159.752 45.558C166.153 46.3127 169.322 53.6181 168.924 54.4828H168.919Z" fill="black"/>
    <path d="M149.94 51.936C150.406 49.7506 152.046 47.9478 153.811 46.6482C158.929 43.0688 165.608 45.9878 168.19 51.2337C168.641 52.2504 169.269 53.3772 169.007 54.5249C168.986 54.572 168.934 54.5982 168.887 54.5773C168.845 54.5615 168.824 54.5196 168.829 54.4777C168.756 53.461 168.028 52.4967 167.514 51.6268C164.618 47.0203 159.248 44.1274 154.152 47.1722C152.344 48.2466 150.679 50.107 149.94 51.936Z" fill="#350803"/>
    <path d="M173.229 58.8798C173.229 58.8798 168.221 53.5029 159.965 52.1403C154.088 51.1656 148.221 54.006 148.221 54.006L154.607 59.5139L165.094 61.5735L173.234 58.8798H173.229Z" fill="#FD9A3F"/>
    <path d="M149.96 53.3089C149.96 53.3089 154.344 50.9507 160.415 52.2241C166.492 53.4924 173.223 58.885 173.223 58.885C172.563 59.4877 167.55 55.51 160.3 53.9693C154.323 52.701 150.169 53.9221 149.954 53.3089H149.96Z" fill="#FDA44B"/>
    <path d="M173.067 59.0317C166.996 53.6129 157.949 50.5628 150.087 53.5395C149.788 53.6915 149.532 53.2251 149.841 53.0626C155.728 50.044 162.921 51.4642 168.384 54.7291C170.223 55.8349 171.936 57.1293 173.392 58.7225C173.58 58.9321 173.271 59.2413 173.062 59.0265L173.067 59.0317Z" fill="#7A3C04"/>
    <path d="M135.325 48.6659C134.885 49.4415 129.343 50.0861 124.937 48.9279C120.632 47.7959 117.772 45.8516 117.845 44.8402C117.908 43.9598 121.538 38.4466 127.452 39.6415C133.366 40.8364 135.76 47.8903 135.325 48.6659Z" fill="#FBFBFB"/>
    <path d="M126.819 49.3944C129.729 49.3944 132.089 47.034 132.089 44.1223C132.089 41.2106 129.729 38.8502 126.819 38.8502C123.909 38.8502 121.549 41.2106 121.549 44.1223C121.549 47.034 123.909 49.3944 126.819 49.3944Z" fill="#FFBE2C" stroke="#E5A413" stroke-width="0.862815" stroke-miterlimit="10"/>
    <path d="M127.985 44.356C128.43 42.1574 128.268 40.2695 127.624 40.1393C126.981 40.0091 126.099 41.6859 125.654 43.8845C125.21 46.0831 125.372 47.971 126.015 48.1012C126.659 48.2314 127.541 46.5546 127.985 44.356Z" fill="#350803"/>
    <path d="M125.457 42.9168C125.952 42.9168 126.353 42.5156 126.353 42.0207C126.353 41.5257 125.952 41.1245 125.457 41.1245C124.962 41.1245 124.561 41.5257 124.561 42.0207C124.561 42.5156 124.962 42.9168 125.457 42.9168Z" fill="#FBFBFB"/>
    <path d="M129.228 45.2485C129.497 45.2485 129.715 45.0304 129.715 44.7614C129.715 44.4924 129.497 44.2743 129.228 44.2743C128.96 44.2743 128.742 44.4924 128.742 44.7614C128.742 45.0304 128.96 45.2485 129.228 45.2485Z" fill="#FBFBFB"/>
    <path d="M135.326 48.6659C135.761 47.8903 133.367 40.8363 127.453 39.6415C121.539 38.4466 117.909 43.9598 117.846 44.8402L118.16 40.9359L128.071 35.9783L139.574 45.8412L135.326 48.6659Z" fill="#F47F2D"/>
    <path opacity="0.1" d="M135.325 48.6659C135.325 48.6659 132.716 42.5343 127.431 41.2818C121.826 39.9507 117.839 44.8402 117.839 44.8402C117.902 43.9598 121.532 38.4466 127.446 39.6415C133.36 40.8364 135.754 47.8903 135.319 48.6659H135.325Z" fill="black"/>
    <path d="M117.845 44.8401C118.338 42.7962 120.04 41.1978 121.8 40.134C125.614 37.8962 130.653 39.4842 133.12 42.9849C134.074 44.2269 134.796 45.6314 135.21 47.1355C135.32 47.6281 135.498 48.1731 135.326 48.6605C135.436 48.1627 135.195 47.6543 135.053 47.1827C134.524 45.7624 133.702 44.447 132.738 43.2941C130.223 40.1864 125.745 38.8186 122.146 40.7838C120.428 41.7219 118.746 43.053 117.845 44.8401Z" fill="#350803"/>
    <path d="M130.148 48.2201C130.148 48.2201 127.66 45.5107 122.422 44.7613C117.179 44.0119 112.941 46.3283 112.941 46.3283L121.542 53.6494L130.148 50.0386V48.2201Z" fill="#FD9A3F"/>
    <path d="M112.941 46.3285C112.941 46.3285 117.66 43.5037 123.286 44.903C128.912 46.3023 130.725 49.085 130.725 49.085C130.725 49.085 125.963 46.6743 121.877 45.9459C116.676 45.0183 112.941 46.3285 112.941 46.3285Z" fill="#FDA44B"/>
    <path d="M129.819 48.5243C125.33 44.5257 118.379 43.9702 112.989 46.4176C112.884 46.4805 112.785 46.3075 112.895 46.2499C118.348 43.2994 125.807 43.5667 130.479 47.9217C130.904 48.3566 130.223 48.9908 129.819 48.5296V48.5243Z" fill="#7A3C04"/>
    <path d="M153.979 28.5C154.137 27.892 154.849 27.609 155.614 27.5042C156.719 27.3523 163.021 27.63 168.667 33.2375C173.885 38.4205 174.576 44.4682 174.566 44.6149C174.555 44.7617 171.114 37.2361 167.316 34.6053C163.518 31.9797 153.979 28.5 153.979 28.5Z" fill="#FDA44B"/>
    <path d="M153.471 31.6756C153.56 32.3936 157.41 31.2302 164.518 35.6166C171.632 39.9978 174.235 44.7668 174.549 44.7668C174.864 44.7668 172.045 36.9477 165.278 32.1263C159.61 28.0858 154.293 28.1225 153.973 28.505C153.654 28.8876 153.402 31.1725 153.465 31.6809L153.471 31.6756Z" fill="#541108"/>
    <path d="M174.565 44.7563C173.842 42.7596 170.825 36.8377 165.188 32.9963C159.442 29.0763 154.12 29.2178 153.811 29.6056C153.675 29.7733 153.565 30.2869 153.486 30.8633C153.554 29.9934 153.748 28.7723 153.968 28.505C154.288 28.1225 159.604 28.0858 165.272 32.1263C171.914 36.8586 174.754 44.4785 174.56 44.7615L174.565 44.7563Z" fill="#884227"/>
    <path d="M132.972 24.9783C132.794 24.3337 132.218 23.904 130.966 23.6315C129.798 23.3747 127.194 23.2751 122.233 25.8325C119.913 27.0274 118.651 28.5524 118.813 28.7044C119.421 29.2704 117.393 29.0188 122.495 27.562C127.597 26.1051 132.967 24.9783 132.967 24.9783H132.972Z" fill="#FDA44B"/>
    <path d="M114.953 33.2114C114.743 32.9232 118.19 27.8869 123.544 25.9898C129.212 23.9826 132.674 24.6167 132.973 24.9731C133.271 25.3295 133.14 28.3166 133.02 28.6625C132.899 29.0084 128.405 27.8659 123.617 29.2547C117.693 30.9736 115.147 33.4787 114.953 33.2114Z" fill="#541108"/>
    <path d="M133.145 26.367C132.674 25.9792 129.295 25.2508 123.716 26.8649C119.301 28.1436 116.011 31.5448 115.016 32.9545C115.529 31.8487 118.777 27.6772 123.538 25.9897C129.206 23.9825 132.669 24.6166 132.962 24.9782C133.082 25.1197 133.135 25.7067 133.14 26.367H133.145Z" fill="#884227"/>
    <path d="M123.286 79.3656C123.286 79.3656 123.386 90.1666 130.788 92.6559C138.111 95.119 147.634 85.2666 147.634 85.2666L123.286 79.3656Z" fill="#F47F2D"/>
    <path d="M120.034 57.5907C118.829 56.7418 116.042 55.1801 112.941 58.7542C109.06 63.2297 114.235 79.7901 128.986 84.2761C145.314 89.2442 170.169 80.6548 166.571 69.9534C162.967 59.252 143.538 63.6647 143.538 63.6647L120.039 57.5907H120.034Z" fill="#FDEFD4"/>
    <path d="M123.287 77.568C123.287 77.568 122.601 88.7044 130.002 91.1937C137.325 93.6568 148.923 84.2917 148.923 84.2917L123.287 77.568Z" fill="#FDEFD4"/>
    <g style="mix-blend-mode:multiply" opacity="0.9">
      <path d="M153.563 70.9228C153.563 70.9228 147.738 80.4556 140.824 80.9901C134.344 81.4932 129.069 73.7738 129.069 73.7738C129.069 73.7738 125.706 75.477 123.066 75.477C120.426 75.477 118.241 74.78 117.367 72.1963C117.367 72.1963 117.744 76.4779 123.27 76.8186C126.492 77.0177 128.273 75.1049 128.744 75.1992C129.305 75.3145 132.249 83.71 141.086 83.0025C149.299 82.3475 153.568 70.9176 153.568 70.9176" fill="#FDEFD4"/>
    </g>
    <path d="M123.476 77.5838C123.795 89.4486 129.803 94.3853 140.94 88.9036C143.706 87.5882 146.346 85.9689 148.834 84.1818C148.897 84.1294 148.996 84.1451 149.043 84.2132C149.091 84.2761 149.075 84.3652 149.017 84.4124C146.634 86.4038 144.041 88.1385 141.265 89.5692C135.372 92.6874 128.054 93.8822 124.623 86.7812C123.276 83.8726 122.894 80.6758 123.098 77.5629C123.125 77.3218 123.486 77.3323 123.481 77.5838H123.476Z" fill="#89543B"/>
    <path d="M120.233 62.9677C118.478 65.8762 115.979 70.3727 118.399 73.5066C121.097 76.3732 125.785 74.9006 128.87 73.3756C129.075 73.2708 129.321 73.3389 129.447 73.5223C132.338 77.3323 136.759 81.4409 141.924 80.4295C146.932 79.1717 150.578 74.9111 153.464 70.8496C153.506 70.792 153.585 70.7762 153.642 70.8129C153.7 70.8496 153.716 70.9282 153.679 70.9859C151.62 74.3084 149.033 77.3952 145.738 79.5648C139.221 84.0089 132.7 79.5333 128.703 74.0202C128.703 74.0202 129.29 74.1669 129.274 74.1669C126.56 75.4247 123.501 76.3418 120.526 75.5138C117.121 74.6753 116.246 71.033 117.352 68.0459C117.959 66.154 118.897 64.4193 120.002 62.7895C120.117 62.6375 120.343 62.7895 120.238 62.952L120.233 62.9677Z" fill="#89543B"/>
    <path d="M151.296 70.2626C152.82 69.5342 154.8 70.6766 154.92 72.3641C154.905 72.5895 155.03 73.1817 154.7 73.1764C154.47 73.0926 154.402 72.7257 154.276 72.558C153.658 71.3579 152.699 70.8077 151.327 70.4723C151.222 70.4565 151.201 70.3045 151.296 70.2626Z" fill="#89543B"/>
    <g style="mix-blend-mode:screen" opacity="0.7">
      <path d="M132.81 74.1303C132.38 75.6501 135.533 79.0355 139.855 79.1927C144.177 79.35 149.006 74.712 148.11 73.2132C147.508 72.207 144.648 70.2208 140.656 70.2312C137.514 70.2417 133.066 73.2079 132.81 74.125V74.1303Z" fill="#FDEFD4"/>
    </g>
    <g style="mix-blend-mode:screen" opacity="0.7">
      <path d="M125.125 73.0559C126.13 72.4218 123.784 69.4556 122.621 68.203C121.458 66.9505 120.117 65.8762 119.174 66.9505C118.231 68.0249 117.912 71.8191 119.373 73.0559C120.835 74.2927 123.962 73.7896 125.125 73.0559Z" fill="#FDEFD4"/>
    </g>
    <g style="mix-blend-mode:screen" opacity="0.7">
      <path d="M128.059 76.9864C129.363 77.1855 131.856 82.9974 134.523 83.6787C137.189 84.36 142.008 84.8893 142.008 86.2047C142.008 88.4948 134.255 91.6812 129.766 89.6006C125.921 87.8188 123.643 83.904 124.407 80.0155C124.737 78.3385 127.116 76.8397 128.059 76.9864Z" fill="#FDEFD4"/>
    </g>
    <path d="M135.733 33.2321C135.733 33.2321 140.076 32.1682 143.161 32.7604C146.241 33.3526 150.233 35.2497 150.233 35.2497C150.233 35.2497 147.153 31.4974 143.203 30.8214C139.253 30.1506 135.738 33.2268 135.738 33.2268L135.733 33.2321Z" fill="#7A3C04"/>
    <path d="M133.817 35.2499C133.817 35.2499 134.697 39.8616 132.303 44.7616C129.469 50.5578 122.879 55.6884 120.035 57.6065L143.534 63.6804C145.027 61.6732 146.535 58.6493 148.531 52.8008L133.817 35.2551V35.2499Z" fill="#FD9A3F"/>
    <path d="M134.093 35.6324C134.543 40.2547 133.092 44.8979 130.195 48.5087C127.398 52.1352 124.046 55.3635 120.217 57.8842L120.117 57.2815L143.522 63.6856L143.129 63.8638C143.155 63.5703 143.391 63.2087 143.522 62.9414L143.972 62.0505C144.842 60.3159 145.811 58.4135 146.706 56.6998C146.743 56.6317 146.822 56.6055 146.89 56.6422C146.953 56.6736 146.979 56.7522 146.953 56.8151C146.224 58.6022 145.355 60.5622 144.59 62.344L144.192 63.2664C144.056 63.5231 143.962 63.9581 143.731 64.1573C143.632 64.2149 143.469 64.456 143.338 64.3354L119.934 57.9314C119.666 57.8685 119.598 57.4807 119.829 57.3287C125.795 52.8427 133.003 46.9784 133.721 39.0336C133.841 37.9121 133.883 36.7697 133.799 35.6534C133.794 35.5748 133.852 35.5067 133.93 35.5014C134.009 35.4962 134.077 35.5538 134.082 35.6324H134.093Z" fill="#7A3C04"/>
    <path d="M143.534 63.6803C142.711 67.9829 131.004 72.5527 129.155 72.1754C126.315 71.2897 124.597 67.6527 122.471 65.3049C114.556 54.1581 123.654 55.2534 131.224 58.8746C134.513 59.6869 143.539 59.7813 143.539 63.6751L143.534 63.6803Z" fill="#541108"/>
    <path d="M143.533 63.6804C143.533 64.7914 142.25 66.133 140.442 67.4222C140.442 67.4222 140.442 67.4222 140.442 67.4117C141.328 66.2221 142.234 64.8071 141.139 63.5179C139.133 61.1439 134.869 61.8094 130.568 60.8871C126.158 59.9438 124.581 57.6746 121.826 58.4869C119.83 59.0738 119.971 61.0181 120.024 61.2225C119.442 59.9333 119.196 58.8432 119.458 58.1724C121.213 53.655 128.489 58.2091 131.213 58.8799C134.502 59.6922 143.528 59.7866 143.528 63.6804H143.533Z" fill="#884227"/>
    <path d="M143.533 63.6802C143.533 67.1076 131.427 72.6627 129.154 72.1753C126.315 71.2897 124.596 67.6527 122.47 65.3048C114.314 53.7964 124.298 55.531 131.223 58.8798C134.512 59.6869 143.533 59.7812 143.533 63.6802Z" stroke="#350803" stroke-width="1.28419" stroke-linecap="round" stroke-linejoin="round"/>
    <path d="M134.941 43.1579C134.941 43.1579 138.221 42.1674 141.18 42.8801C144.14 43.5928 147.262 45.8463 147.262 45.8463C147.262 45.8463 145.643 41.8949 141.259 41.2241C137.241 40.6057 134.941 43.1579 134.941 43.1579Z" fill="#7A3C04"/>
    <path d="M138.132 68.7846C136.666 69.5497 133.832 70.9857 132.506 71.4835C134.942 69.6231 133.842 66.9766 136.849 66.5102C138.599 66.2376 139.07 68.0824 138.132 68.7846Z" fill="#350803"/>
    <path d="M126.331 70.0476C124.702 68.554 122.057 64.7284 122.057 64.7231C122.057 64.7231 121.669 62.7579 123.272 63.2505C125.305 63.8794 124 66.484 126.336 70.0476H126.331Z" fill="#350803"/>
    <path d="M131.711 61.102C131.574 61.4584 137.818 62.0191 139.589 63.0044C141.522 64.0839 141.459 64.7338 141.648 64.739C141.847 64.739 141.527 63.2821 139.867 62.3598C138.227 61.4531 131.847 60.7456 131.711 61.102Z" fill="#C1755D"/>
    <path d="M125.885 54.766C125.885 56.3749 130.17 56.3539 132.506 56.9356C134.591 57.4545 140.227 60.2058 143.161 59.3044C144.963 58.7541 148.095 50.0756 147.514 48.6659C145.948 44.8245 137.299 42.3143 133.952 45.249C132.763 46.1818 132.695 47.5392 130.542 49.9918C128.63 52.1667 125.885 53.655 125.885 54.766Z" fill="#FDA44B"/>
  </g>
  <defs>
    <clipPath id="clip0_1_57">
      <rect width="214.7" height="186.609" fill="white" transform="translate(0.199585 0.0327148)"/>
    </clipPath>
  </defs>
</svg>