<svg width="31" height="31" viewBox="0 0 31 31" fill="none" xmlns="http://www.w3.org/2000/svg">
<g id="tg">
<circle id="Ellipse 66" cx="15.9344" cy="15.5384" r="14.5987" stroke="#D7B27B" stroke-width="0.802618"/>
<path id="Path" fill-rule="evenodd" clip-rule="evenodd" d="M10.9584 15.2814C14.0557 13.9787 16.1211 13.1199 17.1545 12.705C20.1051 11.5203 20.7182 11.3145 21.1178 11.3077C21.2057 11.3062 21.4022 11.3272 21.5295 11.4269C21.637 11.5111 21.6666 11.6249 21.6807 11.7047C21.6949 11.7845 21.7125 11.9664 21.6985 12.1085C21.5386 13.7302 20.8467 17.6659 20.4948 19.4823C20.3458 20.2509 20.0526 20.5086 19.7687 20.5338C19.1517 20.5886 18.6831 20.1402 18.0855 19.762C17.1504 19.1703 16.6222 18.802 15.7145 18.2245C14.6655 17.5572 15.3455 17.1905 15.9433 16.5911C16.0998 16.4342 18.8183 14.0472 18.8709 13.8307C18.8775 13.8036 18.8836 13.7027 18.8214 13.6494C18.7593 13.5961 18.6676 13.6143 18.6015 13.6288C18.5077 13.6493 17.0138 14.6025 14.1199 16.4883C13.6959 16.7693 13.3118 16.9063 12.9677 16.8991C12.5883 16.8912 11.8586 16.692 11.3161 16.5218C10.6507 16.313 10.1219 16.2026 10.168 15.8481C10.1919 15.6634 10.4554 15.4745 10.9584 15.2814Z" fill="#D7B27B"/>
</g>
</svg>
