<svg xmlns="http://www.w3.org/2000/svg" width="158" height="186" viewBox="0 0 158 186" fill="none">
  <g clip-path="url(#clip0_1_293)">
    <path d="M131.515 102.097L113.539 124.566L113.322 124.845C118.934 139.023 126.535 146.299 133.333 149.552C133.346 149.556 133.355 149.565 133.373 149.57C139.887 152.687 145.657 152.082 148.201 150.337C153.398 146.759 158.987 133.172 156.817 123.483C155.432 117.303 152.387 111.678 152.387 111.678L131.515 102.092V102.097Z" fill="#FD9A3F"/>
    <path d="M131.515 102.097L113.539 124.566L113.322 124.845C118.934 139.023 126.535 146.299 133.333 149.552C133.346 149.556 133.355 149.565 133.373 149.57C139.887 152.687 145.657 152.082 148.201 150.337C153.398 146.759 159.005 133.872 156.817 123.483C155.193 115.778 152.387 111.678 152.387 111.678L131.515 102.092V102.097Z" stroke="#7A3C04" stroke-width="2" stroke-linecap="round" stroke-linejoin="round"/>
    <path d="M114.284 89.8221C114.202 89.9304 114.126 90.0387 114.054 90.1559C109.516 96.9675 107.625 109.003 113.318 124.841C113.986 124.809 114.857 124.755 115.917 124.651C119.575 124.304 125.444 123.402 132.391 121.015C141.449 117.898 152.379 111.673 152.379 111.673C152.379 111.673 154.95 103.657 151.048 93.7557C147.096 83.7414 138.765 81.3009 133.261 80.9762C130.117 80.7912 125.624 81.328 121.361 83.606C118.808 84.9683 116.336 86.9667 114.275 89.8176L114.284 89.8221Z" fill="#222222"/>
    <path d="M114.284 89.8221C114.202 89.9304 114.126 90.0387 114.054 90.1559C109.516 96.9675 107.625 109.003 113.318 124.841C113.986 124.809 114.857 124.755 115.917 124.651C119.575 124.304 125.444 123.402 132.391 121.015C141.449 117.898 152.379 111.673 152.379 111.673C152.379 111.673 154.95 103.657 151.048 93.7557C147.096 83.7414 138.765 81.3009 133.261 80.9762C130.117 80.7912 125.624 81.328 121.361 83.606C118.808 84.9683 116.336 86.9667 114.275 89.8176L114.284 89.8221Z" stroke="black" stroke-width="2" stroke-linecap="round" stroke-linejoin="round"/>
    <path d="M156.591 134.485C156.591 134.485 151.354 134.805 145.72 135.247C145.72 135.247 154.3 131.792 157.304 129.094L156.591 134.481V134.485Z" fill="#7A3C04"/>
    <path d="M154.261 115.3C154.261 115.3 150.381 117.474 146.118 119.053C146.118 119.053 151.829 118.818 155.88 119.621L154.261 115.3Z" fill="#7A3C04"/>
    <path d="M26.8346 102.097L44.8107 124.566L45.0273 124.845C39.4156 139.023 31.8147 146.299 25.0167 149.552C25.0032 149.556 24.9941 149.565 24.9761 149.57C18.4623 152.687 12.6928 152.082 10.1486 150.337C4.95199 146.759 -0.637079 133.172 1.53269 123.483C2.91755 117.303 5.96244 111.678 5.96244 111.678L26.8346 102.092V102.097Z" fill="#FD9A3F"/>
    <path d="M26.8353 102.097L44.8114 124.566L45.0279 124.845C39.4163 139.023 31.8153 146.299 25.0173 149.552C25.0038 149.556 24.9948 149.565 24.9767 149.57C18.4629 152.687 12.6934 152.082 10.1492 150.337C4.95263 146.759 -0.654478 133.872 1.53333 123.483C3.15727 115.778 5.96309 111.678 5.96309 111.678L26.8353 102.092V102.097Z" stroke="#7A3C04" stroke-width="2" stroke-linecap="round" stroke-linejoin="round"/>
    <path d="M44.0667 89.8221C44.1479 89.9304 44.2246 90.0387 44.2967 90.1559C48.8348 96.9675 50.7248 109.003 45.032 124.841C44.3644 124.809 43.4938 124.755 42.4337 124.651C38.7753 124.304 32.9066 123.402 25.9597 121.015C16.9017 117.898 5.97171 111.673 5.97171 111.673C5.97171 111.673 3.40047 103.657 7.30244 93.7557C11.254 83.7414 19.5858 81.3009 25.0891 80.9762C28.2332 80.7912 32.7262 81.328 36.989 83.606C39.5422 84.9683 42.0142 86.9667 44.0757 89.8176L44.0667 89.8221Z" fill="#222222"/>
    <path d="M44.0667 89.8221C44.1479 89.9304 44.2246 90.0387 44.2967 90.1559C48.8348 96.9675 50.7248 109.003 45.032 124.841C44.3644 124.809 43.4938 124.755 42.4337 124.651C38.7753 124.304 32.9066 123.402 25.9597 121.015C16.9017 117.898 5.97171 111.673 5.97171 111.673C5.97171 111.673 3.40047 103.657 7.30244 93.7557C11.254 83.7414 19.5858 81.3009 25.0891 80.9762C28.2332 80.7912 32.7262 81.328 36.989 83.606C39.5422 84.9683 42.0142 86.9667 44.0757 89.8176L44.0667 89.8221Z" stroke="black" stroke-width="2" stroke-linecap="round" stroke-linejoin="round"/>
    <path d="M1.75811 134.485C1.75811 134.485 6.99532 134.805 12.6295 135.247C12.6295 135.247 4.04967 131.792 1.04538 129.094L1.75811 134.481V134.485Z" fill="#7A3C04"/>
    <path d="M4.09026 115.3C4.09026 115.3 7.96967 117.474 12.2325 119.053C12.2325 119.053 6.52166 118.818 2.47083 119.621L4.09026 115.3Z" fill="#7A3C04"/>
    <path d="M109.746 88.3966C109.746 88.3966 101.576 109.282 79.8424 109.282C75.0608 109.282 70.9062 108.231 67.3336 106.594H67.3291C54.6623 100.775 49.3214 87.562 49.3214 87.562L50.9227 67.9259L108.099 67.5154L108.419 71.5301L109.746 88.3966Z" fill="#F47F2D"/>
    <path d="M109.746 88.3965C109.746 88.3965 101.577 109.282 79.8428 109.282C75.0612 109.282 70.9066 108.231 67.334 106.594H67.3295C67.3295 106.594 57.243 95.3659 65.0018 85.9741C72.7516 76.5778 108.42 71.53 108.42 71.53L109.746 88.3965Z" fill="#FD9A3F"/>
    <path d="M50.2735 75.8967C50.2735 75.8967 54.595 80.4257 65.0018 83.0285C65.0018 83.0285 55.5152 82.7263 50.0209 78.9732L50.2735 75.8967Z" fill="#7A3C04"/>
    <path d="M108.784 76.2441L109.037 79.465C109.037 79.465 103.953 81.937 97.2449 81.116C97.2449 81.116 105.121 79.1808 108.784 76.2486V76.2441Z" fill="#7A3C04"/>
    <path d="M70.1986 86.3757C70.1986 86.3757 88.4995 89.0642 99.7137 85.3517C99.7137 85.3517 93.2721 89.5784 84.7825 89.5108C76.2929 89.4431 70.1986 86.3757 70.1986 86.3757Z" fill="#7A3C04"/>
    <path d="M109.746 88.3966C109.746 88.3966 101.576 109.282 79.8424 109.282C75.0608 109.282 70.9062 108.231 67.3336 106.594H67.3291C54.6623 100.775 49.3214 87.562 49.3214 87.562L50.9227 67.9259L108.099 67.5154L108.419 71.5301L109.746 88.3966Z" stroke="#7A3C04" stroke-width="2" stroke-linecap="round" stroke-linejoin="round"/>
    <path d="M132.418 134.011C124.537 148.627 123.103 169.215 123.387 179.378C123.387 179.378 97.2685 186 79.2021 186C59.7284 186 36.2083 179.378 36.2083 179.378C36.4609 170.397 35.3647 154.717 29.6719 139.56C28.9276 137.584 28.1021 135.726 27.1954 134.034C27.1864 134.016 27.1774 134.011 27.1774 134.011C22.1837 124.728 20.3478 108.353 26.9112 95.0143C33.8716 80.8679 49.2449 82.2212 49.2449 82.2212C49.2449 82.2212 59.3134 99.1598 79.7931 99.1598C97.2865 99.1598 109.696 81.7611 109.696 81.7611C109.696 81.7611 125.724 80.8724 132.684 95.0143C139.247 108.349 137.411 124.728 132.418 134.011Z" fill="black"/>
    <path d="M132.418 134.011C132.395 134.052 132.377 134.093 132.355 134.133C131.367 135.405 121.925 146.408 97.5166 140.462C98.2699 140.809 117.049 149.177 129.919 139.587C124.23 154.735 123.139 170.397 123.387 179.378C123.387 179.378 100.142 186 79.2021 186C60.7433 186 36.2083 179.378 36.2083 179.378C36.4609 170.397 35.3647 154.717 29.6719 139.56C42.5371 149.191 61.3523 140.805 62.1056 140.458C36.8804 146.606 27.642 134.638 27.1954 134.034C27.1864 134.016 27.1774 134.011 27.1774 134.011C22.1837 124.728 20.3478 108.353 26.9112 95.0143C33.8716 80.8679 49.2449 82.2212 49.2449 82.2212C49.2449 82.2212 59.3134 99.1598 79.7931 99.1598C97.2865 99.1598 109.696 81.7611 109.696 81.7611C109.696 81.7611 125.724 80.8724 132.684 95.0143C139.247 108.349 137.411 124.728 132.418 134.011Z" fill="#222222"/>
    <path d="M137.024 112.3C137.281 119.427 136.167 126.735 133.081 133.217C131.083 136.975 129.405 140.94 128.169 145.014C124.862 155.885 123.559 167.365 123.807 178.706C123.816 178.954 123.617 179.166 123.369 179.175C123.116 179.184 122.909 178.986 122.904 178.733C122.805 164.474 124.808 149.908 130.731 136.84C131.94 134.314 133.442 131.774 134.308 129.099C136.158 123.731 136.92 117.997 136.744 112.318C136.744 112.241 136.803 112.174 136.879 112.174C136.956 112.174 137.024 112.232 137.024 112.309V112.3Z" fill="black"/>
    <path d="M36.299 85.0991C39.1589 83.2857 42.5061 82.2933 45.8667 81.9143C46.999 81.7926 48.1177 81.7249 49.2905 81.77C49.4439 81.7835 49.5657 81.8692 49.6379 81.991C52.8677 86.9486 57.3877 91.1122 62.4986 94.0894C67.6456 97.0666 73.5504 98.668 79.5004 98.6996C88.5313 98.8349 96.8675 94.0939 103.336 88.0943C105.515 86.0644 107.572 83.8586 109.34 81.4993C109.417 81.3821 109.557 81.3054 109.692 81.3099C112.976 81.3775 116.21 81.9595 119.287 83.0782C120.311 83.439 121.29 83.9172 122.246 84.4179C122.305 84.4495 122.327 84.5172 122.296 84.5758C122.264 84.6345 122.197 84.657 122.138 84.6254C120.207 83.7097 118.155 83.0737 116.053 82.6993C113.978 82.3203 111.817 82.1354 109.719 82.2121L110.071 82.0226C104.518 89.204 97.2149 95.3299 88.5132 98.2124C81.2371 100.59 73.158 99.7822 66.1434 96.8997C59.1334 93.918 53.0436 88.8296 48.8665 82.4557L49.2138 82.6767C47.0486 82.4872 44.7886 82.6406 42.6414 83.0376C40.4671 83.4481 38.3379 84.1608 36.3892 85.2479C36.3035 85.3021 36.2133 85.1577 36.3035 85.1036L36.299 85.0991Z" fill="black"/>
    <path d="M35.7761 178.697C36.0963 166.292 34.2423 153.801 30.2907 142.032C29.3705 139.334 28.351 136.623 26.9978 134.106C25.2204 130.714 24.0882 127.028 23.3845 123.289C22.6898 119.545 22.4417 115.719 22.6266 111.917C22.6266 111.858 22.6763 111.817 22.7349 111.817C22.7935 111.817 22.8341 111.867 22.8341 111.926C22.6853 115.71 22.965 119.513 23.6912 123.23C24.404 126.943 25.7302 130.966 27.4534 134.07C27.6022 134.345 27.8864 134.904 28.0308 135.193C29.5284 138.211 30.6336 141.405 31.6756 144.603C35.1445 155.61 36.8542 167.176 36.6737 178.719C36.6692 178.967 36.4617 179.166 36.2136 179.161C35.961 179.157 35.7625 178.945 35.7716 178.692L35.7761 178.697Z" fill="black"/>
    <path d="M62.3238 132.175C62.3689 132.175 62.4095 132.175 62.4546 132.166L74.4673 130.321C74.6026 130.299 74.7289 130.249 74.8372 130.168C74.9455 130.087 75.0312 129.983 75.0898 129.861L80.115 119.125C80.1782 118.994 80.2007 118.85 80.1827 118.706C80.1646 118.561 80.1105 118.426 80.0203 118.313C79.9301 118.2 79.8083 118.11 79.6729 118.056C79.5331 118.002 79.3842 117.984 79.2354 118.006L67.2227 119.851C67.0874 119.874 66.9611 119.923 66.8528 120.005C66.7446 120.086 66.6589 120.19 66.6002 120.311L61.575 131.047C61.5164 131.169 61.4938 131.305 61.5028 131.435C61.5119 131.571 61.557 131.697 61.6337 131.81C61.7103 131.923 61.8096 132.013 61.9314 132.076C62.0532 132.139 62.1885 132.175 62.3238 132.175ZM68.3414 127.939L71.3683 129.18L65.4229 130.091L68.3414 127.935V127.939ZM68.8512 125.553L68.2693 121.308L76.2627 120.081L68.8512 125.553ZM67.34 126.667L64.4214 128.824L66.907 123.51L67.34 126.667ZM73.917 128.494L69.8481 126.825L77.2596 121.353L73.917 128.494Z" fill="#D7B27B"/>
    <path d="M105.498 138.441C105.006 134.936 103.197 131.233 100.409 128.016C96.8052 123.857 92.1454 121.178 87.8781 120.79C87.639 120.23 87.3232 119.703 86.9443 119.22L83.949 115.408C82.1717 113.148 79.1133 112.079 75.3376 112.399C71.7018 112.711 67.7998 114.28 64.3489 116.829C60.9026 119.373 58.2998 122.603 57.0277 125.919C55.706 129.36 55.9586 132.5 57.7359 134.76L59.4591 136.952C59.1162 137.408 58.832 137.9 58.611 138.423L56.739 142.857C55.6293 145.487 56.2292 148.586 58.4261 151.577C60.5462 154.459 63.9204 156.922 67.9351 158.51C70.8628 159.67 73.8851 160.27 76.6999 160.27C77.7149 160.27 78.7299 160.188 79.7313 160.021C83.4618 159.381 86.1278 157.581 87.242 154.951L89.0013 150.783C89.3125 150.9 89.6283 151.009 89.9441 151.108C91.1891 151.505 92.4882 151.717 93.7964 151.73C95.8264 151.73 97.6172 151.148 99.0291 150.003L102.814 146.922C105.06 145.095 106.017 142.081 105.502 138.446L105.498 138.441ZM82.0274 144.026L84.549 141.973C85.6587 143.178 86.8902 144.269 88.2299 145.235L85.7444 147.26C84.3866 146.317 83.1416 145.235 82.0274 144.03V144.026ZM80.9673 142.803C80.6244 142.379 80.2951 141.942 79.9884 141.499C79.9523 141.441 79.9162 141.378 79.8756 141.324H79.8666C79.2576 140.439 78.7163 139.506 78.2517 138.54C78.9599 138.116 79.6501 137.656 80.3312 137.155C80.5072 137.025 80.6831 136.894 80.8545 136.758C81.5943 138.17 82.4739 139.51 83.4889 140.751L80.9673 142.803ZM78.6577 143.701C78.4908 144.093 78.175 144.405 77.769 144.567C77.3675 144.729 76.9119 144.734 76.506 144.571L72.6942 143.06L73.7137 140.647C74.7783 140.286 75.8158 139.848 76.8127 139.334C77.3269 140.385 77.9224 141.396 78.5945 142.361C78.7028 142.569 78.7659 142.794 78.7795 143.024C78.7885 143.254 78.7479 143.484 78.6577 143.701ZM76.7811 146.913C76.9074 147.206 76.9435 147.526 76.8804 147.833C76.8172 148.144 76.6638 148.428 76.4338 148.654C76.2037 148.879 75.9105 149.033 75.5902 149.096C75.27 149.159 74.9407 149.127 74.6384 149.01L70.8267 147.499L72.0762 144.544L75.888 146.056C76.0864 146.132 76.2714 146.249 76.4248 146.398C76.5781 146.547 76.6999 146.723 76.7856 146.917L76.7811 146.913ZM65.0572 137.832C65.1474 137.832 65.2331 137.832 65.3233 137.832L67.0284 140.002C64.8587 139.808 63.1265 138.991 62.0438 137.611L61.8995 137.431C62.928 137.706 63.9881 137.841 65.0572 137.832ZM69.2027 139.997C69.1711 139.997 69.1396 140.002 69.108 140.006L67.272 137.674C68.4584 137.503 69.6222 137.219 70.7545 136.835L72.6942 139.307C71.5574 139.663 70.3891 139.894 69.2027 140.002V139.997ZM76.6729 133.822L78.6712 136.361C77.3134 137.304 75.8519 138.094 74.3136 138.725L72.3469 136.222C73.8716 135.568 75.3196 134.765 76.6729 133.822ZM79.9794 135.392L77.981 132.852C79.2757 131.837 80.4621 130.696 81.5176 129.446L83.4844 131.95C82.4514 133.217 81.274 134.372 79.9794 135.392ZM84.4903 130.587L82.5461 128.115C83.2318 127.164 83.8227 126.149 84.3054 125.084L86.1368 127.416C86.1278 127.448 86.1143 127.475 86.1053 127.506C85.6812 128.589 85.1399 129.622 84.4858 130.587H84.4903ZM86.6917 125.481L84.9865 123.311C85.3249 122.242 85.4963 121.128 85.4963 120.009L85.6406 120.19C86.7233 121.566 87.0796 123.402 86.6962 125.481H86.6917ZM58.5749 126.478C59.7433 123.442 62.1476 120.469 65.3504 118.101C68.5531 115.737 72.1529 114.276 75.482 113.992C75.8744 113.96 76.2533 113.942 76.6277 113.942C79.2802 113.942 81.3913 114.79 82.6408 116.378C84.0618 118.187 84.2332 120.785 83.1145 123.695C81.9462 126.731 79.5418 129.703 76.339 132.072C73.1363 134.435 69.5365 135.897 66.2075 136.181C63.0182 136.452 60.474 135.608 59.0531 133.799C57.6321 131.99 57.4607 129.388 58.5794 126.478H58.5749ZM60.7312 138.576C62.301 140.575 64.8722 141.639 68.0524 141.639C68.472 141.639 68.905 141.621 69.3426 141.585C70.1365 141.517 70.9214 141.391 71.6928 141.22L69.2975 146.895L67.7728 146.29L67.1502 147.77L68.6749 148.374L68.0524 149.854L69.5771 150.458L70.1996 148.979L71.7243 149.583L71.1018 151.063L72.6265 151.667L73.249 150.188L74.0114 150.49C74.6159 150.729 75.279 150.787 75.915 150.666C76.5556 150.539 77.1375 150.233 77.5976 149.786C78.0577 149.339 78.369 148.767 78.4908 148.149C78.6171 147.531 78.5449 146.886 78.2968 146.304C78.2697 146.24 78.2382 146.177 78.2066 146.119C78.6351 145.974 79.0321 145.744 79.3659 145.447C79.6997 145.149 79.9659 144.783 80.1463 144.377C80.1688 144.404 80.1914 144.432 80.2185 144.459C82.3476 146.917 84.8647 148.875 87.4811 150.142C86.5338 152.127 84.355 153.503 81.3101 154.026C78.0171 154.59 74.1512 154.085 70.4252 152.61C66.6991 151.13 63.5776 148.866 61.6379 146.227C59.7794 143.696 59.2425 141.148 60.1312 139.041C60.2395 138.788 60.3658 138.545 60.5101 138.31L60.7266 138.585L60.7312 138.576ZM69.0494 153.765L67.7998 156.719C66.2751 156.061 64.8316 155.244 63.4919 154.279L64.7234 151.365C66.0766 152.303 67.5292 153.111 69.0494 153.765ZM70.5741 154.369C72.1348 154.938 73.7498 155.348 75.3963 155.596L74.1648 158.51C72.5092 158.289 70.8898 157.892 69.3245 157.324L70.5741 154.369ZM58.2637 143.466L58.3539 143.254C58.6561 144.337 59.1208 145.365 59.7342 146.317L58.6697 148.843C57.7404 146.931 57.5915 145.068 58.2682 143.466H58.2637ZM59.7703 150.652C59.7523 150.625 59.7342 150.603 59.7162 150.575L60.862 147.86C61.6153 148.762 62.4589 149.597 63.3746 150.341L62.1611 153.214C61.268 152.448 60.4695 151.586 59.7703 150.648V150.652ZM75.8834 158.659L77.0969 155.786C77.5931 155.822 78.0848 155.84 78.572 155.84C79.2802 155.84 79.9839 155.799 80.6831 155.722L79.5373 158.438C79.5057 158.443 79.4742 158.452 79.4426 158.456C78.2652 158.65 77.0743 158.722 75.8834 158.664V158.659ZM81.5402 157.91L82.6048 155.384C83.728 155.123 84.8061 154.703 85.803 154.135L85.7128 154.347C85.0362 155.948 83.5836 157.175 81.5402 157.91ZM87.1879 148.167L89.6418 146.168C90.6568 146.786 91.7304 147.31 92.8491 147.729L90.5305 149.615C90.4989 149.606 90.4673 149.597 90.4358 149.588C89.3035 149.231 88.2119 148.753 87.1834 148.167H87.1879ZM97.96 148.78C96.5932 149.894 94.7167 150.323 92.5559 150.052L94.7121 148.297C95.6504 148.528 96.6113 148.645 97.5766 148.649C97.7661 148.649 97.9555 148.64 98.145 148.631L97.9645 148.78H97.96ZM101.745 145.699C99.9448 147.161 97.2744 147.449 94.225 146.507C91.0402 145.523 87.86 143.335 85.2707 140.345C84.0302 138.924 82.9792 137.358 82.1446 135.685C84.6888 133.42 86.6105 130.772 87.6525 128.066C88.4239 126.058 88.6585 124.15 88.3698 122.463C92.0011 123.018 96.0519 125.472 99.1509 129.045C101.74 132.031 103.418 135.446 103.869 138.658C104.302 141.734 103.549 144.233 101.754 145.699H101.745Z" fill="#D7B27B"/>
    <path d="M90.7837 139.113L92.2272 138.184C92.4979 138.459 92.8046 138.662 93.1519 138.797C93.9143 139.099 94.6857 138.996 95.4751 138.491C96.1066 138.085 96.49 137.656 96.6254 137.214C96.7517 136.758 96.6705 136.321 96.3818 135.897C96.1517 135.558 95.8269 135.378 95.4029 135.355C94.9924 135.328 94.4782 135.405 93.8602 135.581C92.6648 135.942 91.8302 136.14 91.3566 136.176C90.0664 136.303 89.0876 135.874 88.4109 134.891C87.9553 134.228 87.7749 133.483 87.8741 132.667C87.9779 131.846 88.3793 131.133 89.065 130.538L88.1989 129.275L89.5793 128.381L90.4454 129.645C91.5235 129.23 92.561 129.279 93.5579 129.784C94.0135 130.014 94.4285 130.312 94.7939 130.678L93.3504 131.607C93.1249 131.395 92.8723 131.237 92.5926 131.138C91.952 130.912 91.2799 131.025 90.5717 131.48C90.0259 131.832 89.6965 132.225 89.5748 132.658C89.4575 133.091 89.5296 133.506 89.8003 133.894C90.2018 134.48 91.0453 134.589 92.3309 134.219C92.4392 134.187 92.6422 134.133 92.9444 134.052C93.2422 133.962 93.4587 133.907 93.594 133.885C93.7293 133.849 93.9414 133.804 94.2255 133.745C94.5142 133.673 94.7353 133.641 94.8977 133.637C95.0601 133.637 95.2676 133.637 95.5202 133.637C95.7683 133.628 95.9803 133.659 96.1562 133.727C96.3322 133.781 96.5171 133.853 96.7201 133.939C96.9276 134.025 97.1171 134.151 97.293 134.318C97.4599 134.48 97.6223 134.67 97.7711 134.891C98.2809 135.635 98.4658 136.411 98.326 137.218C98.1862 138.012 97.7802 138.721 97.099 139.352L97.9651 140.615L96.5848 141.508L95.7187 140.245C94.4782 140.778 93.2963 140.746 92.1685 140.155C91.6498 139.889 91.1852 139.542 90.7792 139.113H90.7837Z" fill="#D7B27B"/>
    <path d="M126.131 54.9525C126.266 55.2096 129.916 61.9851 124.809 66.2659C124.809 66.2659 125.779 63.5639 124.015 61.7956C124.083 62.0888 125.617 69.0898 118.945 73.5872C118.945 73.5872 119.748 71.1603 119.193 69.5544C119.193 69.5544 106.531 82.0227 79.2126 82.0227C70.7862 82.0227 63.6769 80.7461 57.8758 78.9868C57.8713 78.9823 57.8668 78.9823 57.8668 78.9823C44.8572 75.0307 38.4156 68.6207 38.4156 68.6207C37.8652 70.2266 39.7192 73.7677 39.7192 73.7677C32.8671 68.1425 34.3467 62.0392 34.4099 61.7911C32.6416 63.5594 32.6145 66.7396 32.6145 66.7396C28.9606 61.2768 32.2942 54.9435 32.2942 54.9435C30.5214 55.7058 29.8042 57.9387 29.8042 57.9387C28.9516 47.9334 39.4396 43.03 43.1972 33.0834C44.749 28.9829 46.5804 24.5351 48.9486 20.5971C51.2041 16.844 53.9378 13.5555 57.3841 11.4985C63.3747 7.90778 73.8175 7.76794 79.3389 7.76794C84.8603 7.76794 95.046 7.90778 101.037 11.4985C108.087 15.7253 112.201 25.081 115.224 33.0879C118.981 43.0345 129.731 48.5785 128.874 58.5793C128.874 58.5793 127.899 55.7148 126.131 54.948V54.9525Z" fill="#F47F2D"/>
    <path d="M126.129 54.9525C126.265 55.2096 129.914 61.9851 124.808 66.2659C124.808 66.2659 125.777 63.5639 124.014 61.7956C124.081 62.0888 125.62 69.0898 118.943 73.5872C118.943 73.5872 119.746 71.1603 119.191 69.5544C119.191 69.5544 105.144 82.5099 79.2109 82.0272C79.2109 82.0272 64.0993 82.1806 50.1018 73.5241C35.3284 64.3804 30.9754 51.3167 36.5644 43.3999C36.5689 43.3954 41.2017 38.3657 43.1955 33.0879C44.7473 28.9875 46.5787 24.5397 48.947 20.6016V20.5926C51.2025 16.844 53.9361 13.56 57.3825 11.4985C63.373 7.90778 73.8158 7.76794 79.3373 7.76794C84.8587 7.76794 95.0444 7.90778 101.035 11.4985C108.086 15.7298 112.195 25.081 115.217 33.0879C118.979 43.0346 129.729 48.5785 128.872 58.5793C128.872 58.5793 127.898 55.7148 126.129 54.9525Z" fill="#FD9A3F"/>
    <path d="M128.895 58.1461C128.886 58.295 128.877 58.4393 128.868 58.5792C128.868 58.5792 127.894 55.7147 126.126 54.9479C126.261 55.205 129.91 61.9804 124.804 66.2613C124.804 66.2613 125.774 63.5593 124.01 61.791C124.078 62.0842 125.611 69.0852 118.94 73.5826C118.94 73.5826 119.743 71.1557 119.188 69.5498C119.188 69.5498 112.945 75.6982 99.7682 79.3566C100.923 78.883 119.531 71.07 120.532 58.4709C121.276 49.0385 118.141 39.9309 116.364 35.641C119.689 41.9563 125.508 46.5846 127.867 52.3541C128.566 54.3705 128.963 56.3417 128.886 58.1416L128.895 58.1461Z" fill="#FDA44B"/>
    <path d="M79.2118 82.1489C66.4142 82.2256 53.364 79.3161 42.5197 72.3106C40.9769 71.2956 39.4838 70.2355 38.0944 68.9454L38.8387 68.774C38.55 70.3799 39.4567 72.1211 40.1153 73.5646C40.3544 73.9841 39.7906 74.4352 39.4297 74.124C35.7893 71.2099 33.0151 66.5004 33.9669 61.6918L34.7248 62.1203C34.4496 62.4135 34.2015 62.7383 33.9985 63.0992C33.394 64.1999 33.1144 65.5125 33.0602 66.7531C33.0602 67.0057 32.8482 67.2087 32.5956 67.2042C32.4422 67.2042 32.3114 67.1184 32.2347 67.0012C31.6483 66.1035 31.1701 65.1246 30.8814 64.0871C30.0018 60.9745 30.5206 57.6364 31.8919 54.7404L32.4693 55.3629C31.3912 55.8411 30.6288 56.9914 30.2319 58.083C30.1191 58.5386 29.3748 58.4845 29.3522 57.9838C28.5989 50.3512 35.045 44.9201 39.132 39.3626C40.174 37.9506 41.1303 36.4756 41.9017 34.9148C42.6866 33.345 43.2324 31.6443 43.9091 30.0204C46.9585 22.6224 50.9552 14.0516 58.6148 10.3436C65.2143 7.4476 72.5761 7.37993 79.6493 7.32129C86.7135 7.41151 94.1385 7.51977 100.607 10.7451C102.741 11.8999 104.595 13.4968 106.183 15.2876C110.924 20.6737 113.513 27.4852 116.107 34.0577C118.949 40.5986 124.926 45.1005 128.007 51.5286C129.035 53.7119 129.545 56.1929 129.319 58.6288C129.297 58.8769 129.076 59.0619 128.828 59.0393C128.647 59.0213 128.498 58.8995 128.444 58.7371C127.971 57.4831 127.181 55.9629 125.95 55.3764L126.527 54.7494C127.962 57.5913 128.607 61.1279 127.132 64.0826C126.649 65.0705 125.918 65.914 125.097 66.6177C124.754 66.9155 124.236 66.5546 124.375 66.1351C124.484 65.8148 124.56 65.4268 124.596 65.0615C124.714 64.0104 124.457 62.8691 123.694 62.1203L124.452 61.7053C124.691 62.8962 124.705 64.0645 124.587 65.2419C124.258 68.792 122.156 72.0309 119.192 73.9706C118.985 74.1104 118.705 74.0563 118.565 73.8488C118.484 73.727 118.466 73.5826 118.511 73.4518C118.858 72.288 119.116 70.8716 118.764 69.7122C118.764 69.7077 119.508 69.8882 119.508 69.8837C114.587 74.1239 108.596 76.8215 102.466 78.7928C101.591 79.0634 100.702 79.3025 99.8223 79.5596C99.5742 79.6273 99.4749 79.2664 99.7095 79.1898C100.58 78.9146 101.46 78.6529 102.326 78.3642C108.271 76.3073 114.176 73.4744 118.872 69.2431C119.089 68.9905 119.535 69.0988 119.616 69.419C120.058 70.8941 119.77 72.3151 119.368 73.736L118.687 73.2218C122.409 70.858 124.443 66.2298 123.568 61.9038C123.514 61.6557 123.672 61.4166 123.92 61.367C124.073 61.3354 124.222 61.3895 124.326 61.4888C124.966 62.1248 125.354 62.9909 125.467 63.857C125.575 64.7367 125.494 65.5712 125.223 66.4283L124.511 65.9321C125.251 65.296 125.896 64.5517 126.315 63.6811C127.655 61.0106 127.014 57.7357 125.715 55.1644C125.602 54.9434 125.688 54.6727 125.909 54.56C126.035 54.4968 126.18 54.4968 126.302 54.5509C127.145 54.9299 127.723 55.5975 128.187 56.2651C128.647 56.9553 129.004 57.6635 129.288 58.4484L128.413 58.5567C129.053 51.2309 122.968 45.9846 118.989 40.5444C117.568 38.6453 116.247 36.6334 115.277 34.4276C113.531 30.052 111.889 25.6583 109.516 21.5849C105.723 14.9899 101.32 10.7225 93.6242 9.33768C89.0366 8.41294 84.3227 8.23701 79.6448 8.2325C74.9579 8.22348 70.253 8.36332 65.6383 9.18882C61.001 9.96922 56.6886 11.7104 53.4858 15.2606C49.3538 19.749 47.1479 24.5576 44.7436 30.3677C44.0579 32.0187 43.5121 33.7239 42.7091 35.3253C40.3454 40.1565 36.2901 43.9457 33.2632 48.2537C31.2513 51.073 29.9161 54.4201 30.2499 57.9161L29.3703 57.8169C29.8755 56.441 30.7326 55.178 32.1084 54.5464C32.334 54.4472 32.6001 54.5464 32.6993 54.7765C32.758 54.9073 32.7445 55.0517 32.6858 55.1735C31.0032 58.683 30.71 63.1849 32.979 66.5095L32.1535 66.7576C32.1851 65.7922 32.352 64.8946 32.6407 63.9788C32.7715 63.4871 33.9353 60.7715 34.7157 61.4843C34.8285 61.597 34.8736 61.7549 34.8421 61.8993C33.9805 66.3426 36.5923 70.7137 39.9936 73.4383L39.3079 73.9976C38.5455 72.306 37.5396 70.416 37.9772 68.4943C38.0674 68.183 38.4734 68.0793 38.7034 68.3003C44.0715 73.1676 50.8379 76.3524 57.6765 78.6394C64.6098 80.8498 71.9311 81.8242 79.2027 81.9189C79.3561 81.9099 79.3606 82.1625 79.2027 82.158L79.2118 82.1489Z" fill="#7A3C04"/>
    <path d="M58.2498 18.3054C58.2498 18.3054 69.3017 14.9673 79.6047 14.9673C89.9077 14.9673 100.973 18.4904 100.973 18.4904C100.973 18.4904 91.6985 13.4426 79.6047 13.4426C66.5816 13.4426 58.2498 18.3099 58.2498 18.3099V18.3054Z" fill="#7A3C04"/>
    <path d="M51.0863 48.5287C51.0863 48.5287 46.5302 45.4252 42.502 45.4478C38.7263 45.4703 35.6634 48.5287 35.6634 48.5287C35.6634 48.5287 38.6316 46.986 42.7771 46.986C46.9227 46.986 51.0863 48.5287 51.0863 48.5287Z" fill="#7A3C04"/>
    <path d="M36.6149 61.9263C36.6149 61.9263 38.4147 58.5566 41.2115 57.4199C44.9737 55.8907 48.208 57.3342 48.208 57.3342C48.208 57.3342 44.6669 57.456 41.6671 58.7912C38.6673 60.1219 36.6149 61.9263 36.6149 61.9263Z" fill="#7A3C04"/>
    <path d="M109.412 48.1905C109.412 48.1905 112.047 45.105 116.165 45.0147C120.284 44.9245 123.238 48.0326 123.238 48.0326C123.238 48.0326 119.088 46.2553 116.26 46.5124C113.431 46.765 109.412 48.195 109.412 48.195V48.1905Z" fill="#7A3C04"/>
    <path d="M109.742 57.8484C109.742 57.8484 114.433 56.5583 117.843 57.8484C121.254 59.1385 122.368 61.7504 122.368 61.7504C122.368 61.7504 120.018 59.8829 116.932 58.931C114.072 58.0514 109.742 57.8529 109.742 57.8529V57.8484Z" fill="#7A3C04"/>
    <path d="M70.3114 36.1734C71.0602 41.0542 69.4543 45.2945 69.4543 45.2945C69.4543 45.2945 62.8051 36.5388 52.7232 43.7157C52.7232 43.7157 53.26 35.9388 50.3504 32.0504C50.3504 32.0504 55.6147 30.5843 60.7436 30.043C66.5763 29.4295 68.9175 30.7287 68.9175 30.7287C68.9175 30.7287 69.5129 30.9587 70.3114 36.1734Z" fill="#F47F2D"/>
    <path d="M106.45 43.3097C96.363 36.1328 89.8988 45.0103 89.8988 45.0103C89.8988 45.0103 88.2568 37.4815 89.5199 32.7089C89.8718 31.3917 90.4943 30.7286 90.4943 30.7286C90.4943 30.7286 93.9722 28.8025 99.0155 29.8806C104.059 30.9497 109.057 32.0503 109.057 32.0503C105.475 38.0725 106.45 43.3097 106.45 43.3097Z" fill="#F47F2D"/>
    <path d="M122.011 16.1581C120.617 20.9622 118.515 25.3424 116.972 28.9601C115.574 32.2396 114.64 34.892 115.109 36.6648C115.109 36.6648 113.309 33.8635 106.015 25.7168C98.7208 17.57 99.7312 15.1611 99.7312 15.1611C102.957 11.3945 105.122 13.1447 108.911 9.50441C112.344 6.20691 111.924 0.825343 112.989 0.491533C113.26 0.405825 114.148 0.784745 115.276 1.55161H115.28C118.601 3.79806 123.991 9.33299 122.015 16.1581H122.011Z" fill="#FD9A3F"/>
    <path d="M122.011 16.1581C120.617 20.9623 118.515 25.3424 116.972 28.9602C118.361 24.6748 116.963 20.0646 116.715 19.3158C117.879 23.335 114.32 27.3994 114.32 27.3994C114.613 25.8747 113.963 24.4718 113.386 23.5786C112.989 22.9651 112.624 22.5952 112.624 22.5952C112.624 22.5952 113.057 28.5362 110.706 27.9227C110.463 27.8595 110.188 27.7287 109.876 27.5122C106.105 24.8282 115.808 16.2438 116.873 9.8473C117.622 5.37243 115.862 2.41325 115.389 1.71405C115.344 1.64639 115.308 1.60579 115.29 1.57872C115.29 1.57872 115.285 1.57421 115.285 1.5697C115.312 1.58323 115.339 1.60128 115.371 1.62383L115.456 1.68699C118.785 3.99659 123.955 9.45484 122.011 16.1626V16.1581Z" fill="#FFBC9B"/>
    <path d="M122.011 16.1581C120.617 20.9622 118.515 25.3423 116.972 28.9601C118.361 24.6747 116.963 20.0645 116.715 19.3157C117.879 23.335 114.32 27.3993 114.32 27.3993C114.613 25.8746 113.963 24.4717 113.386 23.5786C112.642 20.8494 117.347 15.4949 118.235 10.1089C118.853 6.36027 116.047 2.40417 115.366 1.61926L115.452 1.68242C118.781 3.99202 123.951 9.45027 122.006 16.1581H122.011Z" fill="#FFDBC7"/>
    <path d="M110.693 27.9994C107.518 27.1333 109.218 23.493 110.292 21.5713C111.478 19.406 112.854 17.3851 114.072 15.2921C115.268 13.2035 116.544 11.1104 116.725 8.70607C116.986 6.34233 116.562 3.83875 115.308 1.77274C115.277 1.72312 115.29 1.65545 115.34 1.62839C115.385 1.60132 115.448 1.61486 115.48 1.65997C116.878 3.71696 117.451 6.27016 117.302 8.75569C117.144 12.5494 114.88 15.8018 112.841 18.8422C111.537 20.8405 109.945 22.8028 109.291 25.1124C108.939 26.3349 109.534 27.4626 110.734 27.8551C110.829 27.8776 110.788 28.0265 110.698 28.0039L110.693 27.9994Z" fill="#7A3C04"/>
    <path d="M99.6681 15.1071C100.268 14.3222 100.976 13.5959 101.82 13.0365C103.701 11.8637 105.965 11.5479 107.639 10.0728C110.607 7.86247 111.18 4.7048 111.969 1.29453C112.118 0.807344 112.339 0.0630369 113.034 0.00439453C114.017 0.0855916 114.847 0.69457 115.628 1.21333C119.309 3.69886 123.179 8.58873 122.868 13.659C122.764 15.3055 122.241 16.9565 121.695 18.4993C120.125 23.132 117.78 27.4445 116.002 31.9825C115.474 33.4666 114.893 35.068 115.204 36.6514C115.217 36.701 115.186 36.7551 115.132 36.7641C115.082 36.7731 115.032 36.7461 115.023 36.6965C114.608 35.0635 115.141 33.399 115.623 31.8472C117.604 26.1183 120.617 20.7322 121.885 14.7868C122.76 9.58114 118.804 4.49279 115.001 1.96666C114.437 1.59225 113.828 1.1998 113.205 0.996804C113.133 0.965227 113.016 0.97876 113.142 0.960716C112.808 1.51556 112.569 2.95907 112.375 3.68984C111.739 6.62196 110.165 9.52701 107.508 11.1464C105.866 12.3148 103.778 12.5133 102.063 13.438C101.224 13.8936 100.485 14.5297 99.7989 15.2243C99.7358 15.301 99.6049 15.1973 99.6726 15.1161L99.6681 15.1071Z" fill="#7A3C04"/>
    <path d="M113.31 1.70947C114.216 1.54257 116.955 5.30019 116.079 8.39019C115.204 11.4802 108.14 20.7412 108.145 24.4672C108.145 26.8445 107.987 28.0128 107.017 24.0838C106.047 20.1593 101.238 17.4437 101.744 15.6979C102.249 13.9522 106.146 13.5507 108.492 11.6245C114.582 6.62189 112.2 1.90795 113.314 1.70496L113.31 1.70947Z" fill="#FDA44B"/>
    <path d="M36.3208 16.1582C37.7146 20.9623 39.8167 25.3425 41.3595 28.9603C42.7579 32.2397 43.6916 34.8922 43.2225 36.665C43.2225 36.665 45.0224 33.8637 52.3166 25.7169C59.2544 17.9671 58.6003 15.1613 58.6003 15.1613C55.375 11.3946 53.2098 13.1449 49.4206 9.50453C45.9877 6.20703 46.4072 0.825465 45.3427 0.491655C45.072 0.405947 44.1833 0.784867 43.0556 1.55173H43.0511C39.731 3.79818 34.3404 9.33312 36.3162 16.1582H36.3208Z" fill="#FD9A3F"/>
    <path d="M36.321 16.1582C37.7148 20.9624 39.8169 25.3425 41.3597 28.9603C39.9703 24.6749 41.3687 20.0647 41.6168 19.3159C40.453 23.3352 44.0121 27.3995 44.0121 27.3995C43.7189 25.8748 44.3685 24.4719 44.9459 23.5788C45.3429 22.9653 45.7082 22.5954 45.7082 22.5954C45.7082 22.5954 45.2752 28.5363 47.6254 27.9228C47.869 27.8596 48.1442 27.7288 48.4554 27.5123C52.2266 24.8283 42.5235 16.2439 41.4589 9.84742C40.7101 5.37256 42.4694 2.41337 42.943 1.71417C42.9881 1.64651 43.0242 1.60591 43.0423 1.57885C43.0423 1.57885 43.0468 1.57434 43.0468 1.56982C43.0197 1.58336 42.9927 1.6014 42.9611 1.62396L42.8754 1.68711C39.5463 3.99672 34.3767 9.45497 36.321 16.1627V16.1582Z" fill="#FFBC9B"/>
    <path d="M36.3217 16.1582C37.7156 20.9623 39.8177 25.3425 41.3605 28.9603C39.9711 24.6749 41.3695 20.0647 41.6176 19.3158C40.4538 23.3351 44.0129 27.3995 44.0129 27.3995C43.7197 25.8748 44.3693 24.4719 44.9467 23.5787C45.691 20.8496 40.986 15.4951 40.0974 10.109C39.4794 6.36039 42.2852 2.40429 42.9664 1.61938L42.8806 1.68254C39.5516 3.99214 34.382 9.45039 36.3262 16.1582H36.3217Z" fill="#FFDBC7"/>
    <path d="M47.6032 27.8506C50.4541 26.8356 48.6136 23.6328 47.513 21.8781C46.2183 19.8121 44.7568 17.8453 43.4847 15.7522C42.2126 13.6366 41.1255 11.2593 41.0307 8.75121C40.8819 6.26567 41.4548 3.70796 42.8532 1.65548C42.8847 1.61037 42.9479 1.59684 42.9975 1.62842C43.0426 1.65999 43.0561 1.72315 43.0246 1.77277C41.766 3.84329 41.342 6.34236 41.6081 8.7061C41.7886 11.1104 43.0652 13.208 44.2606 15.2921C45.4785 17.3852 46.8544 19.4061 48.0407 21.5713C48.8392 23.2133 50.3368 25.6222 48.8753 27.3093C48.5234 27.6295 48.1174 27.9002 47.6393 27.9994C47.5987 28.0085 47.5581 27.9814 47.5491 27.9363C47.54 27.8957 47.5671 27.8596 47.6032 27.8461V27.8506Z" fill="#7A3C04"/>
    <path d="M58.5375 15.2154C57.8519 14.5207 57.1121 13.8892 56.273 13.4336C54.5544 12.5089 52.4703 12.3104 50.8283 11.142C48.1714 9.52713 46.5971 6.62207 45.961 3.68545C45.767 2.95918 45.528 1.51117 45.1942 0.956321C45.3205 0.974365 45.2032 0.960832 45.131 0.992409C44.504 1.1954 43.8995 1.58785 43.3356 1.96226C39.5329 4.4884 35.5768 9.57224 36.4519 14.7824C37.7195 20.7278 40.7328 26.1139 42.7131 31.8428C43.1913 33.3946 43.7281 35.0591 43.3131 36.6921C43.2996 36.7417 43.2499 36.7733 43.2003 36.7552C43.1507 36.7417 43.1236 36.6921 43.1327 36.6424C43.4439 35.0591 42.862 33.4577 42.3342 31.9736C40.5524 27.4356 38.2067 23.1231 36.6414 18.4904C36.0956 16.9522 35.5678 15.3011 35.4685 13.6501C35.252 8.49863 38.7435 3.97866 42.7808 1.14578C43.1327 0.924745 44.4498 0 45.3024 0C45.9926 0.0631533 46.2136 0.802949 46.367 1.29013C46.976 3.81175 47.4496 6.61305 49.1638 8.60689C50.4043 10.0459 51.9967 11.1375 53.7965 11.7826C54.6987 12.1345 55.6641 12.4728 56.5166 13.0321C57.3602 13.5915 58.0729 14.3178 58.6684 15.1027C58.727 15.1839 58.6142 15.2876 58.5421 15.2109L58.5375 15.2154Z" fill="#7A3C04"/>
    <path d="M45.0228 1.70959C44.1161 1.54269 41.3779 5.30031 42.253 8.39031C43.1282 11.4803 50.1923 20.7413 50.1878 24.4673C50.1878 26.8446 50.3457 28.0129 51.3155 24.0839C52.2854 20.1549 57.0941 17.4438 56.5888 15.698C56.0836 13.9523 52.1861 13.5508 49.8404 11.6247C43.7507 6.62202 46.1324 1.90807 45.0182 1.70508L45.0228 1.70959Z" fill="#FDA44B"/>
    <path d="M106.45 43.3096C106.242 44.1352 101.276 46.1019 96.9227 46.1155C92.6644 46.129 89.5383 45.0373 89.3624 44.09C89.209 43.2465 91.2119 36.3357 96.9588 35.9839C102.715 35.6275 106.666 42.4887 106.454 43.3096H106.45Z" fill="#FBFBFB"/>
    <path d="M97.4679 46.2508C100.251 46.2508 102.507 43.9949 102.507 41.2121C102.507 38.4293 100.251 36.1733 97.4679 36.1733C94.6851 36.1733 92.4291 38.4293 92.4291 41.2121C92.4291 43.9949 94.6851 46.2508 97.4679 46.2508Z" fill="#FFBE2C" stroke="#E5A413" stroke-width="0.86" stroke-miterlimit="10"/>
    <path d="M97.7086 45.0904C98.3377 45.0517 98.7409 43.2847 98.6092 41.1437C98.4775 39.0027 97.8608 37.2985 97.2316 37.3372C96.6025 37.3759 96.1993 39.1428 96.331 41.2838C96.4627 43.4248 97.0795 45.1291 97.7086 45.0904Z" fill="#350803"/>
    <path d="M98.893 43.3096C99.1745 43.3096 99.4027 43.0814 99.4027 42.7999C99.4027 42.5184 99.1745 42.2902 98.893 42.2902C98.6115 42.2902 98.3832 42.5184 98.3832 42.7999C98.3832 43.0814 98.6115 43.3096 98.893 43.3096Z" fill="#FBFBFB"/>
    <path d="M106.45 43.3097C106.662 42.4887 103.04 39.5836 97.2795 39.9355C91.5235 40.2919 89.2004 43.2601 89.3582 44.0856C89.3582 44.0856 89.0335 35.1043 96.5036 34.581C105.503 33.9495 106.45 43.3052 106.45 43.3052V43.3097Z" fill="#F47F2D"/>
    <path opacity="0.1" d="M106.45 43.3096C106.45 43.3096 102.579 41.1128 97.3648 41.1624C92.1456 41.212 89.4661 43.8735 89.3578 44.0855C89.2044 43.2465 91.5321 40.2918 97.2836 39.9399C103.04 39.5836 106.666 42.4886 106.45 43.3096Z" fill="black"/>
    <path d="M89.3349 44.0946C89.398 42.5202 91.4776 41.2572 92.7587 40.6437C96.8321 38.9386 102.624 38.9025 105.976 42.1188C106.26 42.4616 106.625 42.827 106.531 43.3277C106.517 43.3728 106.472 43.3954 106.431 43.3864C106.382 43.3728 106.368 43.3277 106.368 43.2871C106.125 42.5879 105.254 42.2225 104.645 41.8571C101.077 40.0482 96.7419 39.8272 92.9662 41.1354C91.852 41.5684 90.7378 42.1413 89.9258 43.0435C89.6732 43.3458 89.3935 43.6796 89.3845 44.081V44.0901C89.3845 44.1171 89.3394 44.1216 89.3394 44.0901L89.3349 44.0946Z" fill="#350803"/>
    <path d="M89.357 44.0857C89.357 44.0857 93.038 44.6496 97.4677 44.5413C102.182 44.424 105.357 43.991 106.449 43.3098L107.414 44.7127C107.414 44.7127 102.642 48.9124 97.2241 48.9124C90.3179 48.9124 89.3525 44.0857 89.3525 44.0857H89.357Z" fill="#FD9A3F"/>
    <path d="M106.517 43.4044C105.331 44.3382 103.797 44.6134 102.353 44.8525C100.901 45.0645 99.4394 45.1412 97.9824 45.1592C95.8036 45.1727 93.6068 45.1863 91.4415 44.848C90.7107 44.7126 89.9619 44.5547 89.2853 44.2074C89.2492 44.1894 89.2311 44.1578 89.2266 44.1172C89.2086 43.9548 89.4477 43.9142 89.4883 44.0721L89.4071 43.9728C90.7874 44.3157 92.2354 44.266 93.6519 44.2841C97.22 44.2164 100.856 44.4645 104.388 43.8826C105.087 43.7563 105.777 43.5714 106.382 43.2195C106.495 43.1473 106.63 43.3233 106.517 43.409V43.4044Z" fill="#7A3C04"/>
    <path d="M52.8317 43.3095C53.0392 44.135 58.0058 46.1018 62.3589 46.1153C66.6172 46.1289 69.7433 45.0372 69.9192 44.0899C70.0726 43.2464 68.0697 36.3356 62.3228 35.9837C56.5668 35.6274 52.6152 42.4885 52.8272 43.3095H52.8317Z" fill="#FBFBFB"/>
    <path d="M61.812 46.2509C64.5948 46.2509 66.8507 43.995 66.8507 41.2122C66.8507 38.4294 64.5948 36.1735 61.812 36.1735C59.0291 36.1735 56.7732 38.4294 56.7732 41.2122C56.7732 43.995 59.0291 46.2509 61.812 46.2509Z" fill="#FFBE2C" stroke="#E5A413" stroke-width="0.86" stroke-miterlimit="10"/>
    <path d="M62.9463 41.2849C63.078 39.1439 62.6747 37.3769 62.0456 37.3382C61.4165 37.2995 60.7997 39.0038 60.668 41.1448C60.5363 43.2857 60.9396 45.0527 61.5687 45.0914C62.1978 45.1301 62.8146 43.4259 62.9463 41.2849Z" fill="#350803"/>
    <path d="M60.386 43.3098C60.6675 43.3098 60.8957 43.0815 60.8957 42.8C60.8957 42.5185 60.6675 42.2903 60.386 42.2903C60.1045 42.2903 59.8763 42.5185 59.8763 42.8C59.8763 43.0815 60.1045 43.3098 60.386 43.3098Z" fill="#FBFBFB"/>
    <path d="M52.8315 43.3097C52.6194 42.4887 56.2417 39.5836 62.0022 39.9355C67.7582 40.2918 70.0813 43.26 69.9235 44.0856C69.9235 44.0856 68.931 34.8607 62.0699 34.5494C53.887 34.1795 52.8315 43.3052 52.8315 43.3052V43.3097Z" fill="#F47F2D"/>
    <path opacity="0.1" d="M52.8318 43.3096C52.8318 43.3096 56.7022 41.1128 61.9169 41.1624C67.136 41.212 69.8155 43.8735 69.9238 44.0855C70.0772 43.2465 67.7495 40.2918 61.9981 39.9399C56.2421 39.5836 52.6153 42.4886 52.8318 43.3096Z" fill="black"/>
    <path d="M69.9004 44.0855C69.8914 43.684 69.6117 43.3457 69.3591 43.048C68.5472 42.1458 67.4329 41.5774 66.3187 41.1399C62.5431 39.8317 58.2081 40.0527 54.6399 41.8616C54.0625 42.2044 53.0881 42.633 52.9122 43.3141C52.9122 43.3592 52.8716 43.3953 52.8265 43.3953C52.7904 43.3953 52.7588 43.3683 52.7498 43.3367C52.6551 42.8315 53.0205 42.4661 53.3047 42.1278C56.6518 38.9114 62.4484 38.943 66.5217 40.6527C67.8029 41.2617 69.8914 42.5383 69.9456 44.1036C69.9365 44.1351 69.8959 44.1261 69.9004 44.0945V44.0855Z" fill="#350803"/>
    <path d="M69.9231 44.0856C69.9231 44.0856 66.2422 44.6494 61.8125 44.5412C57.0985 44.4239 53.9228 43.9908 52.8312 43.3097L51.8658 44.7126C51.8658 44.7126 56.6384 48.9123 62.056 48.9123C68.9623 48.9123 69.9277 44.0856 69.9277 44.0856H69.9231Z" fill="#FD9A3F"/>
    <path d="M52.9029 43.215C54.1389 43.9007 55.614 44.0044 57.0079 44.1353C58.4334 44.2435 59.8678 44.2616 61.3023 44.2661C64.1578 44.1668 67.0673 44.5367 69.8731 43.9639L69.7919 44.0631C69.8641 43.833 70.1889 44.0541 69.9949 44.1984C67.2748 45.3622 64.1893 45.1006 61.2978 45.1547C59.8408 45.1412 58.3792 45.06 56.9267 44.848C55.4832 44.6089 53.9495 44.3383 52.7631 43.4C52.6593 43.3098 52.7811 43.1338 52.9029 43.2105V43.215Z" fill="#7A3C04"/>
    <path d="M90.309 27.6116C90.8549 27.7875 95.0185 28.1619 99.8542 29.0731C104.519 29.9482 108.136 31.5181 108.691 31.9195C108.908 32.0729 108.912 31.9105 108.79 31.7932C108.213 31.2248 105.367 29.1408 100.021 27.7875C95.6004 26.6778 91.7345 25.9606 90.7917 26.4838C90.5391 26.6237 89.7812 27.4447 90.3045 27.6116H90.309Z" fill="#FDA44B"/>
    <path d="M90.489 30.7332C91.337 30.8866 95.3157 30.9633 100.088 31.4956C104.753 32.0143 107.166 31.9827 108.745 32.2218C108.997 32.2579 109.232 32.3075 109.052 32.0594C109.002 31.9873 108.916 31.9015 108.785 31.7933C108.185 31.3106 105.213 29.8085 99.8447 28.5454C95.4059 27.5079 91.1115 26.8087 90.2138 27.4041C90.0649 27.5034 89.9837 27.9635 89.9747 28.5138C89.9521 29.4656 90.1281 30.6746 90.4844 30.7377L90.489 30.7332Z" fill="#541108"/>
    <path d="M89.9843 28.5092C90.1783 28.4415 95.1629 28.6039 100.012 29.4339C104.69 30.2324 108.082 31.3285 108.75 31.8428C108.867 31.9375 108.921 31.8924 108.79 31.7886C108.191 31.306 105.218 29.8038 99.8498 28.5408C95.411 27.5032 91.1166 26.804 90.2189 27.3995C90.07 27.4987 89.9888 27.9588 89.9798 28.5092H89.9843Z" fill="#884227"/>
    <path d="M69.0988 27.6116C68.553 27.7875 64.3894 28.1619 59.5537 29.0731C54.8893 29.9482 51.2716 31.5181 50.7167 31.9195C50.5002 32.0729 50.4957 31.9105 50.6175 31.7932C51.1949 31.2248 54.0413 29.1408 59.3868 27.7875C63.8075 26.6778 67.6734 25.9606 68.6162 26.4838C68.8688 26.6237 69.6266 27.4447 69.1033 27.6116H69.0988Z" fill="#FDA44B"/>
    <path d="M68.9186 30.7332C68.0705 30.8866 64.0918 30.9633 59.3193 31.4956C54.6549 32.0143 52.2416 31.9827 50.6627 32.2218C50.4101 32.2579 50.1756 32.3075 50.356 32.0594C50.4056 31.9873 50.4913 31.9015 50.6221 31.7933C51.2221 31.3106 54.1948 29.8085 59.5628 28.5454C64.0016 27.5079 68.296 26.8087 69.1937 27.4041C69.3426 27.5034 69.4238 27.9635 69.4328 28.5138C69.4554 29.4656 69.2794 30.6746 68.9231 30.7377L68.9186 30.7332Z" fill="#541108"/>
    <path d="M69.4229 28.5092C69.2289 28.4415 64.2443 28.6039 59.3951 29.4339C54.7172 30.2324 51.325 31.3285 50.6573 31.8428C50.5401 31.9375 50.4859 31.8924 50.6167 31.7886C51.2167 31.306 54.1894 29.8038 59.5574 28.5408C63.9962 27.5032 68.2906 26.804 69.1883 27.3995C69.3372 27.4987 69.4184 27.9588 69.4274 28.5092H69.4229Z" fill="#884227"/>
    <path d="M79.8425 77.62C61.6543 77.62 50.2597 70.0957 53.3497 60.1581C55.8172 52.2278 63.6707 53.7796 79.8425 53.7796C96.0142 53.7796 103.958 51.8263 106.335 60.1581C109.146 70.0055 97.5795 77.62 79.8425 77.62Z" fill="#FDEFD4"/>
    <path d="M92.3559 73.6052C92.3559 73.6052 86.636 82.6631 79.8064 82.6631C71.795 82.6631 67.3336 73.6052 67.3336 73.6052C67.3336 73.6052 68.0734 65.3682 79.6846 65.3682C91.2958 65.3682 92.3559 73.6052 92.3559 73.6052Z" fill="#FDEFD4"/>
    <path d="M92.4235 73.6503C87.8178 81.1926 80.2214 86.7862 72.1468 80.1009C70.0627 78.3146 68.4027 76.0952 67.2524 73.6458C67.2344 73.6007 67.2524 73.551 67.293 73.533C67.3336 73.515 67.3832 73.533 67.4058 73.5736C68.0915 74.7149 68.8718 75.8065 69.747 76.8034C74.5015 82.397 80.7808 84.3232 86.7938 79.3386C88.8779 77.6921 90.6913 75.6937 92.2792 73.5691C92.3288 73.4834 92.4776 73.5691 92.419 73.6548L92.4235 73.6503Z" fill="#89543B"/>
    <path d="M79.6989 71.3544C85.1165 71.3544 88.9012 79.3388 79.8072 79.3388C70.8349 79.3388 73.5414 71.3544 79.6989 71.3544Z" fill="#FFF7E9"/>
    <path d="M83.6641 63.7984C82.9739 66.0674 88.2652 68.5304 92.104 66.3787C95.4196 64.5201 97.9051 59.3055 95.6136 57.5146C93.1822 55.611 84.7061 60.3746 83.6641 63.8029V63.7984Z" fill="#FFF7E9"/>
    <path d="M75.8373 63.7984C76.5275 66.0674 71.2361 68.5304 67.3973 66.3787C64.0818 64.5201 61.5962 59.3055 63.8878 57.5146C66.3192 55.611 74.7953 60.3746 75.8373 63.8029V63.7984Z" fill="#FFF7E9"/>
    <path d="M88.8602 69.6445C88.8602 69.6445 86.1176 69.6535 84.3673 68.7829C83.1042 68.1559 79.6895 65.6298 79.6895 65.6298H79.6804C79.6804 65.6298 77.5242 67.804 75.4266 68.6792C73.0944 69.6535 70.5052 69.6445 70.5052 69.6445C76.1438 71.1512 78.9316 67.0778 79.6579 67.1094C80.3841 67.1409 84.1147 71.4759 88.8557 69.6445H88.8602Z" fill="#F7E1BC"/>
    <path d="M88.8607 69.7167C85.3377 70.1678 81.7424 68.4987 79.4058 65.8914L79.69 66.0132C79.69 66.0132 79.6854 66.0132 79.6809 66.0132L79.9651 65.8914C78.7607 67.2176 77.2811 68.2055 75.6527 68.9092C74.0422 69.6039 72.2469 69.9287 70.5102 69.7122C70.4741 69.7122 70.447 69.6761 70.447 69.6355C70.447 69.5994 70.4786 69.5768 70.5147 69.5723L71.1507 69.5047C71.4981 69.4866 72.0484 69.3558 72.4003 69.2972C75.0392 68.6656 77.4074 67.1545 79.4013 65.3591C79.4734 65.2824 79.5817 65.2283 79.6854 65.2373C79.7802 65.2373 79.8704 65.2689 79.9381 65.3275C80.2538 65.5982 80.5831 65.8824 80.9305 66.144C82.8882 67.6732 85.1302 68.9588 87.6022 69.3964C87.751 69.4325 88.0758 69.4866 88.2292 69.4956C88.4412 69.5182 88.6577 69.5453 88.8697 69.5723C88.9103 69.5768 88.9374 69.6129 88.9284 69.649C88.9284 69.6806 88.8968 69.7077 88.8652 69.7077L88.8607 69.7167Z" fill="#89543B"/>
    <path d="M72.9359 71.6294C75.5974 67.4162 83.6134 67.1275 86.1169 71.6294C86.1666 71.7287 86.0177 71.8144 85.9591 71.7151C83.2525 68.5304 77.8574 68.4853 74.4652 70.5739C73.9509 70.8896 73.4727 71.2821 73.0668 71.7242C73.0081 71.7963 72.8818 71.7061 72.9359 71.6249V71.6294Z" fill="#89543B"/>
    <path d="M69.6765 27.2958C69.6765 27.2958 70.3125 32.5691 70.3125 38.077C70.3125 44.4059 67.9713 50.4009 67.9713 50.4009C67.9713 50.4009 71.1064 54.2984 79.6817 54.7044C88.2571 55.1103 91.6989 51.0866 91.6989 51.0866C91.6989 51.0866 88.9563 43.3593 88.9337 38.077C88.9111 32.7947 89.4344 27.1379 89.4344 27.1379L69.6765 27.3003V27.2958Z" fill="#FD9A3F"/>
    <path d="M79.3392 47.5095C74.3681 47.5095 71.1022 48.6282 70.5023 48.3079C69.555 47.7982 71.1022 41.0859 71.824 37.5042C72.0946 36.1645 77.3409 35.6953 79.3392 35.6953C81.3376 35.6953 86.5567 36.169 86.8545 37.5042C87.6664 41.1536 88.9791 47.6358 88.1762 48.3079C87.6213 48.768 84.5945 47.5095 79.3392 47.5095Z" fill="#FDA44B"/>
    <path d="M70.0912 33.3044C70.7543 36.3764 70.5603 39.5521 70.0912 42.6421C69.6355 45.7501 68.995 48.7995 67.98 51.7858C67.777 52.3451 66.929 52.0519 67.132 51.479C68.7108 47.162 69.7213 42.5519 70.0866 37.9597C70.1588 36.426 70.0551 34.8787 69.8025 33.3585C69.7664 33.1736 70.0641 33.1104 70.1002 33.3044H70.0912Z" fill="#7A3C04"/>
    <path d="M89.4565 33.3586C88.9016 36.417 89.1948 39.516 89.7587 42.5474C90.3 45.5697 91.0443 48.6146 92.127 51.4791C92.33 52.0294 91.509 52.3542 91.2834 51.7994C90.2639 48.8041 89.6234 45.7547 89.1633 42.6421C88.6896 39.5566 88.4956 36.3764 89.1633 33.3045C89.1994 33.1195 89.4926 33.1646 89.4565 33.3586Z" fill="#7A3C04"/>
    <path d="M73.2082 40.4136C73.2082 40.4136 75.7028 39.1596 79.6859 39.2137C81.5535 39.2362 83.7458 39.552 86.1637 40.4136C86.1637 40.4136 84.4315 38.1266 79.6859 38.0769C74.9404 38.0273 73.2082 40.4136 73.2082 40.4136Z" fill="#7A3C04"/>
    <path d="M72.5316 31.0715C72.5316 31.0715 75.7434 29.84 79.6814 29.8851C83.624 29.9302 86.6824 31.0715 86.6824 31.0715C86.6824 31.0715 83.624 28.4687 79.6093 28.5138C75.5945 28.5589 72.5361 31.0715 72.5361 31.0715H72.5316Z" fill="#7A3C04"/>
    <path d="M92.3566 52.7239C92.3566 55.3538 82.6446 61.5158 79.8433 61.5158C76.5954 61.5158 67.3299 55.2591 67.3299 52.7239C67.3299 47.9198 77.5698 49.8099 79.8433 49.8099C82.1168 49.8099 92.3566 48.0371 92.3566 52.7239Z" fill="#541108"/>
    <path d="M87.8049 57.298C86.5915 58.1415 84.2412 59.7474 83.127 60.3429C85.0713 58.4077 83.7947 56.1928 86.4065 55.4304C87.9267 54.9884 88.5582 56.5672 87.8049 57.298Z" fill="#350803"/>
    <path d="M71.7061 57.298C72.9196 58.1415 75.2698 59.7474 76.384 60.3429C74.4398 58.4077 75.7164 56.1928 73.1045 55.4304C71.5843 54.9884 70.9528 56.5672 71.7061 57.298Z" fill="#350803"/>
    <path d="M92.3566 52.7239C90.462 49.228 82.3333 51.2444 79.8433 51.2444C77.3532 51.2444 69.1929 49.1242 67.3299 52.7239C67.3299 47.9198 77.5698 49.8099 79.8433 49.8099C82.1168 49.8099 92.3566 48.0371 92.3566 52.7239Z" fill="#884227"/>
    <path d="M92.3566 52.7239C92.3566 55.3538 82.6446 61.5158 79.8433 61.5158C76.5954 61.5158 67.3299 55.2591 67.3299 52.7239C67.3299 47.9198 77.5698 49.8099 79.8433 49.8099C82.1168 49.8099 92.3566 48.0371 92.3566 52.7239Z" stroke="#350803" stroke-width="1.28" stroke-linecap="round" stroke-linejoin="round"/>
    <path d="M79.8431 51.2445C79.9062 51.6054 82.6804 50.7708 87.0425 50.9287C89.068 51.0009 91.3731 52.0971 91.5219 51.7633C91.6708 51.4294 89.9025 50.5363 86.9839 50.41C84.2909 50.2972 79.7844 50.9197 79.8431 51.24V51.2445Z" fill="#C1755D"/>
    <path d="M145.875 153.765C147.309 153.765 149.366 155.695 152.344 153.783C154.527 152.38 153.507 148.676 154.446 147.67C155.84 146.182 160.423 129.523 154.874 116.346C149.98 104.722 132.279 75.3013 130.032 69.0446C127.849 62.9548 124.254 52.8774 118.006 55.381C109.462 58.8048 113.378 68.9138 114.42 71.8189C117.253 79.6995 114.167 100.978 114.091 107.776C113.991 116.716 117.925 130.588 124.728 139.452C131.467 148.234 140.669 153.765 145.87 153.76L145.875 153.765Z" fill="#FD9A3F"/>
    <path d="M113.017 67.2087C113.45 69.198 114.091 70.8987 114.425 71.8279C117.258 79.7085 114.172 100.987 114.095 107.785C113.996 116.725 117.93 130.597 124.732 139.461C131.472 148.243 139.916 153.756 145.875 153.769C147.31 153.769 149.367 155.7 152.344 153.787C154.527 152.384 153.508 148.681 154.446 147.675C155.84 146.186 160.423 129.527 154.874 116.351C149.98 104.726 132.243 75.3194 130.033 69.0492C129.347 67.1004 128.521 64.7277 127.493 62.4948" stroke="#7A3C04" stroke-width="2" stroke-linecap="round" stroke-linejoin="round"/>
    <path d="M127.227 77.7191C131.792 76.1629 140.693 93.8007 144.017 102.845C147.342 111.89 153.995 132.153 144.739 135.243C136.736 137.913 128.815 125.057 126.375 109.621C123.934 94.1841 123.226 79.0814 127.223 77.7191H127.227Z" fill="#FDA44B"/>
    <path d="M115.633 82.149C115.633 82.149 119.95 81.9325 123.51 83.4707C123.51 83.4707 116.951 84.3774 115.588 85.5683L115.633 82.149Z" fill="#7A3C04"/>
    <path d="M131.864 73.0593C131.864 73.0593 128.607 74.6021 126.614 76.2035C126.614 76.2035 132.392 75.4862 133.425 76.0681L131.864 73.0593Z" fill="#7A3C04"/>
    <path d="M142.095 91.8521C142.095 91.8521 137.44 92.7227 130.385 96.9043C130.385 96.9043 141.824 94.9375 144.567 96.3224L142.095 91.8521Z" fill="#7A3C04"/>
    <path d="M114.024 108.236C114.024 108.236 119.545 108.191 127.57 110C127.57 110 118.187 111.127 114.493 113.5L114.024 108.236Z" fill="#7A3C04"/>
    <path d="M118.813 129.018C118.813 129.018 121.799 128.183 127.172 128.44C127.172 128.44 122.489 130.899 120.748 133.132L118.813 129.018Z" fill="#7A3C04"/>
    <path d="M154.875 116.346C154.875 116.346 149.2 117.686 141.902 122.517C141.902 122.517 151.618 120.469 156.58 121.872L154.875 116.346Z" fill="#7A3C04"/>
    <path d="M156.2 142.735C156.2 142.735 152.97 142.659 148.044 144.012C148.044 144.012 153.511 144.923 155.19 146.633L156.2 142.735Z" fill="#7A3C04"/>
    <path d="M122.562 71.9541C117.185 73.1766 109.589 66.7259 108.79 61.1324C108.416 58.507 110.306 48.213 112.286 43.1607C114.524 37.4544 117.113 37.1476 121.177 38.0769C128.837 39.8226 127.037 50.4008 127.542 55.4801C128.201 62.1428 129.297 70.4204 122.562 71.9541Z" fill="#FD9A3F"/>
    <path d="M113.924 69.2657C111.069 67.7049 108.488 63.9112 108.276 60.6272C108.254 58.2319 108.669 55.8727 109.075 53.527C109.598 50.6625 110.248 47.8296 111.105 45.0328C111.777 42.9353 112.562 40.752 114.046 39.0378C115.647 37.0981 118.219 36.9086 120.51 37.4319C121.981 37.6935 123.523 38.2574 124.638 39.3175C129.004 43.648 127.367 50.7121 128.03 56.2335C128.283 59.116 128.698 62.0797 128.03 64.9442C128.016 65.0073 127.949 65.0479 127.886 65.0299C127.831 65.0164 127.795 64.9667 127.795 64.9171C127.723 62.0346 127.516 59.1972 127.2 56.3147C126.501 51.1407 128.048 44.0089 123.993 40.0212C122.969 39.0784 121.692 38.6408 120.321 38.3972C118.259 37.9687 116.189 38.0679 114.804 39.7144C113.433 41.2978 112.706 43.3277 112.057 45.3261C111.209 48.0597 110.555 50.87 110.027 53.6984C109.621 56.1343 109.106 58.6108 109.255 61.0783C109.517 62.7925 110.342 64.3577 111.376 65.7652C112.215 66.8974 113.171 67.9214 114.109 69.0311C114.222 69.1439 114.064 69.3469 113.924 69.2612V69.2657Z" fill="#7A3C04"/>
    <path d="M112.522 46.6342C114.926 44.5276 119.608 36.462 120.132 31.8879C120.321 30.2459 110.519 26.4657 110.835 21.7789C111.078 18.1701 113.383 17.3446 113.943 17.3401C114.502 17.3356 127.773 25.1305 128.576 27.6837C129.266 29.867 127.399 42.218 126.997 44.5682C126.596 46.9229 122.274 60.2347 115.558 56.5538C108.841 52.8728 111.2 47.789 112.517 46.6342H112.522Z" fill="#FD9A3F"/>
    <path d="M112.522 46.6342C114.926 44.5276 119.608 36.462 120.132 31.8879C120.321 30.2459 110.519 26.4657 110.835 21.7789C111.078 18.1701 113.383 17.3446 113.943 17.3401C114.502 17.3356 127.773 25.1305 128.576 27.6837C129.266 29.867 127.178 43.4585 127.051 45.6012" stroke="#7A3C04" stroke-width="2" stroke-linecap="round" stroke-linejoin="round"/>
    <path d="M101.641 18.098C102.71 22.636 112.986 25.6719 114.118 28.7845C114.723 30.449 114.763 32.9887 114.506 35.6456C114.506 35.6637 114.502 35.6817 114.502 35.6997C114.091 39.9491 112.927 44.5006 112.12 46.2869C111.403 47.8883 111.38 53.4954 119.017 54.0413C126.659 54.5871 126.262 39.7596 125.648 37.4455C125.035 35.1404 121.994 22.4421 120.307 20.34C119.053 18.7702 103.72 12.4187 103.215 12.6533C103.093 12.7074 102.89 12.8518 102.669 13.0818H102.665C101.948 13.8081 101 15.423 101.632 18.098H101.641Z" fill="#FD9A3F"/>
    <path d="M101.64 18.098C102.709 22.636 112.985 25.6719 114.117 28.7844C114.722 30.449 114.762 32.9886 114.505 35.6456C114.731 33.6156 119.778 28.5183 117.645 24.9321C115.651 21.5804 100.896 19.2798 102.673 13.0863H102.668C101.951 13.8126 101.004 15.4275 101.635 18.1025L101.64 18.098Z" fill="#F47F2D"/>
    <path d="M113.252 40.7835C113.838 37.901 114.262 34.9328 114.172 31.9917C114.113 30.9361 114.009 29.8354 113.631 28.8656C113.188 27.9589 112.264 27.3499 111.425 26.7499C109.566 25.5004 107.595 24.4584 105.714 23.2043C102.985 21.4225 100.499 19.2573 101.018 15.6259C101.194 14.3268 101.812 12.969 102.989 12.2608C103.111 12.1751 103.454 12.1976 103.485 12.2202C106.625 13.1675 109.584 14.5478 112.575 15.8154C114.632 16.7311 116.689 17.6649 118.678 18.7385C119.405 19.1715 120.036 19.4287 120.663 20.0963C121.529 21.3819 121.976 22.9021 122.476 24.3456C123.397 27.2056 124.2 30.0926 124.917 33.0066C125.264 34.4637 125.566 35.9342 125.815 37.4093C125.833 37.4995 125.769 37.5898 125.679 37.6078C125.598 37.6213 125.517 37.5717 125.49 37.495C124.502 34.6531 123.776 31.7616 122.968 28.8881C122.35 26.7454 121.723 24.5982 120.92 22.5232C120.654 21.8736 120.383 21.206 119.982 20.6331C119.576 20.2091 118.814 19.8166 118.259 19.5054C116.296 18.4543 114.253 17.5386 112.214 16.6364C109.399 15.4049 105.917 13.9614 103.35 13.1179C102.114 13.9388 101.618 16.1718 102.064 17.8183C102.552 19.9249 104.532 21.197 106.246 22.3969C108.727 24.102 111.596 25.2884 113.788 27.4311C114.939 28.5859 115.011 30.4354 115.115 31.9601C115.191 35.0095 114.745 38.0093 114.131 40.973C114 41.5368 113.134 41.3835 113.247 40.788L113.252 40.7835Z" fill="#7A3C04"/>
    <path d="M101.695 21.982C102.769 26.5155 112.594 28.2612 113.731 31.3783C114.475 33.4263 114.231 36.7057 113.627 39.9085C112.955 43.4721 111.84 46.923 111.146 48.4613C110.429 50.0581 110.406 55.6698 118.048 56.2111C125.685 56.7614 125.874 42.3489 125.261 40.0438C124.647 37.7342 121.187 25.7306 119.658 24.0345C117.863 22.0496 103.784 16.3072 103.279 16.5418C102.994 16.6726 102.264 17.268 101.826 18.3913V18.4003C101.488 19.2709 101.334 20.4528 101.695 21.982Z" fill="#FD9A3F"/>
    <path d="M101.694 21.982C102.768 26.5155 112.593 28.2612 113.73 31.3783C114.474 33.4262 114.23 36.7057 113.626 39.9085C113.626 39.9085 120.325 31.6128 117.654 27.3771C114.708 22.6992 101.83 23.3127 101.83 18.4048C101.491 19.2754 101.338 20.4573 101.699 21.9865L101.694 21.982Z" fill="#F47F2D"/>
    <path d="M112.693 42.1143C113.288 39.4212 114.916 32.2082 112.377 30.3948C108.285 27.2146 99.6379 25.8072 101.226 18.8919C101.492 17.8318 102.141 16.6229 103.17 16.1402C103.671 16.0681 104.162 16.3387 104.582 16.4515C108.601 17.913 112.481 19.6001 116.297 21.5038C117.704 22.3112 119.405 22.9021 120.316 24.3321C121.566 26.6868 122.337 29.3032 123.181 31.8158C124.02 34.5178 124.917 37.2019 125.427 39.9986C125.445 40.0889 125.382 40.1791 125.292 40.1971C125.21 40.2107 125.129 40.1656 125.102 40.0889C124.119 37.4364 123.388 34.7118 122.504 32.0368C121.665 29.5738 120.898 27.0206 119.671 24.7156C119.265 24.0073 118.534 23.6329 117.794 23.1818C115.968 22.1398 114.05 21.2602 112.133 20.3986C109.246 19.1671 106.328 17.8228 103.328 16.9567C103.359 16.9657 103.4 16.9567 103.432 16.9432C103.481 16.9116 103.441 16.9387 103.436 16.9432L103.405 16.9612C102.155 17.8679 101.785 19.5731 101.979 21.0481C102.11 23.1457 103.806 24.4629 105.534 25.514C107.956 27.0161 110.658 27.9003 112.968 29.6866C114.276 30.6204 114.556 32.3345 114.628 33.8141C114.75 36.7057 114.217 39.534 113.572 42.3263C113.428 42.8902 112.566 42.7052 112.697 42.1143H112.693Z" fill="#7A3C04"/>
    <path d="M110.388 52.2504C111.471 49.3724 113.627 39.7505 111.859 35.6862C110.587 32.7631 103.735 32.6774 102.44 28.3874C101.434 25.0539 103.166 23.3216 103.64 23.069C104.114 22.8164 116.041 26.3079 117.66 27.9589C119.203 29.5242 122.726 41.1534 123.452 43.3322C124.178 45.511 124.85 59.3641 117.48 59.292C110.104 59.2198 109.797 53.8337 110.393 52.2549L110.388 52.2504Z" fill="#FD9A3F"/>
    <path d="M110.464 47.4507C111.899 44.0089 112.824 39.1912 111.322 35.6681C110.031 33.8953 107.677 33.4803 105.8 32.4157C104.641 31.8113 103.445 31.0579 102.652 29.8761C101.546 28.1303 101.307 25.726 102.336 23.881C102.602 23.4254 102.949 22.9743 103.418 22.6901C103.518 22.6315 103.707 22.6089 103.833 22.6225C106.558 23.0826 109.116 23.9757 111.723 24.8148C112.946 25.2343 114.163 25.6719 115.363 26.1861C116.288 26.6237 117.272 26.9575 117.998 27.7514C118.201 28.0266 118.386 28.3198 118.548 28.6356C119.725 30.9812 120.528 33.4217 121.39 35.8756C122.206 38.3206 123.077 40.752 123.614 43.2781C123.636 43.3773 123.573 43.4721 123.474 43.4946C123.388 43.5127 123.303 43.4676 123.271 43.3909C122.216 41.0226 121.525 38.5461 120.664 36.1282C119.811 33.7374 118.981 31.2699 117.84 29.019L117.619 28.613L117.375 28.2657C116.78 27.6477 115.842 27.3138 115.043 26.9439C113.875 26.4477 112.666 26.0192 111.457 25.6132C108.931 24.8103 106.332 23.9306 103.73 23.4976C103.739 23.4976 103.761 23.4976 103.775 23.4976C103.82 23.4931 103.878 23.4389 103.82 23.484C103.071 24.0705 102.697 25.0403 102.606 25.9831C102.385 28.6626 103.851 30.4805 106.229 31.5992C111.137 33.9043 113.085 33.9855 112.995 40.1655C112.918 42.8044 112.35 45.4118 111.29 47.8342C111.042 48.3619 110.23 48.0236 110.469 47.4643L110.464 47.4507Z" fill="#7A3C04"/>
    <path d="M103.35 24.8733C102.548 27.0566 112.174 29.9932 113.793 31.7525C115.413 33.5118 119.067 44.3426 120.826 44.2343C122.585 44.126 118.376 30.2368 116.374 28.6354C114.371 27.034 104.023 23.0464 103.35 24.8688V24.8733Z" fill="#FDA44B"/>
    <path d="M12.5802 153.765C11.1458 153.765 9.08876 155.695 6.11154 153.783C3.92824 152.38 4.94771 148.676 4.00943 147.67C2.61555 146.182 -1.96758 129.523 3.58089 116.346C8.47527 104.722 26.1762 75.3013 28.4227 69.0446C30.606 62.9548 34.2012 52.8774 40.4489 55.381C48.9926 58.8048 45.0771 68.9138 44.0351 71.8189C41.2022 79.6995 44.2877 100.978 44.3644 107.776C44.4636 116.716 40.5301 130.588 33.7276 139.452C26.9882 148.234 17.7859 153.765 12.5848 153.76L12.5802 153.765Z" fill="#FD9A3F"/>
    <path d="M45.438 67.2087C45.005 69.198 44.3644 70.8987 44.0306 71.8279C41.1977 79.7085 44.2832 100.987 44.3599 107.785C44.4591 116.725 40.5256 130.597 33.7231 139.461C26.9837 148.243 18.5392 153.756 12.5802 153.769C11.1458 153.769 9.08876 155.7 6.11154 153.787C3.92824 152.384 4.94771 148.681 4.00943 147.675C2.61555 146.186 -1.96758 129.527 3.58089 116.351C8.47527 104.726 26.2123 75.3194 28.4227 69.0492C29.1084 67.1004 29.9339 64.7277 30.9624 62.4948" stroke="#7A3C04" stroke-width="2" stroke-linecap="round" stroke-linejoin="round"/>
    <path d="M30.679 77.7191C26.1139 76.1629 17.2138 93.8007 13.8893 102.845C10.5647 111.89 3.91103 132.153 13.1675 135.243C21.1699 137.913 29.0912 125.057 31.5316 109.621C33.972 94.1841 34.6802 79.0814 30.6835 77.7191H30.679Z" fill="#FDA44B"/>
    <path d="M42.8223 82.149C42.8223 82.149 38.5054 81.9325 34.9462 83.4707C34.9462 83.4707 41.5051 84.3774 42.8675 85.5683L42.8223 82.149Z" fill="#7A3C04"/>
    <path d="M26.5952 73.0593C26.5952 73.0593 29.8521 74.6021 31.846 76.2035C31.846 76.2035 26.0675 75.4862 25.0345 76.0681L26.5952 73.0593Z" fill="#7A3C04"/>
    <path d="M16.3648 91.8521C16.3648 91.8521 21.0201 92.7227 28.0752 96.9043C28.0752 96.9043 16.6354 94.9375 13.8928 96.3224L16.3648 91.8521Z" fill="#7A3C04"/>
    <path d="M44.4327 108.236C44.4327 108.236 38.9113 108.191 30.8864 110C30.8864 110 40.2691 111.127 43.9636 113.5L44.4327 108.236Z" fill="#7A3C04"/>
    <path d="M39.6416 129.018C39.6416 129.018 36.6554 128.183 31.2828 128.44C31.2828 128.44 35.9652 130.899 37.7064 133.132L39.6416 129.018Z" fill="#7A3C04"/>
    <path d="M3.58044 116.346C3.58044 116.346 9.25522 117.686 16.5539 122.517C16.5539 122.517 6.83735 120.469 1.87531 121.872L3.58044 116.346Z" fill="#7A3C04"/>
    <path d="M2.25415 142.735C2.25415 142.735 5.48399 142.659 10.4099 144.012C10.4099 144.012 4.94268 144.923 3.2646 146.633L2.25415 142.735Z" fill="#7A3C04"/>
    <path d="M35.8945 71.9541C41.2716 73.1766 48.868 66.7259 49.6664 61.1324C50.0409 58.507 48.1508 48.213 46.1705 43.1607C43.933 37.4544 41.3437 37.1476 37.2794 38.0769C29.6198 39.8226 31.4196 50.4008 30.9144 55.4801C30.2558 62.1428 29.1597 70.4204 35.8945 71.9541Z" fill="#FD9A3F"/>
    <path d="M44.3522 69.0401C46.5761 66.6267 49.0662 64.0104 49.3008 60.5911C49.3008 58.277 48.8812 55.9719 48.4752 53.6893C47.943 50.8655 47.2798 48.0506 46.4228 45.3215C45.7687 43.3231 45.0379 41.2932 43.6576 39.7144C42.2682 38.0769 40.1931 37.9822 38.1362 38.4197C36.7693 38.6678 35.4972 39.1054 34.4778 40.0482C31.3833 43.0615 31.6494 47.9153 31.5276 51.9481C31.5862 54.8486 31.1081 57.7447 30.9547 60.6271C30.8735 62.0752 30.9277 63.4736 30.6841 64.9216C30.6705 65.0028 30.5938 65.0614 30.5126 65.0479C30.4585 65.0389 30.4134 65.0028 30.3954 64.9532C29.836 63.5322 29.9217 62.0301 29.9894 60.5775C30.0661 59.116 30.2059 57.668 30.3502 56.229C31.0269 50.6986 29.4075 43.6254 33.7966 39.2994C34.9198 38.2393 36.4671 37.6754 37.9422 37.4183C40.2383 36.8996 42.805 37.0935 44.4064 39.0423C45.886 40.7564 46.6618 42.9397 47.3295 45.0373C48.182 47.8341 48.8226 50.6715 49.3368 53.5359C49.7338 55.8771 50.1443 58.2363 50.1172 60.6271C49.8962 63.9247 47.3114 67.6011 44.5237 69.2611C44.3883 69.3378 44.2395 69.1574 44.3477 69.0446L44.3522 69.0401Z" fill="#7A3C04"/>
    <path d="M45.9347 46.6342C43.5304 44.5276 38.848 36.462 38.3247 31.8879C38.1353 30.2459 47.9376 26.4657 47.6218 21.7789C47.3782 18.1701 45.0731 17.3446 44.5138 17.3401C43.9544 17.3356 30.6832 25.1305 29.8803 27.6837C29.1901 29.867 31.0576 42.218 31.4591 44.5682C31.8606 46.9229 36.182 60.2347 42.8988 56.5538C49.6157 52.8728 47.2564 47.789 45.9392 46.6342H45.9347Z" fill="#FD9A3F"/>
    <path d="M45.935 46.6342C43.5306 44.5276 38.8483 36.462 38.325 31.8879C38.1355 30.2459 47.9378 26.4657 47.6221 21.7789C47.3785 18.1701 45.0734 17.3446 44.514 17.3401C43.9547 17.3356 30.6834 25.1305 29.8805 27.6837C29.1903 29.867 31.2789 43.4585 31.4052 45.6012" stroke="#7A3C04" stroke-width="2" stroke-linecap="round" stroke-linejoin="round"/>
    <path d="M56.8157 18.0979C55.7466 22.6359 45.4706 25.6718 44.3384 28.7843C43.7339 30.4489 43.6933 32.9885 43.9505 35.6455C43.9505 35.6635 43.955 35.6816 43.955 35.6996C44.3655 39.9489 45.5293 44.5005 46.3367 46.2868C47.054 47.8882 47.0765 53.4953 39.4395 54.0411C31.798 54.587 32.1949 39.7595 32.8084 37.4454C33.4219 35.1403 36.4623 22.4419 38.1494 20.3398C39.4034 18.77 54.7361 12.4186 55.2414 12.6532C55.3632 12.7073 55.5662 12.8517 55.7872 13.0817H55.7917C56.5089 13.808 57.4562 15.4229 56.8247 18.0979H56.8157Z" fill="#FD9A3F"/>
    <path d="M56.815 18.0978C55.7459 22.6359 45.4699 25.6717 44.3377 28.7843C43.7332 30.4488 43.6926 32.9885 43.9497 35.6454C43.7242 33.6155 38.6764 28.5181 40.8101 24.9319C42.804 21.5803 57.5593 19.2797 55.782 13.0862H55.7865C56.5037 13.8124 57.451 15.4274 56.8195 18.1024L56.815 18.0978Z" fill="#F47F2D"/>
    <path d="M44.3252 40.9685C43.6937 37.6845 42.2592 30.0429 44.6951 27.4491C47.6768 24.3005 55.3545 22.1127 56.4552 17.8228C56.9108 16.1763 56.4281 13.8757 55.1244 13.0367C52.3773 13.9118 49.0843 15.3102 46.2108 16.5462C44.1673 17.4439 42.1239 18.3596 40.1526 19.4106C39.5752 19.7354 38.8264 20.1098 38.3933 20.5609C37.9873 21.1428 37.7077 21.8195 37.437 22.4781C36.6295 24.5576 35.998 26.7048 35.3755 28.8475C34.541 31.7165 33.8779 34.6306 32.908 37.4725C32.89 37.5311 32.8268 37.5627 32.7682 37.5401C32.714 37.5221 32.687 37.468 32.696 37.4138C33.2102 34.4592 34.0042 31.5722 34.7936 28.6806C35.4071 26.5154 36.0296 24.3456 36.8325 22.2345C37.1122 21.5263 37.428 20.7774 37.87 20.1459C38.4655 19.5054 39.1196 19.2302 39.8233 18.8107C41.8081 17.7371 43.8606 16.8033 45.9131 15.8831C48.6602 14.6786 51.4029 13.4968 54.2538 12.4863C54.6192 12.3961 54.8447 12.2382 55.2643 12.2653C55.359 12.2698 55.4402 12.3194 55.5169 12.3645C57.3032 13.578 57.6957 16.0184 57.2491 17.9897C56.1439 22.6811 48.5069 24.8599 45.3447 28.0581C44.8214 28.5679 44.65 29.1407 44.5057 29.8354C44.0816 31.9826 44.2395 34.2111 44.4786 36.3898C44.6455 37.8604 44.9026 39.3265 45.2048 40.779C45.3221 41.3429 44.4515 41.5549 44.3207 40.9639L44.3252 40.9685Z" fill="#7A3C04"/>
    <path d="M56.7602 21.9819C55.6866 26.5154 45.8618 28.2611 44.725 31.3782C43.9807 33.4261 44.2243 36.7056 44.8288 39.9084C45.5009 43.472 46.6151 46.9229 47.3098 48.4611C48.027 50.058 48.0496 55.6696 40.408 56.2109C32.771 56.7613 32.5815 42.3488 33.195 40.0437C33.8085 37.7341 37.2684 25.7305 38.7976 24.0343C40.593 22.0495 54.6717 16.3071 55.1769 16.5416C55.4611 16.6725 56.1918 17.2679 56.6294 18.3911V18.4002C56.9677 19.2708 57.1211 20.4526 56.7602 21.9819Z" fill="#FD9A3F"/>
    <path d="M56.7594 21.9817C55.6858 26.5152 45.861 28.261 44.7242 31.378C43.9799 33.426 44.2235 36.7055 44.828 39.9082C44.828 39.9082 38.1292 31.6126 40.7997 27.3768C43.7453 22.699 56.6241 23.3125 56.6241 18.4045C56.9624 19.2752 57.1158 20.457 56.7549 21.9862L56.7594 21.9817Z" fill="#F47F2D"/>
    <path d="M44.8872 42.3217C44.1835 39.0964 42.934 33.4983 44.6888 30.5256C47.3908 27.2506 54.8655 26.2041 56.318 22.0179C56.7465 20.4752 56.6563 18.6257 55.5692 17.3762C55.4429 17.2093 55.1316 16.9476 55.0369 16.907C55.0639 16.9206 55.1 16.9251 55.1271 16.9206L55.082 16.9296C52.0957 17.8002 49.1862 19.1264 46.3082 20.3579C44.3865 21.2195 42.4649 22.0991 40.6379 23.1412C39.8936 23.5923 39.1538 23.9712 38.7433 24.6884C38.3373 25.3831 37.9675 26.2943 37.6607 27.0431C36.5149 29.9933 35.5586 33.0247 34.6384 36.0515C34.2234 37.4003 33.8174 38.7491 33.3212 40.0753C33.2941 40.1429 33.2174 40.179 33.1498 40.1565C33.0866 40.1339 33.055 40.0708 33.064 40.0076C33.5783 37.2153 34.494 34.5358 35.324 31.8293C36.1631 29.3167 36.9344 26.7003 38.1795 24.3501C38.6531 23.502 39.5147 23.0329 40.3041 22.5547C42.1536 21.4857 44.0843 20.588 46.0195 19.7038C48.9697 18.4317 51.8612 17.0604 54.9692 16.1627C55.1 16.1221 55.3075 16.1627 55.3978 16.2169C57.0172 17.2318 57.545 19.3565 57.3194 21.1473C56.9585 25.0854 52.619 26.6507 49.6237 28.2882C48.1081 29.1046 46.4886 29.7723 45.406 31.0624C44.8827 31.8563 44.8106 32.9119 44.7339 33.8682C44.6617 35.235 44.7835 36.6244 44.973 38.0048C45.1624 39.3851 45.4421 40.7609 45.7669 42.1187C45.8977 42.6826 45.0361 42.9127 44.8872 42.3262V42.3217Z" fill="#7A3C04"/>
    <path d="M48.0722 52.2504C46.9896 49.3724 44.8334 39.7505 46.6017 35.6862C47.8737 32.7631 54.7259 32.6774 56.0205 28.3874C57.0265 25.0539 55.2943 23.3216 54.8206 23.069C54.347 22.8164 42.42 26.3079 40.8006 27.9589C39.2578 29.5242 35.7348 41.1534 35.0085 43.3322C34.2822 45.511 33.6101 59.3641 40.981 59.292C48.3564 59.2198 48.6632 53.8337 48.0677 52.2549L48.0722 52.2504Z" fill="#FD9A3F"/>
    <path d="M47.1696 47.8206C45.6584 44.1848 44.9096 40.0663 45.9336 36.1868C46.2539 34.7885 47.5215 33.8051 48.7394 33.2277C50.9363 32.0864 53.6067 31.4278 55.0728 29.3753C56.1419 27.7153 56.3088 25.1215 54.8743 23.6238C54.7976 23.5472 54.7164 23.4795 54.6307 23.4254C54.6217 23.4209 54.6713 23.4569 54.6939 23.4569C54.7074 23.4569 54.7255 23.4569 54.7345 23.4569H54.7164C52.1136 23.8945 49.5198 24.7696 46.9937 25.5681C45.7802 25.9741 44.5713 26.4026 43.403 26.8988C42.5955 27.2687 41.6527 27.607 41.0528 28.2295C40.8859 28.4506 40.7099 28.7393 40.5791 28.9874C38.8875 32.4112 37.7462 36.1372 36.5102 39.755C36.1088 40.9775 35.7208 42.1999 35.1615 43.3773C35.1254 43.454 35.0306 43.4901 34.954 43.4495C34.8863 43.4179 34.8547 43.3457 34.8682 43.2781C35.1118 42.006 35.4998 40.779 35.9013 39.5565C37.1373 35.8711 38.2424 32.1631 39.9521 28.6536L40.1912 28.2115L40.4934 27.7739C41.2152 26.989 42.1985 26.6552 43.1098 26.2222C44.3097 25.7079 45.5231 25.2703 46.7501 24.8508C49.38 24.0118 51.9648 23.0825 54.7119 22.654C54.8427 22.6495 55.0096 22.6946 55.0999 22.7668C56.6742 23.9306 56.99 26.15 56.5749 27.9453C55.9028 31.5406 51.9467 32.6412 49.1544 34.0441C48.0763 34.59 47.0929 35.2531 46.7997 36.4665C45.8479 40.0618 46.5787 44.0675 47.9906 47.4597C48.2297 47.9875 47.4222 48.3799 47.1696 47.8296V47.8206Z" fill="#7A3C04"/>
    <path d="M55.1043 24.8734C55.9073 27.0567 46.2809 29.9933 44.6615 31.7526C43.042 33.5119 39.3882 44.3427 37.6289 44.2344C35.8696 44.1261 40.0783 30.2369 42.0812 28.6355C44.0841 27.0342 54.4322 23.0465 55.1043 24.8689V24.8734Z" fill="#FDA44B"/>
  </g>
  <defs>
    <clipPath id="clip0_1_293">
      <rect width="157.545" height="186" fill="white" transform="translate(0.455078)"/>
    </clipPath>
  </defs>
</svg>