<svg xmlns="http://www.w3.org/2000/svg" width="77" height="23" viewBox="0 0 77 23" fill="none">
  <g clip-path="url(#clip0_1_2304)">
    <path d="M73.2201 19.9544C74.7107 19.9544 75.7666 19.6846 76.5533 19.1035V16.4676C75.7459 17.028 74.7728 17.3808 73.4064 17.3808C71.1084 17.3808 70.156 15.5959 70.156 12.7733C70.156 9.80535 71.3154 8.29025 73.4271 8.29025C74.6693 8.29025 75.8908 8.7261 76.5326 9.1412V6.40158C75.8494 6.02799 74.6693 5.75818 73.0545 5.75818C68.9346 5.75818 66.8021 8.7261 66.8021 12.877C66.8228 17.4223 68.9138 19.9544 73.2201 19.9544ZM53.076 18.7506V16.1148C52.0823 16.7997 50.3846 17.4016 48.8319 17.4016C46.4717 17.4016 45.5815 16.2808 45.4366 13.9978H53.2209V12.2959C53.2209 7.54308 51.1299 5.75818 47.9209 5.75818C43.9874 5.75818 42.1241 8.76761 42.1241 12.8978C42.1241 17.6506 44.4635 19.9544 48.5627 19.9544C50.6123 19.9544 52.1237 19.394 53.076 18.7506ZM23.5327 6.00724V11.4035H19.2265V6.00724H15.9968V19.6846H19.2265V13.977H23.5327V19.6846H26.7624V6.00724H23.5327ZM41.3167 17.111H39.8882V6.00724H30.489V7.1695C30.489 10.511 30.2819 14.828 29.1433 17.111H28.1081V22.7978H31.0894V19.6846H38.3147V22.7978H41.296V17.111H41.3167ZM63.3654 19.6846H67.0299L61.8541 12.3167L66.4088 6.00724H63.1584L58.6037 12.3167V6.00724H55.3741V19.6846H58.6037V12.9601L63.3654 19.6846ZM47.8381 8.29025C49.4323 8.29025 49.9291 9.61856 49.9291 11.3412V11.611H45.4366C45.5194 9.43176 46.3061 8.29025 47.8381 8.29025ZM36.6585 17.111H32.1038C32.994 15.0563 33.2425 11.3204 33.2425 8.95441V8.53931H36.6585V17.111Z" fill="black"/>
    <path d="M13.3054 19.6846H10.0136V3.35068H8.54368C5.85228 3.35068 4.44447 4.69974 4.44447 6.71295C4.44447 8.99597 5.41751 10.0545 7.42571 11.4035L9.08196 12.5243L4.32025 19.6846H0.780029L5.06556 13.2922C2.6019 11.528 1.21479 9.8054 1.21479 6.89974C1.21479 3.26766 3.74057 0.797852 8.52297 0.797852H13.2847V19.6846H13.3054Z" fill="#FC3F1D"/>
  </g>
  <defs>
    <clipPath id="clip0_1_2304">
      <rect width="75.7778" height="22" fill="white" transform="translate(0.777771 0.797852)"/>
    </clipPath>
  </defs>
</svg>