<svg width="30" height="31" viewBox="0 0 30 31" fill="none" xmlns="http://www.w3.org/2000/svg">
<g id="youtube">
<circle id="Ellipse 68" cx="14.9999" cy="15.5384" r="14.5987" stroke="#D7B27B" stroke-width="0.802618"/>
<path id="Vector" d="M20.5314 13.3409C20.3985 12.8465 20.0087 12.4569 19.5145 12.3238C18.6116 12.0767 14.9998 12.0767 14.9998 12.0767C14.9998 12.0767 11.3882 12.0767 10.4853 12.3144C10.0005 12.4474 9.60129 12.8466 9.46833 13.3409C9.23071 14.2437 9.23071 16.1161 9.23071 16.1161C9.23071 16.1161 9.23071 17.9979 9.46833 18.8914C9.60143 19.3856 9.99102 19.7753 10.4853 19.9084C11.3977 20.1555 15 20.1555 15 20.1555C15 20.1555 18.6116 20.1555 19.5145 19.9178C20.0088 19.7848 20.3985 19.3951 20.5316 18.9009C20.7691 17.9979 20.7691 16.1256 20.7691 16.1256C20.7691 16.1256 20.7786 14.2437 20.5314 13.3409ZM13.8499 17.8459V14.3863L16.8533 16.1161L13.8499 17.8459Z" fill="#D7B27B"/>
</g>
</svg>
